# Blender v2.77 (sub 0) OBJ File: 'nthdimensional.blend'
# www.blender.org
mtllib CelingLight.mtl
o Cube.009
v 1.000000 3.000000 1.000000
v -1.000000 3.000000 1.000000
v 1.000000 3.000000 -1.000000
v -1.000000 3.000000 -1.000000
v 0.500000 3.000000 0.500000
v -0.500000 3.000000 0.500000
v 0.500000 3.000000 -0.500000
v -0.500000 3.000000 -0.500000
v 0.500000 2.950000 0.500000
v -0.500000 2.950000 0.500000
v 0.500000 2.950000 -0.500000
v -0.500000 2.950000 -0.500000
v 0.400000 2.950000 0.400000
v -0.400000 2.950000 0.400000
v 0.400000 2.950000 -0.400000
v -0.400000 2.950000 -0.400000
v 0.320000 2.850000 0.320000
v -0.320000 2.850000 0.320000
v 0.320000 2.850000 -0.320000
v -0.320000 2.850000 -0.320000
vt 0.034220 0.712574
vt 0.047389 0.961869
vt 0.034220 0.977701
vt 0.028019 0.490633
vt 0.435895 0.128835
vt 0.086903 0.003216
vt 0.912758 0.007474
vt 0.652677 0.310561
vt 0.999884 0.458110
vt 0.366509 0.350866
vt 0.684097 0.082361
vt 0.050051 0.725742
vt 0.258359 0.754001
vt 0.075647 0.753562
vt 0.299347 0.977702
vt 0.286178 0.728406
vt 0.299347 0.712575
vt 0.283516 0.964533
vt 0.746035 0.755979
vt 0.780432 0.935842
vt 0.749803 0.969438
vt 0.075208 0.936274
vt 0.257920 0.936714
vt 0.929018 0.789576
vt 0.929286 0.938512
vt 0.963416 0.969438
vt 0.959647 0.755979
vt 0.780164 0.786906
vn -1.000000 0.000000 0.000000
vn 0.000000 -1.000000 0.000000
vn 1.000000 0.000000 0.000000
vn 0.000000 0.000000 -1.000000
vn 0.000000 0.000000 1.000000
vn -0.780900 -0.624700 0.000000
vn 0.780900 -0.624700 0.000000
vn 0.000000 -0.624700 -0.780900
vn 0.000000 -0.624700 0.780900
usemtl Material.003
s off
f 8/1/1 10/2/1 6/3/1
f 4/4/2 6/5/2 2/6/2
f 1/7/2 7/8/2 3/9/2
f 3/9/2 8/10/2 4/4/2
f 2/6/2 5/11/2 1/7/2
f 12/12/2 15/13/2 16/14/2
f 5/15/3 11/16/3 7/17/3
f 7/17/4 12/12/4 8/1/4
f 6/3/5 9/18/5 5/15/5
f 16/19/6 18/20/6 14/21/6
f 9/18/2 14/22/2 13/23/2
f 10/2/2 16/14/2 14/22/2
f 11/16/2 13/23/2 15/13/2
f 18/20/2 19/24/2 17/25/2
f 13/26/7 19/24/7 15/27/7
f 15/27/8 20/28/8 16/19/8
f 14/21/9 17/25/9 13/26/9
f 8/1/1 12/12/1 10/2/1
f 4/4/2 8/10/2 6/5/2
f 1/7/2 5/11/2 7/8/2
f 3/9/2 7/8/2 8/10/2
f 2/6/2 6/5/2 5/11/2
f 12/12/2 11/16/2 15/13/2
f 5/15/3 9/18/3 11/16/3
f 7/17/4 11/16/4 12/12/4
f 6/3/5 10/2/5 9/18/5
f 16/19/6 20/28/6 18/20/6
f 9/18/2 10/2/2 14/22/2
f 10/2/2 12/12/2 16/14/2
f 11/16/2 9/18/2 13/23/2
f 18/20/2 20/28/2 19/24/2
f 13/26/7 17/25/7 19/24/7
f 15/27/8 19/24/8 20/28/8
f 14/21/9 18/20/9 17/25/9
