# Blender v2.77 (sub 0) OBJ File: ''
# www.blender.org
mtllib ClonePanel.mtl
o vr_controller_lowpoly_vr_controller_lowpoly_mesh.001
v 0.089556 -0.050982 -0.025254
v 0.057265 -0.033169 -0.016034
v 0.053944 -0.050982 -0.025254
v 0.069912 0.000097 0.007436
v 0.094969 -0.014055 -0.002655
v 0.096912 0.000097 0.007436
v 0.050394 -0.014055 -0.002655
v 0.036559 0.000907 0.006850
v 0.069912 0.000907 0.006850
v 0.050394 -0.013245 -0.003241
v 0.036559 0.000097 0.007436
v 0.094969 -0.013245 -0.003241
v 0.078132 0.002097 0.017436
v 0.071262 0.002097 0.017436
v 0.057265 -0.032359 -0.016620
v 0.091638 -0.032359 -0.016620
v 0.071262 0.002907 0.016850
v 0.078132 0.002907 0.016850
v 0.089556 -0.050172 -0.025840
v 0.053944 -0.050172 -0.025840
v 0.095562 0.002097 0.022436
v 0.095562 0.002097 0.017436
v 0.096912 0.000907 0.006850
v 0.095562 0.002907 0.016850
v 0.095562 0.002907 0.021850
v 0.091638 -0.033169 -0.016034
v 0.078132 0.002907 0.021850
v 0.078132 0.002097 0.022436
vt 0.931679 0.668842
vt 0.673353 0.526338
vt 0.646785 0.668842
vt 0.774528 0.260210
vt 0.974983 0.373426
vt 0.990529 0.260210
vt 0.618385 0.373426
vt 0.009499 0.253666
vt 0.276322 0.253666
vt 0.120179 0.366882
vt 0.507705 0.260210
vt 0.476777 0.366882
vt 0.764708 0.201436
vt 0.830472 0.121436
vt 0.775509 0.121436
vt 0.980709 0.201436
vt 0.175147 0.519793
vt 0.450128 0.519793
vt 0.276322 0.206124
vt 0.287123 0.126124
vt 0.342086 0.126124
vt 0.433473 0.662297
vt 0.148579 0.662298
vt 0.969908 0.081436
vt 0.969908 0.121436
vt 0.492323 0.206124
vt 0.481523 0.126124
vt 0.481523 0.086124
vt 0.259765 0.045028
vt 0.103193 0.056902
vt 0.262478 0.037502
vt 0.148579 0.668780
vt 0.433473 0.668780
vt 0.585422 0.050108
vt 0.449114 0.039718
vt 0.588134 0.042582
vt 0.481523 0.244148
vt 0.342086 0.237666
vt 0.342086 0.244148
vt 0.585422 0.050108
vt 0.449114 0.039718
vt 0.446401 0.047244
vt 0.643732 0.107169
vt 0.668990 0.132683
vt 0.666279 0.140209
vt 0.259765 0.045028
vt 0.103193 0.056902
vt 0.100481 0.064428
vt 0.643732 0.107169
vt 0.668990 0.132683
vt 0.646444 0.099643
vt 0.507705 0.253728
vt 0.262478 0.037502
vt 0.342086 0.244148
vt 0.287123 0.237666
vt 0.287123 0.244148
vt 0.646444 0.099643
vt 0.446401 0.047244
vt 0.585422 0.050108
vt 0.646444 0.099643
vt 0.588134 0.042582
vt 0.948334 0.526338
vt 0.492323 0.253666
vt 0.830472 0.081436
vt 0.342086 0.086124
vt 0.100481 0.064428
vt 0.481523 0.237666
vt 0.588134 0.042582
vt 0.666279 0.140209
vt 0.774528 0.253728
vt 0.342086 0.237666
vt 0.643732 0.107169
vn 0.000000 -0.459700 0.888100
vn 0.000000 -0.580600 0.814200
vn 0.000000 -0.573400 0.819200
vn 0.000000 0.580600 -0.814200
vn 0.000000 -0.980600 0.196100
vn 0.000000 0.573400 -0.819200
vn 0.000000 0.980600 -0.196100
vn 0.000000 0.459700 -0.888100
vn 0.000000 -1.000000 -0.000000
vn 0.000000 1.000000 0.000000
vn 0.993300 -0.067700 -0.093500
vn 0.000000 -0.586100 -0.810200
vn 0.993100 -0.068700 -0.094900
vn 0.000000 0.586100 0.810200
vn -0.765700 -0.377000 -0.521100
vn 1.000000 0.000000 0.000000
vn -0.983200 0.106900 0.147700
vn -1.000000 0.000000 0.000000
vn -0.954700 -0.174400 -0.241100
vn 0.000000 0.585900 0.810400
vn 0.989600 0.084400 0.116700
vn 0.988800 -0.087600 -0.121100
vn -0.989600 0.084400 0.116700
usemtl vr_controller_lowpoly
s off
f 1/1/1 2/2/1 3/3/1
f 4/4/2 5/5/2 6/6/2
f 2/2/3 5/5/3 7/7/3
f 8/8/4 9/9/4 10/10/4
f 11/11/2 7/7/2 4/4/2
f 9/9/4 12/12/4 10/10/4
f 4/13/5 13/14/5 14/15/5
f 6/16/5 13/14/5 4/13/5
f 15/17/6 12/12/6 16/18/6
f 9/19/7 17/20/7 18/21/7
f 15/17/8 19/22/8 20/23/8
f 21/24/9 13/14/9 22/25/9
f 23/26/7 18/21/7 24/27/7
f 18/21/10 25/28/10 24/27/10
f 26/29/11 19/30/11 16/31/11
f 3/32/12 19/22/12 1/33/12
f 6/34/13 12/35/13 23/36/13
f 21/37/14 27/38/14 28/39/14
f 11/40/15 10/41/15 7/42/15
f 22/43/16 25/44/16 21/45/16
f 2/46/17 20/47/17 3/48/17
f 13/49/18 27/50/18 18/51/18
f 4/4/14 8/52/14 11/11/14
f 7/42/19 15/53/19 2/46/19
f 13/54/20 17/55/20 14/56/20
f 6/34/21 24/57/21 22/43/21
f 5/58/22 16/31/22 12/35/22
f 4/59/23 17/60/23 9/61/23
f 1/1/1 26/62/1 2/2/1
f 4/4/2 7/7/2 5/5/2
f 2/2/3 26/62/3 5/5/3
f 9/9/4 23/63/4 12/12/4
f 6/16/5 22/25/5 13/14/5
f 15/17/6 10/10/6 12/12/6
f 15/17/8 16/18/8 19/22/8
f 21/24/9 28/64/9 13/14/9
f 23/26/7 9/19/7 18/21/7
f 18/21/10 27/65/10 25/28/10
f 26/29/11 1/66/11 19/30/11
f 3/32/12 20/23/12 19/22/12
f 6/34/13 5/58/13 12/35/13
f 21/37/14 25/67/14 27/38/14
f 11/40/15 8/68/15 10/41/15
f 22/43/16 24/57/16 25/44/16
f 2/46/17 15/53/17 20/47/17
f 13/49/18 28/69/18 27/50/18
f 4/4/14 9/70/14 8/52/14
f 7/42/19 10/41/19 15/53/19
f 13/54/14 18/71/14 17/55/14
f 6/34/21 23/36/21 24/57/21
f 5/58/22 26/29/22 16/31/22
f 4/59/23 14/72/23 17/60/23
