# Blender v2.77 (sub 0) OBJ File: 'nthdimensional.blend'
# www.blender.org
mtllib Cornner.mtl
o Cube.001
v -0.900000 3.000000 -0.900000
v -0.900000 0.300000 -0.900000
v 1.000000 3.000000 -0.900000
v 1.000000 0.300000 -0.900000
v -0.900000 3.000000 1.000000
v -0.900000 0.300000 1.000000
v -0.800000 0.300000 -0.800000
v 1.000000 0.300000 -0.800000
v -0.800000 0.300000 1.000000
v -0.800000 0.000000 -0.800000
v 1.000000 -0.000000 -0.800000
v -0.800000 0.000000 1.000000
vt 0.468739 0.000132
vt 0.937347 0.666048
vt 0.468739 0.666048
vt 0.000132 0.000132
vt 0.870333 0.912543
vt 0.460339 0.887305
vt 0.462185 0.862457
vt 0.115050 0.882768
vt 0.122352 0.896880
vt 0.860775 0.926144
vt 0.454261 0.957921
vt 0.142095 0.937802
vt 0.937347 0.000132
vt 0.000132 0.666048
vt 0.828126 0.974132
vn 0.000000 -0.000000 1.000000
vn 1.000000 0.000000 -0.000000
vn 0.000000 1.000000 0.000000
usemtl Material
s off
f 2/1/1 3/2/1 1/3/1
f 1/3/2 6/4/2 2/1/2
f 6/5/3 7/6/3 2/7/3
f 4/8/3 7/6/3 8/9/3
f 9/10/2 10/11/2 7/6/2
f 7/6/1 11/12/1 8/9/1
f 2/1/1 4/13/1 3/2/1
f 1/3/2 5/14/2 6/4/2
f 6/5/3 9/10/3 7/6/3
f 4/8/3 2/7/3 7/6/3
f 9/10/2 12/15/2 10/11/2
f 7/6/1 10/11/1 11/12/1
