# This file uses centimeters as units for non-parametric coordinates.

g default
v -5.167429 -1.499998 -0.500000
v -6.500000 -1.499998 -0.500000
v -5.167429 -1.500002 1.584909
v -6.500000 -1.500002 1.584909
v -6.500000 -1.499998 -9.915961
v 6.500000 -1.499998 -9.915961
v 1.230026 -1.499998 -9.915961
v -1.268593 -1.499998 -9.915961
v 1.230026 -1.499998 -3.513716
v -1.268593 -1.499998 -3.513716
v -6.500000 -1.499998 -3.513716
v 6.500000 -1.499998 -3.513716
vt 0.691172 0.474746
vt 0.821424 0.302822
vt 0.821424 0.474746
vt 0.000144 0.791174
vt 0.499856 0.000144
vt 0.499857 0.791174
vt 0.500144 0.785385
vt 0.999856 0.000144
vt 0.999856 0.785385
vt 0.691172 0.302822
vt 0.000144 0.000144
vt 0.500144 0.000144
vn 0.000000 1.000000 0.000000
vn 0.000000 1.000000 0.000000
vn 0.000000 1.000000 0.000000
vn 0.000000 1.000000 0.000000
vn 0.000000 1.000000 0.000000
vn 0.000000 1.000000 0.000000
vn 0.000000 1.000000 0.000000
vn 0.000000 1.000000 0.000000
vn 0.000000 1.000000 0.000000
vn 0.000000 1.000000 0.000000
vn 0.000000 1.000000 0.000000
vn 0.000000 1.000000 0.000000
vn 0.000000 1.000000 0.000000
vn 0.000000 1.000000 0.000000
vn 0.000000 1.000000 0.000000
vn 0.000000 1.000000 0.000000
vn 0.000000 1.000000 0.000000
vn 0.000000 1.000000 0.000000
s off
g L1Floor2:Mesh
f 1/1/1 4/2/2 3/3/3
f 6/4/4 9/5/5 12/6/6
f 8/7/7 11/8/8 10/9/9
f 1/1/10 2/10/11 4/2/12
f 6/4/13 7/11/14 9/5/15
f 8/7/16 5/12/17 11/8/18
