# Blender v2.77 (sub 0) OBJ File: ''
# www.blender.org
mtllib Cutout.mtl
o pPlane1.001
v -5.167429 -1.499998 -0.500000
v -6.500000 -1.499998 -0.500000
v -5.167429 -1.500002 1.584909
v -6.500000 -1.500002 1.584909
v -6.500000 -1.499998 -9.915961
v 6.500000 -1.499998 -9.915961
v 1.230026 -1.499998 -9.915961
v -1.268593 -1.499998 -9.915961
v 1.230026 -1.499998 -3.513716
v -1.268593 -1.499998 -3.513716
v -6.500000 -1.499998 -3.513716
v 6.500000 -1.499998 -3.513716
vt 0.000000 0.000000
vt 0.000000 0.000000
vt 0.000000 0.000000
vt 0.000000 0.000000
vt 0.000000 0.000000
vt 0.000000 0.000000
vt 0.000000 0.000000
vt 0.000000 0.000000
vt 0.000000 0.000000
vt 0.000000 0.000000
vt 0.000000 0.000000
vt 0.000000 0.000000
vn 0.000000 1.000000 0.000000
usemtl initialShadingGroup
s off
f 1/1/1 4/2/1 3/3/1
f 6/4/1 9/5/1 12/6/1
f 8/7/1 11/8/1 10/9/1
f 1/1/1 2/10/1 4/2/1
f 6/4/1 7/11/1 9/5/1
f 8/7/1 5/12/1 11/8/1
