# Blender v2.76 (sub 0) OBJ File: 'Medium_Demo.blend'
# www.blender.org
mtllib ButenStand.mtl
o Cube.010_Cube.018
v -0.900001 -0.150000 2.924999
v -0.900001 0.150000 2.924999
v -0.900000 -0.150000 1.124999
v -0.900000 0.150000 1.124999
v 0.900000 -0.150000 2.925000
v 0.900000 0.150000 2.925000
v 0.900001 -0.150000 1.125000
v 0.900001 0.150000 1.125000
v -0.450000 0.150000 2.475000
v -0.450000 0.150000 1.574999
v 0.450000 0.150000 1.575000
v 0.450000 0.150000 2.475000
v -0.450000 1.650000 2.475000
v -0.450000 1.950000 1.574999
v 0.450000 1.950000 1.575000
v 0.450000 1.650000 2.475000
v -0.225000 1.725000 2.250000
v -0.225000 1.875000 1.799999
v 0.225000 1.875000 1.800000
v 0.225000 1.725000 2.250000
vt 0.502037 0.501527
vt 0.502037 0.668109
vt 0.335455 0.668109
vt 0.335455 0.167345
vt 0.502037 0.167345
vt 0.502037 0.333927
vt 0.502546 0.166836
vt 0.502546 0.000254
vt 0.669128 0.000254
vt 0.335455 0.166836
vt 0.335455 0.000254
vt 0.502037 0.000254
vt 0.335455 0.334436
vt 0.502037 0.334436
vt 0.502037 0.501018
vt 0.502546 0.376082
vt 0.544192 0.334436
vt 0.627483 0.334436
vt 0.084055 0.000254
vt 0.167346 0.000254
vt 0.167346 0.833163
vt 0.669128 0.250127
vt 0.627483 0.291773
vt 0.544192 0.291773
vt 0.502546 0.333927
vt 0.544192 0.292282
vt 0.627483 0.292282
vt 0.669128 0.207973
vt 0.627483 0.249619
vt 0.544192 0.249619
vt 0.585837 0.563344
vt 0.565014 0.609905
vt 0.523369 0.609905
vt 0.334946 0.000254
vt 0.334946 0.833164
vt 0.251655 0.833164
vt 0.083545 0.000254
vt 0.083546 0.999743
vt 0.000254 0.999743
vt 0.251146 0.000254
vt 0.251146 0.999746
vt 0.167855 0.833163
vt 0.628500 0.423152
vt 0.545209 0.423152
vt 0.566032 0.376590
vt 0.523369 0.376590
vt 0.523369 0.562835
vt 0.502546 0.516274
vt 0.523878 0.376590
vt 0.544701 0.423152
vt 0.544701 0.516274
vt 0.335455 0.501527
vt 0.335455 0.333927
vt 0.669128 0.166836
vt 0.502037 0.166836
vt 0.335455 0.501018
vt 0.669128 0.376082
vt 0.084055 0.999746
vt 0.502546 0.250127
vt 0.669128 0.333927
vt 0.502546 0.207973
vt 0.502546 0.563344
vt 0.251655 0.000254
vt 0.000254 0.000254
vt 0.167856 0.000254
vt 0.607678 0.376590
vt 0.502546 0.423152
vt 0.523878 0.562835
vn -1.000000 0.000000 -0.000000
vn 0.000000 0.000000 -1.000000
vn 1.000000 0.000000 0.000000
vn -0.000000 0.000000 1.000000
vn 0.000000 -1.000000 -0.000000
vn 0.000000 1.000000 -0.000000
vn 0.000000 0.948700 0.316200
usemtl Material.001
s off
f 4/1/1 3/2/1 1/3/1
f 8/4/2 7/5/2 3/6/2
f 6/7/3 5/8/3 7/9/3
f 2/10/4 1/11/4 5/12/4
f 3/13/5 7/14/5 5/15/5
f 2/16/6 9/17/6 10/18/6
f 10/19/1 9/20/1 13/21/1
f 6/22/6 12/23/6 9/24/6
f 4/25/6 10/26/6 11/27/6
f 8/28/6 11/29/6 12/30/6
f 16/31/7 20/32/7 17/33/7
f 12/34/4 16/35/4 13/36/4
f 10/37/2 14/38/2 15/39/2
f 11/40/3 15/41/3 16/42/3
f 15/43/7 14/44/7 18/45/7
f 16/46/7 15/47/7 19/48/7
f 13/49/7 17/50/7 18/51/7
f 2/52/1 4/1/1 1/3/1
f 4/53/2 8/4/2 3/6/2
f 8/54/3 6/7/3 7/9/3
f 6/55/4 2/10/4 5/12/4
f 1/56/5 3/13/5 5/15/5
f 4/57/6 2/16/6 10/18/6
f 14/58/1 10/19/1 13/21/1
f 2/59/6 6/22/6 9/24/6
f 8/60/6 4/25/6 11/27/6
f 6/61/6 8/28/6 12/30/6
f 13/62/7 16/31/7 17/33/7
f 9/63/4 12/34/4 13/36/4
f 11/64/2 10/37/2 15/39/2
f 12/65/3 11/40/3 16/42/3
f 19/66/7 15/43/7 18/45/7
f 20/67/7 16/46/7 19/48/7
f 14/68/7 13/49/7 18/51/7
