# Blender v2.76 (sub 0) OBJ File: 'Medium_Demo.blend'
# www.blender.org
mtllib GassFolor.mtl
o Plane.002_Plane.005
v 8.100000 0.000000 8.400000
v 8.100000 0.000000 -7.799999
v -8.100000 0.000000 -7.799999
v -3.225000 0.000000 8.400000
v -8.100000 0.000000 8.400000
v -8.100000 -0.300000 8.400000
v 8.100000 0.000000 4.350000
v 8.100000 0.000000 -3.750000
v -8.100000 0.000000 4.350000
v -8.100000 0.000000 0.300000
v -8.100000 0.000000 -3.750000
v 8.100000 -0.300000 0.300000
v -3.525000 0.000000 -3.750000
v -3.525000 0.000000 -7.799999
v -3.525000 -0.300000 -7.799999
v -3.525000 -0.300000 -3.750000
v -3.525000 -0.300000 8.400000
v -3.525000 0.000000 8.400000
v -3.525000 0.000000 4.350000
v -3.525000 0.000000 0.300000
v -3.525000 -0.300000 4.350000
v -3.525000 -0.300000 0.300000
v -3.225000 0.000000 -3.750000
v -3.225000 0.000000 -7.799999
v -3.225000 -0.300000 -7.799999
v -3.225000 -0.300000 -3.750000
v -3.225000 -0.300000 8.400000
v -3.225000 0.000000 4.350000
v -3.225000 0.000000 0.300000
v -3.225000 -0.300000 4.350000
v -3.225000 -0.300000 0.300000
v -0.825001 0.000000 -3.750000
v -0.825001 0.000000 -7.799999
v -0.825001 -0.300000 -7.799999
v -0.825001 -0.300000 -3.750000
v -0.825001 -0.300000 8.400000
v -0.825001 0.000000 8.400000
v -0.825001 0.000000 4.350000
v -0.825001 0.000000 0.300000
v -0.825001 -0.300000 4.350000
v -0.825001 -0.300000 0.300000
v -0.525001 0.000000 -3.750000
v -0.525001 0.000000 -7.799999
v -0.525001 -0.300000 -7.799999
v -0.525001 -0.300000 -3.750000
v -0.525001 -0.300000 8.400000
v -0.525001 0.000000 8.400000
v -0.525001 0.000000 4.350000
v -0.525001 0.000000 0.300000
v -0.525001 -0.300000 4.350000
v -0.525001 -0.300000 0.300000
v 8.100000 -0.300000 -7.799999
v 8.100000 -0.300000 -3.750000
v 8.100000 -0.300000 8.400000
v 8.100000 0.000000 0.300000
v 8.100000 -0.300000 4.350000
v -8.100000 -0.300000 -7.799999
v -8.100000 -0.300000 3.525000
v -8.100000 -0.300000 1.125000
v -8.100000 -0.300000 -3.750000
vt 0.201953 0.670608
vt 0.402364 0.670608
vt 0.368448 0.858686
vt 0.711716 0.503085
vt 0.899793 0.503085
vt 0.899793 0.669580
vt 0.167008 0.972769
vt 0.167008 0.985102
vt 0.000514 0.985102
vt 0.738439 0.950157
vt 0.738439 0.937824
vt 0.904935 0.937824
vt 0.403392 0.990243
vt 0.403392 0.977910
vt 0.569887 0.977910
vt 0.711716 0.168038
vt 0.899793 0.168038
vt 0.899793 0.334533
vt 0.711716 0.034430
vt 0.899793 0.000514
vt 0.899793 0.167009
vt 0.711716 0.335561
vt 0.899793 0.335561
vt 0.899793 0.502056
vt 0.200925 0.670608
vt 0.200925 0.858686
vt 0.034430 0.858686
vt 0.592499 0.670608
vt 0.780576 0.670608
vt 0.780576 0.837103
vt 0.403392 0.670608
vt 0.591470 0.670608
vt 0.591470 0.837103
vt 0.999485 0.167009
vt 0.900822 0.167009
vt 0.900822 0.000514
vt 0.737411 0.838132
vt 0.737411 0.936795
vt 0.570916 0.936795
vt 0.979960 0.837103
vt 0.881297 0.837103
vt 0.881297 0.670608
vt 0.168039 0.985102
vt 0.168039 0.972769
vt 0.334532 0.972769
vt 0.569888 0.951186
vt 0.569888 0.963519
vt 0.403392 0.963519
vt 0.570917 0.976881
vt 0.570917 0.964548
vt 0.737412 0.964548
vt 0.737412 0.951186
vt 0.737412 0.963519
vt 0.570917 0.963519
vt 0.167009 0.986131
vt 0.167009 0.998464
vt 0.000514 0.998464
vt 0.738441 0.976881
vt 0.738441 0.964548
vt 0.904935 0.964548
vt 0.334532 0.959407
vt 0.334532 0.971740
vt 0.168038 0.971740
vt 0.403392 0.950157
vt 0.403393 0.937824
vt 0.569888 0.937824
vt 0.334532 0.859715
vt 0.334532 0.958378
vt 0.168038 0.958378
vt 0.880268 0.837103
vt 0.781605 0.837103
vt 0.781605 0.670609
vt 0.167009 0.859715
vt 0.167009 0.958378
vt 0.000514 0.958378
vt 0.904934 0.838132
vt 0.904934 0.936795
vt 0.738439 0.936795
vt 0.403392 0.936795
vt 0.403392 0.838132
vt 0.569887 0.838132
vt 0.000514 0.503085
vt 0.355086 0.503085
vt 0.355086 0.669580
vt 0.356115 0.503085
vt 0.710687 0.503085
vt 0.710687 0.669580
vt 0.356115 0.335561
vt 0.710687 0.335561
vt 0.710687 0.502056
vt 0.167010 0.959407
vt 0.167010 0.971740
vt 0.000514 0.971740
vt 0.403392 0.976881
vt 0.403392 0.964548
vt 0.569888 0.964548
vt 0.904936 0.951186
vt 0.904936 0.963519
vt 0.738441 0.963519
vt 0.904936 0.977910
vt 0.904936 0.990243
vt 0.738441 0.990243
vt 0.570917 0.990243
vt 0.570917 0.977910
vt 0.737411 0.977910
vt 0.000514 0.000514
vt 0.355086 0.000514
vt 0.355086 0.167009
vt 0.000514 0.335561
vt 0.355086 0.335561
vt 0.355086 0.502056
vt 0.356115 0.000514
vt 0.710687 0.000514
vt 0.710687 0.167009
vt 0.356115 0.168038
vt 0.710687 0.168038
vt 0.710687 0.334533
vt 0.000514 0.168038
vt 0.355086 0.168038
vt 0.355086 0.334533
vt 0.201953 0.858686
vt 0.711716 0.669580
vt 0.000514 0.972769
vt 0.904935 0.950157
vt 0.569887 0.990243
vt 0.711716 0.334533
vt 0.711716 0.133093
vt 0.711716 0.502056
vt 0.000514 0.670608
vt 0.592499 0.837103
vt 0.403392 0.837103
vt 0.999485 0.000514
vt 0.570916 0.838132
vt 0.979961 0.670608
vt 0.334532 0.985102
vt 0.403392 0.951186
vt 0.737412 0.976881
vt 0.570917 0.951186
vt 0.000514 0.986131
vt 0.904935 0.976881
vt 0.168038 0.959407
vt 0.569888 0.950157
vt 0.168038 0.859715
vt 0.880268 0.670608
vt 0.000514 0.859715
vt 0.738439 0.838132
vt 0.569887 0.936795
vt 0.000514 0.669580
vt 0.356115 0.669580
vt 0.356115 0.502056
vt 0.000514 0.959407
vt 0.569888 0.976881
vt 0.738441 0.951186
vt 0.738441 0.977910
vt 0.737411 0.990243
vt 0.000514 0.167009
vt 0.000514 0.502056
vt 0.356115 0.167009
vt 0.356115 0.334533
vt 0.000514 0.334533
vn 0.000000 -1.000000 0.000000
vn 0.000000 1.000000 0.000000
usemtl Material.002
s off
f 6/1/1 58/2/1 21/3/1
f 57/4/1 15/5/1 16/6/1
f 21/7/1 30/8/1 27/9/1
f 13/10/2 23/11/2 24/12/2
f 20/13/2 29/14/2 23/15/2
f 5/16/2 18/17/2 19/18/2
f 59/19/1 22/20/1 21/21/1
f 9/22/2 19/23/2 20/24/2
f 60/25/1 16/26/1 22/27/1
f 11/28/2 13/29/2 14/30/2
f 10/31/2 20/32/2 13/33/2
f 4/34/2 37/35/2 38/36/2
f 30/37/1 40/38/1 36/39/1
f 23/40/2 32/41/2 33/42/2
f 18/43/2 4/44/2 28/45/2
f 22/46/1 31/47/1 30/48/1
f 19/49/2 28/50/2 29/51/2
f 15/52/1 25/53/1 26/54/1
f 16/55/1 26/56/1 31/57/1
f 37/58/2 47/59/2 48/60/2
f 40/61/1 50/62/1 46/63/1
f 32/64/2 42/65/2 43/66/2
f 31/67/1 41/68/1 40/69/1
f 28/70/2 38/71/2 39/72/2
f 25/73/1 34/74/1 35/75/1
f 26/76/1 35/77/1 41/78/1
f 29/79/2 39/80/2 32/81/2
f 51/82/1 12/83/1 56/84/1
f 47/85/2 1/86/2 7/87/2
f 50/88/1 56/89/1 54/90/1
f 41/91/1 51/92/1 50/93/1
f 38/94/2 48/95/2 49/96/2
f 34/97/1 44/98/1 45/99/1
f 35/100/1 45/101/1 51/102/1
f 39/103/2 49/104/2 42/105/2
f 48/106/2 7/107/2 55/108/2
f 44/109/1 52/110/1 53/111/1
f 45/112/1 53/113/1 12/114/1
f 49/115/2 55/116/2 8/117/2
f 42/118/2 8/119/2 2/120/2
f 17/121/1 6/1/1 21/3/1
f 60/122/1 57/4/1 16/6/1
f 17/123/1 21/7/1 27/9/1
f 14/124/2 13/10/2 24/12/2
f 13/125/2 20/13/2 23/15/2
f 9/126/2 5/16/2 19/18/2
f 58/127/1 59/19/1 21/21/1
f 10/128/2 9/22/2 20/24/2
f 59/129/1 60/25/1 22/27/1
f 3/130/2 11/28/2 14/30/2
f 11/131/2 10/31/2 13/33/2
f 28/132/2 4/34/2 38/36/2
f 27/133/1 30/37/1 36/39/1
f 24/134/2 23/40/2 33/42/2
f 19/135/2 18/43/2 28/45/2
f 21/136/1 22/46/1 30/48/1
f 20/137/2 19/49/2 29/51/2
f 16/138/1 15/52/1 26/54/1
f 22/139/1 16/55/1 31/57/1
f 38/140/2 37/58/2 48/60/2
f 36/141/1 40/61/1 46/63/1
f 33/142/2 32/64/2 43/66/2
f 30/143/1 31/67/1 40/69/1
f 29/144/2 28/70/2 39/72/2
f 26/145/1 25/73/1 35/75/1
f 31/146/1 26/76/1 41/78/1
f 23/147/2 29/79/2 32/81/2
f 50/148/1 51/82/1 56/84/1
f 48/149/2 47/85/2 7/87/2
f 46/150/1 50/88/1 54/90/1
f 40/151/1 41/91/1 50/93/1
f 39/152/2 38/94/2 49/96/2
f 35/153/1 34/97/1 45/99/1
f 41/154/1 35/100/1 51/102/1
f 32/155/2 39/103/2 42/105/2
f 49/156/2 48/106/2 55/108/2
f 45/157/1 44/109/1 53/111/1
f 51/158/1 45/112/1 12/114/1
f 42/159/2 49/115/2 8/117/2
f 43/160/2 42/118/2 2/120/2
