# Blender v2.77 (sub 0) OBJ File: 'Medium Demo.blend'
# www.blender.org
mtllib LVL3-WallButton.mtl
o Cube.001_Cube.013
v 8.110001 -2.506027 1.855625
v 8.110001 -1.606027 1.855625
v 8.110001 -2.506027 0.944375
v 8.110001 -1.606027 0.944375
v 8.590000 -2.506027 1.855625
v 8.590000 -1.606027 1.855625
v 8.590000 -2.506027 0.944375
v 8.590000 -1.606027 0.944375
vt 0.661157 0.500000
vt 0.991736 0.974609
vt 0.661157 0.974609
vt 0.330579 0.500000
vt 0.661157 1.000000
vt 0.330579 1.000000
vt 0.669421 0.000000
vt 1.000000 0.474609
vt 0.669422 0.474609
vt 0.330579 1.000000
vt 0.000000 0.500000
vt 0.330579 0.500000
vt 0.334711 0.500000
vt 0.669421 0.000000
vt 0.669421 0.500000
vt 0.334711 0.000000
vt 0.000000 0.500000
vt 0.000000 0.000000
vt 0.991736 0.500000
vt 0.661157 0.500000
vt 1.000000 0.000000
vt 0.000000 1.000000
vt 0.334711 0.000000
vt 0.334711 0.500000
vn -1.000000 0.000000 0.000000
vn 0.000000 0.000000 -1.000000
vn 1.000000 0.000000 0.000000
vn 0.000000 0.000000 1.000000
vn 0.000000 -1.000000 0.000000
vn 0.000000 1.000000 0.000000
usemtl Material.007
s off
f 4/1/1 1/2/1 2/3/1
f 8/4/2 3/5/2 4/6/2
f 6/7/3 7/8/3 8/9/3
f 2/10/4 5/11/4 6/12/4
f 3/13/5 5/14/5 1/15/5
f 8/16/6 2/17/6 6/18/6
f 4/1/1 3/19/1 1/2/1
f 8/4/2 7/20/2 3/5/2
f 6/7/3 5/21/3 7/8/3
f 2/10/4 1/22/4 5/11/4
f 3/13/5 7/23/5 5/14/5
f 8/16/6 4/24/6 2/17/6
