# This file uses centimeters as units for non-parametric coordinates.

mtllib mmRoomFloor.mtl
g default
v -1.000000 0.100000 1.000000
v -1.000000 0.100000 -1.000000
v -5.000000 0.100000 -5.000000
v -5.000000 0.100000 5.000000
v 1.000000 0.100000 -1.000000
v 1.000000 0.100000 1.000000
v 5.000000 0.100000 5.000000
v 5.000000 0.100000 -5.000000
v -5.000000 -0.068140 -5.000000
v -5.000000 -0.068140 5.000000
v 5.000000 -0.068140 5.000000
v 5.000000 -0.068140 -5.000000
v -1.012885 -0.068140 -1.012885
v -1.012885 -0.068140 1.012885
v 1.012885 -0.068140 1.012885
v 1.012885 -0.068140 -1.012885
vt 0.003734 0.996267
vt -1.981333 2.981333
vt -1.981333 -1.981333
vt 0.996267 0.003734
vt 2.981333 -1.981333
vt 2.981333 2.981333
vt 0.003734 0.003734
vt 0.996267 0.996267
vt -1.981333 2.981333
vt -1.981333 -1.981333
vt 2.981333 -1.981333
vt 2.981333 2.981333
vt -0.002661 1.002661
vt -0.002661 -0.002661
vt 1.002661 -0.002661
vt 1.002661 1.002661
vn 0.000000 1.000000 0.000000
vn 0.000000 1.000000 0.000000
vn 0.000000 1.000000 0.000000
vn 0.000000 1.000000 0.000000
vn 0.000000 1.000000 0.000000
vn 0.000000 1.000000 0.000000
vn 0.000000 1.000000 0.000000
vn 0.000000 1.000000 0.000000
vn 0.000000 1.000000 0.000000
vn 0.000000 1.000000 0.000000
vn 0.000000 1.000000 0.000000
vn 0.000000 1.000000 0.000000
vn 0.000000 1.000000 0.000000
vn 0.000000 1.000000 0.000000
vn 0.000000 1.000000 0.000000
vn 0.000000 1.000000 0.000000
vn 0.000000 1.000000 0.000000
vn 0.000000 1.000000 0.000000
vn 0.000000 1.000000 0.000000
vn 0.000000 1.000000 0.000000
vn 0.000000 1.000000 0.000000
vn 0.000000 1.000000 0.000000
vn 0.000000 1.000000 0.000000
vn 0.000000 1.000000 0.000000
vn -1.000000 0.000000 0.000000
vn -1.000000 0.000000 0.000000
vn -1.000000 0.000000 0.000000
vn -1.000000 0.000000 0.000000
vn 1.000000 0.000000 0.000000
vn 1.000000 0.000000 0.000000
vn 1.000000 0.000000 0.000000
vn 1.000000 0.000000 0.000000
vn 0.000000 0.000000 1.000000
vn 0.000000 0.000000 1.000000
vn 0.000000 0.000000 1.000000
vn 0.000000 0.000000 1.000000
vn 0.000000 0.000000 -1.000000
vn 0.000000 0.000000 -1.000000
vn 0.000000 0.000000 -1.000000
vn 0.000000 0.000000 -1.000000
vn 0.000000 -1.000000 0.000000
vn 0.000000 -1.000000 0.000000
vn 0.000000 -1.000000 0.000000
vn 0.000000 -1.000000 0.000000
vn 0.000000 -1.000000 0.000000
vn 0.000000 -1.000000 0.000000
vn 0.000000 -1.000000 0.000000
vn 0.000000 -1.000000 0.000000
vn 0.000000 -1.000000 0.000000
vn 0.000000 -1.000000 -0.000000
vn 0.000000 -1.000000 -0.000000
vn 0.000000 -1.000000 -0.000000
vn 0.000000 -1.000000 0.000000
vn 0.000000 -1.000000 0.000000
vn 0.000000 -1.000000 0.000000
vn 0.000000 -1.000000 0.000000
vn 0.997077 -0.076408 0.000000
vn 0.997077 -0.076408 0.000000
vn 0.997077 -0.076408 0.000000
vn 0.997077 -0.076408 0.000000
vn -0.997077 -0.076408 0.000000
vn -0.997077 -0.076408 0.000000
vn -0.997077 -0.076408 0.000000
vn -0.997077 -0.076408 0.000000
vn 0.000000 -0.076408 -0.997077
vn 0.000000 -0.076408 -0.997077
vn 0.000000 -0.076408 -0.997077
vn 0.000000 -0.076408 -0.997077
vn 0.000000 -0.076408 0.997077
vn 0.000000 -0.076408 0.997077
vn 0.000000 -0.076408 0.997077
vn 0.000000 -0.076408 0.997077
s off
g pasted__dankbot pasted__Mesh group
usemtl lambert2SG
f 2/1/1 3/2/2 4/3/3
f 6/4/4 7/5/5 8/6/6
f 1/7/7 4/3/8 7/5/9
f 5/8/10 8/6/11 3/2/12
f 1/7/13 2/1/14 4/3/15
f 5/8/16 6/4/17 8/6/18
f 6/4/19 1/7/20 7/5/21
f 2/1/22 5/8/23 3/2/24
s 1
f 4/3/25 3/2/26 10/10/27
f 10/10/27 3/2/26 9/9/28
s 2
f 8/6/29 7/5/30 12/12/31
f 12/12/31 7/5/30 11/11/32
s 3
f 7/5/33 4/3/34 11/11/35
f 11/11/35 4/3/34 10/10/36
s 4
f 3/2/37 8/6/38 9/9/39
f 9/9/39 8/6/38 12/12/40
s 5
f 10/10/41 9/9/42 14/14/43
f 14/14/43 9/9/42 13/13/44
s 6
f 12/12/45 11/11/46 16/16/47
f 16/16/47 11/11/46 15/15/48
s 7
f 11/11/49 10/10/50 15/15/51
f 15/15/51 10/10/50 14/14/52
s 8
f 9/9/53 12/12/54 13/13/55
f 13/13/55 12/12/54 16/16/56
s 9
f 14/14/57 13/13/58 1/7/59
f 1/7/59 13/13/58 2/1/60
s 10
f 16/16/61 15/15/62 5/8/63
f 5/8/63 15/15/62 6/4/64
s 11
f 15/15/65 14/14/66 6/4/67
f 6/4/67 14/14/66 1/7/68
s 12
f 13/13/69 16/16/70 2/1/71
f 2/1/71 16/16/70 5/8/72
