# This file uses centimeters as units for non-parametric coordinates.

mtllib mmRoomCeiling.mtl
g default
v 5.000000 5.900000 5.000000
v -5.000000 5.900000 5.000000
v -5.000000 5.900001 -5.000000
v 5.000000 5.900001 -5.000000
v 5.100000 6.000000 -5.099999
v -5.100000 6.000000 -5.099999
v -5.100000 6.000000 5.100001
v 5.100000 6.000000 5.100001
vt 2.031991 -1.031992
vt -1.031992 -1.031992
vt -1.031992 2.031991
vt 2.031991 2.031991
vt 2.031992 2.031992
vt -1.031992 2.031992
vt -1.031992 -1.031992
vt 2.031992 -1.031992
vn 0.000000 -1.000000 0.000000
vn 0.000000 -1.000000 0.000000
vn 0.000000 -1.000000 0.000000
vn 0.000000 -1.000000 -0.000000
vn 0.000000 -1.000000 -0.000000
vn 0.000000 -1.000000 -0.000000
vn 0.000000 1.000000 0.000000
vn 0.000000 1.000000 0.000000
vn 0.000000 1.000000 0.000000
vn 0.000000 1.000000 0.000000
vn 0.000000 1.000000 0.000000
vn 0.000000 1.000000 0.000000
s off
g pasted__polySurface1 group
usemtl pasted__lambert3SG
f 1/1/1 2/2/2 3/3/3
f 4/4/4 1/1/5 3/3/6
f 5/5/7 6/6/8 8/8/9
f 8/8/10 6/6/11 7/7/12
