# Blender v2.76 (sub 0) OBJ File: ''
# www.blender.org
o Cube.021
v -1.000000 0.100000 1.000000
v -1.000000 0.100000 -1.000000
v -5.000000 0.100000 -5.000000
v -5.000000 0.100000 5.000000
v 1.000000 0.100000 -1.000000
v 1.000000 0.100000 1.000000
v 5.000000 0.100000 5.000000
v 5.000000 0.100000 -5.000000
v -1.000000 -0.000000 1.000000
v -1.000000 0.000000 -1.000000
v 1.000000 0.000000 -1.000000
v 1.000000 -0.000000 1.000000
v -5.000000 0.000000 -5.000000
v -5.000000 -0.000000 5.000000
v 5.000000 0.000000 -5.000000
v 5.000000 -0.000000 5.000000
v 5.100000 0.100000 5.000000
v 5.100000 0.100000 -5.000000
v 5.100000 0.000000 -5.000000
v 5.100000 -0.000000 5.000000
v -5.000000 0.099999 5.100000
v 5.000000 0.099999 5.100000
v -5.000000 -0.000001 5.100000
v 5.000000 -0.000001 5.100000
v 5.100000 0.099999 5.100000
v 5.100000 -0.000001 5.100000
v -5.000000 0.100001 -5.100000
v 5.000000 0.100001 -5.100000
v -5.000000 0.000001 -5.100000
v 5.000000 0.000001 -5.100000
v 5.100000 0.100001 -5.100000
v 5.100000 0.000001 -5.100000
v -5.100000 0.000000 -5.000000
v -5.100000 -0.000000 5.000000
v -5.100000 0.100000 -5.000000
v -5.100000 0.100000 5.000000
v -5.100000 0.100001 -5.100000
v -5.100000 0.099999 5.100000
v -5.100000 -0.000001 5.100000
v -5.100000 0.000001 -5.100000
v 5.000000 5.900000 5.000000
v -5.000000 5.900001 -5.000000
v 5.000000 5.900001 -5.000000
v -5.100000 5.900000 5.000000
v -5.000000 5.900001 -5.099999
v -5.100000 5.900001 -5.000000
v -5.000000 5.900000 5.100001
v 5.100000 5.900000 5.000000
v 5.100000 5.900001 -5.000000
v 5.000000 5.900000 5.100001
v 5.100000 5.900000 5.100001
v 5.000000 5.900001 -5.099999
v 5.100000 5.900001 -5.099999
v -5.100000 5.900001 -5.099999
v -5.100000 5.900000 5.100001
v -5.000000 6.000000 5.000000
v 5.000000 6.000000 5.000000
v -5.000000 6.000000 -5.000000
v 5.000000 6.000000 -5.000000
v -5.100000 6.000000 5.000000
v -5.000000 6.000000 -5.099999
v -5.100000 6.000000 -5.000000
v -5.000000 6.000000 5.100001
v 5.100000 6.000000 5.000000
v 5.100000 6.000000 -5.000000
v 5.000000 6.000000 5.100001
v 5.100000 6.000000 5.100001
v 5.000000 6.000000 -5.099999
v 5.100000 6.000000 -5.099999
v -5.100000 6.000000 -5.099999
v -5.100000 6.000000 5.100001
v -5.000000 5.900000 5.000000
vt 0.800835 0.629180
vt 0.889809 0.540206
vt 0.889809 0.762641
vt 0.535757 0.803959
vt 0.446783 0.892934
vt 0.446783 0.670498
vt 0.314930 0.499669
vt 0.312705 0.499669
vt 0.312705 0.455182
vt 0.312705 0.409415
vt 0.314930 0.409415
vt 0.314930 0.453903
vt 0.893983 0.484844
vt 0.891044 0.484861
vt 0.891044 0.316491
vt 0.306493 0.489653
vt 0.304269 0.489653
vt 0.304269 0.487428
vt 0.540250 0.892934
vt 0.540250 0.763921
vt 0.762686 0.763921
vt 0.629225 0.983188
vt 0.540250 0.894213
vt 0.762686 0.894213
vt 0.449952 0.894213
vt 0.538926 0.983187
vt 0.316491 0.983187
vt 0.270886 0.489963
vt 0.270886 0.492187
vt 0.226399 0.492187
vt 0.226399 0.488683
vt 0.226399 0.486459
vt 0.270886 0.486459
vt 0.313329 0.709653
vt 0.224355 0.798627
vt 0.224355 0.576192
vt 0.800790 0.405465
vt 0.889765 0.316491
vt 0.889765 0.538926
vt 0.787790 0.313329
vt 0.698816 0.224355
vt 0.921251 0.224355
vt 0.897427 0.894213
vt 0.986401 0.983188
vt 0.763966 0.983188
vt 0.883313 0.220906
vt 0.880374 0.220923
vt 0.880374 0.052553
vt 0.235631 0.495691
vt 0.233407 0.495691
vt 0.233407 0.493467
vt 0.112240 0.574912
vt 0.000640 0.510184
vt 0.112240 0.317770
vt 0.891089 0.540223
vt 0.894027 0.540206
vt 0.894027 0.708576
vt 0.316491 0.995842
vt 0.316491 0.992904
vt 0.484858 0.993890
vt 0.243919 0.495691
vt 0.243919 0.493467
vt 0.246143 0.493467
vt 0.253152 0.493467
vt 0.253152 0.495691
vt 0.250927 0.495691
vt 0.285800 0.488660
vt 0.285800 0.490884
vt 0.283576 0.490884
vt 0.540250 0.540206
vt 0.669263 0.540206
vt 0.669263 0.762641
vt 0.824143 0.988685
vt 0.824161 0.991624
vt 0.655790 0.991624
vt 0.878253 0.984467
vt 0.878271 0.987406
vt 0.709900 0.987406
vt 0.260160 0.493467
vt 0.260160 0.495691
vt 0.257935 0.495691
vt 0.292427 0.489605
vt 0.292427 0.487381
vt 0.294651 0.487381
vt 0.655785 0.996449
vt 0.784005 0.996421
vt 0.784005 0.998659
vt 0.170298 0.986939
vt 0.298499 0.984701
vt 0.298538 0.986939
vt 0.316491 0.987406
vt 0.316491 0.984467
vt 0.484859 0.985454
vt 0.884592 0.052570
vt 0.887531 0.052553
vt 0.887531 0.220923
vt 0.279444 0.482596
vt 0.277871 0.481023
vt 0.279444 0.479451
vt 0.247423 0.495691
vt 0.247423 0.493467
vt 0.249647 0.493467
vt 0.261439 0.495691
vt 0.261439 0.493467
vt 0.263664 0.493467
vt 0.316491 0.997150
vt 0.444711 0.997122
vt 0.444711 0.999360
vt 0.256656 0.493467
vt 0.256656 0.495691
vt 0.254431 0.495691
vt 0.785304 0.992931
vt 0.913525 0.992904
vt 0.913525 0.995142
vt 0.294651 0.486101
vt 0.292427 0.486100
vt 0.292428 0.483876
vt 0.863501 0.052570
vt 0.866440 0.052553
vt 0.866440 0.220923
vt 0.486138 0.995842
vt 0.486138 0.992904
vt 0.654505 0.993890
vt 0.304269 0.493157
vt 0.304269 0.490932
vt 0.306493 0.490932
vt 0.288001 0.479451
vt 0.289574 0.481023
vt 0.288001 0.482596
vt 0.278816 0.488953
vt 0.276591 0.488953
vt 0.276591 0.486728
vt 0.299411 0.490884
vt 0.299411 0.488660
vt 0.301636 0.488660
vt 0.170298 0.976386
vt 0.298499 0.974148
vt 0.298538 0.976386
vt 0.170298 0.990456
vt 0.298499 0.988219
vt 0.298538 0.990456
vt 0.223075 0.836776
vt 0.223075 0.965789
vt 0.000640 0.965789
vt 0.225119 0.574912
vt 0.113519 0.510184
vt 0.225119 0.317770
vt 0.445991 0.997150
vt 0.574211 0.997122
vt 0.574211 0.999360
vt 0.170298 0.979904
vt 0.298499 0.977666
vt 0.298538 0.979904
vt 0.223075 0.706484
vt 0.223075 0.835496
vt 0.000640 0.835496
vt 0.879094 0.220906
vt 0.876156 0.220923
vt 0.876156 0.052553
vt 0.296559 0.479451
vt 0.298132 0.481023
vt 0.296559 0.482596
vt 0.000640 0.995316
vt 0.000640 0.992378
vt 0.169007 0.993364
vt 0.871938 0.052570
vt 0.874876 0.052553
vt 0.874876 0.220923
vt 0.993793 0.988685
vt 0.993811 0.991624
vt 0.825440 0.991624
vt 0.290226 0.490233
vt 0.290226 0.492457
vt 0.288001 0.492457
vt 0.294651 0.490885
vt 0.294651 0.493109
vt 0.292427 0.493109
vt 0.290854 0.479451
vt 0.292427 0.481023
vt 0.290854 0.482596
vt 0.281398 0.490233
vt 0.281398 0.492457
vt 0.279174 0.492457
vt 0.283576 0.494388
vt 0.283576 0.492164
vt 0.285800 0.492164
vt 0.283576 0.483876
vt 0.285149 0.482303
vt 0.286722 0.483876
vt 0.484844 0.988685
vt 0.484861 0.991624
vt 0.316491 0.991624
vt 0.870658 0.220906
vt 0.867719 0.220923
vt 0.867719 0.052553
vt 0.301636 0.492164
vt 0.301636 0.494388
vt 0.299411 0.494388
vt 0.763966 0.892934
vt 0.763966 0.763921
vt 0.986401 0.763921
vt 0.315211 0.159205
vt 0.157925 0.316491
vt 0.000640 0.159205
vt 0.540206 0.316491
vt 0.669218 0.316491
vt 0.669218 0.538926
vt 0.473776 0.315211
vt 0.316491 0.157925
vt 0.473776 0.000640
vt 0.829108 0.089569
vt 0.853785 0.052553
vt 0.853785 0.212954
vt 0.302989 0.441155
vt 0.278312 0.478171
vt 0.278312 0.317770
vt 0.314927 0.363704
vt 0.312705 0.408136
vt 0.312705 0.363593
vt 0.312705 0.362202
vt 0.314927 0.317770
vt 0.314927 0.362313
vt 0.311426 0.317805
vt 0.308488 0.486149
vt 0.308487 0.317770
vt 0.276591 0.481023
vt 0.275018 0.482596
vt 0.275018 0.479451
vt 0.316491 0.892934
vt 0.316491 0.670498
vt 0.445503 0.892934
vt 0.866123 0.025317
vt 0.829108 0.000640
vt 0.989508 0.000640
vt 0.952493 0.026597
vt 0.989508 0.051274
vt 0.829108 0.051274
vt 0.226399 0.482955
vt 0.270886 0.482955
vt 0.226399 0.485179
vt 0.270886 0.481675
vt 0.226399 0.481675
vt 0.270886 0.479451
vt 0.251076 0.441155
vt 0.226399 0.478171
vt 0.226399 0.317770
vt 0.252356 0.354786
vt 0.277033 0.317770
vt 0.277033 0.478171
vt 0.512072 0.285901
vt 0.475056 0.261224
vt 0.635456 0.261224
vt 0.598441 0.287181
vt 0.635456 0.311858
vt 0.475056 0.311858
vt 0.895967 0.052553
vt 0.895967 0.220924
vt 0.893029 0.052570
vt 0.300984 0.479451
vt 0.302557 0.481023
vt 0.299411 0.481023
vt 0.223075 0.705204
vt 0.000640 0.705204
vt 0.223075 0.576192
vt 0.304269 0.486115
vt 0.307207 0.317770
vt 0.307208 0.486149
vt 0.169010 0.986880
vt 0.000640 0.986880
vt 0.168993 0.983941
vt 0.240415 0.495691
vt 0.240415 0.493467
vt 0.242639 0.495691
vt 0.481054 0.313138
vt 0.482627 0.314711
vt 0.479481 0.314711
vt 0.307773 0.490932
vt 0.309997 0.490932
vt 0.307773 0.493157
vt 0.670543 0.762641
vt 0.670543 0.540206
vt 0.799555 0.762641
vt 0.000674 0.971287
vt 0.169018 0.974224
vt 0.000640 0.974225
vt 0.540250 0.984467
vt 0.708621 0.984467
vt 0.540268 0.987406
vt 0.273739 0.483876
vt 0.275312 0.485449
vt 0.272166 0.485449
vt 0.290226 0.488953
vt 0.288001 0.488953
vt 0.290226 0.486728
vt 0.785304 0.998660
vt 0.785304 0.996422
vt 0.913525 0.998632
vt 0.655823 0.995142
vt 0.655785 0.992904
vt 0.784024 0.992904
vt 0.168985 0.970007
vt 0.000640 0.967069
vt 0.169019 0.967068
vt 0.888811 0.220924
vt 0.888811 0.052553
vt 0.891749 0.220906
vt 0.282296 0.481023
vt 0.280723 0.482596
vt 0.280723 0.479451
vt 0.236911 0.495691
vt 0.236911 0.493467
vt 0.239135 0.495691
vt 0.300984 0.483876
vt 0.299411 0.482303
vt 0.302557 0.482303
vt 0.000640 0.998834
vt 0.000640 0.996596
vt 0.128860 0.998807
vt 0.289574 0.483876
vt 0.291147 0.485449
vt 0.288001 0.485449
vt 0.170298 0.997492
vt 0.170298 0.995254
vt 0.298519 0.997464
vt 0.273739 0.481023
vt 0.272166 0.482596
vt 0.272166 0.479451
vt 0.855065 0.220898
vt 0.858002 0.052553
vt 0.858003 0.220932
vt 0.169010 0.991098
vt 0.000640 0.991098
vt 0.168993 0.988159
vt 0.272166 0.492457
vt 0.272166 0.490233
vt 0.274390 0.492457
vt 0.272166 0.488953
vt 0.272166 0.486728
vt 0.274390 0.488953
vt 0.285800 0.487380
vt 0.283576 0.487380
vt 0.285800 0.485156
vt 0.277894 0.492457
vt 0.275670 0.492457
vt 0.277894 0.490233
vt 0.170337 0.972869
vt 0.170298 0.970631
vt 0.298538 0.970630
vt 0.170337 0.993974
vt 0.170298 0.991736
vt 0.298538 0.991736
vt 0.475101 0.000640
vt 0.697536 0.000717
vt 0.475056 0.129652
vt 0.697492 0.259945
vt 0.475056 0.259945
vt 0.697492 0.130932
vt 0.170298 0.969306
vt 0.170299 0.967068
vt 0.298519 0.969351
vt 0.170337 0.983422
vt 0.170298 0.981184
vt 0.298538 0.981184
vt 0.316535 0.540206
vt 0.538971 0.540283
vt 0.316491 0.669218
vt 0.898201 0.316491
vt 0.898201 0.484861
vt 0.895263 0.316508
vt 0.293706 0.481023
vt 0.295279 0.479451
vt 0.295279 0.482596
vt 0.169010 0.982661
vt 0.000640 0.982661
vt 0.168993 0.979723
vt 0.895307 0.708576
vt 0.895307 0.540206
vt 0.898246 0.708559
vt 0.486141 0.988685
vt 0.654511 0.988685
vt 0.486158 0.991624
vt 0.278164 0.483876
vt 0.279737 0.485449
vt 0.276591 0.485449
vt 0.229903 0.493467
vt 0.232127 0.493467
vt 0.229903 0.495691
vt 0.299411 0.485156
vt 0.301636 0.485156
vt 0.299411 0.487380
vt 0.285149 0.481023
vt 0.283576 0.479451
vt 0.286722 0.479451
vt 0.307773 0.489653
vt 0.307773 0.487428
vt 0.309997 0.489653
vt 0.226399 0.495691
vt 0.226399 0.493467
vt 0.228623 0.495691
vt 0.000674 0.975505
vt 0.169018 0.978442
vt 0.000640 0.978443
vt 0.862221 0.052553
vt 0.862221 0.220923
vt 0.859283 0.052570
vt 0.476629 0.314711
vt 0.475056 0.313138
vt 0.478202 0.313138
vt 0.698816 0.223075
vt 0.698816 0.000640
vt 0.827828 0.223075
vt 0.157925 0.000640
vt 0.315211 0.157925
vt 0.000640 0.157925
vt 0.670498 0.538926
vt 0.670498 0.316491
vt 0.799511 0.538926
vt 0.538926 0.316491
vt 0.538926 0.538926
vt 0.316491 0.316491
vn 0.000000 1.000000 0.000000
vn 1.000000 0.000000 0.000000
vn -1.000000 0.000000 0.000000
vn 0.000000 -1.000000 -0.000000
vn 0.447200 -0.894400 -0.000000
vn 0.577400 -0.577400 -0.577400
vn 0.000000 0.000000 -1.000000
vn 0.000000 0.000000 1.000000
vn 0.000000 -0.894400 0.447200
vn -0.577400 -0.577400 0.577400
vn -0.707100 -0.707100 -0.000000
vn 0.000000 -0.707100 0.707100
vn 0.577400 -0.577400 0.577400
vn 0.707100 0.000000 0.707100
vn 0.707100 0.000000 -0.707100
vn 0.000000 -0.707100 -0.707100
vn -0.707100 -0.000000 0.707100
vn 0.000000 -0.894400 -0.447200
vn -0.707100 0.000000 -0.707100
vn -0.577400 -0.577400 -0.577400
vn 0.707100 0.707100 0.000000
vn 0.000000 0.707100 -0.707100
vn -0.577400 0.577400 -0.577400
vn 0.577400 0.577400 0.577400
vn -0.577400 0.577400 0.577400
vn -0.707100 0.707100 0.000000
vn 0.000000 0.707100 0.707100
vn 0.577400 0.577400 -0.577400
s 1
f 2/1/1 3/2/1 4/3/1
f 6/4/1 7/5/1 8/6/1
f 1/7/2 9/8/2 10/9/2
f 5/10/3 11/11/3 12/12/3
f 14/13/4 34/14/4 33/15/4
f 18/16/2 19/17/5 32/18/6
f 27/19/7 45/20/7 52/21/7
f 1/22/1 4/23/1 7/24/1
f 5/25/1 8/26/1 3/27/1
f 6/28/7 12/29/7 9/30/7
f 2/31/8 10/32/8 11/33/8
f 9/34/4 14/35/4 13/36/4
f 11/37/4 15/38/4 16/39/4
f 10/40/4 13/41/4 15/42/4
f 12/43/4 16/44/4 14/45/4
f 17/46/2 20/47/2 19/48/2
f 23/49/9 39/50/10 34/51/11
f 36/52/3 44/53/3 46/54/3
f 15/55/4 19/56/5 20/57/5
f 21/58/8 23/59/8 24/60/8
f 24/61/12 26/62/13 25/63/14
f 17/64/2 25/65/14 26/66/13
f 20/67/5 26/68/13 24/69/12
f 18/70/2 49/71/2 48/72/2
f 16/73/4 24/74/4 23/75/9
f 28/76/7 30/77/7 29/78/7
f 28/79/7 31/80/15 32/81/6
f 15/82/4 30/83/16 32/84/6
f 28/85/7 52/86/7 53/87/15
f 21/88/8 47/89/8 55/90/17
f 13/91/4 29/92/18 30/93/4
f 35/94/3 33/95/3 34/96/3
f 35/97/3 37/98/19 40/99/20
f 34/100/11 39/101/10 38/102/17
f 29/103/18 40/104/20 37/105/19
f 37/106/19 54/107/19 45/108/7
f 21/109/8 38/110/17 39/111/10
f 17/112/2 48/113/2 51/114/14
f 13/115/4 33/116/11 40/117/20
f 49/118/2 65/119/21 64/120/21
f 45/121/7 61/122/22 68/123/7
f 54/124/19 70/125/23 61/126/22
f 48/127/2 64/128/21 67/129/24
f 55/130/17 71/131/25 60/132/26
f 46/133/3 62/134/26 70/135/23
f 35/136/3 46/137/3 54/138/19
f 25/139/14 51/140/14 50/141/8
f 8/142/8 43/143/8 42/144/8
f 7/145/3 41/146/3 43/147/3
f 31/148/15 53/149/15 49/150/2
f 38/151/17 55/152/17 44/153/3
f 22/154/8 50/155/8 47/156/8
f 57/157/1 64/158/21 65/159/21
f 57/160/1 66/161/27 67/162/24
f 56/163/1 63/164/27 66/165/1
f 58/166/1 62/167/1 60/168/1
f 59/169/1 68/170/1 61/171/22
f 65/172/21 69/173/28 68/174/22
f 61/175/22 70/176/23 62/177/26
f 56/178/1 60/179/26 71/180/25
f 47/181/8 63/182/27 71/183/25
f 52/184/7 68/185/22 69/186/28
f 53/187/15 69/188/28 65/189/21
f 50/190/8 66/191/8 63/192/27
f 44/193/3 60/194/3 62/195/3
f 51/196/14 67/197/24 66/198/27
f 4/199/7 72/200/16 41/201/16
f 59/202/1 58/203/1 56/204/1
f 3/205/2 42/206/2 72/207/2
f 41/208/16 72/209/16 42/210/4
f 1/211/1 2/212/1 4/213/1
f 5/214/1 6/215/1 8/216/1
f 2/217/2 1/218/2 10/219/2
f 6/220/3 5/221/3 12/222/3
f 13/223/4 14/224/4 33/225/4
f 31/226/15 18/227/2 32/228/6
f 28/229/7 27/230/7 52/231/7
f 6/232/1 1/233/1 7/234/1
f 2/235/1 5/236/1 3/237/1
f 1/238/7 6/239/7 9/240/7
f 5/241/8 2/242/8 11/243/8
f 10/244/4 9/245/4 13/246/4
f 12/247/4 11/248/4 16/249/4
f 11/250/4 10/251/4 15/252/4
f 9/253/4 12/254/4 14/255/4
f 18/256/2 17/257/2 19/258/2
f 14/259/4 23/260/9 34/261/11
f 35/262/3 36/263/3 46/264/3
f 16/265/4 15/266/4 20/267/5
f 22/268/8 21/269/8 24/270/8
f 22/271/8 24/272/12 25/273/14
f 20/274/5 17/275/2 26/276/13
f 16/277/4 20/278/5 24/279/12
f 17/280/2 18/281/2 48/282/2
f 14/283/4 16/284/4 23/285/9
f 27/286/7 28/287/7 29/288/7
f 30/289/16 28/290/7 32/291/6
f 19/292/5 15/293/4 32/294/6
f 31/295/15 28/296/7 53/297/15
f 38/298/17 21/299/8 55/300/17
f 15/301/4 13/302/4 30/303/4
f 36/304/3 35/305/3 34/306/3
f 33/307/11 35/308/3 40/309/20
f 36/310/3 34/311/11 38/312/17
f 27/313/7 29/314/18 37/315/19
f 27/316/7 37/317/19 45/318/7
f 23/319/9 21/320/8 39/321/10
f 25/322/14 17/323/2 51/324/14
f 29/325/18 13/326/4 40/327/20
f 48/328/2 49/329/2 64/330/21
f 52/331/7 45/332/7 68/333/7
f 45/334/7 54/335/19 61/336/22
f 51/337/14 48/338/2 67/339/24
f 44/340/3 55/341/17 60/342/26
f 54/343/19 46/344/3 70/345/23
f 37/346/19 35/347/3 54/348/19
f 22/349/8 25/350/14 50/351/8
f 3/352/8 8/353/8 42/354/8
f 8/355/3 7/356/3 43/357/3
f 18/358/2 31/359/15 49/360/2
f 36/361/3 38/362/17 44/363/3
f 21/364/8 22/365/8 47/366/8
f 59/367/1 57/368/1 65/369/21
f 64/370/21 57/371/1 67/372/24
f 57/373/1 56/374/1 66/375/1
f 56/376/1 58/377/1 60/378/1
f 58/379/1 59/380/1 61/381/22
f 59/382/1 65/383/21 68/384/22
f 58/385/1 61/386/22 62/387/26
f 63/388/27 56/389/1 71/390/25
f 55/391/17 47/392/8 71/393/25
f 53/394/15 52/395/7 69/396/28
f 49/397/2 53/398/15 65/399/21
f 47/400/8 50/401/8 63/402/27
f 46/403/3 44/404/3 62/405/3
f 50/406/8 51/407/14 66/408/27
f 7/409/7 4/410/7 41/411/16
f 57/412/1 59/413/1 56/414/1
f 4/415/2 3/416/2 72/417/2
f 43/418/4 41/419/16 42/420/4
