# This file uses centimeters as units for non-parametric coordinates.

g default
v -1.426145 1.396863 3.988524
v 1.426145 1.396863 3.988524
v -1.426145 1.600766 3.988524
v 1.426145 1.600766 3.988524
v -1.426145 1.600766 -3.988524
v 1.426145 1.600766 -3.988524
v -1.426145 1.396863 -3.988524
v 1.426145 1.396863 -3.988524
v -1.426145 1.396863 -3.988524
v 1.426145 1.396863 -3.988524
v 1.426145 1.396863 3.988524
v -1.426145 1.396863 3.988524
v -0.454420 1.196569 -0.444843
v 0.454420 1.196569 -0.444843
v 0.454420 1.196569 0.444843
v -0.454420 1.196569 0.444843
v -0.454420 0.007239 -0.444843
v 0.454420 0.007239 -0.444843
v 0.454420 0.007239 0.444843
v -0.454420 0.007239 0.444843
vt 0.375000 0.000000
vt 0.625000 0.000000
vt 0.375000 0.250000
vt 0.625000 0.250000
vt 0.375000 0.500000
vt 0.625000 0.500000
vt 0.375000 0.750000
vt 0.625000 0.750000
vt 0.375000 1.000000
vt 0.625000 1.000000
vt 0.875000 0.000000
vt 0.875000 0.250000
vt 0.125000 0.000000
vt 0.125000 0.250000
vt 0.375000 0.750000
vt 0.625000 0.750000
vt 0.625000 1.000000
vt 0.375000 1.000000
vt 0.375000 0.750000
vt 0.625000 0.750000
vt 0.625000 1.000000
vt 0.375000 1.000000
vt 0.375000 0.750000
vt 0.625000 0.750000
vt 0.625000 1.000000
vt 0.375000 1.000000
vn 0.000000 0.000000 1.000000
vn 0.000000 0.000000 1.000000
vn 0.000000 0.000000 1.000000
vn 0.000000 0.000000 1.000000
vn 0.000000 1.000000 0.000000
vn 0.000000 1.000000 0.000000
vn 0.000000 1.000000 0.000000
vn 0.000000 1.000000 0.000000
vn 0.000000 0.000000 -1.000000
vn 0.000000 0.000000 -1.000000
vn 0.000000 0.000000 -1.000000
vn 0.000000 0.000000 -1.000000
vn 0.000000 -1.000000 0.000000
vn 0.000000 -1.000000 0.000000
vn 0.000000 -1.000000 0.000000
vn 0.000000 -1.000000 0.000000
vn 1.000000 0.000000 0.000000
vn 1.000000 0.000000 0.000000
vn 1.000000 0.000000 0.000000
vn 1.000000 0.000000 0.000000
vn -1.000000 0.000000 0.000000
vn -1.000000 0.000000 0.000000
vn -1.000000 0.000000 0.000000
vn -1.000000 0.000000 0.000000
vn 0.000000 0.000000 0.000000
vn 0.000000 0.000000 0.000000
vn 0.000000 0.000000 0.000000
vn 0.000000 0.000000 0.000000
vn 0.000000 0.000000 0.000000
vn 0.000000 0.000000 0.000000
vn 0.000000 0.000000 0.000000
vn 0.000000 0.000000 0.000000
vn 0.000000 0.000000 0.000000
vn 0.000000 0.000000 0.000000
vn 0.000000 0.000000 0.000000
vn 0.000000 0.000000 0.000000
vn 0.000000 0.000000 0.000000
vn 0.000000 0.000000 0.000000
vn 0.000000 0.000000 0.000000
vn 0.000000 0.000000 0.000000
vn -0.081685 -0.996082 -0.033901
vn 0.092065 -0.995270 -0.031009
vn -0.025757 -0.998448 -0.049371
vn 0.115754 -0.992979 -0.024383
vn 0.025757 -0.998448 0.049371
vn 0.081685 -0.996082 0.033901
vn -0.092065 -0.995270 0.031009
vn -0.115754 -0.992979 0.024383
vn 0.000000 0.000000 -1.000000
vn 0.000000 0.000000 -1.000000
vn 0.000000 0.000000 -1.000000
vn 0.000000 0.000000 -1.000000
vn 1.000000 0.000000 0.000000
vn 1.000000 0.000000 0.000000
vn 1.000000 0.000000 0.000000
vn 1.000000 0.000000 0.000000
vn 0.000000 0.000000 1.000000
vn 0.000000 0.000000 1.000000
vn 0.000000 0.000000 1.000000
vn 0.000000 0.000000 1.000000
vn -1.000000 0.000000 0.000000
vn -1.000000 0.000000 0.000000
vn -1.000000 0.000000 0.000000
vn -1.000000 0.000000 0.000000
s 1
g pCube14
f 1/1/1 2/2/2 3/3/3
f 3/3/3 2/2/2 4/4/4
s 2
f 3/3/5 4/4/6 5/5/7
f 5/5/7 4/4/6 6/6/8
s 3
f 5/5/9 6/6/10 7/7/11
f 7/7/11 6/6/10 8/8/12
s 4
f 17/23/13 18/24/14 20/26/15
f 20/26/15 18/24/14 19/25/16
s 5
f 2/2/17 8/11/18 4/4/19
f 4/4/19 8/11/18 6/12/20
s 6
f 7/13/21 1/1/22 5/14/23
f 5/14/23 1/1/22 3/3/24
s 7
f 9/15/25 7/7/26 10/16/27
f 7/7/26 8/8/28 10/16/27
s 8
f 10/16/29 8/8/30 11/17/31
f 8/8/30 2/10/32 11/17/31
s 9
f 11/17/33 2/10/34 12/18/35
f 2/10/34 1/9/36 12/18/35
s 10
f 12/18/37 1/9/38 9/15/39
f 1/9/38 7/7/40 9/15/39
s 11
f 9/15/41 10/16/42 13/19/43
f 13/19/43 10/16/42 14/20/44
f 15/21/45 14/20/44 11/17/46
f 10/16/42 11/17/46 14/20/44
f 11/17/46 12/18/47 15/21/45
f 15/21/45 12/18/47 16/22/48
f 13/19/43 16/22/48 9/15/41
f 12/18/47 9/15/41 16/22/48
s 12
f 13/19/49 14/20/50 17/23/51
f 17/23/51 14/20/50 18/24/52
s 13
f 14/20/53 15/21/54 18/24/55
f 18/24/55 15/21/54 19/25/56
s 14
f 15/21/57 16/22/58 19/25/59
f 19/25/59 16/22/58 20/26/60
s 15
f 16/22/61 13/19/62 20/26/63
f 20/26/63 13/19/62 17/23/64
g default
v -1.426145 1.396863 3.988524
v 1.426145 1.396863 3.988524
v -1.426145 1.600766 3.988524
v 1.426145 1.600766 3.988524
v -1.426145 1.600766 -3.988524
v 1.426145 1.600766 -3.988524
v -1.426145 1.396863 -3.988524
v 1.426145 1.396863 -3.988524
v -1.426145 1.396863 -3.988524
v 1.426145 1.396863 -3.988524
v 1.426145 1.396863 3.988524
v -1.426145 1.396863 3.988524
v -0.454420 1.196569 -0.444843
v 0.454420 1.196569 -0.444843
v 0.454420 1.196569 0.444843
v -0.454420 1.196569 0.444843
v -0.454420 0.007239 -0.444843
v 0.454420 0.007239 -0.444843
v 0.454420 0.007239 0.444843
v -0.454420 0.007239 0.444843
vt 0.375000 0.000000
vt 0.625000 0.000000
vt 0.375000 0.250000
vt 0.625000 0.250000
vt 0.375000 0.500000
vt 0.625000 0.500000
vt 0.375000 0.750000
vt 0.625000 0.750000
vt 0.375000 1.000000
vt 0.625000 1.000000
vt 0.875000 0.000000
vt 0.875000 0.250000
vt 0.125000 0.000000
vt 0.125000 0.250000
vt 0.375000 0.750000
vt 0.625000 0.750000
vt 0.625000 1.000000
vt 0.375000 1.000000
vt 0.375000 0.750000
vt 0.625000 0.750000
vt 0.625000 1.000000
vt 0.375000 1.000000
vt 0.375000 0.750000
vt 0.625000 0.750000
vt 0.625000 1.000000
vt 0.375000 1.000000
vn 0.000000 0.000000 1.000000
vn 0.000000 0.000000 1.000000
vn 0.000000 0.000000 1.000000
vn 0.000000 0.000000 1.000000
vn 0.000000 1.000000 0.000000
vn 0.000000 1.000000 0.000000
vn 0.000000 1.000000 0.000000
vn 0.000000 1.000000 0.000000
vn 0.000000 0.000000 -1.000000
vn 0.000000 0.000000 -1.000000
vn 0.000000 0.000000 -1.000000
vn 0.000000 0.000000 -1.000000
vn 0.000000 -1.000000 0.000000
vn 0.000000 -1.000000 0.000000
vn 0.000000 -1.000000 0.000000
vn 0.000000 -1.000000 0.000000
vn 1.000000 0.000000 0.000000
vn 1.000000 0.000000 0.000000
vn 1.000000 0.000000 0.000000
vn 1.000000 0.000000 0.000000
vn -1.000000 0.000000 0.000000
vn -1.000000 0.000000 0.000000
vn -1.000000 0.000000 0.000000
vn -1.000000 0.000000 0.000000
vn 0.000000 0.000000 0.000000
vn 0.000000 0.000000 0.000000
vn 0.000000 0.000000 0.000000
vn 0.000000 0.000000 0.000000
vn 0.000000 0.000000 0.000000
vn 0.000000 0.000000 0.000000
vn 0.000000 0.000000 0.000000
vn 0.000000 0.000000 0.000000
vn 0.000000 0.000000 0.000000
vn 0.000000 0.000000 0.000000
vn 0.000000 0.000000 0.000000
vn 0.000000 0.000000 0.000000
vn 0.000000 0.000000 0.000000
vn 0.000000 0.000000 0.000000
vn 0.000000 0.000000 0.000000
vn 0.000000 0.000000 0.000000
vn -0.081685 -0.996082 -0.033901
vn 0.092065 -0.995270 -0.031009
vn -0.025757 -0.998448 -0.049371
vn 0.115754 -0.992979 -0.024383
vn 0.025757 -0.998448 0.049371
vn 0.081685 -0.996082 0.033901
vn -0.092065 -0.995270 0.031009
vn -0.115754 -0.992979 0.024383
vn 0.000000 0.000000 -1.000000
vn 0.000000 0.000000 -1.000000
vn 0.000000 0.000000 -1.000000
vn 0.000000 0.000000 -1.000000
vn 1.000000 0.000000 0.000000
vn 1.000000 0.000000 0.000000
vn 1.000000 0.000000 0.000000
vn 1.000000 0.000000 0.000000
vn 0.000000 0.000000 1.000000
vn 0.000000 0.000000 1.000000
vn 0.000000 0.000000 1.000000
vn 0.000000 0.000000 1.000000
vn -1.000000 0.000000 0.000000
vn -1.000000 0.000000 0.000000
vn -1.000000 0.000000 0.000000
vn -1.000000 0.000000 0.000000
s 1
g pCube14
f 21/27/65 22/28/66 23/29/67
f 23/29/67 22/28/66 24/30/68
s 2
f 23/29/69 24/30/70 25/31/71
f 25/31/71 24/30/70 26/32/72
s 3
f 25/31/73 26/32/74 27/33/75
f 27/33/75 26/32/74 28/34/76
s 4
f 37/49/77 38/50/78 40/52/79
f 40/52/79 38/50/78 39/51/80
s 5
f 22/28/81 28/37/82 24/30/83
f 24/30/83 28/37/82 26/38/84
s 6
f 27/39/85 21/27/86 25/40/87
f 25/40/87 21/27/86 23/29/88
s 7
f 29/41/89 27/33/90 30/42/91
f 27/33/90 28/34/92 30/42/91
s 8
f 30/42/93 28/34/94 31/43/95
f 28/34/94 22/36/96 31/43/95
s 9
f 31/43/97 22/36/98 32/44/99
f 22/36/98 21/35/100 32/44/99
s 10
f 32/44/101 21/35/102 29/41/103
f 21/35/102 27/33/104 29/41/103
s 11
f 29/41/105 30/42/106 33/45/107
f 33/45/107 30/42/106 34/46/108
f 35/47/109 34/46/108 31/43/110
f 30/42/106 31/43/110 34/46/108
f 31/43/110 32/44/111 35/47/109
f 35/47/109 32/44/111 36/48/112
f 33/45/107 36/48/112 29/41/105
f 32/44/111 29/41/105 36/48/112
s 12
f 33/45/113 34/46/114 37/49/115
f 37/49/115 34/46/114 38/50/116
s 13
f 34/46/117 35/47/118 38/50/119
f 38/50/119 35/47/118 39/51/120
s 14
f 35/47/121 36/48/122 39/51/123
f 39/51/123 36/48/122 40/52/124
s 15
f 36/48/125 33/45/126 40/52/127
f 40/52/127 33/45/126 37/49/128
