# This file uses centimeters as units for non-parametric coordinates.

g default
o Sphere
v 0.000000 0.000000 0.000000
v 0.723607 0.552780 0.525725
v -0.276388 0.552780 0.850649
v -0.894426 0.552784 0.000000
v -0.276388 0.552780 -0.850649
v 0.723607 0.552780 -0.525725
v 0.276388 1.447220 0.850649
v -0.723607 1.447220 0.525725
v -0.723607 1.447220 -0.525725
v 0.276388 1.447220 -0.850649
v 0.894426 1.447216 0.000000
v 0.000000 2.000000 0.000000
v -0.162456 0.149346 0.499995
v 0.425323 0.149346 0.309011
v 0.262869 0.474262 0.809012
v 0.850648 0.474264 0.000000
v 0.425323 0.149346 -0.309011
v -0.525730 0.149348 0.000000
v -0.688189 0.474264 0.499997
v -0.162456 0.149346 -0.499995
v -0.688189 0.474264 -0.499997
v 0.262869 0.474262 -0.809012
v 0.951058 1.000000 0.309013
v 0.951058 1.000000 -0.309013
v 0.000000 1.000000 1.000000
v 0.587786 1.000000 0.809017
v -0.951058 1.000000 0.309013
v -0.587786 1.000000 0.809017
v -0.587786 1.000000 -0.809017
v -0.951058 1.000000 -0.309013
v 0.587786 1.000000 -0.809017
v 0.000000 1.000000 -1.000000
v 0.688189 1.525736 0.499997
v -0.262869 1.525738 0.809012
v -0.850648 1.525736 0.000000
v -0.262869 1.525738 -0.809012
v 0.688189 1.525736 -0.499997
v 0.162456 1.850654 0.499995
v 0.525730 1.850652 0.000000
v -0.425323 1.850654 0.309011
v -0.425323 1.850654 -0.309011
v 0.162456 1.850654 -0.499995
vt 0.000000 0.000000
vt 0.000000 0.000000
vt 0.000000 0.000000
vt 0.000000 0.000000
vt 0.000000 0.000000
vt 0.000000 0.000000
vt 0.000000 0.000000
vt 0.000000 0.000000
vt 0.000000 0.000000
vt 0.000000 0.000000
vt 0.000000 0.000000
vt 0.000000 0.000000
vt 0.000000 0.000000
vt 0.000000 0.000000
vt 0.000000 0.000000
vt 0.000000 0.000000
vt 0.000000 0.000000
vt 0.000000 0.000000
vt 0.000000 0.000000
vt 0.000000 0.000000
vt 0.000000 0.000000
vt 0.000000 0.000000
vt 0.000000 0.000000
vt 0.000000 0.000000
vt 0.000000 0.000000
vt 0.000000 0.000000
vt 0.000000 0.000000
vt 0.000000 0.000000
vt 0.000000 0.000000
vt 0.000000 0.000000
vt 0.000000 0.000000
vt 0.000000 0.000000
vt 0.000000 0.000000
vt 0.000000 0.000000
vt 0.000000 0.000000
vt 0.000000 0.000000
vt 0.000000 0.000000
vt 0.000000 0.000000
vt 0.000000 0.000000
vt 0.000000 0.000000
vt 0.000000 0.000000
vt 0.000000 0.000000
vt 0.000000 0.000000
vt 0.000000 0.000000
vt 0.000000 0.000000
vt 0.000000 0.000000
vt 0.000000 0.000000
vt 0.000000 0.000000
vt 0.000000 0.000000
vt 0.000000 0.000000
vt 0.000000 0.000000
vt 0.000000 0.000000
vt 0.000000 0.000000
vt 0.000000 0.000000
vt 0.000000 0.000000
vt 0.000000 0.000000
vt 0.000000 0.000000
vt 0.000000 0.000000
vt 0.000000 0.000000
vt 0.000000 0.000000
vt 0.000000 0.000000
vt 0.000000 0.000000
vt 0.000000 0.000000
vt 0.000000 0.000000
vt 0.000000 0.000000
vt 0.000000 0.000000
vt 0.000000 0.000000
vt 0.000000 0.000000
vt 0.000000 0.000000
vt 0.000000 0.000000
vt 0.000000 0.000000
vt 0.000000 0.000000
vt 0.000000 0.000000
vt 0.000000 0.000000
vt 0.000000 0.000000
vt 0.000000 0.000000
vt 0.000000 0.000000
vt 0.000000 0.000000
vt 0.000000 0.000000
vt 0.000000 0.000000
vt 0.000000 0.000000
vt 0.000000 0.000000
vt 0.000000 0.000000
vt 0.000000 0.000000
vt 0.000000 0.000000
vt 0.000000 0.000000
vt 0.000000 0.000000
vt 0.000000 0.000000
vt 0.000000 0.000000
vt 0.000000 0.000000
vt 0.000000 0.000000
vt 0.000000 0.000000
vt 0.000000 0.000000
vt 0.000000 0.000000
vt 0.000000 0.000000
vt 0.000000 0.000000
vt 0.000000 0.000000
vt 0.000000 0.000000
vt 0.000000 0.000000
vt 0.000000 0.000000
vt 0.000000 0.000000
vt 0.000000 0.000000
vt 0.000000 0.000000
vt 0.000000 0.000000
vt 0.000000 0.000000
vt 0.000000 0.000000
vt 0.000000 0.000000
vt 0.000000 0.000000
vt 0.000000 0.000000
vt 0.000000 0.000000
vt 0.000000 0.000000
vt 0.000000 0.000000
vt 0.000000 0.000000
vt 0.000000 0.000000
vt 0.000000 0.000000
vt 0.000000 0.000000
vt 0.000000 0.000000
vt 0.000000 0.000000
vt 0.000000 0.000000
vt 0.000000 0.000000
vt 0.000000 0.000000
vt 0.000000 0.000000
vt 0.000000 0.000000
vt 0.000000 0.000000
vt 0.000000 0.000000
vt 0.000000 0.000000
vt 0.000000 0.000000
vt 0.000000 0.000000
vt 0.000000 0.000000
vt 0.000000 0.000000
vt 0.000000 0.000000
vt 0.000000 0.000000
vt 0.000000 0.000000
vt 0.000000 0.000000
vt 0.000000 0.000000
vt 0.000000 0.000000
vt 0.000000 0.000000
vt 0.000000 0.000000
vt 0.000000 0.000000
vt 0.000000 0.000000
vt 0.000000 0.000000
vt 0.000000 0.000000
vt 0.000000 0.000000
vt 0.000000 0.000000
vt 0.000000 0.000000
vt 0.000000 0.000000
vt 0.000000 0.000000
vt 0.000000 0.000000
vt 0.000000 0.000000
vt 0.000000 0.000000
vt 0.000000 0.000000
vt 0.000000 0.000000
vt 0.000000 0.000000
vt 0.000000 0.000000
vt 0.000000 0.000000
vt 0.000000 0.000000
vt 0.000000 0.000000
vt 0.000000 0.000000
vt 0.000000 0.000000
vt 0.000000 0.000000
vt 0.000000 0.000000
vt 0.000000 0.000000
vt 0.000000 0.000000
vt 0.000000 0.000000
vt 0.000000 0.000000
vt 0.000000 0.000000
vt 0.000000 0.000000
vt 0.000000 0.000000
vt 0.000000 0.000000
vt 0.000000 0.000000
vt 0.000000 0.000000
vt 0.000000 0.000000
vt 0.000000 0.000000
vt 0.000000 0.000000
vt 0.000000 0.000000
vt 0.000000 0.000000
vt 0.000000 0.000000
vt 0.000000 0.000000
vt 0.000000 0.000000
vt 0.000000 0.000000
vt 0.000000 0.000000
vt 0.000000 0.000000
vt 0.000000 0.000000
vt 0.000000 0.000000
vt 0.000000 0.000000
vt 0.000000 0.000000
vt 0.000000 0.000000
vt 0.000000 0.000000
vt 0.000000 0.000000
vt 0.000000 0.000000
vt 0.000000 0.000000
vt 0.000000 0.000000
vt 0.000000 0.000000
vt 0.000000 0.000000
vt 0.000000 0.000000
vt 0.000000 0.000000
vt 0.000000 0.000000
vt 0.000000 0.000000
vt 0.000000 0.000000
vt 0.000000 0.000000
vt 0.000000 0.000000
vt 0.000000 0.000000
vt 0.000000 0.000000
vt 0.000000 0.000000
vt 0.000000 0.000000
vt 0.000000 0.000000
vt 0.000000 0.000000
vt 0.000000 0.000000
vt 0.000000 0.000000
vt 0.000000 0.000000
vt 0.000000 0.000000
vt 0.000000 0.000000
vt 0.000000 0.000000
vt 0.000000 0.000000
vt 0.000000 0.000000
vt 0.000000 0.000000
vt 0.000000 0.000000
vt 0.000000 0.000000
vt 0.000000 0.000000
vt 0.000000 0.000000
vt 0.000000 0.000000
vt 0.000000 0.000000
vt 0.000000 0.000000
vt 0.000000 0.000000
vt 0.000000 0.000000
vt 0.000000 0.000000
vt 0.000000 0.000000
vt 0.000000 0.000000
vt 0.000000 0.000000
vt 0.000000 0.000000
vt 0.000000 0.000000
vt 0.000000 0.000000
vt 0.000000 0.000000
vt 0.000000 0.000000
vt 0.000000 0.000000
vt 0.000000 0.000000
vn 0.102402 -0.943516 0.315105
vn 0.102402 -0.943516 0.315105
vn 0.102402 -0.943516 0.315105
vn 0.700217 -0.661716 0.268007
vn 0.700217 -0.661716 0.268007
vn 0.700217 -0.661716 0.268007
vn -0.268010 -0.943536 0.194707
vn -0.268010 -0.943536 0.194707
vn -0.268010 -0.943536 0.194707
vn -0.268010 -0.943536 -0.194707
vn -0.268010 -0.943536 -0.194707
vn -0.268010 -0.943536 -0.194707
vn 0.102402 -0.943516 -0.315105
vn 0.102402 -0.943516 -0.315105
vn 0.102402 -0.943516 -0.315105
vn 0.904994 -0.330398 0.267998
vn 0.904994 -0.330398 0.267998
vn 0.904994 -0.330398 0.267998
vn 0.024700 -0.330406 0.943516
vn 0.024700 -0.330406 0.943516
vn 0.024700 -0.330406 0.943516
vn -0.889692 -0.330397 0.315097
vn -0.889692 -0.330397 0.315097
vn -0.889692 -0.330397 0.315097
vn -0.574591 -0.330395 -0.748788
vn -0.574591 -0.330395 -0.748788
vn -0.574591 -0.330395 -0.748788
vn 0.534576 -0.330385 -0.777865
vn 0.534576 -0.330385 -0.777865
vn 0.534576 -0.330385 -0.777865
vn 0.802621 -0.125603 0.583115
vn 0.802621 -0.125603 0.583115
vn 0.802621 -0.125603 0.583115
vn -0.306604 -0.125602 0.943514
vn -0.306604 -0.125602 0.943514
vn -0.306604 -0.125602 0.943514
vn -0.992081 -0.125598 0.000000
vn -0.992081 -0.125598 0.000000
vn -0.992081 -0.125598 0.000000
vn -0.306604 -0.125602 -0.943514
vn -0.306604 -0.125602 -0.943514
vn -0.306604 -0.125602 -0.943514
vn 0.802621 -0.125603 -0.583115
vn 0.802621 -0.125603 -0.583115
vn 0.802621 -0.125603 -0.583115
vn 0.408914 0.661722 0.628421
vn 0.408914 0.661722 0.628421
vn 0.408914 0.661722 0.628421
vn -0.471306 0.661708 0.583107
vn -0.471306 0.661708 0.583107
vn -0.471306 0.661708 0.583107
vn -0.700217 0.661716 -0.268007
vn -0.700217 0.661716 -0.268007
vn -0.700217 0.661716 -0.268007
vn 0.038499 0.661690 -0.748789
vn 0.038499 0.661690 -0.748789
vn 0.038499 0.661690 -0.748789
vn 0.724025 0.661723 -0.194707
vn 0.724025 0.661723 -0.194707
vn 0.724025 0.661723 -0.194707
vn 0.268010 0.943536 -0.194707
vn 0.268010 0.943536 -0.194707
vn 0.268010 0.943536 -0.194707
vn 0.491092 0.794687 -0.356794
vn 0.491092 0.794687 -0.356794
vn 0.491092 0.794687 -0.356794
vn 0.408914 0.661722 -0.628421
vn 0.408914 0.661722 -0.628421
vn 0.408914 0.661722 -0.628421
vn -0.102402 0.943516 -0.315105
vn -0.102402 0.943516 -0.315105
vn -0.102402 0.943516 -0.315105
vn -0.187598 0.794693 -0.577295
vn -0.187598 0.794693 -0.577295
vn -0.187598 0.794693 -0.577295
vn -0.471306 0.661708 -0.583107
vn -0.471306 0.661708 -0.583107
vn -0.471306 0.661708 -0.583107
vn -0.331308 0.943523 0.000000
vn -0.331308 0.943523 0.000000
vn -0.331308 0.943523 0.000000
vn -0.607064 0.794653 0.000000
vn -0.607064 0.794653 0.000000
vn -0.607064 0.794653 0.000000
vn -0.700217 0.661716 0.268007
vn -0.700217 0.661716 0.268007
vn -0.700217 0.661716 0.268007
vn -0.102402 0.943516 0.315105
vn -0.102402 0.943516 0.315105
vn -0.102402 0.943516 0.315105
vn -0.187598 0.794693 0.577295
vn -0.187598 0.794693 0.577295
vn -0.187598 0.794693 0.577295
vn 0.038499 0.661690 0.748789
vn 0.038499 0.661690 0.748789
vn 0.038499 0.661690 0.748789
vn 0.268010 0.943536 0.194707
vn 0.268010 0.943536 0.194707
vn 0.268010 0.943536 0.194707
vn 0.491092 0.794687 0.356794
vn 0.491092 0.794687 0.356794
vn 0.491092 0.794687 0.356794
vn 0.724025 0.661723 0.194707
vn 0.724025 0.661723 0.194707
vn 0.724025 0.661723 0.194707
vn 0.889692 0.330397 -0.315097
vn 0.889692 0.330397 -0.315097
vn 0.889692 0.330397 -0.315097
vn 0.794693 0.187598 -0.577295
vn 0.794693 0.187598 -0.577295
vn 0.794693 0.187598 -0.577295
vn 0.574591 0.330395 -0.748788
vn 0.574591 0.330395 -0.748788
vn 0.574591 0.330395 -0.748788
vn -0.024700 0.330406 -0.943516
vn -0.024700 0.330406 -0.943516
vn -0.024700 0.330406 -0.943516
vn -0.303495 0.187597 -0.934183
vn -0.303495 0.187597 -0.934183
vn -0.303495 0.187597 -0.934183
vn -0.534576 0.330385 -0.777865
vn -0.534576 0.330385 -0.777865
vn -0.534576 0.330385 -0.777865
vn -0.904994 0.330398 -0.267998
vn -0.904994 0.330398 -0.267998
vn -0.904994 0.330398 -0.267998
vn -0.982244 0.187608 0.000000
vn -0.982244 0.187608 0.000000
vn -0.982244 0.187608 0.000000
vn -0.904994 0.330398 0.267998
vn -0.904994 0.330398 0.267998
vn -0.904994 0.330398 0.267998
vn -0.534576 0.330385 0.777865
vn -0.534576 0.330385 0.777865
vn -0.534576 0.330385 0.777865
vn -0.303495 0.187597 0.934183
vn -0.303495 0.187597 0.934183
vn -0.303495 0.187597 0.934183
vn -0.024700 0.330406 0.943516
vn -0.024700 0.330406 0.943516
vn -0.024700 0.330406 0.943516
vn 0.574591 0.330395 0.748788
vn 0.574591 0.330395 0.748788
vn 0.574591 0.330395 0.748788
vn 0.794693 0.187598 0.577295
vn 0.794693 0.187598 0.577295
vn 0.794693 0.187598 0.577295
vn 0.889692 0.330397 0.315097
vn 0.889692 0.330397 0.315097
vn 0.889692 0.330397 0.315097
vn 0.306604 0.125602 -0.943514
vn 0.306604 0.125602 -0.943514
vn 0.306604 0.125602 -0.943514
vn 0.303495 -0.187597 -0.934183
vn 0.303495 -0.187597 -0.934183
vn 0.303495 -0.187597 -0.934183
vn 0.024700 -0.330406 -0.943516
vn 0.024700 -0.330406 -0.943516
vn 0.024700 -0.330406 -0.943516
vn -0.802621 0.125603 -0.583115
vn -0.802621 0.125603 -0.583115
vn -0.802621 0.125603 -0.583115
vn -0.794693 -0.187598 -0.577295
vn -0.794693 -0.187598 -0.577295
vn -0.794693 -0.187598 -0.577295
vn -0.889692 -0.330397 -0.315097
vn -0.889692 -0.330397 -0.315097
vn -0.889692 -0.330397 -0.315097
vn -0.802621 0.125603 0.583115
vn -0.802621 0.125603 0.583115
vn -0.802621 0.125603 0.583115
vn -0.794693 -0.187598 0.577295
vn -0.794693 -0.187598 0.577295
vn -0.794693 -0.187598 0.577295
vn -0.574591 -0.330395 0.748788
vn -0.574591 -0.330395 0.748788
vn -0.574591 -0.330395 0.748788
vn 0.306604 0.125602 0.943514
vn 0.306604 0.125602 0.943514
vn 0.306604 0.125602 0.943514
vn 0.303495 -0.187597 0.934183
vn 0.303495 -0.187597 0.934183
vn 0.303495 -0.187597 0.934183
vn 0.534576 -0.330385 0.777865
vn 0.534576 -0.330385 0.777865
vn 0.534576 -0.330385 0.777865
vn 0.992081 0.125598 0.000000
vn 0.992081 0.125598 0.000000
vn 0.992081 0.125598 0.000000
vn 0.982244 -0.187608 0.000000
vn 0.982244 -0.187608 0.000000
vn 0.982244 -0.187608 0.000000
vn 0.904994 -0.330398 -0.267998
vn 0.904994 -0.330398 -0.267998
vn 0.904994 -0.330398 -0.267998
vn 0.471306 -0.661708 -0.583107
vn 0.471306 -0.661708 -0.583107
vn 0.471306 -0.661708 -0.583107
vn 0.187598 -0.794693 -0.577295
vn 0.187598 -0.794693 -0.577295
vn 0.187598 -0.794693 -0.577295
vn -0.038499 -0.661690 -0.748789
vn -0.038499 -0.661690 -0.748789
vn -0.038499 -0.661690 -0.748789
vn -0.408914 -0.661722 -0.628421
vn -0.408914 -0.661722 -0.628421
vn -0.408914 -0.661722 -0.628421
vn -0.491092 -0.794687 -0.356794
vn -0.491092 -0.794687 -0.356794
vn -0.491092 -0.794687 -0.356794
vn -0.724025 -0.661723 -0.194707
vn -0.724025 -0.661723 -0.194707
vn -0.724025 -0.661723 -0.194707
vn -0.724025 -0.661723 0.194707
vn -0.724025 -0.661723 0.194707
vn -0.724025 -0.661723 0.194707
vn -0.491092 -0.794687 0.356794
vn -0.491092 -0.794687 0.356794
vn -0.491092 -0.794687 0.356794
vn -0.408914 -0.661722 0.628421
vn -0.408914 -0.661722 0.628421
vn -0.408914 -0.661722 0.628421
vn 0.700217 -0.661716 -0.268007
vn 0.700217 -0.661716 -0.268007
vn 0.700217 -0.661716 -0.268007
vn 0.607064 -0.794653 0.000000
vn 0.607064 -0.794653 0.000000
vn 0.607064 -0.794653 0.000000
vn 0.331308 -0.943523 0.000000
vn 0.331308 -0.943523 0.000000
vn 0.331308 -0.943523 0.000000
vn -0.038499 -0.661690 0.748789
vn -0.038499 -0.661690 0.748789
vn -0.038499 -0.661690 0.748789
vn 0.187598 -0.794693 0.577295
vn 0.187598 -0.794693 0.577295
vn 0.187598 -0.794693 0.577295
vn 0.471306 -0.661708 0.583107
vn 0.471306 -0.661708 0.583107
vn 0.471306 -0.661708 0.583107
s off
g Mesh
f 1/1/1 14/2/2 13/3/3
f 2/4/4 14/5/5 16/6/6
f 1/1/7 13/7/8 18/8/9
f 1/1/10 18/9/11 20/10/12
f 1/1/13 20/11/14 17/12/15
f 2/13/16 16/14/17 23/15/18
f 3/16/19 15/17/20 25/18/21
f 4/19/22 19/20/23 27/21/24
f 5/22/25 21/23/26 29/24/27
f 6/25/28 22/26/29 31/27/30
f 2/28/31 23/29/32 26/30/33
f 3/31/34 25/32/35 28/33/36
f 4/34/37 27/35/38 30/36/39
f 5/37/40 29/38/41 32/39/42
f 6/40/43 31/41/44 24/42/45
f 7/43/46 33/44/47 38/45/48
f 8/46/49 34/47/50 40/48/51
f 9/49/52 35/50/53 41/51/54
f 10/52/55 36/53/56 42/54/57
f 11/55/58 37/56/59 39/57/60
f 39/58/61 42/59/62 12/60/63
f 39/61/64 37/62/65 42/63/66
f 37/64/67 10/65/68 42/66/69
f 42/67/70 41/68/71 12/69/72
f 42/70/73 36/71/74 41/72/75
f 36/73/76 9/74/77 41/75/78
f 41/76/79 40/77/80 12/78/81
f 41/79/82 35/80/83 40/81/84
f 35/82/85 8/83/86 40/84/87
f 40/85/88 38/86/89 12/87/90
f 40/88/91 34/89/92 38/90/93
f 34/91/94 7/92/95 38/93/96
f 38/94/97 39/95/98 12/96/99
f 38/97/100 33/98/101 39/99/102
f 33/100/103 11/101/104 39/102/105
f 24/103/106 37/104/107 11/105/108
f 24/106/109 31/107/110 37/108/111
f 31/109/112 10/110/113 37/111/114
f 32/112/115 36/113/116 10/114/117
f 32/115/118 29/116/119 36/117/120
f 29/118/121 9/119/122 36/120/123
f 30/121/124 35/122/125 9/123/126
f 30/124/127 27/125/128 35/126/129
f 27/127/130 8/128/131 35/129/132
f 28/130/133 34/131/134 8/132/135
f 28/133/136 25/134/137 34/135/138
f 25/136/139 7/137/140 34/138/141
f 26/139/142 33/140/143 7/141/144
f 26/142/145 23/143/146 33/144/147
f 23/145/148 11/146/149 33/147/150
f 31/148/151 32/149/152 10/150/153
f 31/151/154 22/152/155 32/153/156
f 22/154/157 5/155/158 32/156/159
f 29/157/160 30/158/161 9/159/162
f 29/160/163 21/161/164 30/162/165
f 21/163/166 4/164/167 30/165/168
f 27/166/169 28/167/170 8/168/171
f 27/169/172 19/170/173 28/171/174
f 19/172/175 3/173/176 28/174/177
f 25/175/178 26/176/179 7/177/180
f 25/178/181 15/179/182 26/180/183
f 15/181/184 2/182/185 26/183/186
f 23/184/187 24/185/188 11/186/189
f 23/187/190 16/188/191 24/189/192
f 16/190/193 6/191/194 24/192/195
f 17/193/196 22/194/197 6/195/198
f 17/196/199 20/197/200 22/198/201
f 20/199/202 5/200/203 22/201/204
f 20/202/205 21/203/206 5/204/207
f 20/205/208 18/206/209 21/207/210
f 18/208/211 4/209/212 21/210/213
f 18/211/214 19/212/215 4/213/216
f 18/214/217 13/215/218 19/216/219
f 13/217/220 3/218/221 19/219/222
f 16/220/223 17/221/224 6/222/225
f 16/223/226 14/224/227 17/225/228
f 14/226/229 1/1/230 17/227/231
f 13/228/232 15/229/233 3/230/234
f 13/231/235 14/232/236 15/233/237
f 14/234/238 2/235/239 15/236/240
