# This file uses centimeters as units for non-parametric coordinates.

mtllib TutorialWalls.mtl
g TutorialWalls:default1
v -7.863625 -0.000218 4.637340
v -7.863625 -0.000218 1.289349
v -7.863625 3.000218 4.637340
v -7.863625 3.000218 1.289349
v -8.437353 3.000218 4.637340
v -8.437353 3.000218 1.289350
v -8.437353 -0.000218 4.637340
v -8.437353 -0.000218 1.289349
v -7.863625 -0.000218 -1.298973
v -7.863625 -0.000218 -4.659393
v -7.863625 3.000218 -1.298973
v -7.863625 3.000218 -4.659393
v -8.437353 3.000218 -1.298973
v -8.437353 3.000218 -4.659393
v -8.437353 -0.000218 -1.298973
v -8.437353 -0.000218 -4.659393
v -8.012762 -0.000218 4.652956
v 8.012764 -0.000218 4.652956
v -8.012762 3.000218 4.652956
v 8.012764 3.000218 4.652956
v -8.012762 3.000218 4.319486
v 8.012764 3.000218 4.319486
v -8.012762 -0.000218 4.319486
v 8.012764 -0.000218 4.319486
v -8.012762 -0.000218 -4.313608
v 8.012764 -0.000218 -4.313608
v -8.012762 3.000218 -4.313608
v 8.012764 3.000218 -4.313608
v -8.012762 3.000218 -4.647079
v 8.012764 3.000218 -4.647079
v -8.012762 -0.000218 -4.647079
v 8.012764 -0.000218 -4.647079
vt 0.788614 0.000000
vt 0.903576 0.000000
vt 0.788614 1.000000
vt 0.903576 1.000000
vt 0.788614 1.000000
vt 0.788614 1.000000
vt 0.903576 1.000000
vt 0.788614 1.000000
vt 0.903576 1.000000
vt 0.788614 0.000000
vt 0.788614 0.000000
vt 0.903576 1.000000
vt 0.903576 0.000000
vt 0.788614 0.000000
vt 0.903576 0.000000
vt 0.903576 0.000000
vt 0.903576 0.000000
vt 0.903576 0.000000
vt 0.903576 1.000000
vt 0.788614 0.000000
vt 0.788614 1.000000
vt 0.788614 1.000000
vt 0.788614 0.000000
vt 0.903576 0.000000
vt 0.788614 1.000000
vt 0.903576 1.000000
vt 0.788614 1.000000
vt 0.788614 1.000000
vt 0.903576 1.000000
vt 0.788614 1.000000
vt 0.903576 1.000000
vt 0.788614 0.000000
vt 0.788614 0.000000
vt 0.903576 1.000000
vt 0.903576 0.000000
vt 0.788614 0.000000
vt 0.903576 0.000000
vt 0.903576 0.000000
vt 0.903576 0.000000
vt 0.903576 0.000000
vt 0.903576 1.000000
vt 0.788614 0.000000
vt 0.788614 1.000000
vt 0.788614 1.000000
vt 0.788614 0.000000
vt 0.903576 0.000000
vt 0.788614 1.000000
vt 0.903576 1.000000
vt 0.788614 1.000000
vt 0.788614 1.000000
vt 0.903576 1.000000
vt 0.788614 1.000000
vt 0.903576 1.000000
vt 0.788614 0.000000
vt 0.788614 0.000000
vt 0.903576 1.000000
vt 0.903576 0.000000
vt 0.788614 0.000000
vt 0.903576 0.000000
vt 0.903576 0.000000
vt 0.903576 0.000000
vt 0.903576 0.000000
vt 0.903576 1.000000
vt 0.788614 0.000000
vt 0.788614 1.000000
vt 0.788614 1.000000
vt 0.788614 0.000000
vt 0.903576 0.000000
vt 0.788614 1.000000
vt 0.903576 1.000000
vt 0.788614 1.000000
vt 0.788614 1.000000
vt 0.903576 1.000000
vt 0.788614 1.000000
vt 0.903576 1.000000
vt 0.788614 0.000000
vt 0.788614 0.000000
vt 0.903576 1.000000
vt 0.903576 0.000000
vt 0.788614 0.000000
vt 0.903576 0.000000
vt 0.903576 0.000000
vt 0.903576 0.000000
vt 0.903576 0.000000
vt 0.903576 1.000000
vt 0.788614 0.000000
vt 0.788614 1.000000
vt 0.788614 1.000000
vn 1.000000 0.000000 0.000000
vn 1.000000 0.000000 0.000000
vn 1.000000 0.000000 0.000000
vn 1.000000 0.000000 0.000000
vn 1.000000 0.000000 0.000000
vn 1.000000 0.000000 0.000000
vn 0.000000 1.000000 0.000000
vn 0.000000 1.000000 0.000000
vn 0.000000 1.000000 0.000000
vn 0.000000 1.000000 0.000000
vn 0.000000 1.000000 0.000000
vn 0.000000 1.000000 0.000000
vn -1.000000 0.000000 -0.000000
vn -1.000000 0.000000 -0.000000
vn -1.000000 0.000000 -0.000000
vn -1.000000 0.000000 -0.000000
vn -1.000000 0.000000 -0.000000
vn -1.000000 0.000000 -0.000000
vn 0.000000 -1.000000 0.000000
vn 0.000000 -1.000000 0.000000
vn 0.000000 -1.000000 0.000000
vn 0.000000 -1.000000 0.000000
vn 0.000000 -1.000000 0.000000
vn 0.000000 -1.000000 0.000000
vn 0.000000 0.000000 -1.000000
vn 0.000000 0.000000 -1.000000
vn 0.000000 0.000000 -1.000000
vn 0.000000 0.000000 -1.000000
vn 0.000000 0.000000 -1.000000
vn 0.000000 0.000000 -1.000000
vn 0.000000 0.000000 1.000000
vn 0.000000 0.000000 1.000000
vn 0.000000 0.000000 1.000000
vn 0.000000 0.000000 1.000000
vn 0.000000 0.000000 1.000000
vn 0.000000 0.000000 1.000000
vn 1.000000 0.000000 0.000000
vn 1.000000 0.000000 0.000000
vn 1.000000 0.000000 0.000000
vn 1.000000 0.000000 0.000000
vn 1.000000 0.000000 0.000000
vn 1.000000 0.000000 0.000000
vn 0.000000 1.000000 0.000000
vn 0.000000 1.000000 0.000000
vn 0.000000 1.000000 0.000000
vn 0.000000 1.000000 0.000000
vn 0.000000 1.000000 0.000000
vn 0.000000 1.000000 0.000000
vn -1.000000 0.000000 -0.000000
vn -1.000000 0.000000 -0.000000
vn -1.000000 0.000000 -0.000000
vn -1.000000 0.000000 -0.000000
vn -1.000000 0.000000 -0.000000
vn -1.000000 0.000000 -0.000000
vn 0.000000 -1.000000 0.000000
vn 0.000000 -1.000000 0.000000
vn 0.000000 -1.000000 0.000000
vn 0.000000 -1.000000 0.000000
vn 0.000000 -1.000000 0.000000
vn 0.000000 -1.000000 0.000000
vn 0.000000 0.000000 -1.000000
vn 0.000000 0.000000 -1.000000
vn 0.000000 0.000000 -1.000000
vn 0.000000 0.000000 -1.000000
vn 0.000000 0.000000 -1.000000
vn 0.000000 0.000000 -1.000000
vn 0.000000 0.000000 1.000000
vn 0.000000 0.000000 1.000000
vn 0.000000 0.000000 1.000000
vn 0.000000 0.000000 1.000000
vn 0.000000 0.000000 1.000000
vn 0.000000 0.000000 1.000000
vn 0.000000 0.000000 1.000000
vn 0.000000 0.000000 1.000000
vn 0.000000 0.000000 1.000000
vn 0.000000 0.000000 1.000000
vn 0.000000 0.000000 1.000000
vn 0.000000 0.000000 1.000000
vn 0.000000 1.000000 0.000000
vn 0.000000 1.000000 0.000000
vn 0.000000 1.000000 0.000000
vn 0.000000 1.000000 0.000000
vn 0.000000 1.000000 0.000000
vn 0.000000 1.000000 0.000000
vn 0.000000 0.000000 -1.000000
vn 0.000000 0.000000 -1.000000
vn 0.000000 0.000000 -1.000000
vn 0.000000 0.000000 -1.000000
vn 0.000000 0.000000 -1.000000
vn 0.000000 0.000000 -1.000000
vn 0.000000 -1.000000 0.000000
vn 0.000000 -1.000000 0.000000
vn 0.000000 -1.000000 0.000000
vn 0.000000 -1.000000 0.000000
vn 0.000000 -1.000000 0.000000
vn 0.000000 -1.000000 0.000000
vn 1.000000 0.000000 0.000000
vn 1.000000 0.000000 0.000000
vn 1.000000 0.000000 0.000000
vn 1.000000 0.000000 0.000000
vn 1.000000 0.000000 0.000000
vn 1.000000 0.000000 0.000000
vn -1.000000 0.000000 0.000000
vn -1.000000 0.000000 0.000000
vn -1.000000 0.000000 0.000000
vn -1.000000 0.000000 0.000000
vn -1.000000 0.000000 0.000000
vn -1.000000 0.000000 0.000000
vn 0.000000 0.000000 1.000000
vn 0.000000 0.000000 1.000000
vn 0.000000 0.000000 1.000000
vn 0.000000 0.000000 1.000000
vn 0.000000 0.000000 1.000000
vn 0.000000 0.000000 1.000000
vn 0.000000 1.000000 0.000000
vn 0.000000 1.000000 0.000000
vn 0.000000 1.000000 0.000000
vn 0.000000 1.000000 0.000000
vn 0.000000 1.000000 0.000000
vn 0.000000 1.000000 0.000000
vn 0.000000 0.000000 -1.000000
vn 0.000000 0.000000 -1.000000
vn 0.000000 0.000000 -1.000000
vn 0.000000 0.000000 -1.000000
vn 0.000000 0.000000 -1.000000
vn 0.000000 0.000000 -1.000000
vn 0.000000 -1.000000 0.000000
vn 0.000000 -1.000000 0.000000
vn 0.000000 -1.000000 0.000000
vn 0.000000 -1.000000 0.000000
vn 0.000000 -1.000000 0.000000
vn 0.000000 -1.000000 0.000000
vn 1.000000 0.000000 0.000000
vn 1.000000 0.000000 0.000000
vn 1.000000 0.000000 0.000000
vn 1.000000 0.000000 0.000000
vn 1.000000 0.000000 0.000000
vn 1.000000 0.000000 0.000000
vn -1.000000 0.000000 0.000000
vn -1.000000 0.000000 0.000000
vn -1.000000 0.000000 0.000000
vn -1.000000 0.000000 0.000000
vn -1.000000 0.000000 0.000000
vn -1.000000 0.000000 0.000000
s off
g TutorialWalls:Walls_Mesh TutorialWalls:initialShadingGroup TutorialWalls:polySurface5 TutorialWalls:polySurface1
usemtl initialShadingGroup
f 1/1/1 2/2/2 3/3/3
f 3/3/4 2/2/5 4/4/6
f 3/3/7 4/4/8 5/5/9
f 5/6/10 4/4/11 6/7/12
f 5/8/13 6/9/14 7/10/15
f 7/11/16 6/12/17 8/13/18
f 7/14/19 8/15/20 1/1/21
f 1/1/22 8/16/23 2/2/24
f 2/2/25 8/17/26 4/4/27
f 4/4/28 8/18/29 6/19/30
f 7/20/31 1/1/32 5/21/33
f 5/22/34 1/1/35 3/3/36
f 9/23/37 10/24/38 11/25/39
f 11/25/40 10/24/41 12/26/42
f 11/25/43 12/26/44 13/27/45
f 13/28/46 12/26/47 14/29/48
f 13/30/49 14/31/50 15/32/51
f 15/33/52 14/34/53 16/35/54
f 15/36/55 16/37/56 9/23/57
f 9/23/58 16/38/59 10/24/60
f 10/24/61 16/39/62 12/26/63
f 12/26/64 16/40/65 14/41/66
f 15/42/67 9/23/68 13/43/69
f 13/44/70 9/23/71 11/25/72
f 17/45/73 18/46/74 19/47/75
f 19/47/76 18/46/77 20/48/78
f 19/47/79 20/48/80 21/49/81
f 21/50/82 20/48/83 22/51/84
f 21/52/85 22/53/86 23/54/87
f 23/55/88 22/56/89 24/57/90
f 23/58/91 24/59/92 17/45/93
f 17/45/94 24/60/95 18/46/96
f 18/46/97 24/61/98 20/48/99
f 20/48/100 24/62/101 22/63/102
f 23/64/103 17/45/104 21/65/105
f 21/66/106 17/45/107 19/47/108
f 25/67/109 26/68/110 27/69/111
f 27/69/112 26/68/113 28/70/114
f 27/69/115 28/70/116 29/71/117
f 29/72/118 28/70/119 30/73/120
f 29/74/121 30/75/122 31/76/123
f 31/77/124 30/78/125 32/79/126
f 31/80/127 32/81/128 25/67/129
f 25/67/130 32/82/131 26/68/132
f 26/68/133 32/83/134 28/70/135
f 28/70/136 32/84/137 30/85/138
f 31/86/139 25/67/140 29/87/141
f 29/88/142 25/67/143 27/69/144
