# This file uses centimeters as units for non-parametric coordinates.

mtllib WinBoard.mtl
g default
v 1.003307 0.000000 -8.968345
v 1.003307 3.000000 -8.968345
v 3.002747 3.000000 -8.968346
v 3.002747 0.000000 -8.968346
vt -0.000214 0.000000
vt -0.001653 1.002054
vt 0.999259 0.000000
vt 1.000078 0.999782
vn 0.000001 0.000000 1.000000
vn 0.000000 0.000000 1.000000
vn 0.000000 0.000000 1.000000
vn 0.000000 0.000000 1.000000
s 1
g WinBoard
usemtl lambert4SG
f 1/1/1 4/3/2 2/2/3
f 2/2/3 4/3/2 3/4/4
