# This file uses centimeters as units for non-parametric coordinates.

mtllib Button.mtl
o Button
v -2.436862 0.286414 8.040887
v -2.536716 0.286414 7.966169
v -2.436862 0.434592 8.040887
v -2.536716 0.434592 7.966169
v -2.660144 0.286414 7.966169
v -2.660144 0.434592 7.966169
v -2.759999 0.286414 8.040887
v -2.759999 0.434592 8.040887
v -2.798141 0.286414 8.161783
v -2.798141 0.434592 8.161783
v -2.759999 0.286414 8.282679
v -2.759999 0.434592 8.282679
v -2.660144 0.286414 8.357396
v -2.660144 0.434592 8.357396
v -2.536716 0.286414 8.357396
v -2.536716 0.434592 8.357396
v -2.436862 0.286414 8.282679
v -2.436862 0.434592 8.282679
v -2.398720 0.286414 8.161783
v -2.398720 0.434592 8.161783
vt 0.375000 0.312500
vt 0.400000 0.312500
vt 0.375000 0.688440
vt 0.400000 0.688440
vt 0.425000 0.312500
vt 0.425000 0.688440
vt 0.450000 0.312500
vt 0.450000 0.688440
vt 0.475000 0.312500
vt 0.475000 0.688440
vt 0.500000 0.312500
vt 0.500000 0.688440
vt 0.525000 0.312500
vt 0.525000 0.688440
vt 0.550000 0.312500
vt 0.550000 0.688440
vt 0.575000 0.312500
vt 0.575000 0.688440
vt 0.600000 0.312500
vt 0.600000 0.688440
vt 0.625000 0.312500
vt 0.625000 0.688440
vt 0.626409 0.248091
vt 0.548284 0.304853
vt 0.656250 0.156250
vt 0.451716 0.304853
vt 0.373591 0.248091
vt 0.343750 0.156250
vt 0.373591 0.064409
vt 0.451716 0.007647
vt 0.548284 0.007647
vt 0.626409 0.064409
vt 0.656250 0.843750
vt 0.626409 0.935591
vt 0.626409 0.751909
vt 0.548284 0.992353
vt 0.451716 0.992353
vt 0.373591 0.935591
vt 0.343750 0.843750
vt 0.373591 0.751909
vt 0.451716 0.695147
vt 0.548284 0.695147
vn 0.599088 0.000000 -0.800684
vn 0.599088 0.000000 -0.800684
vn 0.599088 0.000000 -0.800684
vn 0.599088 0.000000 -0.800684
vn 0.599088 0.000000 -0.800684
vn 0.599088 0.000000 -0.800684
vn 0.000000 0.000000 -1.000000
vn 0.000000 0.000000 -1.000000
vn 0.000000 0.000000 -1.000000
vn 0.000000 0.000000 -1.000000
vn 0.000000 0.000000 -1.000000
vn 0.000000 0.000000 -1.000000
vn -0.599088 0.000000 -0.800684
vn -0.599088 0.000000 -0.800684
vn -0.599088 0.000000 -0.800684
vn -0.599088 0.000000 -0.800684
vn -0.599088 0.000000 -0.800684
vn -0.599088 0.000000 -0.800684
vn -0.953660 0.000000 -0.300887
vn -0.953660 0.000000 -0.300887
vn -0.953660 0.000000 -0.300887
vn -0.953660 0.000000 -0.300887
vn -0.953660 0.000000 -0.300887
vn -0.953660 0.000000 -0.300887
vn -0.953660 0.000000 0.300887
vn -0.953660 0.000000 0.300887
vn -0.953660 0.000000 0.300887
vn -0.953660 0.000000 0.300887
vn -0.953660 0.000000 0.300887
vn -0.953660 0.000000 0.300887
vn -0.599088 0.000000 0.800684
vn -0.599088 0.000000 0.800684
vn -0.599088 0.000000 0.800684
vn -0.599088 0.000000 0.800684
vn -0.599088 0.000000 0.800684
vn -0.599088 0.000000 0.800684
vn 0.000000 0.000000 1.000000
vn 0.000000 0.000000 1.000000
vn 0.000000 0.000000 1.000000
vn 0.000000 0.000000 1.000000
vn 0.000000 0.000000 1.000000
vn 0.000000 0.000000 1.000000
vn 0.599088 0.000000 0.800684
vn 0.599088 0.000000 0.800684
vn 0.599088 0.000000 0.800684
vn 0.599088 0.000000 0.800684
vn 0.599088 0.000000 0.800684
vn 0.599088 0.000000 0.800684
vn 0.953660 0.000000 0.300887
vn 0.953660 0.000000 0.300887
vn 0.953660 0.000000 0.300887
vn 0.953660 0.000000 0.300887
vn 0.953660 0.000000 0.300887
vn 0.953660 0.000000 0.300887
vn 0.953660 0.000000 -0.300887
vn 0.953660 0.000000 -0.300887
vn 0.953660 0.000000 -0.300887
vn 0.953660 0.000000 -0.300887
vn 0.953660 0.000000 -0.300887
vn 0.953660 0.000000 -0.300887
vn 0.000000 -1.000000 0.000000
vn 0.000000 -1.000000 0.000000
vn 0.000000 -1.000000 0.000000
vn 0.000000 -1.000000 0.000000
vn 0.000000 -1.000000 0.000000
vn 0.000000 -1.000000 0.000000
vn 0.000000 -1.000000 0.000000
vn 0.000000 -1.000000 0.000000
vn 0.000000 -1.000000 0.000000
vn 0.000000 -1.000000 0.000000
vn 0.000000 -1.000000 0.000000
vn 0.000000 -1.000000 0.000000
vn 0.000000 -1.000000 0.000000
vn 0.000000 -1.000000 0.000000
vn 0.000000 -1.000000 0.000000
vn 0.000000 -1.000000 0.000000
vn 0.000000 -1.000000 0.000000
vn 0.000000 -1.000000 0.000000
vn 0.000000 -1.000000 0.000000
vn 0.000000 -1.000000 0.000000
vn 0.000000 -1.000000 0.000000
vn 0.000000 -1.000000 0.000000
vn 0.000000 -1.000000 0.000000
vn 0.000000 -1.000000 0.000000
vn 0.000000 1.000000 0.000000
vn 0.000000 1.000000 0.000000
vn 0.000000 1.000000 0.000000
vn 0.000000 1.000000 0.000000
vn 0.000000 1.000000 0.000000
vn 0.000000 1.000000 0.000000
vn 0.000000 1.000000 0.000000
vn 0.000000 1.000000 0.000000
vn 0.000000 1.000000 0.000000
vn 0.000000 1.000000 0.000000
vn 0.000000 1.000000 0.000000
vn 0.000000 1.000000 0.000000
vn 0.000000 1.000000 0.000000
vn 0.000000 1.000000 0.000000
vn 0.000000 1.000000 0.000000
vn 0.000000 1.000000 0.000000
vn 0.000000 1.000000 0.000000
vn 0.000000 1.000000 0.000000
vn 0.000000 1.000000 0.000000
vn 0.000000 1.000000 0.000000
vn 0.000000 1.000000 0.000000
vn 0.000000 1.000000 0.000000
vn 0.000000 1.000000 0.000000
vn 0.000000 1.000000 0.000000
s off
g Button:Mesh
usemtl initialShadingGroup
f 1/1/1 2/2/2 3/3/3
f 3/3/4 2/2/5 4/4/6
f 2/2/7 5/5/8 4/4/9
f 4/4/10 5/5/11 6/6/12
f 5/5/13 7/7/14 6/6/15
f 6/6/16 7/7/17 8/8/18
f 7/7/19 9/9/20 8/8/21
f 8/8/22 9/9/23 10/10/24
f 9/9/25 11/11/26 10/10/27
f 10/10/28 11/11/29 12/12/30
f 11/11/31 13/13/32 12/12/33
f 12/12/34 13/13/35 14/14/36
f 13/13/37 15/15/38 14/14/39
f 14/14/40 15/15/41 16/16/42
f 15/15/43 17/17/44 16/16/45
f 16/16/46 17/17/47 18/18/48
f 17/17/49 19/19/50 18/18/51
f 18/18/52 19/19/53 20/20/54
f 19/19/55 1/21/56 20/20/57
f 20/20/58 1/21/59 3/22/60
f 17/23/61 15/24/62 19/25/63
f 15/24/64 13/26/65 19/25/66
f 13/26/67 11/27/68 19/25/69
f 11/27/70 9/28/71 19/25/72
f 9/28/73 7/29/74 19/25/75
f 7/29/76 5/30/77 19/25/78
f 5/30/79 2/31/80 19/25/81
f 2/31/82 1/32/83 19/25/84
f 20/33/85 3/34/86 18/35/87
f 3/34/88 4/36/89 18/35/90
f 4/36/91 6/37/92 18/35/93
f 6/37/94 8/38/95 18/35/96
f 8/38/97 10/39/98 18/35/99
f 10/39/100 12/40/101 18/35/102
f 12/40/103 14/41/104 18/35/105
f 14/41/106 16/42/107 18/35/108
