# Blender v2.76 (sub 0) OBJ File: ''
# www.blender.org
o Servers
v 4.899012 -1.000219 3.097995
v 6.880506 -1.000219 3.097995
v 4.899012 1.946848 3.097995
v 6.880506 1.946848 3.097995
v 4.899012 1.946848 1.750104
v 6.880506 1.946848 1.750104
v 4.899012 -1.000218 1.750104
v 6.880506 -1.000218 1.750104
v 4.899012 -1.000219 3.097995
v 6.880506 -1.000219 3.097995
v 4.899012 1.946848 3.097995
v 6.880506 1.946848 3.097995
v 4.899012 1.946848 1.750104
v 6.880506 1.946848 1.750104
v 4.899012 -1.000218 1.750104
v 6.880506 -1.000218 1.750104
v 4.899012 -1.000219 8.164638
v 6.880506 -1.000219 8.164638
v 4.899012 1.946847 8.164638
v 6.880506 1.946847 8.164638
v 4.899012 1.946847 6.816748
v 6.880506 1.946847 6.816748
v 4.899012 -1.000219 6.816747
v 6.880506 -1.000219 6.816747
v 4.899012 -1.000219 8.164638
v 6.880506 -1.000219 8.164638
v 4.899012 1.946847 8.164638
v 6.880506 1.946847 8.164638
v 4.899012 1.946847 6.816748
v 6.880506 1.946847 6.816748
v 4.899012 -1.000219 6.816747
v 6.880506 -1.000219 6.816747
v -11.869656 -1.000219 8.164638
v -9.888162 -1.000219 8.164638
v -11.869656 1.946847 8.164638
v -9.888162 1.946847 8.164638
v -11.869656 1.946847 6.816748
v -9.888162 1.946847 6.816748
v -11.869656 -1.000219 6.816747
v -9.888162 -1.000219 6.816747
v -11.869656 -1.000219 8.164638
v -9.888162 -1.000219 8.164638
v -11.869656 1.946847 8.164638
v -9.888162 1.946847 8.164638
v -11.869656 1.946847 6.816748
v -9.888162 1.946847 6.816748
v -11.869656 -1.000219 6.816747
v -9.888162 -1.000219 6.816747
v -11.869656 -1.000219 6.496764
v -9.888162 -1.000219 6.496764
v -11.869656 1.946847 6.496765
v -9.888162 1.946847 6.496765
v -11.869656 1.946847 5.148873
v -9.888162 1.946847 5.148873
v -11.869656 -1.000219 5.148873
v -9.888162 -1.000219 5.148873
v -11.869656 -1.000219 6.496764
v -9.888162 -1.000219 6.496764
v -11.869656 1.946847 6.496765
v -9.888162 1.946847 6.496765
v -11.869656 1.946847 5.148873
v -9.888162 1.946847 5.148873
v -11.869656 -1.000219 5.148873
v -9.888162 -1.000219 5.148873
v 4.899012 -1.000219 6.496764
v 6.880506 -1.000219 6.496764
v 4.899012 1.946847 6.496765
v 6.880506 1.946847 6.496765
v 4.899012 1.946847 5.148873
v 6.880506 1.946847 5.148873
v 4.899012 -1.000219 5.148873
v 6.880506 -1.000219 5.148873
v 4.899012 -1.000219 6.496764
v 6.880506 -1.000219 6.496764
v 4.899012 1.946847 6.496765
v 6.880506 1.946847 6.496765
v 4.899012 1.946847 5.148873
v 6.880506 1.946847 5.148873
v 4.899012 -1.000219 5.148873
v 6.880506 -1.000219 5.148873
v 4.899012 -1.000219 4.790597
v 6.880506 -1.000219 4.790597
v 4.899012 1.946847 4.790597
v 6.880506 1.946847 4.790597
v 4.899012 1.946847 3.442706
v 6.880506 1.946847 3.442706
v 4.899012 -1.000219 3.442706
v 6.880506 -1.000219 3.442706
v 4.899012 -1.000219 4.790597
v 6.880506 -1.000219 4.790597
v 4.899012 1.946847 4.790597
v 6.880506 1.946847 4.790597
v 4.899012 1.946847 3.442706
v 6.880506 1.946847 3.442706
v 4.899012 -1.000219 3.442706
v 6.880506 -1.000219 3.442706
v -11.869656 -1.000219 4.790597
v -9.888162 -1.000219 4.790597
v -11.869656 1.946847 4.790597
v -9.888162 1.946847 4.790597
v -11.869656 1.946847 3.442706
v -9.888162 1.946847 3.442706
v -11.869656 -1.000219 3.442706
v -9.888162 -1.000219 3.442706
v -11.869656 -1.000219 4.790597
v -9.888162 -1.000219 4.790597
v -11.869656 1.946847 4.790597
v -9.888162 1.946847 4.790597
v -11.869656 1.946847 3.442706
v -9.888162 1.946847 3.442706
v -11.869656 -1.000219 3.442706
v -9.888162 -1.000219 3.442706
v -11.869656 -1.000219 3.097995
v -9.888162 -1.000219 3.097995
v -11.869656 1.946848 3.097995
v -9.888162 1.946848 3.097995
v -11.869656 1.946848 1.750104
v -9.888162 1.946848 1.750104
v -11.869656 -1.000218 1.750104
v -9.888162 -1.000218 1.750104
v -11.869656 -1.000219 3.097995
v -9.888162 -1.000219 3.097995
v -11.869656 1.946848 3.097995
v -9.888162 1.946848 3.097995
v -11.869656 1.946848 1.750104
v -9.888162 1.946848 1.750104
v -11.869656 -1.000218 1.750104
v -9.888162 -1.000218 1.750104
vt 0.375000 0.000000
vt 0.625000 0.000000
vt 0.375000 0.250000
vt 0.625000 0.250000
vt 0.375000 0.500000
vt 0.625000 0.500000
vt 0.375000 0.750000
vt 0.625000 0.750000
vt 0.375000 1.000000
vt 0.625000 1.000000
vt 0.875000 0.000000
vt 0.875000 0.250000
vt 0.125000 0.000000
vt 0.125000 0.250000
vn 0.000000 -0.000000 1.000000
vn 0.000000 1.000000 0.000000
vn 0.000000 0.000000 -1.000000
vn 0.000000 -1.000000 -0.000000
vn 1.000000 -0.000000 0.000000
vn -1.000000 0.000000 0.000000
s 1
f 1/1/1 2/2/1 3/3/1
f 3/3/1 2/2/1 4/4/1
f 3/3/2 4/4/2 5/5/2
f 5/5/2 4/4/2 6/6/2
f 5/5/3 6/6/3 7/7/3
f 7/7/3 6/6/3 8/8/3
f 7/7/4 8/8/4 1/9/4
f 1/9/4 8/8/4 2/10/4
f 2/2/5 8/11/5 4/4/5
f 4/4/5 8/11/5 6/12/5
f 7/13/6 1/1/6 5/14/6
f 5/14/6 1/1/6 3/3/6
f 9/1/1 10/2/1 11/3/1
f 11/3/1 10/2/1 12/4/1
f 11/3/2 12/4/2 13/5/2
f 13/5/2 12/4/2 14/6/2
f 13/5/3 14/6/3 15/7/3
f 15/7/3 14/6/3 16/8/3
f 15/7/4 16/8/4 9/9/4
f 9/9/4 16/8/4 10/10/4
f 10/2/5 16/11/5 12/4/5
f 12/4/5 16/11/5 14/12/5
f 15/13/6 9/1/6 13/14/6
f 13/14/6 9/1/6 11/3/6
f 17/1/1 18/2/1 19/3/1
f 19/3/1 18/2/1 20/4/1
f 19/3/2 20/4/2 21/5/2
f 21/5/2 20/4/2 22/6/2
f 21/5/3 22/6/3 23/7/3
f 23/7/3 22/6/3 24/8/3
f 23/7/4 24/8/4 17/9/4
f 17/9/4 24/8/4 18/10/4
f 18/2/5 24/11/5 20/4/5
f 20/4/5 24/11/5 22/12/5
f 23/13/6 17/1/6 21/14/6
f 21/14/6 17/1/6 19/3/6
f 25/1/1 26/2/1 27/3/1
f 27/3/1 26/2/1 28/4/1
f 27/3/2 28/4/2 29/5/2
f 29/5/2 28/4/2 30/6/2
f 29/5/3 30/6/3 31/7/3
f 31/7/3 30/6/3 32/8/3
f 31/7/4 32/8/4 25/9/4
f 25/9/4 32/8/4 26/10/4
f 26/2/5 32/11/5 28/4/5
f 28/4/5 32/11/5 30/12/5
f 31/13/6 25/1/6 29/14/6
f 29/14/6 25/1/6 27/3/6
f 33/1/1 34/2/1 35/3/1
f 35/3/1 34/2/1 36/4/1
f 35/3/2 36/4/2 37/5/2
f 37/5/2 36/4/2 38/6/2
f 37/5/3 38/6/3 39/7/3
f 39/7/3 38/6/3 40/8/3
f 39/7/4 40/8/4 33/9/4
f 33/9/4 40/8/4 34/10/4
f 34/2/5 40/11/5 36/4/5
f 36/4/5 40/11/5 38/12/5
f 39/13/6 33/1/6 37/14/6
f 37/14/6 33/1/6 35/3/6
f 41/1/1 42/2/1 43/3/1
f 43/3/1 42/2/1 44/4/1
f 43/3/2 44/4/2 45/5/2
f 45/5/2 44/4/2 46/6/2
f 45/5/3 46/6/3 47/7/3
f 47/7/3 46/6/3 48/8/3
f 47/7/4 48/8/4 41/9/4
f 41/9/4 48/8/4 42/10/4
f 42/2/5 48/11/5 44/4/5
f 44/4/5 48/11/5 46/12/5
f 47/13/6 41/1/6 45/14/6
f 45/14/6 41/1/6 43/3/6
f 49/1/1 50/2/1 51/3/1
f 51/3/1 50/2/1 52/4/1
f 51/3/2 52/4/2 53/5/2
f 53/5/2 52/4/2 54/6/2
f 53/5/3 54/6/3 55/7/3
f 55/7/3 54/6/3 56/8/3
f 55/7/4 56/8/4 49/9/4
f 49/9/4 56/8/4 50/10/4
f 50/2/5 56/11/5 52/4/5
f 52/4/5 56/11/5 54/12/5
f 55/13/6 49/1/6 53/14/6
f 53/14/6 49/1/6 51/3/6
f 57/1/1 58/2/1 59/3/1
f 59/3/1 58/2/1 60/4/1
f 59/3/2 60/4/2 61/5/2
f 61/5/2 60/4/2 62/6/2
f 61/5/3 62/6/3 63/7/3
f 63/7/3 62/6/3 64/8/3
f 63/7/4 64/8/4 57/9/4
f 57/9/4 64/8/4 58/10/4
f 58/2/5 64/11/5 60/4/5
f 60/4/5 64/11/5 62/12/5
f 63/13/6 57/1/6 61/14/6
f 61/14/6 57/1/6 59/3/6
f 65/1/1 66/2/1 67/3/1
f 67/3/1 66/2/1 68/4/1
f 67/3/2 68/4/2 69/5/2
f 69/5/2 68/4/2 70/6/2
f 69/5/3 70/6/3 71/7/3
f 71/7/3 70/6/3 72/8/3
f 71/7/4 72/8/4 65/9/4
f 65/9/4 72/8/4 66/10/4
f 66/2/5 72/11/5 68/4/5
f 68/4/5 72/11/5 70/12/5
f 71/13/6 65/1/6 69/14/6
f 69/14/6 65/1/6 67/3/6
f 73/1/1 74/2/1 75/3/1
f 75/3/1 74/2/1 76/4/1
f 75/3/2 76/4/2 77/5/2
f 77/5/2 76/4/2 78/6/2
f 77/5/3 78/6/3 79/7/3
f 79/7/3 78/6/3 80/8/3
f 79/7/4 80/8/4 73/9/4
f 73/9/4 80/8/4 74/10/4
f 74/2/5 80/11/5 76/4/5
f 76/4/5 80/11/5 78/12/5
f 79/13/6 73/1/6 77/14/6
f 77/14/6 73/1/6 75/3/6
f 81/1/1 82/2/1 83/3/1
f 83/3/1 82/2/1 84/4/1
f 83/3/2 84/4/2 85/5/2
f 85/5/2 84/4/2 86/6/2
f 85/5/3 86/6/3 87/7/3
f 87/7/3 86/6/3 88/8/3
f 87/7/4 88/8/4 81/9/4
f 81/9/4 88/8/4 82/10/4
f 82/2/5 88/11/5 84/4/5
f 84/4/5 88/11/5 86/12/5
f 87/13/6 81/1/6 85/14/6
f 85/14/6 81/1/6 83/3/6
f 89/1/1 90/2/1 91/3/1
f 91/3/1 90/2/1 92/4/1
f 91/3/2 92/4/2 93/5/2
f 93/5/2 92/4/2 94/6/2
f 93/5/3 94/6/3 95/7/3
f 95/7/3 94/6/3 96/8/3
f 95/7/4 96/8/4 89/9/4
f 89/9/4 96/8/4 90/10/4
f 90/2/5 96/11/5 92/4/5
f 92/4/5 96/11/5 94/12/5
f 95/13/6 89/1/6 93/14/6
f 93/14/6 89/1/6 91/3/6
f 97/1/1 98/2/1 99/3/1
f 99/3/1 98/2/1 100/4/1
f 99/3/2 100/4/2 101/5/2
f 101/5/2 100/4/2 102/6/2
f 101/5/3 102/6/3 103/7/3
f 103/7/3 102/6/3 104/8/3
f 103/7/4 104/8/4 97/9/4
f 97/9/4 104/8/4 98/10/4
f 98/2/5 104/11/5 100/4/5
f 100/4/5 104/11/5 102/12/5
f 103/13/6 97/1/6 101/14/6
f 101/14/6 97/1/6 99/3/6
f 105/1/1 106/2/1 107/3/1
f 107/3/1 106/2/1 108/4/1
f 107/3/2 108/4/2 109/5/2
f 109/5/2 108/4/2 110/6/2
f 109/5/3 110/6/3 111/7/3
f 111/7/3 110/6/3 112/8/3
f 111/7/4 112/8/4 105/9/4
f 105/9/4 112/8/4 106/10/4
f 106/2/5 112/11/5 108/4/5
f 108/4/5 112/11/5 110/12/5
f 111/13/6 105/1/6 109/14/6
f 109/14/6 105/1/6 107/3/6
f 113/1/1 114/2/1 115/3/1
f 115/3/1 114/2/1 116/4/1
f 115/3/2 116/4/2 117/5/2
f 117/5/2 116/4/2 118/6/2
f 117/5/3 118/6/3 119/7/3
f 119/7/3 118/6/3 120/8/3
f 119/7/4 120/8/4 113/9/4
f 113/9/4 120/8/4 114/10/4
f 114/2/5 120/11/5 116/4/5
f 116/4/5 120/11/5 118/12/5
f 119/13/6 113/1/6 117/14/6
f 117/14/6 113/1/6 115/3/6
f 121/1/1 122/2/1 123/3/1
f 123/3/1 122/2/1 124/4/1
f 123/3/2 124/4/2 125/5/2
f 125/5/2 124/4/2 126/6/2
f 125/5/3 126/6/3 127/7/3
f 127/7/3 126/6/3 128/8/3
f 127/7/4 128/8/4 121/9/4
f 121/9/4 128/8/4 122/10/4
f 122/2/5 128/11/5 124/4/5
f 124/4/5 128/11/5 126/12/5
f 127/13/6 121/1/6 125/14/6
f 125/14/6 121/1/6 123/3/6
