# This file uses centimeters as units for non-parametric coordinates.

g default
v -12.110021 2.980933 9.260979
v 7.115039 2.980939 -8.637302
v 7.115039 2.980938 -4.524871
v 7.115039 2.980937 -0.891112
v 7.115039 2.980933 9.260979
v -12.110021 2.980939 -8.637302
v -12.110024 2.980937 -0.891114
v -12.110024 2.980938 -4.524871
v -12.108766 2.979776 -8.597473
v -15.109202 2.979775 0.398051
v -15.109202 2.979776 -8.597473
v -12.108766 2.979775 0.398051
v 10.113631 2.979776 -8.597473
v 7.113194 2.979775 0.398051
v 7.113194 2.979776 -8.597473
v 10.113631 2.979775 0.398051
vt 0.900764 -0.000000
vt 0.099216 0.752742
vt 0.099216 0.663893
vt 0.099216 1.000000
vt 0.900764 0.663893
vt 0.900764 0.752742
vt 0.900723 0.852321
vt 1.000000 0.632372
vt 1.000000 0.852321
vt 0.900723 0.632372
vt 0.000000 0.852321
vt 0.099277 0.632372
vt 0.099277 0.852321
vt 0.000000 0.632372
vt 0.099216 -0.000000
vt 0.900764 1.000000
vn 0.000000 -1.000000 0.000000
vn 0.000000 -1.000000 0.000000
vn 0.000000 -1.000000 0.000000
vn 0.000000 -1.000000 0.000000
vn 0.000000 -1.000000 0.000000
vn 0.000000 -1.000000 0.000000
vn 0.000000 -1.000000 0.000000
vn 0.000000 -1.000000 0.000000
vn 0.000000 -1.000000 0.000000
vn 0.000000 -1.000000 0.000000
vn 0.000000 -1.000000 0.000000
vn 0.000000 -1.000000 0.000000
vn 0.000000 -1.000000 0.000000
vn 0.000000 -1.000000 0.000000
vn 0.000000 -1.000000 0.000000
vn 0.000000 -1.000000 0.000000
vn 0.000000 -1.000000 0.000000
vn 0.000000 -1.000000 0.000000
vn 0.000000 -1.000000 0.000000
vn 0.000000 -1.000000 0.000000
vn 0.000000 -1.000000 0.000000
vn 0.000000 -1.000000 0.000000
vn 0.000000 -1.000000 0.000000
vn 0.000000 -1.000000 0.000000
vn 0.000000 -1.000000 0.000000
vn 0.000000 -1.000000 0.000000
vn 0.000000 -1.000000 0.000000
vn 0.000000 -1.000000 0.000000
vn 0.000000 -1.000000 0.000000
vn 0.000000 -1.000000 0.000000
s off
g Mesh
f 1/1/1 3/2/2 4/3/3
f 2/4/4 7/5/5 8/6/6
f 9/7/7 10/8/8 11/9/9
f 12/10/10 10/8/11 9/7/12
f 13/11/13 14/12/14 15/13/15
f 16/14/16 14/12/17 13/11/18
f 1/1/19 2/4/20 3/2/21
f 4/3/22 5/15/23 1/1/24
f 8/6/25 6/16/26 2/4/27
f 2/4/28 1/1/29 7/5/30
