# Blender v2.76 (sub 0) OBJ File: ''
# www.blender.org
o Mesh
v 1.000000 -1.000000 -1.000000
v 1.000000 1.000000 -1.000000
v 1.000000 1.000000 1.000000
v -1.000000 1.000000 -0.999999
v -1.000000 -1.000000 -1.000000
v -1.000000 -1.000000 1.000000
v 1.000000 -1.000000 1.000000
v -1.000000 0.999999 1.000000
vt 0.749998 0.333335
vt 0.750007 0.666666
vt 0.500009 0.666666
vt 0.000010 0.666666
vt 0.000000 0.333335
vt 0.249992 0.333335
vt 0.500002 1.000000
vt 0.249995 1.000000
vt 0.500000 0.333335
vt 0.250001 0.666666
vt 0.500002 0.000087
vt 0.999997 0.333335
vt 1.000006 0.666666
vt 0.249995 0.000087
vn 1.000000 0.000000 0.000000
vn -1.000000 0.000000 0.000000
vn -0.000000 1.000000 0.000000
vn 0.000000 -0.000000 1.000000
vn 0.000000 -1.000000 -0.000000
vn -0.000000 0.000000 -1.000000
s 1
f 1/1/1 2/2/1 3/3/1
f 4/4/2 5/5/2 6/6/2
f 3/3/3 2/7/3 4/8/3
f 7/9/4 3/3/4 8/10/4
f 1/11/5 7/9/5 6/6/5
f 5/12/6 4/13/6 2/2/6
f 1/1/1 3/3/1 7/9/1
f 4/4/2 6/6/2 8/10/2
f 3/3/3 4/8/3 8/10/3
f 7/9/4 8/10/4 6/6/4
f 1/11/5 6/6/5 5/14/5
f 5/12/6 2/2/6 1/1/6
