# This file uses centimeters as units for non-parametric coordinates.

g default
v 1.000000 2.000000 -1.000000
v 1.000000 0.000000 -1.000000
v 1.000000 0.000000 1.000000
v 1.000000 2.000000 1.000000
v -1.000000 2.000000 -0.999999
v -1.000000 1.999999 1.000000
v -1.000000 0.000000 1.000000
v -1.000000 0.000000 -1.000000
vt 0.749998 0.333335
vt 0.750007 0.666666
vt 0.500009 0.666666
vt 0.000010 0.666666
vt 0.000000 0.333335
vt 0.249992 0.333335
vt 0.500002 1.000000
vt 0.249995 1.000000
vt 0.500000 0.333335
vt 0.250001 0.666666
vt 0.500002 0.000087
vt 0.999997 0.333335
vt 1.000006 0.666666
vt 0.249995 0.000087
vn 1.000000 0.000000 0.000000
vn 1.000000 0.000000 0.000000
vn 1.000000 0.000000 0.000000
vn -1.000000 0.000000 0.000000
vn -1.000000 0.000000 0.000000
vn -1.000000 0.000000 0.000000
vn 0.000000 1.000000 0.000000
vn 0.000000 1.000000 0.000000
vn 0.000000 1.000000 0.000000
vn 0.000000 0.000000 1.000000
vn 0.000000 0.000000 1.000000
vn 0.000000 0.000000 1.000000
vn 0.000000 -1.000000 0.000000
vn 0.000000 -1.000000 0.000000
vn 0.000000 -1.000000 0.000000
vn 0.000000 0.000000 -1.000000
vn 0.000000 0.000000 -1.000000
vn 0.000000 0.000000 -1.000000
vn 1.000000 0.000000 0.000000
vn 1.000000 0.000000 0.000000
vn 1.000000 0.000000 0.000000
vn -1.000000 0.000000 0.000000
vn -1.000000 0.000000 0.000000
vn -1.000000 0.000000 0.000000
vn 0.000000 1.000000 0.000000
vn 0.000000 1.000000 0.000000
vn 0.000000 1.000000 0.000000
vn 0.000000 0.000000 1.000000
vn 0.000000 0.000000 1.000000
vn 0.000000 0.000000 1.000000
vn 0.000000 -1.000000 0.000000
vn 0.000000 -1.000000 0.000000
vn 0.000000 -1.000000 0.000000
vn 0.000000 0.000000 -1.000000
vn 0.000000 0.000000 -1.000000
vn 0.000000 0.000000 -1.000000
s off
g Mesh
f 2/1/1 1/2/2 4/3/3
f 5/4/4 8/5/5 7/6/6
f 4/3/7 1/7/8 5/8/9
f 3/9/10 4/3/11 6/10/12
f 2/11/13 3/9/14 7/6/15
f 8/12/16 5/13/17 1/2/18
f 2/1/19 4/3/20 3/9/21
f 5/4/22 7/6/23 6/10/24
f 4/3/25 5/8/26 6/10/27
f 3/9/28 6/10/29 7/6/30
f 2/11/31 7/6/32 8/14/33
f 8/12/34 1/2/35 2/1/36
