# This file uses centimeters as units for non-parametric coordinates.

g default
v 3.546967 -0.000218 0.547377
v 3.734064 -0.000218 0.547377
v 3.546967 2.792847 0.547377
v 3.734064 3.000218 0.547377
v 1.115198 3.000218 0.547377
v 1.310966 2.792847 0.547377
v 1.115198 -0.000218 0.547377
v 1.310966 -0.000218 0.547377
v 1.115198 3.000218 0.213906
v 3.734064 3.000218 0.213906
v 3.734064 -0.000218 0.213906
v 3.546967 -0.000218 0.213906
v 3.546967 2.792847 0.213906
v 1.310966 2.792847 0.213906
v 1.115198 -0.000218 0.213906
v 1.310966 -0.000218 0.213906
vt 0.589286 0.000000
vt 0.625000 0.000000
vt 0.589286 0.214286
vt 0.625000 0.250000
vt 0.375000 0.250000
vt 0.410714 0.214286
vt 0.375000 0.000000
vt 0.410714 0.000000
vt 0.375000 0.500000
vt 0.625000 0.500000
vt 0.625000 0.750000
vt 0.589286 0.750000
vt 0.589286 0.535714
vt 0.410714 0.535714
vt 0.375000 0.750000
vt 0.410714 0.750000
vt 0.375000 1.000000
vt 0.410714 1.000000
vt 0.875000 0.250000
vt 0.125000 0.000000
vt 0.589286 1.000000
vt 0.625000 1.000000
vt 0.000000 0.000000
vt 0.857143 0.000000
vt 0.000000 1.000000
vt 0.857143 1.000000
vt 1.000000 0.000000
vt 0.000000 0.714286
vt 1.000000 0.714285
vt 0.125000 0.250000
vt 0.875000 0.000000
vt 0.000000 0.000000
vt 0.857143 0.000000
vt 0.000000 1.000000
vt 0.000000 1.000000
vt 0.857143 0.000000
vt 0.857143 1.000000
vn 0.000000 -0.000000 1.000000
vn 0.000000 -0.000000 1.000000
vn 0.000000 -0.000000 1.000000
vn 0.000000 -0.000000 1.000000
vn 0.000000 -0.000000 1.000000
vn 0.000000 -0.000000 1.000000
vn 0.000000 -0.000000 1.000000
vn 0.000000 -0.000000 1.000000
vn 0.000000 -0.000000 1.000000
vn 0.000000 -0.000000 1.000000
vn 0.000000 -0.000000 1.000000
vn 0.000000 -0.000000 1.000000
vn 0.000000 -0.000000 1.000000
vn 0.000000 -0.000000 1.000000
vn 0.000000 -0.000000 1.000000
vn 0.000000 -0.000000 1.000000
vn 0.000000 -0.000000 1.000000
vn 0.000000 -0.000000 1.000000
vn 0.000000 1.000000 0.000000
vn 0.000000 1.000000 0.000000
vn 0.000000 1.000000 0.000000
vn 0.000000 0.000000 -1.000000
vn 0.000000 0.000000 -1.000000
vn 0.000000 0.000000 -1.000000
vn 0.000000 0.000000 -1.000000
vn 0.000000 0.000000 -1.000000
vn 0.000000 0.000000 -1.000000
vn 0.000000 0.000000 -1.000000
vn 0.000000 0.000000 -1.000000
vn 0.000000 0.000000 -1.000000
vn 0.000000 0.000000 -1.000000
vn 0.000000 0.000000 -1.000000
vn 0.000000 0.000000 -1.000000
vn 0.000000 0.000000 -1.000000
vn 0.000000 0.000000 -1.000000
vn 0.000000 0.000000 -1.000000
vn 0.000000 0.000000 -1.000000
vn 0.000000 0.000000 -1.000000
vn 0.000000 0.000000 -1.000000
vn 0.000000 -1.000000 0.000000
vn 0.000000 -1.000000 0.000000
vn 0.000000 -1.000000 0.000000
vn 1.000000 0.000000 0.000000
vn 1.000000 0.000000 0.000000
vn 1.000000 0.000000 0.000000
vn -1.000000 0.000000 0.000000
vn -1.000000 0.000000 0.000000
vn -1.000000 0.000000 0.000000
vn 0.000000 -1.000000 0.000000
vn 0.000000 -1.000000 0.000000
vn 0.000000 -1.000000 0.000000
vn 1.000000 0.000000 0.000000
vn 1.000000 0.000000 0.000000
vn 1.000000 0.000000 0.000000
vn 1.000000 0.000000 0.000000
vn 1.000000 0.000000 0.000000
vn 1.000000 0.000000 0.000000
vn -1.000000 0.000000 0.000000
vn -1.000000 0.000000 0.000000
vn -1.000000 0.000000 0.000000
vn -1.000000 0.000000 0.000000
vn -1.000000 0.000000 0.000000
vn -1.000000 0.000000 0.000000
vn 0.000000 -1.000000 0.000000
vn 0.000000 -1.000000 0.000000
vn 0.000000 -1.000000 0.000000
vn 0.000000 -1.000000 0.000000
vn 0.000000 -1.000000 0.000000
vn 0.000000 -1.000000 0.000000
vn -1.000000 0.000000 0.000000
vn -1.000000 0.000000 0.000000
vn -1.000000 0.000000 0.000000
vn 1.000000 0.000000 0.000000
vn 1.000000 0.000000 0.000000
vn 1.000000 0.000000 0.000000
vn 0.000000 -1.000000 0.000000
vn 0.000000 -1.000000 0.000000
vn 0.000000 -1.000000 0.000000
vn 0.000000 -1.000000 0.000000
vn 0.000000 -1.000000 0.000000
vn 0.000000 -1.000000 0.000000
vn 0.000000 1.000000 0.000000
vn 0.000000 1.000000 0.000000
vn 0.000000 1.000000 0.000000
s off
g Mesh
f 1/1/1 2/2/2 3/3/3
f 2/2/4 4/4/5 3/3/6
f 4/4/7 5/5/8 3/3/9
f 3/3/10 5/5/11 6/6/12
f 5/5/13 7/7/14 6/6/15
f 7/7/16 8/8/17 6/6/18
f 9/9/19 4/4/20 10/10/21
f 11/11/22 12/12/23 10/10/24
f 12/12/25 13/13/26 10/10/27
f 10/10/28 13/13/29 9/9/30
f 13/13/31 14/14/32 9/9/33
f 9/9/34 14/14/35 15/15/36
f 14/14/37 16/16/38 15/15/39
f 7/17/40 16/16/41 8/18/42
f 2/2/43 10/19/44 4/4/45
f 5/5/46 15/20/47 7/7/48
f 1/21/49 12/12/50 2/22/51
f 6/23/52 8/24/53 14/25/54
f 14/25/55 8/24/56 16/26/57
f 13/32/58 12/33/59 3/34/60
f 3/35/61 12/36/62 1/37/63
f 6/23/64 14/27/65 3/28/66
f 3/28/67 14/27/68 13/29/69
f 9/30/70 15/20/71 5/5/72
f 10/19/73 2/2/74 11/31/75
f 7/17/76 15/15/77 16/16/78
f 2/22/79 12/12/80 11/11/81
f 9/9/82 5/5/83 4/4/84
