# Blender v2.76 (sub 0) OBJ File: ''
# www.blender.org
o PoleZ
v -0.025000 -0.000000 0.200000
v -0.025000 -0.000000 2.050000
v -0.017678 0.017678 0.200000
v -0.017678 0.017678 2.050000
v -0.000000 0.025000 0.200000
v -0.000000 0.025000 2.050000
v 0.017678 0.017678 0.200000
v 0.017678 0.017678 2.050000
v 0.025000 -0.000000 0.200000
v 0.025000 -0.000000 2.050000
v 0.017678 -0.017678 0.200000
v 0.017678 -0.017678 2.050000
v -0.000000 -0.025000 0.200000
v -0.000000 -0.025000 2.050000
v -0.017678 -0.017678 0.200000
v -0.017678 -0.017678 2.050000
vn -0.923900 0.382700 -0.000000
vn -0.382700 0.923900 -0.000000
vn 0.382700 0.923900 0.000000
vn 0.923900 0.382700 0.000000
vn 0.923900 -0.382700 0.000000
vn 0.382700 -0.923900 0.000000
vn 0.000000 0.000000 1.000000
vn -0.923900 -0.382700 -0.000000
vn -0.382700 -0.923900 -0.000000
vn -0.000000 0.000000 -1.000000
s off
f 2//1 4//1 3//1
f 4//2 6//2 5//2
f 6//3 8//3 7//3
f 8//4 10//4 9//4
f 10//5 12//5 11//5
f 12//6 14//6 13//6
f 14//7 8//7 6//7
f 16//8 2//8 1//8
f 14//9 16//9 15//9
f 7//10 11//10 15//10
f 1//1 2//1 3//1
f 3//2 4//2 5//2
f 5//3 6//3 7//3
f 7//4 8//4 9//4
f 9//5 10//5 11//5
f 11//6 12//6 13//6
f 6//7 4//7 2//7
f 2//7 16//7 6//7
f 14//7 12//7 10//7
f 10//7 8//7 14//7
f 6//7 16//7 14//7
f 15//8 16//8 1//8
f 13//9 14//9 15//9
f 15//10 1//10 3//10
f 3//10 5//10 7//10
f 7//10 9//10 11//10
f 11//10 13//10 15//10
f 15//10 3//10 7//10
o TranslateZ
v -0.150000 0.000000 2.050000
v -0.106066 0.106066 2.050000
v -0.000000 0.150000 2.050000
v 0.106066 0.106066 2.050000
v 0.150000 -0.000000 2.050000
v -0.000000 0.000000 2.550000
v 0.106066 -0.106066 2.050000
v -0.000000 -0.150000 2.050000
v -0.106066 -0.106066 2.050000
vn -0.368800 -0.890300 0.267100
vn -0.890300 0.368800 0.267100
vn 0.368800 -0.890300 0.267100
vn 0.890300 -0.368800 0.267100
vn 0.890300 0.368800 0.267100
vn 0.368800 0.890300 0.267100
vn -0.890300 -0.368800 0.267100
vn -0.368800 0.890300 0.267100
vn 0.000000 0.000000 -1.000000
s off
f 24//11 22//11 25//11
f 17//12 22//12 18//12
f 23//13 22//13 24//13
f 21//14 22//14 23//14
f 20//15 22//15 21//15
f 19//16 22//16 20//16
f 25//17 22//17 17//17
f 18//18 22//18 19//18
f 20//19 23//19 18//19
f 25//19 17//19 18//19
f 18//19 19//19 20//19
f 20//19 21//19 23//19
f 23//19 24//19 25//19
f 25//19 18//19 23//19
o ScaleZ
v 0.100000 -0.100000 1.600000
v 0.100000 -0.100000 1.900000
v -0.100000 -0.100000 1.600000
v -0.100000 -0.100000 1.900000
v 0.100000 0.100000 1.600000
v 0.100000 0.100000 1.900000
v -0.100000 0.100000 1.600000
v -0.100000 0.100000 1.900000
vn -0.000000 -1.000000 -0.000000
vn -1.000000 0.000000 -0.000000
vn 0.000000 1.000000 0.000000
vn 1.000000 -0.000000 0.000000
vn 0.000000 0.000000 -1.000000
vn -0.000000 0.000000 1.000000
s off
f 29//20 28//20 26//20
f 33//21 32//21 28//21
f 31//22 30//22 32//22
f 27//23 26//23 30//23
f 28//24 32//24 30//24
f 33//25 29//25 27//25
f 27//20 29//20 26//20
f 29//21 33//21 28//21
f 33//22 31//22 32//22
f 31//23 27//23 30//23
f 26//24 28//24 30//24
f 31//25 33//25 27//25
o RotateX
v -0.000000 0.000000 2.700000
v -0.000000 -0.132483 2.696748
v -0.000000 -0.264646 2.686999
v -0.000000 -0.396172 2.670777
v -0.000000 -0.526744 2.648120
v -0.000000 -0.656047 2.619084
v -0.000000 -0.783769 2.583739
v -0.000000 -0.909603 2.542169
v 0.000000 0.909597 2.542171
v 0.000000 0.783763 2.583741
v 0.000000 0.656040 2.619086
v 0.000000 0.526737 2.648122
v 0.000000 0.396165 2.670778
v -0.000000 0.264639 2.687000
v -0.000000 0.132475 2.696748
v -0.000000 0.000000 2.835000
v -0.000000 -0.139107 2.831585
v -0.000000 -0.277879 2.821349
v -0.000000 -0.415981 2.804315
v -0.000000 -0.553081 2.780526
v -0.000000 -0.688849 2.750038
v -0.000000 -0.822957 2.712926
v -0.000000 -0.955083 2.669277
v 0.000000 0.955077 2.669279
v 0.000000 0.822951 2.712928
v 0.000000 0.688842 2.750040
v 0.000000 0.553074 2.780528
v 0.000000 0.415974 2.804316
v -0.000000 0.277871 2.821349
v -0.000000 0.139099 2.831585
vn 1.000000 -0.000000 0.000000
s off
f 34//26 49//26 50//26
f 47//26 62//26 63//26
f 36//26 35//26 50//26
f 34//26 48//26 63//26
f 36//26 51//26 52//26
f 42//26 57//26 58//26
f 37//26 52//26 53//26
f 43//26 58//26 59//26
f 38//26 53//26 54//26
f 45//26 44//26 59//26
f 40//26 39//26 54//26
f 45//26 60//26 61//26
f 40//26 55//26 56//26
f 47//26 46//26 61//26
f 35//26 34//26 50//26
f 48//26 47//26 63//26
f 51//26 36//26 50//26
f 49//26 34//26 63//26
f 37//26 36//26 52//26
f 43//26 42//26 58//26
f 38//26 37//26 53//26
f 44//26 43//26 59//26
f 39//26 38//26 54//26
f 60//26 45//26 59//26
f 55//26 40//26 54//26
f 46//26 45//26 61//26
f 41//26 40//26 56//26
f 62//26 47//26 61//26
o TranslateYZ
v 0.000000 0.200000 0.600000
v 0.000000 0.600000 0.600000
v -0.000000 0.200000 0.200000
v 0.000000 0.600000 0.200000
v -0.000000 0.200000 0.100000
v 0.000000 0.600000 0.100000
v 0.000000 0.100000 0.600000
v -0.000000 0.100000 0.200000
vn 1.000000 -0.000000 -0.000000
s off
f 66//27 67//27 65//27
f 64//27 66//27 65//27
f 66//27 68//27 69//27
f 64//27 70//27 71//27
f 67//27 66//27 69//27
f 66//27 64//27 71//27
o TranslateXZ
v 0.600000 -0.000000 0.200000
v 0.600000 -0.000000 0.600000
v 0.200000 -0.000000 0.200000
v 0.200000 -0.000000 0.600000
v 0.600000 -0.000000 0.100000
v 0.200000 -0.000000 0.100000
v 0.100000 -0.000000 0.200000
v 0.100000 -0.000000 0.600000
vn 0.000000 1.000000 0.000000
s off
f 74//28 75//28 73//28
f 72//28 74//28 73//28
f 72//28 76//28 77//28
f 74//28 78//28 79//28
f 74//28 72//28 77//28
f 75//28 74//28 79//28
o RotateY
v 2.700000 -0.000000 -0.000001
v 2.696748 -0.000000 -0.132483
v 2.686999 -0.000000 -0.264647
v 2.670777 -0.000000 -0.396173
v 2.648120 -0.000000 -0.526744
v 2.619084 -0.000000 -0.656047
v 2.583739 -0.000000 -0.783769
v 2.542169 -0.000000 -0.909603
v 2.542171 -0.000000 0.909597
v 2.583741 -0.000000 0.783763
v 2.619086 -0.000000 0.656040
v 2.648122 -0.000000 0.526737
v 2.670778 -0.000000 0.396165
v 2.687000 -0.000000 0.264638
v 2.696748 -0.000000 0.132474
v 2.835000 -0.000000 -0.000001
v 2.831585 -0.000000 -0.139107
v 2.821349 -0.000000 -0.277879
v 2.804315 -0.000000 -0.415981
v 2.780526 -0.000000 -0.553082
v 2.750038 -0.000000 -0.688849
v 2.712926 -0.000000 -0.822958
v 2.669277 -0.000000 -0.955083
v 2.669280 -0.000000 0.955077
v 2.712928 -0.000000 0.822951
v 2.750040 -0.000000 0.688842
v 2.780528 -0.000000 0.553074
v 2.804316 -0.000000 0.415973
v 2.821349 -0.000000 0.277870
v 2.831585 -0.000000 0.139098
vn 0.000000 1.000000 0.000000
s off
f 80//29 95//29 96//29
f 93//29 108//29 109//29
f 82//29 81//29 96//29
f 80//29 94//29 109//29
f 82//29 97//29 98//29
f 88//29 103//29 104//29
f 83//29 98//29 99//29
f 89//29 104//29 105//29
f 84//29 99//29 100//29
f 91//29 90//29 105//29
f 86//29 85//29 100//29
f 91//29 106//29 107//29
f 86//29 101//29 102//29
f 93//29 92//29 107//29
f 81//29 80//29 96//29
f 94//29 93//29 109//29
f 97//29 82//29 96//29
f 95//29 80//29 109//29
f 83//29 82//29 98//29
f 89//29 88//29 104//29
f 84//29 83//29 99//29
f 90//29 89//29 105//29
f 85//29 84//29 100//29
f 106//29 91//29 105//29
f 101//29 86//29 100//29
f 92//29 91//29 107//29
f 87//29 86//29 102//29
f 108//29 93//29 107//29
o ScaleX
v 1.600000 0.100000 -0.100000
v 1.900000 0.100000 -0.100000
v 1.600000 -0.100000 -0.100000
v 1.900000 -0.100000 -0.100000
v 1.600000 0.100000 0.100000
v 1.900000 0.100000 0.100000
v 1.600000 -0.100000 0.100000
v 1.900000 -0.100000 0.100000
vn -0.000000 0.000000 -1.000000
vn -0.000000 -1.000000 -0.000000
vn 0.000000 -0.000000 1.000000
vn 0.000000 1.000000 0.000000
vn -1.000000 0.000000 0.000000
vn 1.000000 0.000000 0.000000
s off
f 113//30 112//30 110//30
f 117//31 116//31 112//31
f 115//32 114//32 116//32
f 111//33 110//33 114//33
f 112//34 116//34 114//34
f 117//35 113//35 111//35
f 111//30 113//30 110//30
f 113//31 117//31 112//31
f 117//32 115//32 116//32
f 115//33 111//33 114//33
f 110//34 112//34 114//34
f 115//35 117//35 111//35
o TranslateX
v 2.050000 -0.150000 -0.000000
v 2.050000 -0.106066 0.106066
v 2.050000 -0.000000 0.150000
v 2.050000 0.106066 0.106066
v 2.050000 0.150000 -0.000000
v 2.550000 -0.000000 -0.000000
v 2.050000 0.106066 -0.106066
v 2.050000 -0.000000 -0.150000
v 2.050000 -0.106066 -0.106066
vn 0.267100 -0.368800 -0.890300
vn 0.267100 -0.890300 0.368800
vn 0.267100 0.368800 -0.890300
vn 0.267100 0.890300 -0.368800
vn 0.267100 0.890300 0.368800
vn 0.267100 0.368800 0.890300
vn 0.267100 -0.890300 -0.368800
vn 0.267100 -0.368800 0.890300
vn -1.000000 0.000000 0.000000
s off
f 125//36 123//36 126//36
f 118//37 123//37 119//37
f 124//38 123//38 125//38
f 122//39 123//39 124//39
f 121//40 123//40 122//40
f 120//41 123//41 121//41
f 126//42 123//42 118//42
f 119//43 123//43 120//43
f 121//44 124//44 119//44
f 126//44 118//44 119//44
f 119//44 120//44 121//44
f 121//44 122//44 124//44
f 124//44 125//44 126//44
f 126//44 119//44 124//44
o PoleX
v 0.200000 -0.025000 -0.000000
v 2.050000 -0.025000 -0.000000
v 0.200000 -0.017678 0.017678
v 2.050000 -0.017678 0.017677
v 0.200000 -0.000000 0.025000
v 2.050000 -0.000000 0.025000
v 0.200000 0.017678 0.017678
v 2.050000 0.017677 0.017677
v 0.200000 0.025000 -0.000000
v 2.050000 0.025000 -0.000000
v 0.200000 0.017678 -0.017678
v 2.050000 0.017677 -0.017678
v 0.200000 -0.000000 -0.025000
v 2.050000 -0.000000 -0.025000
v 0.200000 -0.017678 -0.017678
v 2.050000 -0.017678 -0.017678
vn -0.000000 -0.923900 0.382700
vn 0.000000 -0.382700 0.923900
vn 0.000000 0.382700 0.923900
vn 0.000000 0.923900 0.382700
vn 0.000000 0.923900 -0.382700
vn -0.000000 0.382700 -0.923900
vn 1.000000 0.000000 0.000000
vn -0.000000 -0.923900 -0.382700
vn -0.000000 -0.382700 -0.923900
vn -1.000000 -0.000000 0.000000
s off
f 128//45 130//45 129//45
f 130//46 132//46 131//46
f 132//47 134//47 133//47
f 134//48 136//48 135//48
f 136//49 138//49 137//49
f 138//50 140//50 139//50
f 140//51 134//51 132//51
f 142//52 128//52 127//52
f 140//53 142//53 141//53
f 133//54 137//54 141//54
f 127//45 128//45 129//45
f 129//46 130//46 131//46
f 131//47 132//47 133//47
f 133//48 134//48 135//48
f 135//49 136//49 137//49
f 137//50 138//50 139//50
f 132//51 130//51 128//51
f 128//51 142//51 132//51
f 140//51 138//51 136//51
f 136//51 134//51 140//51
f 132//51 142//51 140//51
f 141//52 142//52 127//52
f 139//53 140//53 141//53
f 141//54 127//54 129//54
f 129//54 131//54 133//54
f 133//54 135//54 137//54
f 137//54 139//54 141//54
f 141//54 129//54 133//54
o ScaleXYZ
v 0.200000 -0.200000 -0.200000
v 0.200000 -0.200000 0.200000
v -0.200000 -0.200000 0.200000
v -0.200000 -0.200000 -0.200000
v 0.200000 0.200000 -0.200000
v 0.200000 0.200000 0.200000
v -0.200000 0.200000 0.200000
v -0.200000 0.200000 -0.200000
vn 0.000000 -1.000000 0.000000
vn 0.000000 1.000000 0.000000
vn 1.000000 0.000000 0.000000
vn -0.000000 -0.000000 1.000000
vn -1.000000 -0.000000 -0.000000
vn 0.000000 0.000000 -1.000000
s off
f 143//55 144//55 145//55
f 150//56 149//56 148//56
f 147//57 148//57 144//57
f 148//58 149//58 145//58
f 145//59 149//59 150//59
f 143//60 146//60 150//60
f 146//55 143//55 145//55
f 147//56 150//56 148//56
f 143//57 147//57 144//57
f 144//58 148//58 145//58
f 146//59 145//59 150//59
f 147//60 143//60 150//60
o PoleY
v -0.000000 0.200000 -0.025000
v -0.000000 2.050000 -0.025000
v 0.017678 0.200000 -0.017678
v 0.017678 2.050000 -0.017678
v 0.025000 0.200000 -0.000000
v 0.025000 2.050000 -0.000000
v 0.017678 0.200000 0.017678
v 0.017678 2.050000 0.017678
v -0.000000 0.200000 0.025000
v -0.000000 2.050000 0.025000
v -0.017678 0.200000 0.017678
v -0.017678 2.050000 0.017678
v -0.025000 0.200000 -0.000000
v -0.025000 2.050000 -0.000000
v -0.017678 0.200000 -0.017678
v -0.017678 2.050000 -0.017678
vn 0.382700 0.000000 -0.923900
vn 0.923900 0.000000 -0.382700
vn 0.923900 0.000000 0.382700
vn 0.382700 0.000000 0.923900
vn -0.382700 0.000000 0.923900
vn -0.923900 0.000000 0.382700
vn 0.000000 1.000000 0.000000
vn -0.382700 0.000000 -0.923900
vn -0.923900 0.000000 -0.382700
vn 0.000000 -1.000000 0.000000
s off
f 152//61 154//61 153//61
f 154//62 156//62 155//62
f 156//63 158//63 157//63
f 158//64 160//64 159//64
f 160//65 162//65 161//65
f 162//66 164//66 163//66
f 164//67 158//67 156//67
f 166//68 152//68 151//68
f 164//69 166//69 165//69
f 157//70 161//70 165//70
f 151//61 152//61 153//61
f 153//62 154//62 155//62
f 155//63 156//63 157//63
f 157//64 158//64 159//64
f 159//65 160//65 161//65
f 161//66 162//66 163//66
f 156//67 154//67 152//67
f 152//67 166//67 156//67
f 164//67 162//67 160//67
f 160//67 158//67 164//67
f 156//67 166//67 164//67
f 165//68 166//68 151//68
f 163//69 164//69 165//69
f 165//70 151//70 153//70
f 153//70 155//70 157//70
f 157//70 159//70 161//70
f 161//70 163//70 165//70
f 165//70 153//70 157//70
o TranslateY
v 0.000000 2.050000 -0.150000
v 0.106066 2.050000 -0.106066
v 0.150000 2.050000 0.000000
v 0.106066 2.050000 0.106066
v -0.000000 2.050000 0.150000
v 0.000000 2.550000 0.000000
v -0.106066 2.050000 0.106066
v -0.150000 2.050000 -0.000000
v -0.106066 2.050000 -0.106066
vn -0.890300 0.267100 -0.368800
vn 0.368800 0.267100 -0.890300
vn -0.890300 0.267100 0.368800
vn -0.368800 0.267100 0.890300
vn 0.368800 0.267100 0.890300
vn 0.890300 0.267100 0.368800
vn -0.368800 0.267100 -0.890300
vn 0.890300 0.267100 -0.368800
vn 0.000000 -1.000000 0.000000
s off
f 174//71 172//71 175//71
f 167//72 172//72 168//72
f 173//73 172//73 174//73
f 171//74 172//74 173//74
f 170//75 172//75 171//75
f 169//76 172//76 170//76
f 175//77 172//77 167//77
f 168//78 172//78 169//78
f 170//79 173//79 168//79
f 175//79 167//79 168//79
f 168//79 169//79 170//79
f 170//79 171//79 173//79
f 173//79 174//79 175//79
f 175//79 168//79 173//79
o ScaleY
v -0.100000 1.600000 0.100000
v -0.100000 1.900000 0.100000
v -0.100000 1.600000 -0.100000
v -0.100000 1.900000 -0.100000
v 0.100000 1.600000 0.100000
v 0.100000 1.900000 0.100000
v 0.100000 1.600000 -0.100000
v 0.100000 1.900000 -0.100000
vn -1.000000 0.000000 0.000000
vn 0.000000 0.000000 -1.000000
vn 1.000000 0.000000 0.000000
vn 0.000000 0.000000 1.000000
vn 0.000000 -1.000000 0.000000
vn 0.000000 1.000000 0.000000
s off
f 179//80 178//80 176//80
f 183//81 182//81 178//81
f 181//82 180//82 182//82
f 177//83 176//83 180//83
f 178//84 182//84 180//84
f 183//85 179//85 177//85
f 177//80 179//80 176//80
f 179//81 183//81 178//81
f 183//82 181//82 182//82
f 181//83 177//83 180//83
f 176//84 178//84 180//84
f 181//85 183//85 177//85
o RotateZ
v 0.000000 2.700000 0.000000
v -0.132483 2.696748 0.000000
v -0.264646 2.686999 0.000000
v -0.396172 2.670777 0.000000
v -0.526744 2.648120 0.000000
v -0.656047 2.619084 0.000000
v -0.783769 2.583739 0.000000
v -0.909603 2.542169 0.000000
v 0.909597 2.542171 0.000000
v 0.783763 2.583741 0.000000
v 0.656040 2.619086 0.000000
v 0.526737 2.648122 0.000000
v 0.396165 2.670778 0.000000
v 0.264639 2.687000 0.000000
v 0.132475 2.696748 0.000000
v 0.000000 2.835000 0.000000
v -0.139107 2.831585 0.000000
v -0.277879 2.821349 0.000000
v -0.415981 2.804315 0.000000
v -0.553081 2.780526 0.000000
v -0.688849 2.750038 0.000000
v -0.822957 2.712926 0.000000
v -0.955083 2.669277 0.000000
v 0.955077 2.669279 0.000000
v 0.822951 2.712928 0.000000
v 0.688842 2.750040 0.000000
v 0.553074 2.780528 0.000000
v 0.415974 2.804316 0.000000
v 0.277871 2.821349 0.000000
v 0.139099 2.831585 0.000000
vn 0.000000 -0.000000 1.000000
s off
f 184//86 199//86 200//86
f 197//86 212//86 213//86
f 186//86 185//86 200//86
f 184//86 198//86 213//86
f 186//86 201//86 202//86
f 192//86 207//86 208//86
f 187//86 202//86 203//86
f 193//86 208//86 209//86
f 188//86 203//86 204//86
f 195//86 194//86 209//86
f 190//86 189//86 204//86
f 195//86 210//86 211//86
f 190//86 205//86 206//86
f 197//86 196//86 211//86
f 185//86 184//86 200//86
f 198//86 197//86 213//86
f 201//86 186//86 200//86
f 199//86 184//86 213//86
f 187//86 186//86 202//86
f 193//86 192//86 208//86
f 188//86 187//86 203//86
f 194//86 193//86 209//86
f 189//86 188//86 204//86
f 210//86 195//86 209//86
f 205//86 190//86 204//86
f 196//86 195//86 211//86
f 191//86 190//86 206//86
f 212//86 197//86 211//86
o TranslateXY
v 0.200000 0.600000 0.000000
v 0.600000 0.600000 0.000000
v 0.200000 0.200000 -0.000000
v 0.600000 0.200000 -0.000000
v 0.100000 0.600000 0.000000
v 0.100000 0.200000 -0.000000
v 0.200000 0.100000 -0.000000
v 0.600000 0.100000 -0.000000
vn 0.000000 -0.000000 1.000000
s off
f 216//87 217//87 215//87
f 214//87 216//87 215//87
f 214//87 218//87 219//87
f 216//87 220//87 221//87
f 216//87 214//87 219//87
f 217//87 216//87 221//87
