# This file uses centimeters as units for non-parametric coordinates.

mtllib ceiling.mtl
g default
o Celling
v -12.108766 1.979774 -5.601949
v -15.109202 1.979774 -5.601949
v -12.108766 1.979774 -14.597473
v -15.109202 1.979774 -14.597473
vt 0.900723 0.852321
vt 1.000000 0.632372
vt 1.000000 0.852321
vt 0.900723 0.632372
vn 0.000000 -1.000000 0.000000
vn 0.000000 -1.000000 0.000000
vn 0.000000 -1.000000 0.000000
vn 0.000000 -1.000000 0.000000
s 1
g polySurface62 pCube59
usemtl lambert3SG
f 3/1/1 2/2/2 4/3/3
f 1/4/4 2/2/2 3/1/1
g default
v 15.113631 1.979774 -5.601949
v 12.113194 1.979774 -5.601949
v 15.113631 1.979774 -14.597473
v 12.113194 1.979774 -14.597473
vt 0.000000 0.852321
vt 0.099277 0.632372
vt 0.099277 0.852321
vt 0.000000 0.632372
vn 0.000000 -1.000000 0.000000
vn 0.000000 -1.000000 0.000000
vn 0.000000 -1.000000 0.000000
vn 0.000000 -1.000000 0.000000
s 1
g pCube59 polySurface64
usemtl lambert3SG
f 7/5/5 6/6/6 8/7/7
f 5/8/8 6/6/6 7/5/5
g default
v 12.115039 1.980936 20.260979
v -12.110021 1.980936 20.260979
v 12.115039 1.980936 -20.637303
v -12.110021 1.980936 -20.637303
v 12.115039 1.980936 -6.891112
v 12.115039 1.980936 -10.524872
v -12.110024 1.980936 -10.524872
v -12.110024 1.980936 -6.891114
vt 0.900764 -0.000000
vt 0.099216 1.000000
vt 0.099216 0.752742
vt 0.099216 0.663893
vt 0.099216 -0.000000
vt 0.900764 1.000000
vt 0.900764 0.663893
vt 0.900764 0.752742
vn 0.000000 -1.000000 0.000000
vn 0.000000 -1.000000 0.000000
vn 0.000000 -1.000000 0.000000
vn 0.000000 -1.000000 0.000000
vn 0.000000 -1.000000 0.000000
vn 0.000000 -1.000000 0.000000
vn 0.000000 -1.000000 0.000000
vn 0.000000 -1.000000 0.000000
s 1
g pCube59 polySurface63
usemtl lambert3SG
f 10/9/9 11/10/10 14/11/11 13/12/12 9/13/13
f 12/14/14 11/10/10 10/9/9 16/15/15 15/16/16
