# Blender v2.76 (sub 0) OBJ File: ''
# www.blender.org
o pCylinder2
v -5.096128 -0.834670 2.215739
v -5.221128 -0.834670 2.124921
v -5.096128 0.950749 2.215739
v -5.221128 0.950749 2.124921
v -5.375635 -0.834670 2.124921
v -5.375635 0.950749 2.124921
v -5.500635 -0.834670 2.215739
v -5.500635 0.950749 2.215739
v -5.548382 -0.834670 2.362685
v -5.548382 0.950749 2.362685
v -5.500635 -0.834670 2.509631
v -5.500635 0.950749 2.509631
v -5.375635 -0.834670 2.600449
v -5.375635 0.950749 2.600449
v -5.221128 -0.834670 2.600449
v -5.221128 0.950749 2.600449
v -5.096128 -0.834670 2.509631
v -5.096128 0.950749 2.509631
v -5.048382 -0.834670 2.362685
v -5.048382 0.950749 2.362685
v -5.062418 -0.988767 2.534122
v -5.208254 -0.988767 2.640076
v -5.006714 -0.988767 2.362685
v -5.388510 -0.988767 2.640076
v -5.534342 -0.988767 2.534122
v -5.062418 -0.988767 2.191248
v -5.590050 -0.988767 2.362685
v -5.534342 -0.988767 2.191248
v -5.388510 -0.988767 2.085293
v -5.208254 -0.988767 2.085293
v -5.085880 0.894583 2.362685
v -5.126467 0.894583 2.238653
v -5.126467 0.894583 2.486717
v -5.232717 0.894583 2.161997
v -5.364046 0.894583 2.161997
v -5.232717 0.894583 2.563373
v -5.470297 0.894583 2.238653
v -5.510883 0.894583 2.362685
v -5.470297 0.894583 2.486717
v -5.364046 0.894583 2.563373
v -5.062418 -0.905760 2.534122
v -5.208254 -0.905760 2.640076
v -5.388510 -0.905760 2.640076
v -5.534342 -0.905760 2.534122
v -5.590050 -0.905760 2.362685
v -5.534342 -0.905760 2.191248
v -5.388510 -0.905760 2.085293
v -5.208254 -0.905760 2.085293
v -5.062418 -0.905760 2.191248
v -5.006714 -0.905760 2.362685
v -5.126467 0.950749 2.238653
v -5.085880 0.950749 2.362685
v -5.232717 0.950749 2.161997
v -5.364046 0.950749 2.161997
v -5.470297 0.950749 2.238653
v -5.510883 0.950749 2.362685
v -5.470297 0.950749 2.486717
v -5.364046 0.950749 2.563373
v -5.232717 0.950749 2.563373
v -5.126467 0.950749 2.486717
vt 0.375000 0.312500
vt 0.400000 0.312500
vt 0.375000 0.688440
vt 0.400000 0.688440
vt 0.425000 0.312500
vt 0.425000 0.688440
vt 0.450000 0.312500
vt 0.450000 0.688440
vt 0.475000 0.312500
vt 0.475000 0.688440
vt 0.500000 0.312500
vt 0.500000 0.688440
vt 0.525000 0.312500
vt 0.525000 0.688440
vt 0.550000 0.312500
vt 0.550000 0.688440
vt 0.575000 0.312500
vt 0.575000 0.688440
vt 0.600000 0.312500
vt 0.600000 0.688440
vt 0.625000 0.312500
vt 0.625000 0.688440
vt 0.626409 0.248091
vt 0.548284 0.304853
vt 0.656250 0.156250
vt 0.451716 0.304853
vt 0.373591 0.248091
vt 0.626409 0.064409
vt 0.343750 0.156250
vt 0.373591 0.064409
vt 0.451716 0.007647
vt 0.548284 0.007647
vt 0.656250 0.843750
vt 0.626409 0.935591
vt 0.626409 0.751909
vt 0.548284 0.992353
vt 0.451716 0.992353
vt 0.548284 0.695147
vt 0.373591 0.935591
vt 0.343750 0.843750
vt 0.373591 0.751909
vt 0.451716 0.695147
vn 0.587600 0.026100 -0.808700
vn 0.587600 0.023400 -0.808800
vn 0.587800 0.000000 -0.809000
vn 0.000000 0.026100 -0.999700
vn -0.000000 0.023400 -0.999700
vn 0.000000 0.000000 -1.000000
vn -0.587600 0.026100 -0.808700
vn -0.587500 0.023400 -0.808900
vn -0.587800 0.000000 -0.809000
vn -0.950700 0.026100 -0.308900
vn -0.950800 0.023400 -0.308900
vn -0.951100 0.000000 -0.309000
vn -0.950700 0.026100 0.308900
vn -0.950800 0.023400 0.308900
vn -0.951100 0.000000 0.309000
vn -0.587600 0.026100 0.808700
vn -0.587600 0.023400 0.808800
vn -0.587800 -0.000000 0.809000
vn -0.000000 0.026100 0.999700
vn 0.000000 0.023400 0.999700
vn 0.000000 -0.000000 1.000000
vn 0.587600 0.026100 0.808700
vn 0.587600 0.023400 0.808800
vn 0.587800 -0.000000 0.809000
vn 0.950700 0.026100 0.308900
vn 0.950800 0.023400 0.309000
vn 0.951100 0.000000 0.309000
vn 0.950700 0.026100 -0.308900
vn 0.950800 0.023400 -0.308900
vn 0.951100 0.000000 -0.309000
vn -0.000000 -1.000000 0.000000
vn -0.000000 1.000000 0.000000
vn 0.573000 0.223000 0.788600
vn 0.571200 0.235800 0.786200
vn 0.000000 0.223000 0.974800
vn 0.000000 0.235800 0.971800
vn -0.573000 0.223000 0.788600
vn -0.571200 0.235800 0.786200
vn -0.927100 0.223000 0.301300
vn -0.924200 0.235800 0.300300
vn -0.927100 0.223000 -0.301300
vn -0.924200 0.235800 -0.300300
vn -0.573000 0.223000 -0.788600
vn -0.571200 0.235800 -0.786200
vn -0.000000 0.223000 -0.974800
vn 0.000000 0.235800 -0.971800
vn 0.573000 0.223000 -0.788600
vn 0.571200 0.235800 -0.786200
vn 0.927100 0.223000 -0.301200
vn 0.924200 0.235800 -0.300300
vn 0.927100 0.223000 0.301200
vn 0.924200 0.235800 0.300300
vn -0.951000 0.000000 0.309000
vn -0.951000 0.000000 -0.309000
vn -0.950400 0.000000 0.311000
vn -0.585100 0.000000 0.811000
vn 0.585100 0.000000 0.811000
vn 0.950400 0.000000 0.311000
vn 0.950400 0.000000 -0.311000
vn 0.585100 0.000000 -0.811000
vn -0.585100 0.000000 -0.811000
vn -0.950400 0.000000 -0.311000
s 1
f 1/1/1 2/2/2 3/3/3
f 3/3/3 2/2/2 4/4/3
f 2/2/4 5/5/5 4/4/6
f 4/4/6 5/5/5 6/6/6
f 5/5/7 7/7/8 6/6/9
f 6/6/9 7/7/8 8/8/9
f 7/7/10 9/9/11 8/8/12
f 8/8/12 9/9/11 10/10/12
f 9/9/13 11/11/14 10/10/15
f 10/10/15 11/11/14 12/12/15
f 11/11/16 13/13/17 12/12/18
f 12/12/18 13/13/17 14/14/18
f 13/13/19 15/15/20 14/14/21
f 14/14/21 15/15/20 16/16/21
f 15/15/22 17/17/23 16/16/24
f 16/16/24 17/17/23 18/18/24
f 17/17/25 19/19/26 18/18/27
f 18/18/27 19/19/26 20/20/27
f 19/19/28 1/21/29 20/20/30
f 20/20/30 1/21/29 3/22/30
f 21/23/31 22/24/31 23/25/31
f 22/24/31 24/26/31 23/25/31
f 24/26/31 25/27/31 23/25/31
f 23/25/31 25/27/31 26/28/31
f 25/27/31 27/29/31 26/28/31
f 27/29/31 28/30/31 26/28/31
f 28/30/31 29/31/31 26/28/31
f 29/31/31 30/32/31 26/28/31
f 31/33/32 32/34/32 33/35/32
f 32/34/32 34/36/32 33/35/32
f 34/36/32 35/37/32 33/35/32
f 33/35/32 35/37/32 36/38/32
f 35/37/32 37/39/32 36/38/32
f 37/39/32 38/40/32 36/38/32
f 38/40/32 39/41/32 36/38/32
f 39/41/32 40/42/32 36/38/32
f 17/23/23 15/24/22 41/23/33
f 41/23/33 15/24/22 42/24/34
f 15/24/20 13/26/19 42/24/35
f 42/24/35 13/26/19 43/26/36
f 13/26/17 11/27/16 43/26/37
f 43/26/37 11/27/16 44/27/38
f 11/27/14 9/29/13 44/27/39
f 44/27/39 9/29/13 45/29/40
f 9/29/11 7/30/10 45/29/41
f 45/29/41 7/30/10 46/30/42
f 7/30/8 5/31/7 46/30/43
f 46/30/43 5/31/7 47/31/44
f 5/31/5 2/32/4 47/31/45
f 47/31/45 2/32/4 48/32/46
f 2/32/2 1/28/1 48/32/47
f 48/32/47 1/28/1 49/28/48
f 1/28/29 19/25/28 49/28/49
f 49/28/49 19/25/28 50/25/50
f 19/25/26 17/23/25 50/25/51
f 50/25/51 17/23/25 41/23/52
f 41/23/33 42/24/34 21/23/24
f 21/23/24 42/24/34 22/24/24
f 42/24/35 43/26/36 22/24/21
f 22/24/21 43/26/36 24/26/21
f 43/26/37 44/27/38 24/26/18
f 24/26/18 44/27/38 25/27/18
f 44/27/39 45/29/40 25/27/53
f 25/27/53 45/29/40 27/29/53
f 45/29/41 46/30/42 27/29/54
f 27/29/54 46/30/42 28/30/54
f 46/30/43 47/31/44 28/30/9
f 28/30/9 47/31/44 29/31/9
f 47/31/45 48/32/46 29/31/6
f 29/31/6 48/32/46 30/32/6
f 48/32/47 49/28/48 30/32/3
f 30/32/3 49/28/48 26/28/3
f 49/28/49 50/25/50 26/28/30
f 26/28/30 50/25/50 23/25/30
f 50/25/51 41/23/52 23/25/27
f 23/25/27 41/23/52 21/23/27
f 3/34/32 51/34/32 20/33/32
f 20/33/32 51/34/32 52/33/32
f 4/36/32 53/36/32 3/34/32
f 3/34/32 53/36/32 51/34/32
f 4/36/32 6/37/32 53/36/32
f 53/36/32 6/37/32 54/37/32
f 6/37/32 8/39/32 54/37/32
f 54/37/32 8/39/32 55/39/32
f 8/39/32 10/40/32 55/39/32
f 55/39/32 10/40/32 56/40/32
f 12/41/32 57/41/32 10/40/32
f 10/40/32 57/41/32 56/40/32
f 14/42/32 58/42/32 12/41/32
f 12/41/32 58/42/32 57/41/32
f 14/42/32 16/38/32 58/42/32
f 58/42/32 16/38/32 59/38/32
f 16/38/32 18/35/32 59/38/32
f 59/38/32 18/35/32 60/35/32
f 18/35/32 20/33/32 60/35/32
f 60/35/32 20/33/32 52/33/32
f 52/33/55 51/34/55 31/33/55
f 31/33/55 51/34/55 32/34/55
f 51/34/56 53/36/56 32/34/56
f 32/34/56 53/36/56 34/36/56
f 53/36/21 54/37/21 34/36/21
f 34/36/21 54/37/21 35/37/21
f 54/37/57 55/39/57 35/37/57
f 35/37/57 55/39/57 37/39/57
f 55/39/58 56/40/58 37/39/58
f 37/39/58 56/40/58 38/40/58
f 56/40/59 57/41/59 38/40/59
f 38/40/59 57/41/59 39/41/59
f 57/41/60 58/42/60 39/41/60
f 39/41/60 58/42/60 40/42/60
f 58/42/6 59/38/6 40/42/6
f 40/42/6 59/38/6 36/38/6
f 59/38/61 60/35/61 36/38/61
f 36/38/61 60/35/61 33/35/61
f 60/35/62 52/33/62 33/35/62
f 33/35/62 52/33/62 31/33/62
