# Blender v2.76 (sub 0) OBJ File: ''
# www.blender.org
o pCylinder3
v -5.137505 0.826030 2.246277
v -5.237360 0.826030 2.171559
v -5.137505 0.974208 2.246277
v -5.237360 0.974208 2.171559
v -5.360788 0.826030 2.171559
v -5.360788 0.974208 2.171559
v -5.460643 0.826030 2.246277
v -5.460643 0.974208 2.246277
v -5.498784 0.826030 2.367173
v -5.498784 0.974208 2.367173
v -5.460643 0.826030 2.488069
v -5.460643 0.974208 2.488069
v -5.360788 0.826030 2.562786
v -5.360788 0.974208 2.562786
v -5.237360 0.826030 2.562786
v -5.237360 0.974208 2.562786
v -5.137505 0.826030 2.488069
v -5.137505 0.974208 2.488069
v -5.099364 0.826030 2.367173
v -5.099364 0.974208 2.367173
vt 0.375000 0.312500
vt 0.400000 0.312500
vt 0.375000 0.688440
vt 0.400000 0.688440
vt 0.425000 0.312500
vt 0.425000 0.688440
vt 0.450000 0.312500
vt 0.450000 0.688440
vt 0.475000 0.312500
vt 0.475000 0.688440
vt 0.500000 0.312500
vt 0.500000 0.688440
vt 0.525000 0.312500
vt 0.525000 0.688440
vt 0.550000 0.312500
vt 0.550000 0.688440
vt 0.575000 0.312500
vt 0.575000 0.688440
vt 0.600000 0.312500
vt 0.600000 0.688440
vt 0.625000 0.312500
vt 0.625000 0.688440
vt 0.626409 0.248091
vt 0.548284 0.304853
vt 0.656250 0.156250
vt 0.451716 0.304853
vt 0.373591 0.248091
vt 0.343750 0.156250
vt 0.373591 0.064409
vt 0.451716 0.007647
vt 0.548284 0.007647
vt 0.626409 0.064409
vt 0.656250 0.843750
vt 0.626409 0.935591
vt 0.626409 0.751909
vt 0.548284 0.992353
vt 0.451716 0.992353
vt 0.373591 0.935591
vt 0.343750 0.843750
vt 0.373591 0.751909
vt 0.451716 0.695147
vt 0.548284 0.695147
vn 0.599100 0.000000 -0.800700
vn 0.000000 0.000000 -1.000000
vn -0.599100 0.000000 -0.800700
vn -0.953700 0.000000 -0.300900
vn -0.953700 0.000000 0.300900
vn -0.599100 0.000000 0.800700
vn 0.000000 0.000000 1.000000
vn 0.599100 0.000000 0.800700
vn 0.953700 0.000000 0.300900
vn 0.953700 0.000000 -0.300900
vn -0.000000 -1.000000 0.000000
vn -0.000000 1.000000 0.000000
s 1
f 1/1/1 2/2/1 3/3/1
f 3/3/1 2/2/1 4/4/1
f 2/2/2 5/5/2 4/4/2
f 4/4/2 5/5/2 6/6/2
f 5/5/3 7/7/3 6/6/3
f 6/6/3 7/7/3 8/8/3
f 7/7/4 9/9/4 8/8/4
f 8/8/4 9/9/4 10/10/4
f 9/9/5 11/11/5 10/10/5
f 10/10/5 11/11/5 12/12/5
f 11/11/6 13/13/6 12/12/6
f 12/12/6 13/13/6 14/14/6
f 13/13/7 15/15/7 14/14/7
f 14/14/7 15/15/7 16/16/7
f 15/15/8 17/17/8 16/16/8
f 16/16/8 17/17/8 18/18/8
f 17/17/9 19/19/9 18/18/9
f 18/18/9 19/19/9 20/20/9
f 19/19/10 1/21/10 20/20/10
f 20/20/10 1/21/10 3/22/10
f 17/23/11 15/24/11 19/25/11
f 15/24/11 13/26/11 19/25/11
f 13/26/11 11/27/11 19/25/11
f 11/27/11 9/28/11 19/25/11
f 9/28/11 7/29/11 19/25/11
f 7/29/11 5/30/11 19/25/11
f 5/30/11 2/31/11 19/25/11
f 2/31/11 1/32/11 19/25/11
f 20/33/12 3/34/12 18/35/12
f 3/34/12 4/36/12 18/35/12
f 4/36/12 6/37/12 18/35/12
f 6/37/12 8/38/12 18/35/12
f 8/38/12 10/39/12 18/35/12
f 10/39/12 12/40/12 18/35/12
f 12/40/12 14/41/12 18/35/12
f 14/41/12 16/42/12 18/35/12
