# This file uses centimeters as units for non-parametric coordinates.

mtllib energyfield.mtl
g default
o Door1
v 6.224380 -0.986885 0.513279
v 8.699971 -0.986885 0.513279
v 6.224380 1.803464 0.513279
v 8.699971 1.803464 0.513279
v 6.224380 1.803464 0.242031
v 8.699971 1.803464 0.242031
v 6.224380 -0.986885 0.242031
v 8.699971 -0.986885 0.242031
vt 0.000000 1.000000
vt 1.000000 -0.000000
vt 1.000000 1.000000
vt 1.000000 1.000000
vt 0.000000 1.000000
vt 0.000000 -0.000000
vt 0.000000 -0.000000
vt 1.000000 -0.000000
vn 0.000000 0.000000 1.000000
vn 0.000000 0.000000 1.000000
vn 0.000000 0.000000 1.000000
vn 0.000000 1.000000 0.000000
vn 0.000000 1.000000 0.000000
vn 0.000000 1.000000 0.000000
vn 0.000000 0.000000 -1.000000
vn 0.000000 0.000000 -1.000000
vn 0.000000 0.000000 -1.000000
vn 0.000000 -1.000000 0.000000
vn 0.000000 -1.000000 0.000000
vn 0.000000 -1.000000 0.000000
vn 1.000000 0.000000 0.000000
vn 1.000000 0.000000 0.000000
vn 1.000000 0.000000 0.000000
vn -1.000000 0.000000 0.000000
vn -1.000000 0.000000 0.000000
vn -1.000000 0.000000 0.000000
vn 0.000000 1.000000 0.000000
vn -1.000000 0.000000 0.000000
vn 1.000000 0.000000 0.000000
vn 0.000000 0.000000 -1.000000
vn 0.000000 0.000000 1.000000
vn 0.000000 -1.000000 0.000000
s 1
g polySurface86 pCube59
usemtl lambert8SG
f 3/1/1 2/2/2 4/3/3
s 2
f 3/1/4 4/3/5 6/4/6
s 3
f 5/5/7 6/4/8 7/6/9
s 4
f 1/7/10 8/8/11 2/2/12
s 5
f 4/3/13 8/8/14 6/4/15
s 6
f 7/6/16 1/7/17 3/1/18
s 2
f 3/1/4 6/4/6 5/5/19
s 6
f 7/6/16 3/1/18 5/5/20
s 5
f 2/2/21 8/8/14 4/3/13
s 3
f 7/6/9 6/4/8 8/8/22
s 1
f 1/7/23 2/2/2 3/1/1
s 4
f 7/6/24 8/8/11 1/7/10
