# This file uses centimeters as units for non-parametric coordinates.

mtllib emitters.mtl
g default
o DoorEmiters1
v 8.679624 -0.354546 0.126421
v 8.679624 1.162416 0.126421
v 8.679624 -0.354546 0.266279
v 8.679624 1.162416 0.266279
v 8.406084 -0.354546 0.266279
v 8.406084 1.162416 0.266279
vt 0.375000 0.250000
vt 0.625000 0.250000
vt 0.375000 0.500000
vt 0.625000 0.500000
vt 0.375000 0.750000
vt 0.625000 0.750000
vt 0.875000 0.000000
vt 0.875000 0.250000
vt 0.125000 0.000000
vt 0.125000 0.250000
vt 0.000000 0.000000
vt 0.707107 1.000000
vt 0.707107 0.000000
vt 0.000000 1.000000
vn 1.000000 0.000000 0.000000
vn 1.000000 0.000000 0.000000
vn 1.000000 0.000000 0.000000
vn 1.000000 0.000000 0.000000
vn 0.000000 0.000000 1.000000
vn 0.000000 0.000000 1.000000
vn 0.000000 0.000000 1.000000
vn 0.000000 0.000000 1.000000
vn 0.000000 1.000000 0.000000
vn 0.000000 1.000000 0.000000
vn 0.000000 1.000000 0.000000
vn 0.000000 -1.000000 0.000000
vn 0.000000 -1.000000 0.000000
vn 0.000000 -1.000000 0.000000
vn -0.455236 0.000000 -0.890371
vn -0.455237 0.000000 -0.890370
vn -0.455237 0.000000 -0.890370
vn -0.455236 0.000000 -0.890371
s 1
g polySurface60 pCube59
usemtl lambert7SG
f 1/1/1 2/2/2 3/3/3
f 3/3/3 2/2/2 4/4/4
s 2
f 3/3/5 4/4/6 5/5/7
f 5/5/7 4/4/6 6/6/8
s off
f 2/2/9 6/7/10 4/8/11
f 5/9/12 1/1/13 3/10/14
s 3
f 6/11/15 1/12/16 5/13/17
f 2/14/18 1/12/16 6/11/15
g default
v 8.131712 1.938189 0.125641
v 6.614752 1.938189 0.125641
v 8.131712 1.938189 0.265499
v 6.614752 1.938189 0.265499
v 8.131712 1.664650 0.265499
v 6.614752 1.664650 0.265499
vt 0.375000 0.250000
vt 0.625000 0.250000
vt 0.375000 0.500000
vt 0.625000 0.500000
vt 0.375000 0.750000
vt 0.625000 0.750000
vt 0.875000 0.000000
vt 0.875000 0.250000
vt 0.125000 0.000000
vt 0.125000 0.250000
vt 0.000000 1.000000
vt 0.707107 1.000000
vt 0.707107 0.000000
vt 0.000000 0.000000
vn 0.000000 1.000000 0.000000
vn 0.000000 1.000000 0.000000
vn 0.000000 1.000000 0.000000
vn 0.000000 1.000000 0.000000
vn 0.000000 0.000000 1.000000
vn 0.000000 0.000000 1.000000
vn 0.000000 0.000000 1.000000
vn 0.000000 0.000000 1.000000
vn -1.000000 0.000000 0.000000
vn -1.000000 0.000000 0.000000
vn -1.000000 0.000000 0.000000
vn 1.000000 0.000000 0.000000
vn 1.000000 0.000000 0.000000
vn 1.000000 0.000000 0.000000
vn 0.000000 -0.455237 -0.890370
vn 0.000000 -0.455237 -0.890370
vn 0.000000 -0.455237 -0.890370
vn 0.000000 -0.455237 -0.890370
s 1
g pCube59 polySurface71
usemtl lambert7SG
f 7/15/19 8/16/20 9/17/21
f 9/17/21 8/16/20 10/18/22
s 2
f 9/17/23 10/18/24 11/19/25
f 11/19/25 10/18/24 12/20/26
s off
f 8/16/27 12/21/28 10/22/29
f 11/23/30 7/15/31 9/24/32
s 3
f 8/25/33 7/26/34 11/27/35
f 8/25/33 11/27/35 12/28/36
g default
v 6.171137 1.162416 0.120608
v 6.171137 -0.354546 0.120608
v 6.171137 1.162416 0.260466
v 6.171137 -0.354546 0.260466
v 6.444677 1.162416 0.260466
v 6.444677 -0.354546 0.260466
vt 0.375000 0.250000
vt 0.625000 0.250000
vt 0.375000 0.500000
vt 0.625000 0.500000
vt 0.375000 0.750000
vt 0.625000 0.750000
vt 0.875000 0.000000
vt 0.875000 0.250000
vt 0.125000 0.000000
vt 0.125000 0.250000
vt 0.000000 1.000000
vt 0.707107 1.000000
vt 0.707107 0.000000
vt 0.000000 0.000000
vn -1.000000 0.000000 0.000000
vn -1.000000 0.000000 0.000000
vn -1.000000 0.000000 0.000000
vn -1.000000 0.000000 0.000000
vn 0.000000 0.000000 1.000000
vn 0.000000 0.000000 1.000000
vn 0.000000 0.000000 1.000000
vn 0.000000 0.000000 1.000000
vn 0.000000 -1.000000 0.000000
vn 0.000000 -1.000000 0.000000
vn 0.000000 -1.000000 0.000000
vn 0.000000 1.000000 0.000000
vn 0.000000 1.000000 0.000000
vn 0.000000 1.000000 0.000000
vn 0.455237 0.000000 -0.890370
vn 0.455237 0.000000 -0.890371
vn 0.455237 0.000000 -0.890370
vn 0.455237 0.000000 -0.890371
s 1
g pCube59 polySurface69
usemtl lambert7SG
f 13/29/37 14/30/38 15/31/39
f 15/31/39 14/30/38 16/32/40
s 2
f 15/31/41 16/32/42 17/33/43
f 17/33/43 16/32/42 18/34/44
s off
f 14/30/45 18/35/46 16/36/47
f 17/37/48 13/29/49 15/38/50
s 3
f 14/39/51 13/40/52 17/41/53
f 14/39/51 17/41/53 18/42/54
g default
v 6.171137 -0.354546 0.649734
v 6.171137 1.162416 0.649734
v 6.171137 -0.354546 0.509876
v 6.171137 1.162416 0.509876
v 6.444677 -0.354546 0.509876
v 6.444677 1.162416 0.509876
vt 0.375000 0.250000
vt 0.625000 0.250000
vt 0.375000 0.500000
vt 0.625000 0.500000
vt 0.375000 0.750000
vt 0.625000 0.750000
vt 0.875000 0.000000
vt 0.875000 0.250000
vt 0.125000 0.000000
vt 0.125000 0.250000
vt 0.000000 0.000000
vt 0.707107 1.000000
vt 0.707107 0.000000
vt 0.000000 1.000000
vn -1.000000 0.000000 0.000000
vn -1.000000 0.000000 0.000000
vn -1.000000 0.000000 0.000000
vn -1.000000 0.000000 0.000000
vn 0.000000 0.000000 -1.000000
vn 0.000000 0.000000 -1.000000
vn 0.000000 0.000000 -1.000000
vn 0.000000 0.000000 -1.000000
vn 0.000000 1.000000 0.000000
vn 0.000000 1.000000 0.000000
vn 0.000000 1.000000 0.000000
vn 0.000000 -1.000000 0.000000
vn 0.000000 -1.000000 0.000000
vn 0.000000 -1.000000 0.000000
vn 0.455237 0.000000 0.890370
vn 0.455237 0.000000 0.890370
vn 0.455237 0.000000 0.890371
vn 0.455237 0.000000 0.890371
s 1
g pCube59 polySurface68
usemtl lambert7SG
f 19/43/55 20/44/56 21/45/57
f 21/45/57 20/44/56 22/46/58
s 2
f 21/45/59 22/46/60 23/47/61
f 23/47/61 22/46/60 24/48/62
s off
f 20/44/63 24/49/64 22/50/65
f 23/51/66 19/43/67 21/52/68
s 3
f 24/53/69 19/54/70 23/55/71
f 20/56/72 19/54/70 24/53/69
g default
v 8.679624 1.162416 0.649734
v 8.679624 -0.354546 0.649734
v 8.679624 1.162416 0.509876
v 8.679624 -0.354546 0.509876
v 8.406084 1.162416 0.509876
v 8.406084 -0.354546 0.509876
vt 0.375000 0.250000
vt 0.625000 0.250000
vt 0.375000 0.500000
vt 0.625000 0.500000
vt 0.375000 0.750000
vt 0.625000 0.750000
vt 0.875000 0.000000
vt 0.875000 0.250000
vt 0.125000 0.000000
vt 0.125000 0.250000
vt 0.000000 1.000000
vt 0.707107 1.000000
vt 0.707107 0.000000
vt 0.000000 0.000000
vn 1.000000 0.000000 0.000000
vn 1.000000 0.000000 0.000000
vn 1.000000 0.000000 0.000000
vn 1.000000 0.000000 0.000000
vn 0.000000 0.000000 -1.000000
vn 0.000000 0.000000 -1.000000
vn 0.000000 0.000000 -1.000000
vn 0.000000 0.000000 -1.000000
vn 0.000000 -1.000000 0.000000
vn 0.000000 -1.000000 0.000000
vn 0.000000 -1.000000 0.000000
vn 0.000000 1.000000 0.000000
vn 0.000000 1.000000 0.000000
vn 0.000000 1.000000 0.000000
vn -0.455237 0.000000 0.890370
vn -0.455237 0.000000 0.890371
vn -0.455237 0.000000 0.890370
vn -0.455237 0.000000 0.890371
s 1
g pCube59 polySurface61
usemtl lambert7SG
f 25/57/73 26/58/74 27/59/75
f 27/59/75 26/58/74 28/60/76
s 2
f 27/59/77 28/60/78 29/61/79
f 29/61/79 28/60/78 30/62/80
s off
f 26/58/81 30/63/82 28/64/83
f 29/65/84 25/57/85 27/66/86
s 3
f 26/67/87 25/68/88 29/69/89
f 26/67/87 29/69/89 30/70/90
g default
v 6.614752 1.938189 0.649734
v 8.131712 1.938189 0.649734
v 6.614752 1.938189 0.509876
v 8.131712 1.938189 0.509876
v 6.614752 1.664650 0.509876
v 8.131712 1.664650 0.509876
vt 0.375000 0.250000
vt 0.625000 0.250000
vt 0.375000 0.500000
vt 0.625000 0.500000
vt 0.375000 0.750000
vt 0.625000 0.750000
vt 0.875000 0.000000
vt 0.875000 0.250000
vt 0.125000 0.000000
vt 0.125000 0.250000
vt 0.000000 1.000000
vt 0.707107 1.000000
vt 0.000000 0.000000
vt 0.707107 0.000000
vn 0.000000 1.000000 0.000000
vn 0.000000 1.000000 0.000000
vn 0.000000 1.000000 0.000000
vn 0.000000 1.000000 0.000000
vn 0.000000 0.000000 -1.000000
vn 0.000000 0.000000 -1.000000
vn 0.000000 0.000000 -1.000000
vn 0.000000 0.000000 -1.000000
vn 1.000000 0.000000 0.000000
vn 1.000000 0.000000 0.000000
vn 1.000000 0.000000 0.000000
vn -1.000000 0.000000 0.000000
vn -1.000000 0.000000 0.000000
vn -1.000000 0.000000 0.000000
vn 0.000000 -0.455237 0.890370
vn 0.000000 -0.455237 0.890370
vn 0.000000 -0.455237 0.890370
vn 0.000000 -0.455237 0.890370
s 1
g pCube59 polySurface87
usemtl lambert7SG
f 31/71/91 32/72/92 33/73/93
f 33/73/93 32/72/92 34/74/94
s 2
f 33/73/95 34/74/96 35/75/97
f 35/75/97 34/74/96 36/76/98
s off
f 32/72/99 36/77/100 34/78/101
f 35/79/102 31/71/103 33/80/104
s 3
f 32/81/105 31/82/106 36/83/107
f 36/83/107 31/82/106 35/84/108
