# This file uses centimeters as units for non-parametric coordinates.

mtllib doorframe.mtl
g default
o DoorFrame1
v 6.115198 -1.000218 0.547377
v 8.734064 -1.000218 0.547377
v 6.115198 2.000218 0.547377
v 8.734064 2.000218 0.547377
v 6.115198 2.000218 0.213906
v 8.734064 2.000218 0.213906
v 6.115198 -1.000218 0.213906
v 8.734064 -1.000218 0.213906
v 6.310966 -1.000218 0.547377
v 8.546967 -1.000218 0.547377
v 6.310966 -1.000218 0.213906
v 8.546967 -1.000218 0.213906
v 8.546967 1.792847 0.213906
v 6.310966 1.792847 0.213906
v 6.310966 1.792847 0.547377
v 8.546967 1.792847 0.547377
vt 0.589286 0.000000
vt 0.625000 0.000000
vt 0.589286 0.214286
vt 0.625000 0.250000
vt 0.375000 0.250000
vt 0.410714 0.214286
vt 0.375000 0.000000
vt 0.410714 0.000000
vt 0.375000 0.500000
vt 0.625000 0.500000
vt 0.625000 0.750000
vt 0.589286 0.750000
vt 0.589286 0.535714
vt 0.410714 0.535714
vt 0.375000 0.750000
vt 0.410714 0.750000
vt 0.375000 1.000000
vt 0.410714 1.000000
vt 0.875000 0.250000
vt 0.125000 0.000000
vt 0.589286 1.000000
vt 0.625000 1.000000
vt 0.000000 0.000000
vt 0.857143 0.000000
vt 0.000000 1.000000
vt 0.857143 1.000000
vt 0.000000 0.000000
vt 0.857143 0.000000
vt 0.000000 1.000000
vt 0.857143 1.000000
vt 0.000000 0.000000
vt 1.000000 0.000000
vt 0.000000 0.714286
vt 1.000000 0.714285
vt 0.125000 0.250000
vt 0.875000 0.000000
vn 0.000000 0.000000 1.000000
vn 0.000000 0.000000 1.000000
vn 0.000000 0.000000 1.000000
vn 0.000000 0.000000 1.000000
vn -0.000000 0.000000 1.000000
vn -0.000000 0.000000 1.000000
vn -0.000000 0.000000 1.000000
vn 0.000000 0.000000 1.000000
vn 0.000000 1.000000 0.000000
vn 0.000000 1.000000 0.000000
vn 0.000000 1.000000 0.000000
vn 0.000000 0.000000 -1.000000
vn -0.000000 0.000000 -1.000000
vn -0.000000 0.000000 -1.000000
vn -0.000000 0.000000 -1.000000
vn 0.000000 0.000000 -1.000000
vn 0.000000 0.000000 -1.000000
vn 0.000000 0.000000 -1.000000
vn 0.000000 0.000000 -1.000000
vn 0.000000 -1.000000 0.000000
vn 0.000000 -1.000000 0.000000
vn 0.000000 -1.000000 0.000000
vn 1.000000 0.000000 0.000000
vn 1.000000 0.000000 0.000000
vn 1.000000 0.000000 0.000000
vn -1.000000 0.000000 0.000000
vn -1.000000 0.000000 0.000000
vn -1.000000 0.000000 0.000000
vn 0.000000 -1.000000 0.000000
vn 0.000000 -1.000000 0.000000
vn 0.000000 -1.000000 0.000000
vn 1.000000 0.000000 0.000000
vn 1.000000 0.000000 0.000000
vn 1.000000 0.000000 0.000000
vn 1.000000 0.000000 0.000000
vn -1.000000 0.000000 0.000000
vn -1.000000 0.000000 0.000000
vn -1.000000 0.000000 0.000000
vn -1.000000 0.000000 0.000000
vn 0.000000 -1.000000 0.000000
vn 0.000000 -1.000000 0.000000
vn 0.000000 -1.000000 0.000001
vn 0.000000 -1.000000 0.000001
vn -1.000000 0.000000 0.000000
vn 1.000000 0.000000 0.000000
vn 0.000000 -1.000000 0.000000
vn 0.000000 -1.000000 0.000000
vn 0.000000 1.000000 0.000000
s 1
g polySurface70 pCube59
usemtl lambert2SG
f 10/1/1 2/2/2 16/3/3
f 2/2/2 4/4/4 16/3/3
f 4/4/4 3/5/5 16/3/3
f 16/3/3 3/5/5 15/6/6
f 3/5/5 1/7/7 15/6/6
f 1/7/7 9/8/8 15/6/6
s 2
f 5/9/9 4/4/10 6/10/11
s 3
f 8/11/12 12/12/13 6/10/14
f 12/12/13 13/13/15 6/10/14
f 6/10/14 13/13/15 5/9/16
f 13/13/15 14/14/17 5/9/16
f 5/9/16 14/14/17 7/15/18
f 14/14/17 11/16/19 7/15/18
s 4
f 1/17/20 11/16/21 9/18/22
s 5
f 2/2/23 6/19/24 4/4/25
s 6
f 3/5/26 7/20/27 1/7/28
s 7
f 10/21/29 12/12/30 2/22/31
s 8
f 15/23/32 9/24/33 14/25/34
f 14/25/34 9/24/33 11/26/35
s 9
f 13/27/36 12/28/37 16/29/38
f 16/29/38 12/28/37 10/30/39
s 10
f 15/31/40 14/32/41 16/33/42
f 16/33/42 14/32/41 13/34/43
s 6
f 5/35/44 7/20/27 3/5/26
s 5
f 6/19/24 2/2/23 8/36/45
s 4
f 1/17/20 7/15/46 11/16/21
s 7
f 2/22/31 12/12/30 8/11/47
s 2
f 5/9/9 3/5/48 4/4/10
