# Blender v2.76 (sub 0) OBJ File: ''
# www.blender.org
o polySurface73_pCube59
v -11.776161 -0.354545 -3.001602
v -11.776161 1.162417 -3.001602
v -11.916018 -0.354545 -3.001602
v -11.916018 1.162417 -3.001602
v -11.916018 -0.354545 -3.275141
v -11.916018 1.162418 -3.275141
vt 0.625000 0.250000
vt 0.875000 0.000000
vt 0.875000 0.250000
vt 0.125000 0.000000
vt 0.375000 0.250000
vt 0.125000 0.250000
vt 0.375000 0.500000
vt 0.625000 0.500000
vt 0.375000 0.750000
vt 0.625000 0.750000
vt 0.000000 0.000000
vt 0.707107 1.000000
vt 0.707107 0.000000
vt 0.000000 1.000000
vn 0.000000 1.000000 0.000000
vn 0.000000 -1.000000 -0.000000
vn 0.000000 0.000000 1.000000
vn -1.000000 0.000000 0.000000
vn 0.890400 0.000000 -0.455200
s off
f 2/1/1 6/2/1 4/3/1
f 5/4/2 1/5/2 3/6/2
s 1
f 1/5/3 2/1/3 3/7/3
f 3/7/3 2/1/3 4/8/3
f 3/7/4 4/8/4 5/9/4
f 5/9/4 4/8/4 6/10/4
f 6/11/5 1/12/5 5/13/5
f 2/14/5 1/12/5 6/11/5
o pCube59_polySurface72
v -11.776161 1.938191 -3.445216
v -11.776161 1.938191 -4.962177
v -11.916018 1.938191 -3.445216
v -11.916018 1.938191 -4.962177
v -11.916018 1.664652 -3.445216
v -11.916018 1.664652 -4.962177
vt 0.625000 0.250000
vt 0.875000 0.000000
vt 0.875000 0.250000
vt 0.125000 0.000000
vt 0.375000 0.250000
vt 0.125000 0.250000
vt 0.375000 0.500000
vt 0.625000 0.500000
vt 0.375000 0.750000
vt 0.625000 0.750000
vt 0.000000 1.000000
vt 0.707107 1.000000
vt 0.000000 0.000000
vt 0.707107 0.000000
vn 0.000000 0.000000 -1.000000
vn 0.000000 0.000000 1.000000
vn 0.000000 1.000000 0.000000
vn -1.000000 0.000000 0.000000
vn 0.890400 -0.455200 -0.000000
s off
f 8/15/6 12/16/6 10/17/6
f 11/18/7 7/19/7 9/20/7
s 1
f 7/19/8 8/15/8 9/21/8
f 9/21/8 8/15/8 10/22/8
f 9/21/9 10/22/9 11/23/9
f 11/23/9 10/22/9 12/24/9
f 8/25/10 7/26/10 12/27/10
f 12/27/10 7/26/10 11/28/10
o pCube59_polySurface108
v -12.299474 -0.354544 -5.510087
v -12.299474 1.162418 -5.510087
v -12.159615 -0.354544 -5.510087
v -12.159615 1.162418 -5.510087
v -12.159615 -0.354544 -5.236548
v -12.159615 1.162418 -5.236548
vt 0.625000 0.250000
vt 0.875000 0.000000
vt 0.875000 0.250000
vt 0.125000 0.000000
vt 0.375000 0.250000
vt 0.125000 0.250000
vt 0.375000 0.500000
vt 0.625000 0.500000
vt 0.375000 0.750000
vt 0.625000 0.750000
vt 0.000000 0.000000
vt 0.707107 1.000000
vt 0.707107 0.000000
vt 0.000000 1.000000
vn 0.000000 1.000000 0.000000
vn 0.000000 -1.000000 0.000000
vn 0.000000 0.000000 -1.000000
vn 1.000000 0.000000 0.000000
vn -0.890400 0.000000 0.455200
s off
f 14/29/11 18/30/11 16/31/11
f 17/32/12 13/33/12 15/34/12
s 1
f 13/33/13 14/29/13 15/35/13
f 15/35/13 14/29/13 16/36/13
f 15/35/14 16/36/14 17/37/14
f 17/37/14 16/36/14 18/38/14
f 18/39/15 13/40/15 17/41/15
f 14/42/15 13/40/15 18/39/15
