# This file uses centimeters as units for non-parametric coordinates.

mtllib raycube.mtl
o cube
v -0.333333 -0.500000 0.500000
v 0.333333 -0.500000 0.500000
v -0.333333 0.500000 0.500000
v 0.333333 0.500000 0.500000
v -0.333333 0.500000 -0.500000
v 0.333333 0.500000 -0.500000
v -0.333333 -0.500000 -0.500000
v 0.333333 -0.500000 -0.500000
v -0.500000 -0.333333 0.500000
v -0.500000 0.333333 0.500000
v 0.500000 -0.333333 0.500000
v 0.500000 0.333333 0.500000
v -0.500000 0.500000 0.333333
v -0.500000 0.500000 -0.333333
v 0.500000 0.500000 0.333333
v 0.500000 0.500000 -0.333333
v -0.500000 0.333333 -0.500000
v -0.500000 -0.333333 -0.500000
v 0.500000 0.333333 -0.500000
v 0.500000 -0.333333 -0.500000
v -0.500000 -0.500000 -0.333333
v -0.500000 -0.500000 0.333333
v 0.500000 -0.500000 -0.333333
v 0.500000 -0.500000 0.333333
v 0.333333 0.500000 0.333333
v 0.333333 0.500000 -0.333333
v -0.333333 0.500000 -0.333333
v -0.333333 0.500000 0.333333
v 0.333333 0.333333 -0.500000
v 0.333333 -0.333333 -0.500000
v -0.333333 -0.333333 -0.500000
v -0.333333 0.333333 -0.500000
v -0.500000 0.333333 -0.333333
v -0.500000 0.333333 0.333333
v -0.500000 -0.333333 -0.333333
v -0.500000 -0.333333 0.333333
v -0.333333 0.333333 0.500000
v -0.333333 -0.333333 0.500000
v 0.333333 0.333333 0.500000
v 0.333333 -0.333333 0.500000
v 0.500000 0.333333 0.333333
v 0.500000 0.333333 -0.333333
v 0.500000 -0.333333 0.333333
v 0.500000 -0.333333 -0.333333
v 0.333333 -0.500000 0.333333
v -0.333333 -0.500000 0.333333
v 0.333333 -0.500000 -0.333333
v -0.333333 -0.500000 -0.333333
vt 0.166667 0.833333
vt 0.166667 0.166667
vt 0.166667 0.000000
vt 0.833333 0.000000
vt 0.833333 0.166667
vt 0.833333 0.833333
vt 0.166667 0.000000
vt 0.833333 0.000000
vt 0.833333 0.833333
vt 0.833333 1.000000
vt 0.166667 1.000000
vt 0.166667 0.833333
vt 0.833333 0.166667
vt 0.166667 0.166667
vt 0.833333 0.833333
vt 0.166667 0.833333
vt 0.833333 0.166667
vt 0.166667 0.166667
vt 0.833333 0.833333
vt 0.166667 0.833333
vt 0.166667 0.166667
vt 0.166667 0.000000
vt 0.833333 0.000000
vt 0.833333 0.166667
vt 0.166667 0.166667
vt 0.833333 0.166667
vt 0.833333 1.000000
vt 0.166667 1.000000
vt 0.833333 1.000000
vt 0.166667 1.000000
vt 0.833333 0.833333
vt 0.166667 0.833333
vt 0.833333 1.000000
vt 0.166667 1.000000
vt 1.000000 0.166667
vt 1.000000 0.833333
vt 0.166667 0.833333
vt 0.877697 0.961368
vt 0.965794 0.873453
vt 0.997882 0.993705
vt 0.877946 0.961302
vt 0.965861 0.873204
vt 0.998199 0.993389
vt 0.877696 0.961368
vt 0.965861 0.873204
vt 0.998131 0.993638
vt 0.877696 0.961368
vt 0.965794 0.873453
vt 0.997882 0.993705
vt 0.877697 0.961368
vt 0.965861 0.873204
vt 0.998131 0.993638
vt 0.877696 0.961368
vt 0.965861 0.873204
vt 0.998131 0.993638
vt 0.877446 0.961435
vt 0.965793 0.873453
vt 0.997815 0.993955
vt 0.877446 0.961435
vt 0.965860 0.873203
vt 0.998064 0.993888
vt 0.833333 0.833333
vt 1.000000 0.166667
vt 1.000000 0.833333
vt 0.000000 0.833333
vt 0.000000 0.166667
vt 1.000000 0.166667
vt 1.000000 0.833333
vt 0.166667 0.166667
vt 0.833333 0.166667
vt 0.000000 0.833333
vt 0.000000 0.166667
vt 0.833333 1.000000
vt 0.166667 1.000000
vt 0.166667 0.000000
vt 0.833333 0.000000
vt 0.000000 0.833333
vt 0.000000 0.833333
vt 0.000000 0.166667
vt 0.000000 0.833333
vt 0.000000 0.166667
vt 0.000000 0.166667
vt 0.166667 0.000000
vt 0.833333 0.000000
vt 0.000000 0.833333
vt 0.000000 0.166667
vt 1.000000 0.166667
vt 1.000000 0.833333
vt 1.000000 0.166667
vt 1.000000 0.833333
vt 1.000000 0.166667
vt 1.000000 0.833333
vt 0.166667 0.000000
vt 0.833333 0.000000
vt 0.833333 1.000000
vt 0.166667 1.000000
vn 0.000000 1.000000 0.000000
vn 0.000000 1.000000 0.000000
vn 0.000000 1.000000 0.000000
vn 0.000000 1.000000 0.000000
vn 0.000000 0.000000 1.000000
vn -0.000000 0.000000 1.000000
vn -0.000000 0.000000 1.000000
vn 0.000000 0.000000 1.000000
vn 1.000000 0.000000 0.000000
vn 1.000000 0.000000 0.000000
vn 1.000000 0.000000 0.000000
vn 1.000000 0.000000 0.000000
vn 0.000000 0.000000 -1.000000
vn 0.000000 0.000000 -1.000000
vn 0.000000 0.000000 -1.000000
vn -0.000000 0.000000 -1.000000
vn 0.000000 -1.000000 0.000000
vn 0.000000 -1.000000 0.000000
vn 0.000000 -1.000000 0.000000
vn 0.000000 -1.000000 -0.000000
vn -1.000000 0.000000 0.000000
vn -1.000000 0.000000 0.000000
vn -1.000000 0.000000 0.000000
vn -1.000000 0.000000 0.000000
vn 0.577350 0.577350 0.577350
vn 0.577350 0.577350 0.577350
vn 0.577350 0.577350 0.577350
vn 0.577350 0.577350 -0.577350
vn 0.577350 0.577350 -0.577350
vn 0.577350 0.577350 -0.577350
vn -0.577350 0.577350 -0.577350
vn -0.577350 0.577350 -0.577350
vn -0.577350 0.577350 -0.577350
vn -0.577350 0.577350 0.577350
vn -0.577350 0.577350 0.577350
vn -0.577350 0.577350 0.577350
vn -0.577350 -0.577350 0.577350
vn -0.577350 -0.577350 0.577350
vn -0.577350 -0.577350 0.577350
vn 0.577350 -0.577350 0.577350
vn 0.577350 -0.577350 0.577350
vn 0.577350 -0.577350 0.577350
vn 0.577350 -0.577350 -0.577350
vn 0.577350 -0.577350 -0.577350
vn 0.577350 -0.577350 -0.577350
vn -0.577350 -0.577350 -0.577350
vn -0.577350 -0.577350 -0.577350
vn -0.577350 -0.577350 -0.577350
vn 0.000000 1.000000 -0.000000
vn 0.000000 1.000000 0.000000
vn 0.000000 1.000000 -0.000000
vn 0.000000 1.000000 0.000001
vn 0.000000 1.000000 0.000000
vn 0.000000 1.000000 0.000000
vn 0.000000 1.000000 0.000000
vn 0.000000 1.000000 0.000000
vn 0.000000 1.000000 0.000000
vn 0.000000 1.000000 0.000000
vn 0.000000 1.000000 0.000000
vn 0.000000 1.000000 0.000000
vn 0.000000 1.000000 0.000000
vn 0.000000 1.000000 0.000000
vn 0.000000 1.000000 0.000000
vn 0.000000 1.000000 0.000000
vn 0.000000 1.000000 0.000000
vn 0.000000 1.000000 0.000000
vn 0.000000 1.000000 0.000000
vn 0.000000 1.000000 0.000000
vn 0.000000 1.000000 0.000000
vn 0.000000 1.000000 0.000000
vn -0.000000 0.000000 -1.000000
vn 0.000000 0.000000 -1.000000
vn 0.000000 0.000000 -1.000000
vn 0.000000 0.000000 -1.000000
vn 0.000000 0.000000 -1.000000
vn -0.000000 0.000000 -1.000000
vn 0.000000 0.000000 -1.000000
vn 0.000000 0.000000 -1.000000
vn 0.000000 0.000000 -1.000000
vn 0.000000 0.000000 -1.000000
vn 0.000000 0.000000 -1.000000
vn -1.000000 0.000000 0.000000
vn -1.000000 -0.000000 0.000000
vn -1.000000 0.000000 0.000000
vn -1.000000 -0.000000 0.000000
vn -1.000000 0.000000 0.000000
vn -1.000000 0.000000 0.000000
vn -1.000000 0.000000 0.000000
vn -1.000000 0.000000 0.000000
vn -1.000000 0.000000 0.000000
vn -1.000000 0.000000 0.000000
vn -1.000000 0.000000 0.000000
vn -1.000000 0.000000 0.000000
vn -1.000000 0.000000 0.000000
vn -0.000000 0.000000 1.000000
vn -0.000000 0.000000 1.000000
vn -0.000000 0.000000 1.000000
vn 0.000000 0.000000 1.000000
vn 0.000000 0.000000 1.000000
vn 0.000000 0.000000 1.000000
vn 0.000000 0.000000 1.000000
vn 0.000000 0.000000 1.000000
vn 0.000000 0.000000 1.000000
vn 0.000000 0.000000 1.000000
vn 0.000000 0.000000 1.000000
vn 0.000000 0.000000 1.000000
vn 0.000000 0.000000 1.000000
vn 1.000000 0.000000 0.000000
vn 1.000000 -0.000000 0.000000
vn 1.000000 0.000000 0.000000
vn 1.000000 -0.000000 0.000000
vn 1.000000 0.000000 0.000000
vn 1.000000 0.000000 0.000000
vn 1.000000 0.000000 0.000000
vn 1.000000 0.000000 0.000000
vn 1.000000 0.000000 0.000000
vn 1.000000 0.000000 0.000000
vn 1.000000 0.000000 0.000000
vn 1.000000 0.000000 0.000000
vn 1.000000 0.000000 0.000000
vn 0.000000 -1.000000 0.000000
vn 0.000000 -1.000000 0.000000
vn 0.000000 -1.000000 0.000000
vn 0.000000 -1.000000 -0.000000
vn 0.000000 -1.000000 0.000000
vn 0.000000 -1.000000 0.000000
vn 0.000000 -1.000000 0.000000
vn 0.000000 -1.000000 0.000000
vn 0.000000 -1.000000 0.000000
vn 0.000000 -1.000000 0.000000
vn 0.000000 -1.000000 0.000000
vn 0.000000 -1.000000 0.000000
vn 0.000000 -1.000000 0.000000
s 1
g pCube1
usemtl T_raycube1
f 3/3/1 4/4/2 28/18/3
f 28/18/3 4/4/2 25/17/4
s 2
f 37/1/5 38/2/6 39/6/7
f 39/6/7 38/2/6 40/5/8
s 3
f 42/9/9 16/10/10 41/12/11
f 41/12/11 16/10/10 15/11/12
s 4
f 5/7/13 6/8/14 32/14/15
f 32/14/15 6/8/14 29/13/16
s 5
f 45/19/17 46/20/18 47/26/19
f 47/26/19 46/20/18 48/25/20
s 6
f 34/21/21 13/22/22 33/24/23
f 33/24/23 13/22/22 14/23/24
s off
f 15/38/25 4/39/26 12/40/27
f 16/41/28 19/42/29 6/43/30
f 14/44/31 5/45/32 17/46/33
f 3/47/34 13/48/35 10/49/36
f 9/50/37 22/51/38 1/52/39
f 11/53/40 2/54/41 24/55/42
f 20/56/43 23/57/44 8/58/45
f 18/59/46 7/60/47 21/61/48
s 7
f 6/29/49 5/30/50 26/62/51
f 26/62/51 5/30/50 27/37/52
s 8
f 26/62/53 27/37/54 25/17/55
f 25/17/55 27/37/54 28/18/56
s off
f 15/67/57 25/17/58 4/4/59
s 8
f 16/68/60 26/62/53 15/67/61
f 15/67/61 26/62/53 25/17/55
f 6/29/62 26/62/53 16/68/60
s off
f 14/71/63 27/37/64 5/30/65
s 8
f 27/37/54 14/71/66 28/18/56
f 28/18/56 14/71/66 13/72/67
s off
f 3/3/68 28/18/69 13/72/70
s 4
f 30/15/71 31/16/72 29/13/16
f 29/13/16 31/16/72 32/14/73
f 8/27/74 7/28/75 30/15/71
f 30/15/71 7/28/75 31/16/72
f 19/63/76 29/13/16 6/8/14
f 20/64/77 30/15/71 19/63/76
f 19/63/76 30/15/71 29/13/16
f 8/27/74 30/15/71 20/64/77
f 18/77/78 31/16/72 7/28/75
f 31/16/72 18/77/79 32/14/73
f 32/14/73 18/77/79 17/79/80
f 5/7/13 32/14/15 17/79/81
s 6
f 34/21/21 33/24/23 36/32/82
f 36/32/82 33/24/23 35/31/83
f 36/32/82 35/31/83 22/34/84
f 22/34/84 35/31/83 21/33/85
f 17/35/86 33/24/23 14/23/24
f 17/35/86 18/36/87 33/24/23
f 33/24/23 18/36/87 35/31/83
f 21/33/85 35/31/83 18/36/88
s off
f 9/65/89 36/32/90 22/34/91
s 6
f 10/66/92 34/21/21 9/65/93
f 9/65/93 34/21/21 36/32/82
f 13/22/94 34/21/21 10/66/92
s 2
f 37/1/5 10/80/95 38/2/6
f 38/2/6 10/80/95 9/82/96
f 39/6/7 40/5/8 12/90/97
f 12/90/97 40/5/8 11/89/98
f 38/2/6 9/82/96 1/93/99
f 40/5/8 38/2/6 2/94/100
f 2/94/100 38/2/6 1/93/99
f 11/89/98 40/5/8 2/94/101
s off
f 4/95/102 39/6/103 12/90/104
s 2
f 39/6/7 4/95/105 37/1/5
f 37/1/5 4/95/105 3/96/106
f 10/80/107 37/1/5 3/96/106
s 3
f 42/9/9 41/12/11 44/70/108
f 44/70/108 41/12/11 43/69/109
f 44/70/108 43/69/109 23/76/110
f 23/76/110 43/69/109 24/75/111
f 12/78/112 41/12/11 15/11/12
f 12/78/112 11/81/113 41/12/11
f 41/12/11 11/81/113 43/69/109
f 24/75/111 43/69/109 11/81/114
s off
f 20/91/115 44/70/116 23/76/117
s 3
f 19/92/118 42/9/9 20/91/119
f 20/91/119 42/9/9 44/70/108
f 16/10/120 42/9/9 19/92/118
s 5
f 45/19/17 2/73/121 46/20/18
f 46/20/18 2/73/121 1/74/122
f 47/26/19 48/25/20 8/84/123
f 8/84/123 48/25/20 7/83/124
f 22/85/125 46/20/18 1/74/122
f 48/25/20 46/20/18 21/86/126
f 21/86/126 46/20/18 22/85/125
f 7/83/124 48/25/20 21/86/127
s off
f 23/87/128 47/26/129 8/84/130
s 5
f 47/26/19 23/87/131 45/19/17
f 45/19/17 23/87/131 24/88/132
f 2/73/133 45/19/17 24/88/132
