# This file uses centimeters as units for non-parametric coordinates.

g default
v -0.500000 -0.500000 0.000000
v 0.500000 -0.500000 0.000000
v -0.500000 0.500000 0.000000
v 0.500000 0.500000 0.000000
v 0.000000 0.500000 0.000000
v 0.500000 0.000000 0.000000
v -0.500000 0.000000 0.000000
v 0.000000 -0.500000 0.000000
v 0.000000 0.000000 0.000000
vt 0.006989 0.002993
vt 0.994082 0.002993
vt 0.006131 0.991040
vt 0.006856 0.004208
vt 0.006360 0.992638
vt 0.993224 0.991040
vt 0.993452 0.992638
vt 0.993224 0.003947
vt 0.006856 0.991301
vt 0.006989 0.990086
vt 0.993949 0.991301
vt 0.993452 0.005546
vt 0.006131 0.003947
vt 0.994082 0.990086
vt 0.993949 0.004208
vt 0.006360 0.005546
vn 0.000000 0.000000 1.000000
vn 0.000000 0.000000 1.000000
vn 0.000000 0.000000 1.000000
vn 0.000000 0.000000 1.000000
vn 0.000000 0.000000 1.000000
vn 0.000000 0.000000 1.000000
vn 0.000000 0.000000 1.000000
vn 0.000000 0.000000 1.000000
vn 0.000000 0.000000 1.000000
vn 0.000000 0.000000 1.000000
vn 0.000000 0.000000 1.000000
vn 0.000000 0.000000 1.000000
vn 0.000000 0.000000 1.000000
vn 0.000000 0.000000 1.000000
vn 0.000000 0.000000 1.000000
vn 0.000000 0.000000 1.000000
s 1
g pPlane1
f 1/1/1 8/2/2 7/10/3
f 7/10/3 8/2/2 9/14/4
s 2
f 5/5/5 9/16/6 4/7/7
f 4/7/7 9/16/6 6/12/8
s 3
f 6/6/9 9/3/10 2/8/11
f 2/8/11 9/3/10 8/13/12
s 4
f 7/4/13 9/15/14 3/9/15
f 3/9/15 9/15/14 5/11/16
