# This file uses centimeters as units for non-parametric coordinates.

mtllib BigFloor.mtl
g default
v -7.000000 -0.000000 7.000000
v 7.000000 -0.000000 7.000000
v -0.917722 0.000000 -0.917722
v -0.917722 -0.000000 3.165427
v -1.254687 -0.000000 3.165427
v -1.254687 0.000000 -1.254687
v -7.000000 0.000000 -7.000000
v 7.000000 0.000000 -7.000000
v -0.917722 0.000000 -7.000000
v -1.254687 0.000000 -7.000000
vt -6.484738 -6.484738
vt 7.484738 -6.484738
vt -0.415721 1.415721
vt -0.415721 -2.658526
vt -0.751951 -2.658526
vt -0.751951 1.751951
vt -6.484738 7.484738
vt 7.484738 7.484738
vt -0.415720 7.484738
vt -0.751951 7.484737
vn -0.000000 1.000000 0.000000
vn -0.000000 1.000000 0.000000
vn -0.000000 1.000000 0.000000
vn 0.000000 1.000000 0.000000
vn 0.000000 1.000000 0.000000
vn 0.000000 1.000000 0.000000
vn 0.000000 1.000000 0.000000
vn 0.000000 1.000000 0.000000
vn 0.000000 1.000000 0.000000
vn 0.000000 1.000000 0.000000
s 1
g pMainFloor Main_floor Floor_Tiles
usemtl lambert2SG
f 3/3/1 4/4/2 2/2/3
f 2/2/3 4/4/2 1/1/4
f 4/4/2 5/5/5 1/1/4
f 7/7/6 1/1/4 6/6/7
f 1/1/4 5/5/5 6/6/7
f 2/2/3 8/8/8 3/3/1
f 3/3/1 8/8/8 9/9/9
f 7/7/6 6/6/7 10/10/10
g default
v 1.000000 -0.000000 -6.997814
v 3.000000 -0.000000 -6.997814
v 1.000000 0.000000 -8.997814
v 3.000000 0.000000 -8.997814
vt -0.505480 -0.505480
vt 1.505480 -0.505480
vt -0.505480 1.505480
vt 1.505480 1.505480
vn 0.000000 1.000000 0.000000
vn 0.000000 1.000000 0.000000
vn 0.000000 1.000000 0.000000
vn 0.000000 1.000000 0.000000
s 1
g Floor_Tiles pPlane2
usemtl lambert2SG
f 11/11/11 12/12/12 13/13/13
f 13/13/13 12/12/12 14/14/14
g default
v 1.000000 -0.000000 8.998186
v 3.000000 -0.000000 8.998186
v 1.000000 0.000000 6.998186
v 3.000000 0.000000 6.998186
vt -0.505480 -0.505480
vt 1.505480 -0.505480
vt -0.505480 1.505480
vt 1.505480 1.505480
vn 0.000000 1.000000 0.000000
vn 0.000000 1.000000 0.000000
vn 0.000000 1.000000 0.000000
vn 0.000000 1.000000 0.000000
s 1
g Floor_Tiles pPlane1
usemtl lambert2SG
f 15/15/15 16/16/16 17/17/17
f 17/17/17 16/16/16 18/18/18
