# This file uses centimeters as units for non-parametric coordinates.

mtllib BootrayCast.mtl
g default
v -0.004863 -0.004960 -0.000581
v 0.004863 -0.004960 -0.000581
v -0.004863 0.004960 -0.000581
v 0.004863 0.004960 -0.000581
v -0.004863 0.004960 -35.798378
v 0.004863 0.004960 -35.798378
v -0.004863 -0.004960 -35.798378
v 0.004863 -0.004960 -35.798378
v -0.004863 -0.004960 -0.000581
v 0.004863 -0.004960 -0.000581
v -0.004863 0.004960 -0.000581
v 0.004863 0.004960 -0.000581
v -0.004863 0.004960 -35.798378
v 0.004863 0.004960 -35.798378
v -0.004863 -0.004960 -35.798378
v 0.004863 -0.004960 -35.798378
vt 1.003337 -103.572266
vt 1.006553 -104.181549
vt 0.003672 -98.863350
vt 0.002231 97.869209
vt 0.002266 -94.553818
vt 1.001978 92.349266
vt -0.004605 -86.958298
vt 1.000572 96.657410
vt -0.004605 104.254288
vt 0.993701 104.254288
vt 1.000571 -93.342621
vt 1.000571 97.869209
vt 0.005028 -103.572266
vt 0.005028 87.639847
vt 0.997464 -101.568657
vt 1.005828 -103.421257
vt 0.005079 -91.689545
vt 1.001272 89.503578
vt 0.002266 -94.553818
vt 1.003385 100.693153
vt 0.000998 -98.037827
vt 1.000572 88.313530
vt 0.000998 93.174789
vt 0.999304 93.174789
vt -0.000421 -100.741592
vt -0.000421 90.470901
vt -0.000843 -101.568657
vt -0.000843 89.643745
vt 1.006553 87.031738
vt 1.001978 -98.863350
vt 0.008246 87.031738
vt 1.003337 87.639847
vt 0.002231 -93.342621
vt 0.008246 -104.181549
vt 1.003385 -91.689545
vt 0.007525 87.791336
vt 0.997464 88.474007
vt 0.007525 -102.250359
vt -0.000421 -100.741592
vt 0.999810 89.195244
vt 1.005828 87.791336
vt 1.001272 -101.708916
vt 1.000572 -94.553818
vt 0.005079 100.693153
vt 0.005079 100.693153
vt 1.003385 -91.689545
vt 0.993701 -86.958298
vt 0.993701 -86.958298
vt -0.004605 104.254288
vt 0.002266 96.657410
vt 0.002266 96.657410
vt 1.000572 -94.553818
vt 1.000572 -94.553818
vt 0.003672 92.349266
vt 0.003672 92.349266
vt 1.001978 -98.863350
vt 0.002266 96.657410
vt 1.000572 -102.897720
vt 0.999304 -98.037827
vt 0.002266 88.313530
vn 0.000000 0.000000 1.000000
vn 0.000000 0.000000 1.000000
vn 0.000000 0.000000 1.000000
vn 0.000000 0.000000 1.000000
vn 0.000000 0.000000 1.000000
vn 0.000000 0.000000 1.000000
vn 0.000000 1.000000 0.000000
vn 0.000000 1.000000 0.000000
vn 0.000000 1.000000 0.000000
vn 0.000000 1.000000 0.000000
vn 0.000000 1.000000 0.000000
vn 0.000000 1.000000 0.000000
vn 0.000000 0.000000 -1.000000
vn 0.000000 0.000000 -1.000000
vn 0.000000 0.000000 -1.000000
vn 0.000000 0.000000 -1.000000
vn 0.000000 0.000000 -1.000000
vn 0.000000 0.000000 -1.000000
vn 0.000000 -1.000000 0.000000
vn 0.000000 -1.000000 0.000000
vn 0.000000 -1.000000 0.000000
vn 0.000000 -1.000000 0.000000
vn 0.000000 -1.000000 0.000000
vn 0.000000 -1.000000 0.000000
vn 1.000000 0.000000 0.000000
vn 1.000000 0.000000 0.000000
vn 1.000000 0.000000 0.000000
vn 1.000000 0.000000 0.000000
vn 1.000000 0.000000 0.000000
vn 1.000000 0.000000 0.000000
vn -1.000000 0.000000 0.000000
vn -1.000000 0.000000 0.000000
vn -1.000000 0.000000 0.000000
vn -1.000000 0.000000 0.000000
vn -1.000000 0.000000 0.000000
vn -1.000000 0.000000 0.000000
vn 0.000000 0.000000 1.000000
vn 0.000000 0.000000 1.000000
vn 0.000000 0.000000 1.000000
vn 0.000000 0.000000 1.000000
vn 0.000000 0.000000 1.000000
vn 0.000000 0.000000 1.000000
vn 0.000000 1.000000 0.000000
vn 0.000000 1.000000 0.000000
vn 0.000000 1.000000 0.000000
vn 0.000000 1.000000 0.000000
vn 0.000000 1.000000 0.000000
vn 0.000000 1.000000 0.000000
vn 0.000000 0.000000 -1.000000
vn 0.000000 0.000000 -1.000000
vn 0.000000 0.000000 -1.000000
vn 0.000000 0.000000 -1.000000
vn 0.000000 0.000000 -1.000000
vn 0.000000 0.000000 -1.000000
vn 0.000000 -1.000000 0.000000
vn 0.000000 -1.000000 0.000000
vn 0.000000 -1.000000 0.000000
vn 0.000000 -1.000000 0.000000
vn 0.000000 -1.000000 0.000000
vn 0.000000 -1.000000 0.000000
vn 1.000000 0.000000 0.000000
vn 1.000000 0.000000 0.000000
vn 1.000000 0.000000 0.000000
vn 1.000000 0.000000 0.000000
vn 1.000000 0.000000 0.000000
vn 1.000000 0.000000 0.000000
vn -1.000000 0.000000 0.000000
vn -1.000000 0.000000 0.000000
vn -1.000000 0.000000 0.000000
vn -1.000000 0.000000 0.000000
vn -1.000000 0.000000 0.000000
vn -1.000000 0.000000 0.000000
s off
g pCube1
usemtl initialShadingGroup
f 1/34/1 2/2/2 3/31/3
f 3/31/4 2/2/5 4/29/6
f 3/3/7 4/30/8 5/55/9
f 5/54/10 4/56/11 6/6/12
f 5/5/13 6/52/14 7/51/15
f 7/50/16 6/53/17 8/8/18
f 7/7/19 8/47/20 1/49/21
f 1/9/22 8/48/23 2/10/24
f 2/33/25 8/11/26 4/4/27
f 4/4/28 8/11/29 6/12/30
f 7/13/31 1/1/32 5/14/33
f 5/14/34 1/1/35 3/32/36
f 9/38/37 10/16/38 11/36/39
f 11/36/40 10/16/41 12/41/42
f 11/17/43 12/35/44 13/45/45
f 13/44/46 12/46/47 14/20/48
f 13/19/49 14/43/50 15/57/51
f 15/60/52 14/58/53 16/22/54
f 15/21/55 16/59/56 9/23/57
f 9/23/58 16/59/59 10/24/60
f 10/42/61 16/39/62 12/18/63
f 12/40/64 16/25/65 14/26/66
f 15/27/67 9/15/68 13/28/69
f 13/28/70 9/15/71 11/37/72
