# Blender v2.76 (sub 0) OBJ File: ''
# www.blender.org
mtllib Box.mtl
o Cube
v 1.000000 -1.000000 -1.000000
v 1.000000 -1.000000 1.000000
v -1.000000 -1.000000 1.000000
v -1.000000 -1.000000 -1.000000
v 1.000000 1.000000 -0.999999
v 0.999999 1.000000 1.000001
v -1.000000 1.000000 1.000000
v -1.000000 1.000000 -1.000000
vt 0.000290 0.171465
vt 0.171465 0.000290
vt 0.342639 0.171465
vt 0.857323 0.000290
vt 0.686149 0.171465
vt 0.514975 0.000290
vt 0.171465 0.514394
vt 0.000290 0.343220
vt 0.171465 0.172046
vt 0.999709 0.585877
vt 0.757633 0.585877
vt 0.757633 0.343801
vt 0.343220 0.343220
vt 0.514394 0.514394
vt 0.343220 0.685568
vt 0.342639 0.514975
vt 0.171465 0.686149
vt 0.000290 0.514975
vt 0.686149 0.343220
vt 0.514975 0.172046
vt 0.857323 0.172046
vt 0.757052 0.585877
vt 0.514975 0.585877
vt 0.757052 0.343801
vt 0.514394 0.171465
vt 0.343220 0.342639
vt 0.343220 0.000290
vt 0.485025 0.686730
vt 0.485025 0.928807
vt 0.242948 0.686730
vt 0.242367 0.928807
vt 0.000290 0.928807
vt 0.242367 0.686730
vt 0.757052 0.586459
vt 0.757052 0.828535
vt 0.514975 0.586459
vn 0.000000 -1.000000 0.000000
vn 0.000000 1.000000 0.000000
vn 1.000000 0.000000 0.000000
vn -0.000000 0.000000 1.000000
vn -1.000000 -0.000000 -0.000000
vn 0.000000 0.000000 -1.000000
usemtl Material
s off
f 2/1/1 3/2/1 4/3/1
f 8/4/2 7/5/2 6/6/2
f 5/7/3 6/8/3 2/9/3
f 6/10/4 7/11/4 3/12/4
f 3/13/5 7/14/5 8/15/5
f 1/16/6 4/17/6 8/18/6
f 1/19/1 2/20/1 4/21/1
f 5/22/2 8/23/2 6/24/2
f 1/25/3 5/26/3 2/27/3
f 2/28/4 6/29/4 3/30/4
f 4/31/5 3/32/5 8/33/5
f 5/34/6 1/35/6 8/36/6
