# Blender v2.76 (sub 0) OBJ File: 'Cube.blend'
# www.blender.org
mtllib Cube.mtl
o Cube_Cube.001
v -0.0500000 -0.0500000 0.0500000
v -0.0500000 0.0500000 0.0500000
v -0.0500000 -0.0500000 -0.0500000
v -0.0500000 0.0500000 -0.0500000
v 0.0500000 -0.0500000 0.0500000
v 0.0500000 0.0500000 0.0500000
v 0.0500000 -0.0500000 -0.0500000
v 0.0500000 0.0500000 -0.0500000
vt 1.000000 1.000000
vt 1.000000 0.000000
vt 0.000000 0.000000
vt 0.000000 1.000000
vn -1.000000 0.000000 0.000000
vn 0.000000 0.000000 -1.000000
vn 0.500000 0.000000 0.000000
vn 0.000000 0.000000 1.000000
vn 0.000000 -1.000000 0.000000
vn 0.000000 1.000000 0.000000
usemtl None
s off
f 4/1/1 3/2/1 1/3/1
f 8/1/2 7/2/2 3/3/2
f 6/4/3 5/3/3 7/2/3
f 2/4/4 1/3/4 5/2/4
f 3/4/5 7/1/5 5/2/5
f 8/1/6 4/4/6 2/3/6
f 2/4/1 4/1/1 1/3/1
f 4/4/2 8/1/2 3/3/2
f 8/1/3 6/4/3 7/2/3
f 6/1/4 2/4/4 5/2/4
f 1/3/5 3/4/5 5/2/5
f 6/2/6 8/1/6 2/3/6
