# This file uses centimeters as units for non-parametric coordinates.

mtllib ControlBoard.mtl
g default
v -0.834512 0.559911 1.065080
v -0.834512 2.793514 1.065080
v -0.834512 2.793514 -1.729168
v -0.834512 0.559911 -1.729168
vt -0.000214 0.000000
vt -0.001653 1.002054
vt 0.999259 0.000000
vt 1.000078 0.999782
vn 1.000000 0.000000 0.000000
vn 1.000000 0.000000 0.000000
vn 1.000000 0.000000 0.000000
vn 1.000000 0.000000 0.000000
s 1
g ControlsBoard
usemtl lambert4SG
f 1/1/1 4/3/2 2/2/3
f 2/2/3 4/3/2 3/4/4
