# This file uses centimeters as units for non-parametric coordinates.

mtllib CubeButtonStand.mtl
g default
v -0.199682 0.007440 0.199682
v 0.199682 0.007440 0.199682
v -0.199682 1.302593 0.199682
v 0.199682 1.302593 0.199682
v -0.199682 1.302593 -0.199682
v 0.199682 1.302593 -0.199682
v -0.199682 0.007440 -0.199682
v 0.199682 0.007440 -0.199682
v -0.168527 1.302593 0.168527
v 0.168527 1.302593 0.168527
v 0.168527 1.302593 -0.168527
v -0.168527 1.302593 -0.168527
v -0.168527 1.255896 0.168527
v 0.168527 1.255896 0.168527
v 0.168527 1.255896 -0.168527
v -0.168527 1.255896 -0.168527
v -0.199682 0.093052 0.199682
v 0.199682 0.093052 0.199682
v 0.199682 0.093052 -0.199682
v -0.199682 0.093052 -0.199682
v -0.236326 0.007440 -0.199682
v -0.236326 0.007440 0.199682
v -0.236326 0.093052 0.199682
v -0.236326 0.093052 -0.199682
v -0.199682 0.093052 0.238708
v -0.236326 0.093052 0.238708
v -0.236326 0.007440 0.238708
v -0.199682 0.007440 0.238708
v 0.199682 0.007440 0.238708
v 0.199682 0.093052 0.238708
v 0.238496 0.007440 -0.199682
v 0.238496 0.007440 0.199682
v 0.238496 0.093052 -0.199682
v 0.238496 0.093052 0.199682
v 0.238496 0.093052 0.238708
v 0.238496 0.007440 0.238708
v 0.199682 0.093052 -0.239110
v -0.199682 0.093052 -0.239110
v 0.199682 0.007440 -0.239110
v -0.199682 0.007440 -0.239110
v -0.236326 0.007440 -0.239110
v -0.236326 0.093052 -0.239110
v 0.238496 0.093052 -0.239110
v 0.238496 0.007440 -0.239110
vt 0.000000 0.000000
vt 1.000000 0.000000
vt 0.000000 1.000000
vt 1.000000 1.000000
vt 0.000000 2.000000
vt 1.000000 2.000000
vt 0.000000 3.000000
vt 1.000000 3.000000
vt 0.000000 4.000000
vt 1.000000 4.000000
vt 2.000000 0.000000
vt 2.000000 1.000000
vt -1.000000 0.000000
vt -1.000000 1.000000
vt 0.000000 1.000000
vt 1.000000 1.000000
vt 1.000000 2.000000
vt 0.000000 2.000000
vt 0.000000 1.000000
vt 1.000000 1.000000
vt 1.000000 2.000000
vt 0.000000 2.000000
vt 0.000000 0.066102
vt 1.000000 0.066102
vt 1.000000 2.933898
vt 2.000000 0.066102
vt -1.000000 0.066102
vt 0.000000 2.933898
vt -1.000000 0.000000
vt 0.000000 0.000000
vt 0.000000 0.066102
vt -1.000000 0.066102
vt 0.000000 0.066102
vt 0.000000 0.066102
vt 0.000000 0.000000
vt 0.000000 0.000000
vt 1.000000 0.000000
vt 1.000000 0.066102
vt 1.000000 0.000000
vt 2.000000 0.000000
vt 2.000000 0.066102
vt 1.000000 0.066102
vt 1.000000 0.066102
vt 1.000000 0.000000
vt 0.000000 2.933898
vt 1.000000 2.933898
vt 1.000000 3.000000
vt 0.000000 3.000000
vt -1.000000 0.000000
vt -1.000000 0.000000
vt -1.000000 0.066102
vt -1.000000 0.066102
vt 2.000000 0.066102
vt 2.000000 0.066102
vt 2.000000 0.000000
vt 2.000000 0.000000
vn 0.000000 0.000000 1.000000
vn 0.000000 0.000000 1.000000
vn 0.000000 0.000000 1.000000
vn 0.000000 0.000000 1.000000
vn 0.000000 1.000000 0.000000
vn 0.000000 1.000000 0.000000
vn 0.000000 1.000000 0.000000
vn 0.000000 1.000000 0.000000
vn 0.000000 0.000000 -1.000000
vn 0.000000 0.000000 -1.000000
vn 0.000000 0.000000 -1.000000
vn 0.000000 0.000000 -1.000000
vn 0.000000 -1.000000 0.000000
vn 0.000000 -1.000000 0.000000
vn 0.000000 -1.000000 0.000000
vn 0.000000 -1.000000 0.000000
vn 1.000000 0.000000 0.000000
vn 1.000000 0.000000 0.000000
vn 1.000000 0.000000 0.000000
vn 1.000000 0.000000 0.000000
vn -1.000000 0.000000 0.000000
vn -1.000000 0.000000 0.000000
vn -1.000000 0.000000 0.000000
vn -1.000000 0.000000 0.000000
vn 0.000000 1.000000 0.000000
vn 0.000000 1.000000 0.000000
vn 0.000000 1.000000 0.000000
vn 0.000000 1.000000 0.000000
vn 0.000000 1.000000 0.000000
vn 0.000000 1.000000 0.000000
vn 0.000000 1.000000 0.000000
vn 0.000000 1.000000 0.000000
vn 0.000000 1.000000 0.000000
vn 0.000000 1.000000 0.000000
vn 0.000000 1.000000 0.000000
vn 0.000000 1.000000 0.000000
vn 0.000000 1.000000 0.000000
vn 0.000000 1.000000 0.000000
vn 0.000000 1.000000 0.000000
vn 0.000000 1.000000 0.000000
vn 0.000000 0.000000 -1.000000
vn 0.000000 0.000000 -1.000000
vn 0.000000 0.000000 -1.000000
vn 0.000000 0.000000 -1.000000
vn -1.000000 0.000000 0.000000
vn -1.000000 0.000000 0.000000
vn -1.000000 0.000000 0.000000
vn -1.000000 0.000000 0.000000
vn 0.000000 0.000000 1.000000
vn 0.000000 0.000000 1.000000
vn 0.000000 0.000000 1.000000
vn 0.000000 0.000000 1.000000
vn 1.000000 0.000000 0.000000
vn 1.000000 0.000000 0.000000
vn 1.000000 0.000000 0.000000
vn 1.000000 0.000000 0.000000
vn 1.000000 0.000000 0.000000
vn 1.000000 0.000000 0.000000
vn 1.000000 0.000000 0.000000
vn 1.000000 0.000000 0.000000
vn 0.000000 0.000000 -1.000000
vn 0.000000 0.000000 -1.000000
vn 0.000000 0.000000 -1.000000
vn 0.000000 0.000000 -1.000000
vn -1.000000 0.000000 0.000000
vn -1.000000 0.000000 0.000000
vn -1.000000 0.000000 0.000000
vn -1.000000 0.000000 0.000000
vn 0.000000 -1.000000 0.000000
vn 0.000000 -1.000000 0.000000
vn 0.000000 0.000000 1.000000
vn 0.000000 0.000000 1.000000
vn 0.000000 0.000000 1.000000
vn 0.000000 0.000000 1.000000
vn 0.000000 0.000000 1.000000
vn 0.000000 0.000000 1.000000
vn 0.000000 1.000000 0.000000
vn 0.000000 1.000000 0.000000
vn 0.000000 1.000000 0.000000
vn 0.000000 1.000000 0.000000
vn 0.000000 0.000000 -1.000000
vn 0.000000 0.000000 -1.000000
vn 0.000000 1.000000 0.000000
vn 0.000000 1.000000 0.000000
vn -1.000000 0.000000 0.000000
vn -1.000000 0.000000 0.000000
vn 0.000000 -1.000000 0.000000
vn 0.000000 -1.000000 0.000000
vn 0.000000 -1.000000 0.000000
vn 1.000000 0.000000 0.000000
vn 1.000000 0.000000 0.000000
vn 0.000000 1.000000 0.000000
vn 0.000000 1.000000 0.000000
vn 0.000000 -1.000000 0.000000
vn 0.000000 -1.000000 0.000000
vn 0.000000 0.000000 -1.000000
vn 0.000000 0.000000 -1.000000
vn 0.000000 1.000000 0.000000
vn 0.000000 1.000000 0.000000
vn 0.000000 1.000000 0.000000
vn 0.000000 1.000000 0.000000
vn 0.000000 0.000000 1.000000
vn 0.000000 0.000000 1.000000
vn 0.000000 -1.000000 0.000000
vn 0.000000 1.000000 0.000000
vn 0.000000 1.000000 0.000000
vn 0.000000 -1.000000 0.000000
vn 0.000000 -1.000000 0.000000
vn 0.000000 -1.000000 0.000000
vn -1.000000 0.000000 0.000000
vn -1.000000 0.000000 0.000000
vn 0.000000 1.000000 0.000000
vn 0.000000 1.000000 0.000000
vn 1.000000 0.000000 0.000000
vn 1.000000 0.000000 0.000000
vn 0.000000 -1.000000 0.000000
s off
g pCube1
usemtl initialShadingGroup
f 17/23/1 18/24/2 4/4/3 3/3/4
f 13/19/5 14/20/6 15/21/7 16/22/8
f 5/5/9 6/6/10 19/25/11 20/28/12
s 1
f 7/7/13 8/8/14 2/10/15 1/9/16
s off
f 18/24/17 19/26/18 6/12/19 4/4/20
f 20/27/21 17/23/22 3/3/23 5/14/24
f 3/3/25 4/4/26 10/16/27 9/15/28
f 4/4/29 6/6/30 11/17/31 10/16/32
f 6/6/33 5/5/34 12/18/35 11/17/36
f 5/5/37 3/3/38 9/15/39 12/18/40
f 9/15/41 10/16/42 14/20/43 13/19/44
f 10/16/45 11/17/46 15/21/47 14/20/48
f 11/17/49 12/18/50 16/22/51 15/21/52
f 12/18/53 9/15/54 13/19/55 16/22/56
s 2
f 32/39/57 31/40/58 33/41/59 34/42/60
s 3
f 38/45/61 37/46/62 39/47/63 40/48/64
s 4
f 21/29/65 22/30/66 23/31/67 24/32/68
s 1
f 7/13/13 1/1/16 22/30/69 21/29/70
s 5
f 25/33/71 26/34/72 27/35/73 28/36/74 29/37/75 30/38/76
s 6
f 17/23/77 20/27/78 24/32/79 23/31/80
s 3
f 38/52/61 40/49/64 41/50/81 42/51/82
s 6
f 17/23/77 23/31/80 26/34/83 25/33/84
s 4
f 23/31/67 22/30/66 27/35/85 26/34/86
s 1
f 22/30/69 1/1/16 28/36/87 27/35/88
f 1/1/16 2/2/15 29/37/89 28/36/87
s 2
f 32/39/57 34/42/60 35/43/90 36/44/91
s 6
f 18/24/92 17/23/77 25/33/84 30/38/93
s 1
f 2/2/15 8/11/14 31/40/94 32/39/95
s 3
f 39/56/63 37/53/62 43/54/96 44/55/97
s 6
f 19/26/98 18/24/92 34/42/99 33/41/100
f 18/24/92 30/38/93 35/43/101 34/42/99
s 5
f 30/38/76 29/37/75 36/44/102 35/43/103
s 1
f 29/37/89 2/2/15 32/39/95 36/44/104
s 6
f 20/28/78 19/25/98 37/46/105 38/45/106
s 1
f 8/8/14 7/7/13 40/48/107 39/47/108
f 7/13/13 21/29/70 41/50/109 40/49/107
s 4
f 21/29/65 24/32/68 42/51/110 41/50/111
s 6
f 24/32/79 20/27/78 38/52/106 42/51/112
f 19/26/98 33/41/100 43/54/113 37/53/105
s 2
f 33/41/59 31/40/58 44/55/114 43/54/115
s 1
f 31/40/94 8/11/14 39/56/108 44/55/116
