# This file uses centimeters as units for non-parametric coordinates.

mtllib CubeButtonStand.mtl
g default
v -0.199682 0.007440 0.199682
v 0.199682 0.007440 0.199682
v -0.199682 1.302593 0.199682
v 0.199682 1.302593 0.199682
v -0.199682 1.302593 -0.199682
v 0.199682 1.302593 -0.199682
v -0.199682 0.007440 -0.199682
v 0.199682 0.007440 -0.199682
v -0.168527 1.302593 0.168527
v 0.168527 1.302593 0.168527
v 0.168527 1.302593 -0.168527
v -0.168527 1.302593 -0.168527
v -0.168527 1.255896 0.168527
v 0.168527 1.255896 0.168527
v 0.168527 1.255896 -0.168527
v -0.168527 1.255896 -0.168527
v -0.199682 0.093052 0.199682
v 0.199682 0.093052 0.199682
v 0.199682 0.093052 -0.199682
v -0.199682 0.093052 -0.199682
v -0.236326 0.007440 -0.199682
v -0.236326 0.007440 0.199682
v -0.236326 0.093052 0.238708
v -0.236326 0.007440 0.238708
v -0.199682 0.007440 0.238708
v 0.199682 0.007440 0.238708
v 0.238496 0.007440 -0.199682
v 0.238496 0.007440 0.199682
v 0.238496 0.093052 0.238708
v 0.238496 0.007440 0.238708
v 0.199682 0.007440 -0.239110
v -0.199682 0.007440 -0.239110
v -0.236326 0.007440 -0.239110
v -0.236326 0.093052 -0.239110
v 0.238496 0.093052 -0.239110
v 0.238496 0.007440 -0.239110
vt 0.000000 0.066102
vt 1.000000 0.066102
vt 1.000000 1.000000
vt 0.000000 1.000000
vt 0.000000 1.000000
vt 1.000000 1.000000
vt 1.000000 2.000000
vt 0.000000 2.000000
vt 0.000000 2.000000
vt 1.000000 2.000000
vt 1.000000 2.933898
vt 0.000000 2.933898
vt 0.000000 3.000000
vt 1.000000 3.000000
vt 1.000000 4.000000
vt 0.000000 4.000000
vt 2.000000 0.066102
vt 2.000000 1.000000
vt -1.000000 0.066102
vt -1.000000 1.000000
vt 1.000000 1.000000
vt 0.000000 1.000000
vt 1.000000 2.000000
vt 0.000000 2.000000
vt 1.000000 0.000000
vt 2.000000 0.000000
vt 1.000000 3.000000
vt 0.000000 3.000000
vt -1.000000 0.000000
vt 0.000000 0.000000
vt -1.000000 0.000000
vt 0.000000 0.000000
vt 0.000000 0.066102
vt 0.000000 0.000000
vt 0.000000 0.000000
vt 1.000000 0.000000
vt -1.000000 0.000000
vt -1.000000 0.000000
vt -1.000000 0.066102
vt 1.000000 0.000000
vt 1.000000 0.066102
vt 1.000000 0.000000
vt 2.000000 0.000000
vt 2.000000 0.000000
vt 2.000000 0.066102
vt 2.000000 0.000000
vn 0.000000 0.000000 1.000000
vn 0.000000 0.000000 1.000000
vn 0.000000 0.000000 1.000000
vn 0.000000 0.000000 1.000000
vn 0.000000 1.000000 0.000000
vn 0.000000 1.000000 0.000000
vn 0.000000 1.000000 0.000000
vn 0.000000 1.000000 0.000000
vn 0.000000 0.000000 -1.000000
vn 0.000000 0.000000 -1.000000
vn 0.000000 0.000000 -1.000000
vn 0.000000 0.000000 -1.000000
vn 0.000000 -1.000000 0.000000
vn 0.000000 -1.000000 0.000000
vn 0.000000 -1.000000 0.000000
vn 0.000000 -1.000000 0.000000
vn 1.000000 0.000000 0.000000
vn 1.000000 0.000000 0.000000
vn 1.000000 0.000000 0.000000
vn 1.000000 0.000000 0.000000
vn -1.000000 0.000000 0.000000
vn -1.000000 0.000000 0.000000
vn -1.000000 0.000000 0.000000
vn -1.000000 0.000000 0.000000
vn 0.000000 1.000000 0.000000
vn 0.000000 1.000000 0.000000
vn 0.000000 1.000000 0.000000
vn 0.000000 1.000000 0.000000
vn 0.000000 1.000000 0.000000
vn 0.000000 1.000000 0.000000
vn 0.000000 1.000000 0.000000
vn 0.000000 1.000000 0.000000
vn 0.000000 1.000000 0.000000
vn 0.000000 1.000000 0.000000
vn 0.000000 1.000000 0.000000
vn 0.000000 1.000000 0.000000
vn 0.000000 1.000000 0.000000
vn 0.000000 1.000000 0.000000
vn 0.000000 1.000000 0.000000
vn 0.000000 1.000000 0.000000
vn 0.000000 0.000000 -1.000000
vn 0.000000 0.000000 -1.000000
vn 0.000000 0.000000 -1.000000
vn 0.000000 0.000000 -1.000000
vn -1.000000 0.000000 0.000000
vn -1.000000 0.000000 0.000000
vn -1.000000 0.000000 0.000000
vn -1.000000 0.000000 0.000000
vn 0.000000 0.000000 1.000000
vn 0.000000 0.000000 1.000000
vn 0.000000 0.000000 1.000000
vn 0.000000 0.000000 1.000000
vn 1.000000 0.000000 0.000000
vn 1.000000 0.000000 0.000000
vn 1.000000 0.000000 0.000000
vn 1.000000 0.000000 0.000000
vn 1.000000 0.000000 0.000000
vn 1.000000 0.000000 0.000000
vn 1.000000 0.000000 0.000000
vn 1.000000 0.000000 0.000000
vn 1.000000 0.000000 0.000000
vn 1.000000 0.000000 0.000000
vn 0.000000 0.000000 -1.000000
vn 0.000000 0.000000 -1.000000
vn 0.000000 0.000000 -1.000000
vn 0.000000 0.000000 -1.000000
vn 0.000000 0.000000 -1.000000
vn 0.000000 0.000000 -1.000000
vn -1.000000 0.000000 0.000000
vn -1.000000 0.000000 0.000000
vn -1.000000 0.000000 0.000000
vn -1.000000 0.000000 0.000000
vn -1.000000 0.000000 0.000000
vn -1.000000 0.000000 0.000000
vn 0.000000 -1.000000 0.000000
vn 0.000000 -1.000000 0.000000
vn 0.000000 -1.000000 0.000000
vn 0.000000 -1.000000 0.000000
vn 0.000000 0.000000 1.000000
vn 0.000000 0.000000 1.000000
vn 0.000000 0.000000 1.000000
vn 0.000000 0.000000 1.000000
vn 0.000000 0.000000 1.000000
vn 0.000000 0.000000 1.000000
vn 0.000000 -1.000000 0.000000
vn 0.000000 -1.000000 0.000000
vn 0.000000 -1.000000 0.000000
vn 0.000000 -1.000000 0.000000
vn 0.000000 -1.000000 0.000000
vn 0.000000 -1.000000 0.000000
vn 0.000000 -1.000000 0.000000
vn 0.000000 -1.000000 0.000000
vn 0.000000 -1.000000 0.000000
vn 0.000000 -1.000000 0.000000
vn 0.000000 -1.000000 0.000000
vn 0.000000 -1.000000 0.000000
vn 0.000000 -1.000000 0.000000
vn 0.000000 -1.000000 0.000000
vn 0.000000 -1.000000 0.000000
vn 0.000000 -1.000000 0.000000
vn 0.000000 1.000000 0.000000
vn 0.000000 1.000000 0.000000
vn 0.000000 1.000000 0.000000
vn 0.000000 1.000000 0.000000
vn 0.000000 1.000000 0.000000
vn 0.000000 1.000000 0.000000
vn 0.000000 1.000000 0.000000
vn 0.000000 1.000000 0.000000
vn 0.000000 -1.000000 0.000000
vn 0.000000 -1.000000 0.000000
vn 0.000000 -1.000000 0.000000
vn 0.000000 -1.000000 0.000000
vn 0.000000 -1.000000 0.000000
vn 0.000000 -1.000000 0.000000
vn 0.000000 -1.000000 0.000000
vn 0.000000 -1.000000 0.000000
vn 0.000000 -1.000000 0.000000
vn 0.000000 -1.000000 0.000000
vn 0.000000 -1.000000 0.000000
vn 0.000000 -1.000000 0.000000
s 1
g CubeButtonStand:pCube1
usemtl initialShadingGroup
f 17/1/1 18/2/2 3/4/3
f 3/4/3 18/2/2 4/3/4
s 2
f 13/5/5 14/6/6 16/8/7
f 16/8/7 14/6/6 15/7/8
s 3
f 5/9/9 6/10/10 20/12/11
f 20/12/11 6/10/10 19/11/12
s 4
f 7/13/13 8/14/14 1/16/15
f 1/16/15 8/14/14 2/15/16
s 5
f 18/2/17 19/17/18 4/3/19
f 4/3/19 19/17/18 6/18/20
s 6
f 20/19/21 17/1/22 5/20/23
f 5/20/23 17/1/22 3/4/24
s 7
f 3/4/25 4/3/26 9/22/27
f 9/22/27 4/3/26 10/21/28
s 8
f 4/3/29 6/10/30 10/21/31
f 10/21/31 6/10/30 11/23/32
s 9
f 6/10/33 5/9/34 11/23/35
f 11/23/35 5/9/34 12/24/36
s 10
f 5/9/37 3/4/38 12/24/39
f 12/24/39 3/4/38 9/22/40
s 11
f 9/22/41 10/21/42 13/5/43
f 13/5/43 10/21/42 14/6/44
s 12
f 10/21/45 11/23/46 14/6/47
f 14/6/47 11/23/46 15/7/48
s 13
f 11/23/49 12/24/50 15/7/51
f 15/7/51 12/24/50 16/8/52
s 14
f 12/24/53 9/22/54 16/8/55
f 16/8/55 9/22/54 13/5/56
s 15
f 36/46/57 35/45/58 27/26/59
f 35/45/58 29/41/60 27/26/59
f 30/42/61 28/25/62 29/41/60
f 28/25/62 27/26/59 29/41/60
s 16
f 35/45/63 36/46/64 34/39/65
f 36/46/64 31/27/66 34/39/65
f 33/38/67 34/39/65 32/37/68
f 31/27/66 32/37/68 34/39/65
s 17
f 24/34/69 23/33/70 22/30/71
f 23/33/70 34/39/72 22/30/71
f 33/38/73 21/29/74 34/39/72
f 21/29/74 22/30/71 34/39/72
s 18
f 7/31/75 1/32/76 21/29/77
f 21/29/77 1/32/76 22/30/78
s 19
f 23/33/79 24/34/80 29/41/81
f 24/34/80 25/35/82 29/41/81
f 30/42/83 29/41/81 26/36/84
f 25/35/82 26/36/84 29/41/81
s 20
f 22/30/85 1/32/86 24/34/87
f 24/34/87 1/32/86 25/35/88
s 21
f 1/32/89 2/40/90 25/35/91
f 25/35/91 2/40/90 26/36/92
s 22
f 2/40/93 8/43/94 28/25/95
f 28/25/95 8/43/94 27/26/96
s 23
f 26/36/97 2/40/98 30/42/99
f 30/42/99 2/40/98 28/25/100
s 24
f 35/45/101 19/17/102 29/41/103
f 19/17/102 18/2/104 29/41/103
f 35/45/101 34/39/105 19/17/102
f 19/17/102 34/39/105 20/12/106
f 34/39/105 23/33/107 20/12/106
f 20/12/106 23/33/107 17/1/108
f 29/41/103 18/2/104 23/33/107
f 18/2/104 17/1/108 23/33/107
s 25
f 8/14/109 7/13/110 31/27/111
f 31/27/111 7/13/110 32/28/112
s 26
f 7/31/113 21/29/114 32/37/115
f 32/37/115 21/29/114 33/38/116
s 27
f 27/26/117 8/43/118 36/46/119
f 36/46/119 8/43/118 31/44/120
