# Blender v2.76 (sub 0) OBJ File: ''
# www.blender.org
o Door2
v -11.912616 1.803465 -3.054842
v -11.912616 -0.986883 -5.530434
v -11.912616 1.803466 -5.530434
v -12.183863 1.803466 -5.530434
v -12.183863 1.803465 -3.054842
v -12.183863 -0.986884 -3.054842
v -11.912616 -0.986884 -3.054842
v -12.183863 -0.986883 -5.530434
vt 0.000000 1.000000
vt 1.000000 -0.000000
vt 1.000000 1.000000
vt 0.000000 -0.000000
vn 1.000000 0.000000 0.000000
vn 0.000000 1.000000 0.000000
vn -1.000000 0.000000 0.000000
vn 0.000000 -1.000000 -0.000000
vn 0.000000 0.000000 -1.000000
vn 0.000000 0.000000 1.000000
s 1
f 1/1/1 2/2/1 3/3/1
f 1/1/2 3/3/2 4/3/2
f 5/1/3 4/3/3 6/4/3
f 7/4/4 8/2/4 2/2/4
f 3/3/5 8/2/5 4/3/5
f 6/4/6 7/4/6 1/1/6
f 1/1/2 4/3/2 5/1/2
f 6/4/6 1/1/6 5/1/6
f 2/2/5 8/2/5 3/3/5
f 6/4/3 4/3/3 8/2/3
f 7/4/1 2/2/1 1/1/1
f 6/4/4 8/2/4 7/4/4
