# This file uses centimeters as units for non-parametric coordinates.

mtllib l1CeilingNew.mtl
g default
v -6.582106 0.000000 -11.285064
v 6.582106 0.000000 -11.285064
v -6.582106 0.000000 11.285064
v 6.582106 0.000000 11.285064
v 6.582106 0.000000 0.013451
v 6.582106 0.000000 3.261474
v 17.492779 0.000000 0.013451
v 17.492779 0.000000 3.261474
vt -0.967234 3.015583
vt 1.967234 3.015583
vt 1.967234 0.497002
vt 1.967234 -0.227023
vt 1.967234 -2.015583
vt -0.967234 -2.015583
vt -0.960000 0.065370
vt -0.960000 0.934630
vt 1.960000 0.934630
vt 1.960000 0.065370
vn 0.000000 -1.000000 -0.000000
vn 0.000000 -1.000000 -0.000000
vn 0.000000 -1.000000 -0.000000
vn 0.000000 -1.000000 -0.000000
vn 0.000000 -1.000000 -0.000000
vn 0.000000 -1.000000 -0.000000
vn 0.000000 -1.000000 -0.000000
vn 0.000000 -1.000000 -0.000000
s 1
g pPlane1
usemtl lambert8SG
f 1/1/1 2/2/2 3/6/3
f 2/2/2 5/3/4 3/6/3
f 5/3/4 6/4/5 3/6/3
f 6/4/5 4/5/6 3/6/3
f 6/7/5 5/8/4 8/10/7
f 8/10/7 5/8/4 7/9/8
