# This file uses centimeters as units for non-parametric coordinates.

mtllib L1Ceiling1.mtl
g default
v -5.046810 -0.000002 0.500421
v -6.379381 -0.000002 0.500421
v -5.046810 0.000002 -1.584488
v -6.379381 0.000002 -1.584488
v -6.379381 -0.000002 9.916382
v 6.620619 -0.000002 9.916382
v 1.350645 -0.000002 9.916382
v -1.147974 -0.000002 9.916382
v 1.350645 -0.000002 3.514137
v -1.147974 -0.000002 3.514137
v -6.379381 -0.000002 3.514137
v 6.620619 -0.000002 3.514137
v -6.379381 0.000002 -12.499579
v 6.620619 0.000002 -12.499579
v -6.379381 -0.000002 12.500421
v 6.620619 -0.000002 12.500421
v -5.046809 -0.000002 0.500421
v -6.379381 -0.000002 0.500421
v -5.046809 0.000002 -1.584488
v -6.379381 0.000002 -1.584488
v -6.379381 -0.000002 9.916382
v 6.620619 -0.000002 9.916382
v 1.350645 -0.000002 9.916382
v -1.147974 -0.000002 9.916382
v 1.350645 -0.000002 3.514137
v -1.147974 -0.000002 3.514137
v -6.379381 -0.000002 3.514137
v 6.620619 -0.000002 3.514137
v 6.620619 0.000002 -1.389702
v 6.620619 0.000002 -4.196644
v 17.590195 0.000002 4.215140
v 17.590195 0.000002 1.408171
v 6.620618 0.000002 4.356585
v 17.590195 0.000002 4.356612
v 6.620619 0.000002 1.216958
v 17.590195 0.000002 1.216958
vt -1.776521 0.424264
vt -1.776521 0.838489
vt -1.511768 0.424263
vt -1.511768 0.838489
vt -0.240735 -1.446482
vt -0.240735 -0.174497
vt 0.806293 -1.446482
vt 0.806293 -0.174497
vt -1.776521 -1.446481
vt -1.776521 -0.174496
vt -0.737156 -1.446481
vt -0.737155 -0.174496
vt 0.806295 3.007077
vt 0.806294 1.357466
vt -1.511768 0.838489
vt 0.806294 0.281902
vt 0.871158 0.334925
vt 0.871158 -0.639360
vt 0.871158 -0.806736
vt 0.806293 -1.446482
vt 0.806293 -1.959874
vt -0.240735 -1.446482
vt -1.776522 -1.959873
vt -1.776521 -1.446481
vt -0.737156 -1.446481
vt -1.776522 -1.959873
vt -0.240735 -1.446482
vt -0.240735 -0.174497
vt -0.240735 -1.446482
vt -0.737155 -0.174496
vt -0.737156 -1.446481
vt -0.737155 -0.174496
vt -1.776521 -0.174496
vt -1.511768 0.424263
vt -1.776521 0.424264
vt -1.776521 0.838489
vt -1.776520 3.007078
vt -1.511768 0.838489
vt 0.806295 3.007077
vt 3.050572 -0.182962
vt 3.050572 -0.220951
vt 0.871158 -0.182961
vt 3.050571 -0.778635
vt 3.050571 -0.778635
vt 3.050571 -0.806742
vt 0.871158 -0.182961
vt 0.871158 -0.806736
vt -1.511768 0.838489
vt 0.806294 0.281902
vt -0.240735 -0.174497
vt 0.806293 -0.341873
vt -0.240735 -0.174497
vt -0.737155 -0.174496
vt -1.511768 0.838489
vt -1.511768 0.424263
vt -1.511768 0.838489
vt -0.737155 -0.174496
vt -0.240735 -0.174497
vt 0.806294 0.281902
vt 3.050571 -0.806742
vt 0.871158 -0.182961
vt 0.871158 -0.182961
vt 3.050572 -0.220951
vt -1.511768 0.838489
vt -1.776520 3.007078
vt -1.511768 0.424263
vt -1.776521 -0.174496
vt -0.737155 -0.174496
vt -0.240735 -1.446482
vt -1.776522 -1.959873
vt -0.737156 -1.446481
vt -0.240735 -1.446482
vt 0.806293 -1.959874
vt -1.511768 0.838489
vt 0.806294 1.357466
vt -0.737156 -1.446481
vt -1.776521 -0.174496
vt 0.806293 -1.446482
vt -0.240735 -0.174497
vt -1.511768 0.424263
vt -1.776521 0.838489
vn 0.000000 -1.000000 0.000000
vn 0.000000 -1.000000 0.000000
vn 0.000000 -1.000000 0.000000
vn 0.000000 -1.000000 0.000000
vn 0.000000 -1.000000 0.000000
vn 0.000000 -1.000000 0.000000
vn 0.000000 -1.000000 0.000000
vn 0.000000 -1.000000 0.000000
vn 0.000000 -1.000000 0.000000
vn 0.000000 -1.000000 0.000000
vn 0.000000 -1.000000 0.000000
vn 0.000000 -1.000000 0.000000
vn 0.000000 -1.000000 0.000000
vn 0.000000 -1.000000 0.000000
vn 0.000000 -1.000000 0.000000
vn 0.000000 -1.000000 0.000000
vn 0.000000 -1.000000 0.000000
vn 0.000000 -1.000000 0.000000
vn 0.000000 -1.000000 0.000000
vn 0.000000 -1.000000 0.000000
vn 0.000000 -1.000000 0.000000
vn 0.000000 -1.000000 0.000000
vn 0.000000 -1.000000 0.000000
vn 0.000000 -1.000000 0.000000
vn 0.000000 0.000000 0.000000
vn 0.000000 -1.000000 0.000000
vn -0.944431 -0.328710 0.000000
vn 0.000000 -1.000000 0.000000
vn 0.000000 -1.000000 0.000000
vn 0.000000 -1.000000 0.000000
vn 0.000000 -1.000000 0.000000
vn 0.000000 -1.000000 0.000000
vn 0.000000 -1.000000 0.000000
vn 0.000000 -1.000000 0.000000
vn 0.000000 -1.000000 0.000000
vn 0.000000 -1.000000 0.000000
vn 0.000000 -1.000000 0.000000
vn 0.000000 -1.000000 0.000000
vn 0.000000 -1.000000 0.000000
vn 0.000000 -1.000000 0.000000
vn 0.000000 -1.000000 0.000000
vn 0.000000 -1.000000 0.000000
vn 0.000000 -1.000000 0.000000
vn 0.000000 -1.000000 0.000000
vn 0.000000 -1.000000 0.000000
vn 0.000000 -1.000000 0.000000
vn 0.000000 -1.000000 0.000000
vn 0.000000 -1.000000 0.000000
vn 0.000000 -1.000000 0.000000
vn 0.000000 -1.000000 0.000000
vn 0.000000 -1.000000 0.000000
vn 0.000000 -1.000000 0.000000
vn 0.000000 -1.000000 0.000000
vn 0.000000 -1.000000 0.000000
vn 0.000000 -1.000000 0.000000
vn 0.000000 -1.000000 0.000000
vn 0.000000 -1.000000 0.000000
vn 0.000000 -1.000000 0.000000
vn 0.000000 -1.000000 0.000000
vn 0.000000 -1.000000 0.000000
vn 0.000000 -1.000000 0.000000
vn 0.000000 -1.000000 0.000000
vn 0.000000 -1.000000 0.000000
vn 0.000000 -1.000000 0.000000
vn 0.000000 -1.000000 0.000000
vn 0.000000 -1.000000 0.000000
vn 0.000000 -1.000000 0.000000
vn 0.000000 -1.000000 0.000000
vn 0.000000 -1.000000 0.000000
vn 0.000000 -1.000000 0.000000
vn 0.000000 -1.000000 0.000000
vn 0.000000 -1.000000 0.000000
vn 0.000000 -1.000000 0.000000
vn 0.000000 -1.000000 0.000000
vn 0.000000 -1.000000 0.000000
vn 0.000000 -1.000000 0.000000
vn 0.000000 -1.000000 0.000000
vn 0.000000 -1.000000 0.000000
vn 0.000000 -1.000000 0.000000
vn 0.000000 -1.000000 0.000000
vn 0.000000 -1.000000 0.000000
s off
g L1Ceiling:Mesh1
usemtl lambert2SG
f 2/1/1 4/2/2 1/3/3
f 1/80/4 4/81/5 3/4/6
f 7/5/7 9/6/8 6/7/9
f 6/78/10 9/79/11 12/8/12
f 5/9/13 11/10/14 8/11/15
f 8/76/16 11/77/17 10/12/18
f 14/13/19 30/14/20 19/15/21
f 19/74/22 30/75/23 35/16/24
f 29/17/25 28/18/26 33/19/27
f 22/20/28 16/21/29 23/22/30
f 23/72/31 16/73/32 15/23/33
f 21/24/34 24/25/35 15/26/36
f 15/70/37 24/71/38 23/27/39
f 25/28/40 23/29/41 26/30/42
f 26/68/43 23/69/44 24/31/45
f 26/32/46 27/33/47 17/34/48
f 17/66/49 27/67/50 18/35/51
f 20/36/52 13/37/53 19/38/54
f 19/64/55 13/65/56 14/39/57
f 36/40/58 32/41/59 35/42/60
f 35/62/61 32/63/62 31/43/63
f 31/44/64 34/45/65 35/46/66
f 34/60/67 33/47/68 35/61/69
f 19/48/70 35/49/71 25/50/72
f 25/58/73 35/59/74 33/51/75
f 25/52/76 26/53/77 19/54/78
f 19/56/79 26/57/80 17/55/81
