# This file uses centimeters as units for non-parametric coordinates.

mtllib L1Floor1.mtl
g default
v -7.070228 2.125138 12.633000
v 6.223844 2.125138 12.633000
v -7.070228 2.125142 -12.932530
v 6.223844 2.125142 -12.932530
v -5.707511 2.125142 -0.661076
v -7.070228 2.125142 -0.661076
v -5.707511 2.125138 1.470996
v -7.070228 2.125138 1.470996
v 6.223844 2.125142 -3.742965
v 6.223844 2.125138 1.271803
v 6.223844 2.125138 4.142241
v 17.441559 2.125138 1.271776
v 17.441559 2.125138 4.142241
v 6.223843 2.125138 1.127132
v 17.441559 2.125138 1.127104
v 6.223844 2.125138 4.337780
v 17.441559 2.125138 4.337780
v -5.707511 2.125142 -0.661076
v -5.707511 2.125138 1.470996
vt -1.006010 2.044261
vt -1.054306 2.044261
vt -3.103118 2.044261
vt -0.297048 2.044262
vt 0.941535 2.044261
vt 0.024633 1.946163
vt -1.020005 5.596036
vt -0.956382 5.596036
vt 0.024644 5.596035
vt -0.022429 5.596035
vt 3.211240 2.044260
vt 3.211241 -1.239207
vt 0.180348 -1.239207
vt -0.346245 -1.239207
vt -3.103117 -1.239207
vt 0.295103 -0.017989
vt 0.371540 -0.017989
vt 0.371540 -0.017989
vt 0.295103 -0.017989
vt -1.020006 1.946163
vt -0.261316 2.044261
vn 0.000000 1.000000 0.000000
vn 0.000000 1.000000 0.000000
vn 0.000000 1.000000 0.000000
vn 0.000000 1.000000 0.000000
vn 0.000000 1.000000 0.000000
vn 0.000000 1.000000 -0.000002
vn 0.000000 1.000000 0.000000
vn 0.000000 1.000000 0.000000
vn 0.000000 1.000000 0.000000
vn 0.000000 1.000000 0.000000
vn 0.000000 1.000000 -0.000002
vn 0.000000 1.000000 0.000000
vn 0.000000 1.000000 0.000000
vn 0.000000 1.000000 0.000000
vn 0.000000 1.000000 0.000000
vn 0.000000 1.000000 0.000000
vn 0.000000 1.000000 0.000000
vn 0.000000 1.000000 0.000000
vn 0.000000 1.000000 0.000000
vn 0.000000 1.000000 0.000000
vn 0.000000 1.000000 -0.000002
vn 0.000000 1.000000 0.000000
vn 0.000000 1.000000 0.000000
vn 0.000000 1.000000 -0.000002
vn 0.000000 1.000000 0.000000
vn 0.000000 1.000000 0.000000
vn 0.000000 1.000000 0.000000
vn 0.000000 1.000000 0.000000
vn 0.000000 1.000000 0.000000
vn 0.000000 1.000000 -0.000002
vn 0.000000 1.000000 0.000000
vn 0.000000 1.000000 0.000000
vn 0.000000 1.000000 -0.000002
vn 0.000000 1.000000 0.000000
vn 0.000000 1.000000 0.000000
vn 0.000000 1.000000 -0.000002
vn 0.000000 1.000000 0.000000
vn 0.000000 1.000000 0.000000
vn 0.000000 1.000000 -0.000002
vn 0.000000 0.000000 0.000000
vn 0.000000 0.000000 0.000000
vn 0.000000 0.000000 0.000000
vn 0.000000 0.000000 0.000000
s off
g Mesh
usemtl lambert2SG
f 11/1/1 16/2/2 2/3/3
f 10/4/4 9/5/5 14/21/6
f 17/7/7 13/8/8 16/20/9
f 15/9/10 14/6/11 12/10/12
f 4/11/13 3/12/14 9/5/15
f 3/12/16 6/13/17 9/5/18
f 9/5/19 6/13/20 14/21/21
f 6/13/22 8/14/23 14/21/24
f 1/15/25 2/3/26 8/14/27
f 8/14/28 2/3/29 14/21/30
f 2/3/31 16/2/32 14/21/33
f 16/20/34 13/8/35 14/6/36
f 13/8/37 12/10/38 14/6/39
f 7/16/40 5/17/41 18/18/42 19/19/43
