# This file uses centimeters as units for non-parametric coordinates.

mtllib L1Floor1.mtl
g default1
v -12.281882 0.000000 12.936124
v 1.043418 0.000000 12.936124
v -12.281882 0.000000 -12.936124
v 1.043418 0.000000 -12.936124
v 1.043418 0.000000 4.522211
v 1.043418 0.000000 1.241765
v 12.290972 0.000000 4.522211
v 12.290972 0.000000 1.241765
vt -3.762313 -3.987700
vt 0.860398 -3.987700
vt 0.860398 -1.068811
vt 0.860398 0.069216
vt 0.860398 4.987701
vt -3.762313 4.987701
vt 4.762313 -1.068811
vt 4.762313 0.069216
vn 0.000000 1.000000 0.000000
vn 0.000000 1.000000 0.000000
vn 0.000000 1.000000 0.000000
vn 0.000000 1.000000 0.000000
vn 0.000000 1.000000 0.000000
vn 0.000000 1.000000 0.000000
vn 0.000000 1.000000 0.000000
vn 0.000000 1.000000 0.000000
vn 0.000000 1.000000 0.000000
vn 0.000000 1.000000 0.000000
s 1
g initialShadingGroup initialShadingGroup1 pPlane1 polySurface1
f 1/1/1 2/2/2 3/6/3
f 2/2/2 5/3/4 3/6/3
f 5/3/4 6/4/5 3/6/3
f 6/4/5 4/5/6 3/6/3
s 2
f 6/4/7 5/3/8 8/8/9
f 8/8/9 5/3/8 7/7/10
