# This file uses centimeters as units for non-parametric coordinates.

mtllib L1Walls.mtl
g default
v -5.970000 -1.500000 12.525000
v -5.970000 -1.500000 -12.525000
v -5.970000 1.500000 12.525000
v -5.970000 1.500000 -12.525000
v -6.470000 1.500000 12.525000
v -6.470000 1.500000 -12.525000
v -6.470000 -1.500000 12.525000
v -6.470000 -1.500000 -12.525000
vt 0.375000 0.000000
vt 0.625000 0.000000
vt 0.375000 0.250000
vt 0.625000 0.250000
vt 0.375000 0.500000
vt 0.625000 0.500000
vt 0.375000 0.750000
vt 0.625000 0.750000
vt 0.375000 1.000000
vt 0.625000 1.000000
vt 0.875000 0.000000
vt 0.875000 0.250000
vt 0.125000 0.000000
vt 0.125000 0.250000
vn 1.000000 0.000000 0.000000
vn 1.000000 0.000000 0.000000
vn 1.000000 0.000000 0.000000
vn 1.000000 0.000000 0.000000
vn 1.000000 0.000000 0.000000
vn 1.000000 0.000000 0.000000
vn 0.000000 1.000000 0.000000
vn 0.000000 1.000000 0.000000
vn 0.000000 1.000000 0.000000
vn 0.000000 1.000000 0.000000
vn 0.000000 1.000000 0.000000
vn 0.000000 1.000000 0.000000
vn -1.000000 0.000000 -0.000000
vn -1.000000 0.000000 -0.000000
vn -1.000000 0.000000 -0.000000
vn -1.000000 0.000000 -0.000000
vn -1.000000 0.000000 -0.000000
vn -1.000000 0.000000 -0.000000
vn 0.000000 -1.000000 0.000000
vn 0.000000 -1.000000 0.000000
vn 0.000000 -1.000000 0.000000
vn 0.000000 -1.000000 0.000000
vn 0.000000 -1.000000 0.000000
vn 0.000000 -1.000000 0.000000
vn 0.000000 0.000000 -1.000000
vn 0.000000 0.000000 -1.000000
vn 0.000000 0.000000 -1.000000
vn 0.000000 0.000000 -1.000000
vn 0.000000 0.000000 -1.000000
vn 0.000000 0.000000 -1.000000
vn 0.000000 0.000000 1.000000
vn 0.000000 0.000000 1.000000
vn 0.000000 0.000000 1.000000
vn 0.000000 0.000000 1.000000
vn 0.000000 0.000000 1.000000
vn 0.000000 0.000000 1.000000
s off
g Level1Walls1:pCube1
usemtl initialShadingGroup
f 1/1/1 2/2/2 3/3/3
f 3/3/4 2/2/5 4/4/6
f 3/3/7 4/4/8 5/5/9
f 5/5/10 4/4/11 6/6/12
f 5/5/13 6/6/14 7/7/15
f 7/7/16 6/6/17 8/8/18
f 7/7/19 8/8/20 1/9/21
f 1/9/22 8/8/23 2/10/24
f 2/2/25 8/11/26 4/4/27
f 4/4/28 8/11/29 6/12/30
f 7/13/31 1/1/32 5/14/33
f 5/14/34 1/1/35 3/3/36
g default
v -6.370000 -1.500000 12.677100
v 6.230000 -1.500000 12.677100
v -6.370000 1.500000 12.677100
v 6.230000 1.500000 12.677100
v -6.370000 1.500000 12.177100
v 6.230000 1.500000 12.177100
v -6.370000 -1.500000 12.177100
v 6.230000 -1.500000 12.177100
vt 0.375000 0.000000
vt 0.625000 0.000000
vt 0.375000 0.250000
vt 0.625000 0.250000
vt 0.375000 0.500000
vt 0.625000 0.500000
vt 0.375000 0.750000
vt 0.625000 0.750000
vt 0.375000 1.000000
vt 0.625000 1.000000
vt 0.875000 0.000000
vt 0.875000 0.250000
vt 0.125000 0.000000
vt 0.125000 0.250000
vn 0.000000 0.000000 1.000000
vn 0.000000 0.000000 1.000000
vn 0.000000 0.000000 1.000000
vn 0.000000 0.000000 1.000000
vn 0.000000 0.000000 1.000000
vn 0.000000 0.000000 1.000000
vn 0.000000 1.000000 0.000000
vn 0.000000 1.000000 0.000000
vn 0.000000 1.000000 0.000000
vn 0.000000 1.000000 0.000000
vn 0.000000 1.000000 0.000000
vn 0.000000 1.000000 0.000000
vn 0.000000 0.000000 -1.000000
vn 0.000000 0.000000 -1.000000
vn 0.000000 0.000000 -1.000000
vn 0.000000 0.000000 -1.000000
vn 0.000000 0.000000 -1.000000
vn 0.000000 0.000000 -1.000000
vn 0.000000 -1.000000 0.000000
vn 0.000000 -1.000000 0.000000
vn 0.000000 -1.000000 0.000000
vn 0.000000 -1.000000 0.000000
vn 0.000000 -1.000000 0.000000
vn 0.000000 -1.000000 0.000000
vn 1.000000 0.000000 0.000000
vn 1.000000 0.000000 0.000000
vn 1.000000 0.000000 0.000000
vn 1.000000 0.000000 0.000000
vn 1.000000 0.000000 0.000000
vn 1.000000 0.000000 0.000000
vn -1.000000 0.000000 0.000000
vn -1.000000 0.000000 0.000000
vn -1.000000 0.000000 0.000000
vn -1.000000 0.000000 0.000000
vn -1.000000 0.000000 0.000000
vn -1.000000 0.000000 0.000000
s off
g Level1Walls:pCube3
usemtl initialShadingGroup
f 9/15/37 10/16/38 11/17/39
f 11/17/40 10/16/41 12/18/42
f 11/17/43 12/18/44 13/19/45
f 13/19/46 12/18/47 14/20/48
f 13/19/49 14/20/50 15/21/51
f 15/21/52 14/20/53 16/22/54
f 15/21/55 16/22/56 9/23/57
f 9/23/58 16/22/59 10/24/60
f 10/16/61 16/25/62 12/18/63
f 12/18/64 16/25/65 14/26/66
f 15/27/67 9/15/68 13/28/69
f 13/28/70 9/15/71 11/17/72
g default
v 6.470000 -1.500000 12.525000
v 6.470000 -1.500000 -12.525000
v 6.470000 1.500000 12.525000
v 6.470000 1.500000 -12.525000
v 5.970000 1.500000 12.525000
v 5.970000 1.500000 -12.525000
v 5.970000 -1.500000 12.525000
v 5.970000 -1.500000 -12.525000
v 6.470000 -1.500000 4.174999
v 6.470000 -1.500000 1.391667
v 6.470000 1.500000 1.391668
v 6.470000 1.500000 4.175001
v 5.970000 1.500000 1.391667
v 5.970000 1.500000 4.175001
v 5.970000 -1.500000 1.391667
v 5.970000 -1.500000 4.175001
v 6.470000 1.500000 4.638889
v 6.470000 -1.500000 4.638888
v 17.812321 1.500000 4.638884
v 17.812321 -1.500000 4.638883
v 17.812319 -1.500000 4.174994
v 17.812321 1.500000 4.174995
v 17.272211 1.500000 4.174995
v 17.272209 -1.500000 4.174994
v 17.272211 1.500001 0.906855
v 17.272209 -1.499999 0.906854
v 17.812321 1.500001 0.906855
v 17.812319 -1.499999 0.906853
v 17.272211 1.500001 1.397085
v 17.272209 -1.499999 1.397084
v 6.470000 -1.500000 0.927778
v 6.470000 1.500000 0.927778
vt 0.375000 0.000000
vt 0.625000 0.000000
vt 0.375000 0.250000
vt 0.625000 0.250000
vt 0.375000 0.500000
vt 0.625000 0.500000
vt 0.375000 0.750000
vt 0.625000 0.750000
vt 0.375000 1.000000
vt 0.625000 1.000000
vt 0.875000 0.000000
vt 0.875000 0.250000
vt 0.125000 0.000000
vt 0.125000 0.250000
vt 0.458333 0.000003
vt 0.458333 0.999975
vt 0.486111 0.000000
vt 0.486111 0.999983
vt 0.486111 0.250008
vt 0.458333 0.250012
vt 0.486111 0.500000
vt 0.458333 0.500000
vt 0.486111 0.750000
vt 0.458333 0.750000
vt 0.000000 0.000000
vt 1.000000 0.000000
vt 0.999994 1.019846
vt 0.000004 1.019793
vt 0.000000 0.000000
vt 1.000000 0.000000
vt 0.000004 1.196541
vt 0.453704 0.250010
vt 0.453704 0.000003
vt 0.453704 0.999979
vt 0.453704 0.250010
vt 0.453704 0.000003
vt 0.458333 0.000003
vt 0.458333 0.250012
vt 0.458333 0.250012
vt 0.458333 0.000003
vt 0.458333 0.000004
vt 0.458333 0.250012
vt 0.458333 0.250012
vt 0.458333 0.000003
vt 0.458333 0.250012
vt 0.458333 0.000004
vt 0.490741 0.000000
vt 0.490741 0.999986
vt 0.490741 0.250007
vt 0.486873 0.250007
vt 0.486873 0.000001
vt 0.490949 0.000001
vt 0.490949 0.250006
vn 1.000000 0.000000 -0.000000
vn 1.000000 0.000000 -0.000000
vn 1.000000 0.000000 0.000000
vn 1.000000 0.000000 -0.000000
vn -1.000000 0.000000 -0.000000
vn -1.000000 0.000000 0.000000
vn -1.000000 0.000000 -0.000000
vn -1.000000 0.000000 0.000000
vn 0.000000 -1.000000 -0.000000
vn 0.000000 -1.000000 0.000000
vn 0.000000 -1.000000 0.000000
vn 0.000000 -1.000000 0.000000
vn 0.000000 -1.000000 0.000000
vn 0.000000 0.000000 -1.000000
vn 0.000000 0.000000 -1.000000
vn 0.000000 0.000000 -1.000000
vn 0.000000 0.000000 -1.000000
vn 0.000000 0.000000 1.000000
vn 0.000000 0.000000 1.000000
vn 0.000000 0.000000 1.000000
vn 0.000000 0.000000 1.000000
vn 1.000000 0.000000 0.000000
vn 1.000000 -0.000001 -0.000004
vn 1.000000 -0.000000 -0.000000
vn 1.000000 -0.000001 -0.000001
vn 1.000000 -0.000001 -0.000000
vn 1.000000 -0.000002 -0.000000
vn 0.000000 -1.000000 0.000000
vn 0.000000 -1.000000 0.000000
vn 0.000000 -1.000000 0.000000
vn 0.000000 -1.000000 0.000000
vn 0.000000 -1.000000 0.000000
vn -1.000000 0.000000 0.000000
vn -1.000000 0.000000 -0.000000
vn -1.000000 0.000000 0.000000
vn -1.000000 0.000000 -0.000000
vn -0.000001 0.000000 -1.000000
vn -0.000001 0.000000 -1.000000
vn -0.000001 0.000000 -1.000000
vn 0.000000 0.000000 -1.000000
vn 1.000000 0.000000 0.000000
vn 1.000000 0.000000 0.000000
vn 1.000000 0.000000 0.000000
vn 1.000000 0.000000 0.000000
vn 0.000001 -0.000000 1.000000
vn 0.000000 -0.000000 1.000000
vn 0.000001 -0.000000 1.000000
vn 0.000000 -0.000000 1.000000
vn 0.000000 -1.000000 -0.000000
vn -0.000000 -1.000000 -0.000000
vn -0.000000 -1.000000 -0.000000
vn -0.000000 -1.000000 -0.000000
vn -0.000000 -1.000000 0.000000
vn -0.000000 -1.000000 -0.000000
vn -0.000001 0.000000 -1.000000
vn -0.000001 0.000000 -1.000000
vn -0.000001 0.000000 -1.000000
vn -0.000001 0.000000 -1.000000
vn -0.000000 0.000000 -1.000000
vn 0.000000 0.000000 -1.000000
vn -1.000000 0.000000 0.000000
vn -1.000000 0.000001 0.000000
vn -1.000000 0.000001 0.000000
vn -1.000000 0.000001 0.000000
vn -1.000000 0.000000 0.000000
vn -1.000000 0.000000 0.000000
vn 0.000000 1.000000 0.000000
vn 0.000000 1.000000 0.000000
vn 0.000000 1.000000 0.000000
vn 0.000000 1.000000 0.000000
vn 0.000000 1.000000 0.000000
vn 0.000001 1.000000 0.000000
vn 0.000000 1.000000 0.000000
vn 0.000000 1.000000 0.000000
vn 0.000000 1.000000 0.000000
vn 0.000000 1.000000 0.000000
vn 0.000000 1.000000 0.000000
vn 1.000000 -0.000000 -0.000000
vn 1.000000 -0.000000 -0.000000
vn 1.000000 -0.000000 -0.000000
vn 1.000000 0.000000 -0.000000
vn -0.000501 -0.000000 1.000000
vn -0.000501 -0.000000 1.000000
vn -0.000479 -0.000000 1.000000
vn -0.000001 0.000000 1.000000
vn 0.000001 -0.000000 1.000000
vn -0.000479 -0.000000 1.000000
vn 0.000000 -1.000000 -0.000001
vn 0.000000 -1.000000 -0.000001
vn -0.001937 0.000000 -0.999998
vn -0.001937 0.000000 -0.999998
vn -0.001937 0.000000 -0.999998
vn -0.001937 0.000000 -0.999998
vn 0.000000 1.000000 0.000000
vn 0.000000 1.000000 0.000000
vn 0.000000 1.000000 0.000000
vn -0.000000 1.000000 0.000000
vn -0.000000 1.000000 0.000000
vn -0.000000 1.000000 0.000000
vn -0.000000 1.000000 0.000000
s 1
g Level1Walls:pCube2
usemtl initialShadingGroup
f 20/32/73 48/77/74 18/30/75
f 18/30/75 48/77/74 47/75/76
s 2
f 24/36/77 31/51/78 22/34/79
f 22/34/79 31/51/78 29/49/80
s 3
f 26/46/81 31/51/82 47/76/83
f 31/51/82 24/36/84 47/76/83
f 47/76/83 24/36/84 18/38/85
s 4
f 22/40/86 20/32/87 24/39/88
f 24/39/88 20/32/87 18/30/89
s 5
f 19/31/90 21/42/91 17/29/92
f 17/29/92 21/42/91 23/41/93
s 6
f 35/63/94 36/64/95 38/66/96
f 36/64/95 37/65/97 38/66/96
f 38/66/96 37/65/97 43/71/98
f 37/65/97 44/72/99 43/71/98
s 7
f 17/37/100 23/35/101 34/62/102
f 25/44/103 34/62/102 32/52/104
f 23/35/101 32/52/104 34/62/102
s 9
f 32/52/105 23/35/106 30/50/107
f 30/50/107 23/35/106 21/33/108
s 10
f 25/56/109 32/53/110 28/55/111
f 28/55/111 32/53/110 30/54/112
s 11
f 33/60/113 19/31/114 34/61/115
f 34/61/115 19/31/114 17/29/116
s 12
f 35/63/117 33/60/118 36/64/119
f 36/64/119 33/60/118 34/61/120
s 7
f 36/64/121 34/61/102 37/65/122
f 25/43/103 40/68/123 34/61/102
f 34/61/102 40/68/123 37/65/122
f 37/65/122 40/68/123 44/72/124
f 42/69/125 44/72/124 46/74/126
f 40/68/123 46/74/126 44/72/124
s 10
f 40/68/127 25/43/109 39/67/128
f 39/67/128 25/43/109 28/48/111
s 14
f 44/72/129 42/69/130 43/71/131
f 43/71/131 42/69/130 41/70/132
s 15
f 40/68/133 39/67/134 46/74/135
f 46/74/135 39/67/134 45/73/136
s 16
f 46/74/135 45/73/136 42/69/137
s off
f 42/69/137 45/73/136 41/70/138
s 17
f 35/63/139 38/66/140 33/60/141
f 43/71/142 41/70/143 38/66/140
f 41/70/143 45/73/144 38/66/140
f 45/73/144 39/67/145 38/66/140
f 38/66/140 39/67/145 33/60/141
f 39/67/145 28/48/146 33/60/141
f 28/48/146 30/50/147 33/60/141
f 30/50/147 21/33/148 33/60/141
f 33/60/141 21/33/148 19/31/149
s off
f 41/81/150 45/78/151 42/80/152
s 16
f 42/80/152 45/78/151 46/79/153
s 19
f 46/79/154 45/78/155 26/45/156
f 29/57/157 31/58/158 27/59/159
f 31/58/158 26/45/156 27/59/159
f 26/45/156 45/78/155 27/59/159
s 3
f 46/79/160 26/45/81 42/80/161
f 42/80/161 26/45/81 47/75/83
s 21
f 42/80/162 47/75/163 41/81/164
f 41/81/164 47/75/163 48/77/165
s 22
f 22/34/166 29/49/167 20/32/168
f 20/32/168 29/49/167 48/77/169
f 29/49/167 27/47/170 48/77/169
f 45/78/171 41/81/172 27/47/170
f 27/47/170 41/81/172 48/77/169
g default
v 1.250000 -1.500000 -3.000000
v 6.350000 -1.500000 -3.000000
v 1.250000 1.500000 -3.000000
v 6.350000 1.500000 -3.000000
v 1.250000 1.500000 -3.500000
v 6.350000 1.500000 -3.500000
v 1.250000 -1.500000 -3.500000
v 6.350000 -1.500000 -3.500000
vt 0.375000 0.000000
vt 0.625000 0.000000
vt 0.375000 0.250000
vt 0.625000 0.250000
vt 0.375000 0.500000
vt 0.625000 0.500000
vt 0.375000 0.750000
vt 0.625000 0.750000
vt 0.375000 1.000000
vt 0.625000 1.000000
vt 0.875000 0.000000
vt 0.875000 0.250000
vt 0.125000 0.000000
vt 0.125000 0.250000
vn 0.000000 0.000000 1.000000
vn 0.000000 0.000000 1.000000
vn 0.000000 0.000000 1.000000
vn 0.000000 0.000000 1.000000
vn 0.000000 0.000000 1.000000
vn 0.000000 0.000000 1.000000
vn 0.000000 1.000000 0.000000
vn 0.000000 1.000000 0.000000
vn 0.000000 1.000000 0.000000
vn 0.000000 1.000000 0.000000
vn 0.000000 1.000000 0.000000
vn 0.000000 1.000000 0.000000
vn 0.000000 0.000000 -1.000000
vn 0.000000 0.000000 -1.000000
vn 0.000000 0.000000 -1.000000
vn 0.000000 0.000000 -1.000000
vn 0.000000 0.000000 -1.000000
vn 0.000000 0.000000 -1.000000
vn 0.000000 -1.000000 0.000000
vn 0.000000 -1.000000 0.000000
vn 0.000000 -1.000000 0.000000
vn 0.000000 -1.000000 0.000000
vn 0.000000 -1.000000 0.000000
vn 0.000000 -1.000000 0.000000
vn 1.000000 0.000000 0.000000
vn 1.000000 0.000000 0.000000
vn 1.000000 0.000000 0.000000
vn 1.000000 0.000000 0.000000
vn 1.000000 0.000000 0.000000
vn 1.000000 0.000000 0.000000
vn -1.000000 0.000000 0.000000
vn -1.000000 0.000000 0.000000
vn -1.000000 0.000000 0.000000
vn -1.000000 0.000000 0.000000
vn -1.000000 0.000000 0.000000
vn -1.000000 0.000000 0.000000
s off
g Level1Walls:pCube4
usemtl initialShadingGroup
f 49/82/173 50/83/174 51/84/175
f 51/84/176 50/83/177 52/85/178
f 51/84/179 52/85/180 53/86/181
f 53/86/182 52/85/183 54/87/184
f 53/86/185 54/87/186 55/88/187
f 55/88/188 54/87/189 56/89/190
f 55/88/191 56/89/192 49/90/193
f 49/90/194 56/89/195 50/91/196
f 50/83/197 56/92/198 52/85/199
f 52/85/200 56/92/201 54/93/202
f 55/94/203 49/82/204 53/95/205
f 53/95/206 49/82/207 51/84/208
g default
v -1.340000 -1.500000 -0.300000
v -1.340000 -1.500000 -3.300000
v -1.340000 -0.300000 -0.300000
v -1.340000 -0.300000 -3.300000
v -1.840000 -0.300000 -0.300000
v -1.840000 -0.300000 -3.300000
v -1.840000 -1.500000 -0.300000
v -1.840000 -1.500000 -3.300000
vt 0.375000 0.000000
vt 0.625000 0.000000
vt 0.375000 0.250000
vt 0.625000 0.250000
vt 0.375000 0.500000
vt 0.625000 0.500000
vt 0.375000 0.750000
vt 0.625000 0.750000
vt 0.375000 1.000000
vt 0.625000 1.000000
vt 0.875000 0.000000
vt 0.875000 0.250000
vt 0.125000 0.000000
vt 0.125000 0.250000
vn 1.000000 0.000000 0.000000
vn 1.000000 0.000000 0.000000
vn 1.000000 0.000000 0.000000
vn 1.000000 0.000000 0.000000
vn 1.000000 0.000000 0.000000
vn 1.000000 0.000000 0.000000
vn 0.000000 1.000000 0.000000
vn 0.000000 1.000000 0.000000
vn 0.000000 1.000000 0.000000
vn 0.000000 1.000000 0.000000
vn 0.000000 1.000000 0.000000
vn 0.000000 1.000000 0.000000
vn -1.000000 0.000000 -0.000000
vn -1.000000 0.000000 -0.000000
vn -1.000000 0.000000 -0.000000
vn -1.000000 0.000000 -0.000000
vn -1.000000 0.000000 -0.000000
vn -1.000000 0.000000 -0.000000
vn 0.000000 -1.000000 0.000000
vn 0.000000 -1.000000 0.000000
vn 0.000000 -1.000000 0.000000
vn 0.000000 -1.000000 0.000000
vn 0.000000 -1.000000 0.000000
vn 0.000000 -1.000000 0.000000
vn 0.000000 0.000000 -1.000000
vn 0.000000 0.000000 -1.000000
vn 0.000000 0.000000 -1.000000
vn 0.000000 0.000000 -1.000000
vn 0.000000 0.000000 -1.000000
vn 0.000000 0.000000 -1.000000
vn 0.000000 0.000000 1.000000
vn 0.000000 0.000000 1.000000
vn 0.000000 0.000000 1.000000
vn 0.000000 0.000000 1.000000
vn 0.000000 0.000000 1.000000
vn 0.000000 0.000000 1.000000
s off
g Level1Walls:pCube8
usemtl initialShadingGroup
f 57/96/209 58/97/210 59/98/211
f 59/98/212 58/97/213 60/99/214
f 59/98/215 60/99/216 61/100/217
f 61/100/218 60/99/219 62/101/220
f 61/100/221 62/101/222 63/102/223
f 63/102/224 62/101/225 64/103/226
f 63/102/227 64/103/228 57/104/229
f 57/104/230 64/103/231 58/105/232
f 58/97/233 64/106/234 60/99/235
f 60/99/236 64/106/237 62/107/238
f 63/108/239 57/96/240 61/109/241
f 61/109/242 57/96/243 59/98/244
g default
v -6.350000 -1.500000 -3.000000
v -1.250000 -1.500000 -3.000000
v -6.350000 1.500000 -3.000000
v -1.250000 1.500000 -3.000000
v -6.350000 1.500000 -3.500000
v -1.250000 1.500000 -3.500000
v -6.350000 -1.500000 -3.500000
v -1.250000 -1.500000 -3.500000
vt 0.375000 0.000000
vt 0.625000 0.000000
vt 0.375000 0.250000
vt 0.625000 0.250000
vt 0.375000 0.500000
vt 0.625000 0.500000
vt 0.375000 0.750000
vt 0.625000 0.750000
vt 0.375000 1.000000
vt 0.625000 1.000000
vt 0.875000 0.000000
vt 0.875000 0.250000
vt 0.125000 0.000000
vt 0.125000 0.250000
vn 0.000000 0.000000 1.000000
vn 0.000000 0.000000 1.000000
vn 0.000000 0.000000 1.000000
vn 0.000000 0.000000 1.000000
vn 0.000000 0.000000 1.000000
vn 0.000000 0.000000 1.000000
vn 0.000000 1.000000 0.000000
vn 0.000000 1.000000 0.000000
vn 0.000000 1.000000 0.000000
vn 0.000000 1.000000 0.000000
vn 0.000000 1.000000 0.000000
vn 0.000000 1.000000 0.000000
vn 0.000000 0.000000 -1.000000
vn 0.000000 0.000000 -1.000000
vn 0.000000 0.000000 -1.000000
vn 0.000000 0.000000 -1.000000
vn 0.000000 0.000000 -1.000000
vn 0.000000 0.000000 -1.000000
vn 0.000000 -1.000000 0.000000
vn 0.000000 -1.000000 0.000000
vn 0.000000 -1.000000 0.000000
vn 0.000000 -1.000000 0.000000
vn 0.000000 -1.000000 0.000000
vn 0.000000 -1.000000 0.000000
vn 1.000000 0.000000 0.000000
vn 1.000000 0.000000 0.000000
vn 1.000000 0.000000 0.000000
vn 1.000000 0.000000 0.000000
vn 1.000000 0.000000 0.000000
vn 1.000000 0.000000 0.000000
vn -1.000000 0.000000 0.000000
vn -1.000000 0.000000 0.000000
vn -1.000000 0.000000 0.000000
vn -1.000000 0.000000 0.000000
vn -1.000000 0.000000 0.000000
vn -1.000000 0.000000 0.000000
s off
g Level1Walls:pCube5
usemtl initialShadingGroup
f 65/110/245 66/111/246 67/112/247
f 67/112/248 66/111/249 68/113/250
f 67/112/251 68/113/252 69/114/253
f 69/114/254 68/113/255 70/115/256
f 69/114/257 70/115/258 71/116/259
f 71/116/260 70/115/261 72/117/262
f 71/116/263 72/117/264 65/118/265
f 65/118/266 72/117/267 66/119/268
f 66/111/269 72/120/270 68/113/271
f 68/113/272 72/120/273 70/121/274
f 71/122/275 65/110/276 69/123/277
f 69/123/278 65/110/279 67/112/280
g default
v -6.350000 -1.500000 -9.940000
v -1.250000 -1.500000 -9.940000
v -6.350000 1.500000 -9.940000
v -1.250000 1.500000 -9.940000
v -6.350000 1.500000 -10.440000
v -1.250000 1.500000 -10.440000
v -6.350000 -1.500000 -10.440000
v -1.250000 -1.500000 -10.440000
vt 0.375000 0.000000
vt 0.625000 0.000000
vt 0.375000 0.250000
vt 0.625000 0.250000
vt 0.375000 0.500000
vt 0.625000 0.500000
vt 0.375000 0.750000
vt 0.625000 0.750000
vt 0.375000 1.000000
vt 0.625000 1.000000
vt 0.875000 0.000000
vt 0.875000 0.250000
vt 0.125000 0.000000
vt 0.125000 0.250000
vn 0.000000 0.000000 1.000000
vn 0.000000 0.000000 1.000000
vn 0.000000 0.000000 1.000000
vn 0.000000 0.000000 1.000000
vn 0.000000 0.000000 1.000000
vn 0.000000 0.000000 1.000000
vn 0.000000 1.000000 0.000000
vn 0.000000 1.000000 0.000000
vn 0.000000 1.000000 0.000000
vn 0.000000 1.000000 0.000000
vn 0.000000 1.000000 0.000000
vn 0.000000 1.000000 0.000000
vn 0.000000 0.000000 -1.000000
vn 0.000000 0.000000 -1.000000
vn 0.000000 0.000000 -1.000000
vn 0.000000 0.000000 -1.000000
vn 0.000000 0.000000 -1.000000
vn 0.000000 0.000000 -1.000000
vn 0.000000 -1.000000 0.000000
vn 0.000000 -1.000000 0.000000
vn 0.000000 -1.000000 0.000000
vn 0.000000 -1.000000 0.000000
vn 0.000000 -1.000000 0.000000
vn 0.000000 -1.000000 0.000000
vn 1.000000 0.000000 0.000000
vn 1.000000 0.000000 0.000000
vn 1.000000 0.000000 0.000000
vn 1.000000 0.000000 0.000000
vn 1.000000 0.000000 0.000000
vn 1.000000 0.000000 0.000000
vn -1.000000 0.000000 0.000000
vn -1.000000 0.000000 0.000000
vn -1.000000 0.000000 0.000000
vn -1.000000 0.000000 0.000000
vn -1.000000 0.000000 0.000000
vn -1.000000 0.000000 0.000000
s off
g Level1Walls:pCube6
usemtl initialShadingGroup
f 73/124/281 74/125/282 75/126/283
f 75/126/284 74/125/285 76/127/286
f 75/126/287 76/127/288 77/128/289
f 77/128/290 76/127/291 78/129/292
f 77/128/293 78/129/294 79/130/295
f 79/130/296 78/129/297 80/131/298
f 79/130/299 80/131/300 73/132/301
f 73/132/302 80/131/303 74/133/304
f 74/125/305 80/134/306 76/127/307
f 76/127/308 80/134/309 78/135/310
f 79/136/311 73/124/312 77/137/313
f 77/137/314 73/124/315 75/126/316
g default
v 1.250000 -1.500000 -9.940000
v 6.350000 -1.500000 -9.940000
v 1.250000 1.500000 -9.940000
v 6.350000 1.500000 -9.940000
v 1.250000 1.500000 -10.440000
v 6.350000 1.500000 -10.440000
v 1.250000 -1.500000 -10.440000
v 6.350000 -1.500000 -10.440000
vt 0.375000 0.000000
vt 0.625000 0.000000
vt 0.375000 0.250000
vt 0.625000 0.250000
vt 0.375000 0.500000
vt 0.625000 0.500000
vt 0.375000 0.750000
vt 0.625000 0.750000
vt 0.375000 1.000000
vt 0.625000 1.000000
vt 0.875000 0.000000
vt 0.875000 0.250000
vt 0.125000 0.000000
vt 0.125000 0.250000
vn 0.000000 0.000000 1.000000
vn 0.000000 0.000000 1.000000
vn 0.000000 0.000000 1.000000
vn 0.000000 0.000000 1.000000
vn 0.000000 0.000000 1.000000
vn 0.000000 0.000000 1.000000
vn 0.000000 1.000000 0.000000
vn 0.000000 1.000000 0.000000
vn 0.000000 1.000000 0.000000
vn 0.000000 1.000000 0.000000
vn 0.000000 1.000000 0.000000
vn 0.000000 1.000000 0.000000
vn 0.000000 0.000000 -1.000000
vn 0.000000 0.000000 -1.000000
vn 0.000000 0.000000 -1.000000
vn 0.000000 0.000000 -1.000000
vn 0.000000 0.000000 -1.000000
vn 0.000000 0.000000 -1.000000
vn 0.000000 -1.000000 0.000000
vn 0.000000 -1.000000 0.000000
vn 0.000000 -1.000000 0.000000
vn 0.000000 -1.000000 0.000000
vn 0.000000 -1.000000 0.000000
vn 0.000000 -1.000000 0.000000
vn 1.000000 0.000000 0.000000
vn 1.000000 0.000000 0.000000
vn 1.000000 0.000000 0.000000
vn 1.000000 0.000000 0.000000
vn 1.000000 0.000000 0.000000
vn 1.000000 0.000000 0.000000
vn -1.000000 0.000000 0.000000
vn -1.000000 0.000000 0.000000
vn -1.000000 0.000000 0.000000
vn -1.000000 0.000000 0.000000
vn -1.000000 0.000000 0.000000
vn -1.000000 0.000000 0.000000
s off
g Level1Walls:pCube7
usemtl initialShadingGroup
f 81/138/317 82/139/318 83/140/319
f 83/140/320 82/139/321 84/141/322
f 83/140/323 84/141/324 85/142/325
f 85/142/326 84/141/327 86/143/328
f 85/142/329 86/143/330 87/144/331
f 87/144/332 86/143/333 88/145/334
f 87/144/335 88/145/336 81/146/337
f 81/146/338 88/145/339 82/147/340
f 82/139/341 88/148/342 84/141/343
f 84/141/344 88/148/345 86/149/346
f 87/150/347 81/138/348 85/151/349
f 85/151/350 81/138/351 83/140/352
