# This file uses centimeters as units for non-parametric coordinates.

mtllib L2Window.mtl
g Walls:default1
v -6.145298 2.400131 0.559396
v -6.145296 0.599869 0.559396
v -6.145298 2.400131 0.225925
v -6.145298 0.599869 0.225925
v 0.717738 2.400131 0.559396
v 0.717738 0.599869 0.559396
v 0.717738 2.400131 0.225925
v 0.717738 0.599869 0.225925
vt 0.964046 0.800000
vt 0.455093 0.800000
vt 0.455093 0.200012
vt 0.964045 0.200009
vt 0.964045 0.200009
vt 0.455094 0.200012
vt 0.455094 0.799971
vt 0.964044 0.799979
vt 0.000000 0.000000
vt 0.999976 0.000542
vt 0.999988 1.002900
vt 0.000024 1.002534
vt 0.000000 0.000000
vt 1.000000 0.000000
vt 0.999999 1.012791
vt 0.000002 1.012422
vt 0.000022 0.000428
vt 1.000000 0.000000
vt 0.999985 1.018586
vt 0.000012 1.018469
vt 0.000000 0.000000
vt 1.000000 0.000000
vt 0.999999 1.025733
vt 0.000001 1.025615
vn 0.000000 0.000000 1.000000
vn 0.000000 0.000000 1.000000
vn 0.000000 0.000000 1.000000
vn 0.000000 0.000000 1.000000
vn 0.000000 0.000000 -1.000000
vn 0.000000 0.000000 -1.000000
vn 0.000000 0.000000 -1.000000
vn 0.000000 0.000000 -1.000000
vn 1.000000 0.000000 -0.000000
vn 1.000000 0.000000 -0.000001
vn 1.000000 0.000000 -0.000000
vn 1.000000 0.000000 -0.000001
vn 0.000000 1.000000 -0.000001
vn 0.000000 1.000000 -0.000000
vn 0.000000 1.000000 -0.000001
vn 0.000000 1.000000 0.000000
vn -1.000000 -0.000001 0.000006
vn -1.000000 -0.000000 0.000002
vn -1.000000 -0.000001 0.000005
vn -1.000000 0.000000 0.000001
vn 0.000000 -1.000000 0.000000
vn 0.000000 -1.000000 0.000000
vn 0.000000 -1.000000 0.000000
vn 0.000000 -1.000000 0.000000
s 1
g Walls:Walls_Mesh Walls:initialShadingGroup polySurface1 Walls:polySurface1
usemtl initialShadingGroup
f 5/1/1 1/2/2 6/4/3
f 6/4/3 1/2/2 2/3/4
s 2
f 8/5/5 4/6/6 7/8/7
f 7/8/7 4/6/6 3/7/8
s 3
f 5/9/9 6/10/10 7/12/11
f 7/12/11 6/10/10 8/11/12
s 4
f 1/13/13 5/14/14 3/16/15
f 3/16/15 5/14/14 7/15/16
s 5
f 2/17/17 1/18/18 4/20/19
f 4/20/19 1/18/18 3/19/20
s 6
f 4/21/21 8/22/22 2/24/23
f 2/24/23 8/22/22 6/23/24
