# Blender v2.76 (sub 0) OBJ File: 'Medium_Demo.blend'
# www.blender.org
mtllib Celling.mtl
o Plane.003_Plane.006
v -0.825000 3.000000 -10.191715
v 10.500000 3.000000 10.799999
v 10.500000 3.000000 -10.199999
v -10.500000 3.000000 10.799999
v 1.500000 3.000000 10.799999
v -1.500000 3.000000 10.799999
v -1.200000 3.000000 10.799999
v -1.200000 3.000000 11.099999
v 1.200000 3.000000 10.799999
v 1.200000 3.000000 11.099999
v -1.200000 3.000000 13.200001
v 1.200000 3.000000 13.200001
v -3.525000 3.000000 -10.191715
v -10.500000 3.000000 -10.199999
v -0.525000 3.000000 -10.191715
v -3.225000 3.000000 -10.191715
v 10.500000 3.000000 5.550000
v 10.500000 3.000000 0.300000
v 10.500000 3.000000 -4.949999
v -10.500000 3.000000 5.550000
v -10.500000 3.000000 0.300000
v -10.500000 3.000000 -4.949999
v -8.400000 -0.300000 3.525000
v -8.400000 -0.300000 1.125000
v -10.799999 -0.300000 3.525000
v -10.799999 -0.300000 1.125000
vt 0.548373 0.897181
vt 0.102004 0.499763
vt 0.102255 0.397864
vt 0.771669 0.001820
vt 0.994562 0.002392
vt 0.993451 0.298520
vt 0.993418 0.311258
vt 0.993452 0.428718
vt 0.994184 0.896819
vt 0.771279 0.897000
vt 0.993491 0.413153
vt 0.548775 0.001248
vt 0.102989 0.000105
vt 0.325882 0.000677
vt 0.102008 0.382208
vt 0.000356 0.397613
vt 0.089517 0.397832
vt 0.089266 0.499731
vt 0.000105 0.499512
vt 0.102562 0.897543
vt 0.102252 0.515419
vt 0.325468 0.897362
vt 0.102247 0.999895
vt 0.000105 0.999895
vt 0.000105 0.897753
vt 0.102247 0.897753
vn 0.000000 -1.000000 0.000000
usemtl Walls
s off
f 18/1/1 9/2/1 7/3/1
f 22/4/1 14/5/1 13/6/1
f 13/6/1 16/7/1 22/4/1
f 15/8/1 3/9/1 19/10/1
f 16/7/1 1/11/1 21/12/1
f 21/12/1 22/4/1 16/7/1
f 4/13/1 20/14/1 6/15/1
f 7/3/1 6/15/1 21/12/1
f 11/16/1 8/17/1 10/18/1
f 10/18/1 12/19/1 11/16/1
f 2/20/1 5/21/1 17/22/1
f 9/2/1 10/18/1 8/17/1
f 6/15/1 20/14/1 21/12/1
f 9/2/1 8/17/1 7/3/1
f 17/22/1 5/21/1 18/1/1
f 19/10/1 18/1/1 15/8/1
f 1/11/1 15/8/1 21/12/1
f 7/3/1 21/12/1 18/1/1
f 5/21/1 9/2/1 18/1/1
f 15/8/1 18/1/1 21/12/1
usemtl Material.002
f 23/23/1 25/24/1 26/25/1
f 24/26/1 23/23/1 26/25/1
