# This file uses centimeters as units for non-parametric coordinates.

mtllib L3Ceiling.mtl
g default
v -0.825000 3.000000 -10.191715
v 10.500000 3.000000 10.799999
v 10.500000 3.000000 -10.199999
v -10.500000 3.000000 10.799999
v 1.500000 3.000000 10.799999
v -1.500000 3.000000 10.799999
v -1.200000 3.000000 10.799999
v -1.200000 3.000000 11.099999
v 1.200000 3.000000 10.799999
v 1.200000 3.000000 11.099999
v -1.200000 3.000000 13.200001
v 1.200000 3.000000 13.200001
v -3.525000 3.000000 -10.191715
v -10.500000 3.000000 -10.199999
v -0.525000 3.000000 -10.191715
v -3.225000 3.000000 -10.191715
v 10.500000 3.000000 5.550000
v 10.500000 3.000000 0.300000
v 10.500000 3.000000 -4.949999
v -10.500000 3.000000 5.550000
v -10.500000 3.000000 0.300000
v -10.500000 3.000000 -4.949999
vt 0.548373 0.897181
vt 0.102004 0.499763
vt 0.102255 0.397864
vt 0.771669 0.001820
vt 0.994562 0.002392
vt 0.993451 0.298520
vt 0.993418 0.311258
vt 0.993452 0.428718
vt 0.994184 0.896819
vt 0.771279 0.897000
vt 0.993491 0.413153
vt 0.548775 0.001248
vt 0.102989 0.000105
vt 0.325882 0.000677
vt 0.102008 0.382208
vt 0.000356 0.397613
vt 0.089517 0.397832
vt 0.089266 0.499731
vt 0.000105 0.499512
vt 0.102562 0.897543
vt 0.102252 0.515419
vt 0.325468 0.897362
vn 0.000000 -1.000000 0.000000
vn 0.000000 -1.000000 0.000000
vn 0.000000 -1.000000 0.000000
vn 0.000000 -1.000000 0.000000
vn 0.000000 -1.000000 0.000000
vn 0.000000 -1.000000 0.000000
vn 0.000000 -1.000000 0.000000
vn 0.000000 -1.000000 0.000000
vn 0.000000 -1.000000 0.000000
vn 0.000000 -1.000000 0.000000
vn 0.000000 -1.000000 0.000000
vn 0.000000 -1.000000 0.000000
vn 0.000000 -1.000000 0.000000
vn 0.000000 -1.000000 0.000000
vn 0.000000 -1.000000 0.000000
vn 0.000000 -1.000000 0.000000
vn 0.000000 -1.000000 0.000000
vn 0.000000 -1.000000 0.000000
vn 0.000000 -1.000000 0.000000
vn 0.000000 -1.000000 0.000000
vn 0.000000 -1.000000 0.000000
vn 0.000000 -1.000000 0.000000
vn 0.000000 -1.000000 0.000000
vn 0.000000 -1.000000 0.000000
vn 0.000000 -1.000000 0.000000
vn 0.000000 -1.000000 0.000000
vn 0.000000 -1.000000 0.000000
vn 0.000000 -1.000000 0.000000
vn 0.000000 -1.000000 0.000000
vn 0.000000 -1.000000 0.000000
vn 0.000000 -1.000000 0.000000
vn 0.000000 -1.000000 0.000000
vn 0.000000 -1.000000 0.000000
vn 0.000000 -1.000000 0.000000
vn 0.000000 -1.000000 0.000000
vn 0.000000 -1.000000 0.000000
vn 0.000000 -1.000000 0.000000
vn 0.000000 -1.000000 0.000000
vn 0.000000 -1.000000 0.000000
vn 0.000000 -1.000000 0.000000
vn 0.000000 -1.000000 0.000000
vn 0.000000 -1.000000 0.000000
vn 0.000000 -1.000000 0.000000
vn 0.000000 -1.000000 0.000000
vn 0.000000 -1.000000 0.000000
vn 0.000000 -1.000000 0.000000
vn 0.000000 -1.000000 0.000000
vn 0.000000 -1.000000 0.000000
vn 0.000000 -1.000000 0.000000
vn 0.000000 -1.000000 0.000000
vn 0.000000 -1.000000 0.000000
vn 0.000000 -1.000000 0.000000
vn 0.000000 -1.000000 0.000000
vn 0.000000 -1.000000 0.000000
vn 0.000000 -1.000000 0.000000
vn 0.000000 -1.000000 0.000000
vn 0.000000 -1.000000 0.000000
vn 0.000000 -1.000000 0.000000
vn 0.000000 -1.000000 0.000000
vn 0.000000 -1.000000 0.000000
s off
g initialShadingGroup Mesh
f 18/1/1 9/2/2 7/3/3
f 22/4/4 14/5/5 13/6/6
f 13/6/7 16/7/8 22/4/9
f 15/8/10 3/9/11 19/10/12
f 16/7/13 1/11/14 21/12/15
f 21/12/16 22/4/17 16/7/18
f 4/13/19 20/14/20 6/15/21
f 7/3/22 6/15/23 21/12/24
f 11/16/25 8/17/26 10/18/27
f 10/18/28 12/19/29 11/16/30
f 2/20/31 5/21/32 17/22/33
f 9/2/34 10/18/35 8/17/36
f 6/15/37 20/14/38 21/12/39
f 9/2/40 8/17/41 7/3/42
f 17/22/43 5/21/44 18/1/45
f 19/10/46 18/1/47 15/8/48
f 1/11/49 15/8/50 21/12/51
f 7/3/52 21/12/53 18/1/54
f 5/21/55 9/2/56 18/1/57
f 15/8/58 18/1/59 21/12/60
