# This file uses centimeters as units for non-parametric coordinates.

mtllib L3Ceiling.mtl
g default1
v -0.825000 3.000000 -10.191715
v 10.500000 3.000000 10.799999
v 10.500000 3.000000 -10.199999
v -10.500000 3.000000 10.799999
v 1.500000 3.000000 10.799999
v -1.500000 3.000000 10.799999
v -1.200000 3.000000 10.799999
v -1.200000 3.000000 11.099999
v 1.200000 3.000000 10.799999
v 1.200000 3.000000 11.099999
v -1.200000 3.000000 13.200001
v 1.200000 3.000000 13.200001
v -3.525000 3.000000 -10.191715
v -10.500000 3.000000 -10.199999
v -0.525000 3.000000 -10.191715
v -3.225000 3.000000 -10.191715
v 10.500000 3.000000 5.550000
v 10.500000 3.000000 0.300000
v 10.500000 3.000000 -4.949999
v -10.500000 3.000000 5.550000
v -10.500000 3.000000 0.300000
v -10.500000 3.000000 -4.949999
vt 0.423855 -3.824721
vt -3.900867 0.005747
vt -3.900866 0.994256
vt 2.586216 4.824722
vt 4.748577 4.824722
vt 4.745164 1.951872
vt 4.745164 1.828308
vt 4.745164 0.716237
vt 4.748576 -3.824721
vt 2.586215 -3.824720
vt 4.745164 0.839800
vt 0.423855 4.824722
vt -3.900866 4.824721
vt -1.738506 4.824722
vt -3.900867 1.117819
vt -4.889375 0.994256
vt -4.024430 0.994256
vt -4.024430 0.005747
vt -4.889375 0.005747
vt -3.900867 -3.824720
vt -3.900867 -0.117816
vt -1.738507 -3.824720
vn 0.000000 -1.000000 0.000000
vn 0.000000 -1.000000 0.000000
vn 0.000000 -1.000000 0.000000
vn 0.000000 -1.000000 0.000000
vn 0.000000 -1.000000 0.000000
vn 0.000000 -1.000000 0.000000
vn 0.000000 -1.000000 0.000000
vn 0.000000 -1.000000 0.000000
vn 0.000000 -1.000000 0.000000
vn 0.000000 -1.000000 0.000000
vn 0.000000 -1.000000 0.000000
vn 0.000000 -1.000000 0.000000
vn 0.000000 -1.000000 0.000000
vn 0.000000 -1.000000 0.000000
vn 0.000000 -1.000000 0.000000
vn 0.000000 -1.000000 0.000000
vn 0.000000 -1.000000 0.000000
vn 0.000000 -1.000000 0.000000
vn 0.000000 -1.000000 0.000000
vn 0.000000 -1.000000 0.000000
vn 0.000000 -1.000000 0.000000
vn 0.000000 -1.000000 0.000000
vn 0.000000 -1.000000 0.000000
vn 0.000000 -1.000000 0.000000
vn 0.000000 -1.000000 0.000000
vn 0.000000 -1.000000 0.000000
vn 0.000000 -1.000000 0.000000
vn 0.000000 -1.000000 0.000000
vn 0.000000 -1.000000 0.000000
vn 0.000000 -1.000000 0.000000
vn 0.000000 -1.000000 0.000000
vn 0.000000 -1.000000 0.000000
vn 0.000000 -1.000000 0.000000
vn 0.000000 -1.000000 0.000000
vn 0.000000 -1.000000 0.000000
vn 0.000000 -1.000000 0.000000
vn 0.000000 -1.000000 0.000000
vn 0.000000 -1.000000 0.000000
vn 0.000000 -1.000000 0.000000
vn 0.000000 -1.000000 0.000000
vn 0.000000 -1.000000 0.000000
vn 0.000000 -1.000000 0.000000
vn 0.000000 -1.000000 0.000000
vn 0.000000 -1.000000 0.000000
vn 0.000000 -1.000000 0.000000
vn 0.000000 -1.000000 0.000000
vn 0.000000 -1.000000 0.000000
vn 0.000000 -1.000000 0.000000
vn 0.000000 -1.000000 0.000000
vn 0.000000 -1.000000 0.000000
vn 0.000000 -1.000000 0.000000
vn 0.000000 -1.000000 0.000000
vn 0.000000 -1.000000 0.000000
vn 0.000000 -1.000000 0.000000
vn 0.000000 -1.000000 0.000000
vn 0.000000 -1.000000 0.000000
vn 0.000000 -1.000000 0.000000
vn 0.000000 -1.000000 0.000000
vn 0.000000 -1.000000 0.000000
vn 0.000000 -1.000000 0.000000
s off
g Mesh initialShadingGroup1 polySurface1
usemtl lambert2SG
f 18/1/1 9/2/2 7/3/3
f 22/4/4 14/5/5 13/6/6
f 13/6/7 16/7/8 22/4/9
f 15/8/10 3/9/11 19/10/12
f 16/7/13 1/11/14 21/12/15
f 21/12/16 22/4/17 16/7/18
f 4/13/19 20/14/20 6/15/21
f 7/3/22 6/15/23 21/12/24
f 11/16/25 8/17/26 10/18/27
f 10/18/28 12/19/29 11/16/30
f 2/20/31 5/21/32 17/22/33
f 9/2/34 10/18/35 8/17/36
f 6/15/37 20/14/38 21/12/39
f 9/2/40 8/17/41 7/3/42
f 17/22/43 5/21/44 18/1/45
f 19/10/46 18/1/47 15/8/48
f 1/11/49 15/8/50 21/12/51
f 7/3/52 21/12/53 18/1/54
f 5/21/55 9/2/56 18/1/57
f 15/8/58 18/1/59 21/12/60
