# Blender v2.76 (sub 0) OBJ File: 'Medium_Demo.blend'
# www.blender.org
mtllib Folors.mtl
o Plane.001_Plane.004
v 10.500000 0.000000 -10.199999
v -10.500000 0.000000 10.799999
v 10.500000 0.000000 10.799999
v -1.200000 0.000000 10.799999
v -1.200000 0.000000 11.099999
v 1.200000 0.000000 11.099999
v 1.200000 0.000000 10.799999
v 1.500000 0.000000 10.799999
v -1.500000 0.000000 10.799999
v -1.200000 0.000000 13.200001
v 1.200000 0.000000 13.200001
v -3.525000 0.000000 -10.191715
v -0.525000 0.000000 -10.191715
v -0.825000 0.000000 -10.191715
v -10.500000 0.000000 -10.199999
v -3.225000 0.000000 -10.191715
v 8.100000 0.000000 8.400000
v 8.100000 0.000000 -7.799999
v -3.525000 0.000000 -7.791716
v -8.100000 0.000000 -7.799999
v -3.225000 0.000000 8.400000
v -8.100000 0.000000 8.400000
v -0.525000 0.000000 -7.791716
v -0.825000 0.000000 -7.791716
v -3.225000 0.000000 -7.791716
v -0.825000 -3.300000 -10.191715
v -3.225000 -3.300000 -10.191715
v 8.100000 -3.300000 8.400000
v 8.100000 -3.300000 -7.799999
v -3.525000 -3.300000 -7.791716
v -8.100000 -3.300000 -7.799999
v -0.825001 -3.300000 8.400000
v -3.225000 -3.300000 8.400000
v -8.100000 -3.300000 8.400000
v -3.525000 -3.300000 8.400000
v -0.525000 -3.300000 -7.791716
v -0.825000 -3.300000 -7.791716
v -3.225000 -3.300000 -7.791716
v -0.525001 -3.300000 8.400000
v 10.500000 0.000000 5.550000
v 10.500000 0.000000 0.300000
v 10.500000 0.000000 -4.949999
v -10.500000 0.000000 5.550000
v -10.500000 0.000000 0.300000
v -10.500000 0.000000 -4.949999
v 8.100000 0.000000 4.350000
v 8.100000 0.000000 -3.750000
v -8.100000 0.000000 4.350000
v -8.100000 0.000000 0.300000
v -8.100000 0.000000 -3.750000
v 8.100000 -3.300000 4.350000
v 8.100000 -3.300000 0.300000
v 8.100000 -3.300000 -3.750000
v -1.200000 -3.300000 4.350000
v -1.200000 -3.300000 0.300000
v -1.200000 -3.300000 -3.750000
v 1.200000 -3.300000 4.350000
v 1.200000 -3.300000 0.300000
v 1.200000 -3.300000 -3.750000
v -8.100000 -3.300000 3.525000
v -8.100000 -3.300000 1.125000
v -8.100000 -3.300000 -3.750000
v 1.500000 -3.300000 4.350000
v 1.500000 -3.300000 0.300000
v 1.500000 -3.300000 -3.750000
v -1.500000 -3.300000 4.350000
v -1.500000 -3.300000 0.300000
v -1.500000 -3.300000 -3.750000
v -3.525000 0.000000 8.400000
v -0.825001 0.000000 8.400000
v -0.525001 0.000000 8.400000
v 8.100000 0.000000 0.300000
v -8.400000 -3.300000 3.525000
v -8.400000 -3.300000 1.125000
v -10.799999 -3.300000 3.525000
v -10.799999 -3.300000 1.125000
vn 0.000000 1.000000 0.000000
usemtl Material.001
s off
f 7//1 8//1 71//1
f 4//1 5//1 6//1
f 43//1 2//1 22//1
f 13//1 23//1 18//1
f 8//1 3//1 17//1
f 42//1 1//1 18//1
f 5//1 10//1 11//1
f 12//1 15//1 20//1
f 4//1 7//1 70//1
f 14//1 24//1 23//1
f 12//1 19//1 25//1
f 9//1 4//1 21//1
f 9//1 69//1 22//1
f 65//1 53//1 29//1
f 68//1 56//1 38//1
f 56//1 59//1 37//1
f 59//1 65//1 36//1
f 62//1 68//1 30//1
f 27//1 38//1 37//1
f 35//1 66//1 60//1
f 66//1 67//1 61//1
f 67//1 68//1 62//1
f 39//1 63//1 57//1
f 63//1 64//1 58//1
f 64//1 65//1 59//1
f 32//1 57//1 54//1
f 54//1 57//1 58//1
f 58//1 59//1 56//1
f 33//1 54//1 66//1
f 54//1 55//1 67//1
f 55//1 56//1 68//1
f 28//1 51//1 63//1
f 51//1 52//1 64//1
f 52//1 53//1 65//1
f 40//1 46//1 17//1
f 41//1 72//1 46//1
f 41//1 42//1 47//1
f 45//1 50//1 20//1
f 44//1 49//1 50//1
f 44//1 43//1 48//1
f 61//1 74//1 73//1
f 74//1 76//1 75//1
f 70//1 7//1 71//1
f 7//1 4//1 6//1
f 48//1 43//1 22//1
f 1//1 13//1 18//1
f 71//1 8//1 17//1
f 47//1 42//1 18//1
f 6//1 5//1 11//1
f 19//1 12//1 20//1
f 21//1 4//1 70//1
f 13//1 14//1 23//1
f 16//1 12//1 25//1
f 69//1 9//1 21//1
f 2//1 9//1 22//1
f 36//1 65//1 29//1
f 30//1 68//1 38//1
f 38//1 56//1 37//1
f 37//1 59//1 36//1
f 31//1 62//1 30//1
f 26//1 27//1 37//1
f 34//1 35//1 60//1
f 60//1 66//1 61//1
f 61//1 67//1 62//1
f 32//1 39//1 57//1
f 57//1 63//1 58//1
f 58//1 64//1 59//1
f 33//1 32//1 54//1
f 55//1 54//1 58//1
f 55//1 58//1 56//1
f 35//1 33//1 66//1
f 66//1 54//1 67//1
f 67//1 55//1 68//1
f 39//1 28//1 63//1
f 63//1 51//1 64//1
f 64//1 52//1 65//1
f 3//1 40//1 17//1
f 40//1 41//1 46//1
f 72//1 41//1 47//1
f 15//1 45//1 20//1
f 45//1 44//1 50//1
f 49//1 44//1 48//1
f 60//1 61//1 73//1
f 73//1 74//1 75//1
