# Blender v2.76 (sub 0) OBJ File: 'Medium_Demo.blend'
# www.blender.org
mtllib SlideButten.mtl
o Cube.001_Cube.013
v 8.160000 -2.250000 6.830625
v 8.160000 -1.350000 6.830625
v 8.160000 -2.250000 5.919375
v 8.160000 -1.350000 5.919375
v 8.639999 -2.250000 6.830625
v 8.639999 -1.350000 6.830625
v 8.639999 -2.250000 5.919375
v 8.639999 -1.350000 5.919375
vt 0.329966 0.660534
vt 0.329966 0.986229
vt 0.000201 0.986229
vt 0.348009 0.000201
vt 0.673704 0.000201
vt 0.673704 0.347608
vt 0.348009 0.999800
vt 0.348009 0.674105
vt 0.677775 0.674105
vt 0.348009 0.673704
vt 0.348009 0.348009
vt 0.695417 0.348009
vt 0.000201 0.330367
vt 0.347608 0.330367
vt 0.347608 0.660133
vt 0.347608 0.329966
vt 0.000201 0.329966
vt 0.000201 0.000201
vt 0.000201 0.660534
vt 0.348009 0.347608
vt 0.677775 0.999799
vt 0.695417 0.673704
vt 0.000201 0.660133
vt 0.347608 0.000201
vn -1.000000 0.000000 0.000000
vn 0.000000 0.000000 -1.000000
vn 1.000000 0.000000 0.000000
vn 0.000000 0.000000 1.000000
vn 0.000000 -1.000000 0.000000
vn 0.000000 1.000000 0.000000
usemtl Material.007
s off
f 4/1/1 3/2/1 1/3/1
f 8/4/2 7/5/2 3/6/2
f 6/7/3 5/8/3 7/9/3
f 2/10/4 1/11/4 5/12/4
f 3/13/5 7/14/5 5/15/5
f 8/16/6 4/17/6 2/18/6
f 2/19/1 4/1/1 1/3/1
f 4/20/2 8/4/2 3/6/2
f 8/21/3 6/7/3 7/9/3
f 6/22/4 2/10/4 5/12/4
f 1/23/5 3/13/5 5/15/5
f 6/24/6 8/16/6 2/18/6
