# This file uses centimeters as units for non-parametric coordinates.

mtllib l5_floor.mtl
g default
v -3.508453 0.000000 2.500000
v -4.000000 0.000000 1.500000
v -5.000000 0.000000 1.500000
v 5.000000 0.000000 2.500000
v 5.000000 0.000000 -2.500000
v -5.000000 0.000000 -2.500000
v -2.508453 0.000000 2.500000
v -2.000000 0.000000 2.500000
v -3.508453 0.000000 5.500000
v -2.508453 0.000000 5.500000
v -4.000000 0.000000 2.500000
v -3.000000 0.000000 2.500000
v -3.726342 0.000000 2.500000
v -3.726342 0.000000 5.500000
v -2.299269 0.000000 5.500000
v -2.299269 0.000000 2.500000
vt 1.000000 0.000000
vt 2.000000 0.000000
vt 1.000000 1.000000
vt 10.000000 5.000000
vt 0.000000 5.000000
vt 3.000000 0.000000
vt 10.000000 0.000000
vt 0.000000 1.000000
vt 0.003291 -0.990126
vt 0.996709 -0.990126
vt 0.003291 1.990127
vt 0.996709 1.990127
vt 1.110046 1.100248
vt 0.908939 1.100248
vt 1.110046 0.899142
vt 0.908939 0.899142
vt 0.927328 0.907732
vt 1.111254 0.907732
vt 0.927328 1.091658
vt 1.111254 1.091658
vn 0.000000 1.000000 0.000000
vn 0.000000 1.000000 0.000000
vn 0.000000 1.000000 0.000000
vn 0.000000 1.000000 0.000000
vn 0.000000 1.000000 0.000000
vn 0.000000 1.000000 0.000000
vn 0.000000 1.000000 0.000000
vn 0.000000 1.000000 0.000000
vn 0.000000 1.000000 0.000000
vn 0.000000 1.000000 0.000000
vn 0.000000 1.000000 0.000000
vn 0.000000 1.000000 0.000000
vn 0.000000 1.000000 0.000000
vn 0.000000 1.000000 0.000000
vn 0.000000 1.000000 0.000000
vn 0.000000 1.000000 0.000000
vn 0.000000 1.000000 0.000000
vn 0.000000 1.000000 0.000000
vn 0.000000 1.000000 0.000000
vn 0.000000 1.000000 0.000000
vn 0.000000 1.000000 0.000000
vn 0.000000 1.000000 0.000000
vn 0.000000 1.000000 0.000000
vn 0.000000 1.000000 0.000000
vn 0.000000 1.000000 0.000000
vn 0.000000 1.000000 0.000000
vn 0.000000 1.000000 0.000000
vn 0.000000 1.000000 0.000000
vn 0.000000 1.000000 0.000000
vn 0.000000 1.000000 0.000000
vn 0.000000 1.000000 0.000000
vn 0.000000 1.000000 0.000000
vn 0.000000 1.000000 0.000000
vn 0.000000 1.000000 0.000000
vn 0.000000 1.000000 0.000000
vn 0.000000 1.000000 0.000000
s off
g polySurface2 pCube3
usemtl lambert2SG
f 11/1/1 12/2/2 2/3/3
f 12/2/4 5/4/5 2/3/6
f 2/3/7 5/4/8 6/5/9
f 12/2/10 8/6/11 5/4/12
f 5/4/13 8/6/14 4/7/15
f 3/8/16 2/3/17 6/5/18
f 9/9/19 10/10/20 1/11/21
f 1/11/22 10/10/23 7/12/24
f 9/13/25 1/14/26 14/15/27
f 14/15/28 1/14/29 13/16/30
f 7/17/31 10/18/32 16/19/33
f 16/19/34 10/18/35 15/20/36
