# This file uses centimeters as units for non-parametric coordinates.

mtllib L5Ceiling.mtl
g default
v -5.000000 0.055770 -2.500000
v 5.000000 0.055770 -2.500000
v -5.000000 0.055770 2.500000
v 5.000000 0.055770 2.500000
v -2.253320 0.055770 2.500000
v -3.740110 0.055770 2.500000
v -2.253320 0.055770 5.528648
v -3.740110 0.055770 5.528648
vt -3.116592 4.116592
vt -3.116592 -3.116592
vt 4.116592 4.116592
vt 4.116592 -3.116592
vt 4.116592 2.129868
vt 4.116592 3.205290
vt -0.963115 -0.218256
vt -0.963115 1.218256
vt 1.963115 1.218256
vt 1.963115 -0.218256
vn 0.000000 -1.000000 0.000000
vn 0.000000 -1.000000 0.000000
vn 0.000000 -1.000000 0.000000
vn 0.000000 -1.000000 0.000000
vn 0.000000 -1.000000 0.000000
vn 0.000000 -1.000000 0.000000
vn 0.000000 -1.000000 0.000000
vn 0.000000 -1.000000 0.000000
vn 0.000000 -1.000000 0.000000
vn 0.000000 -1.000000 0.000000
s off
g L5Ceiling:pPlane1
usemtl L5Ceiling:lambert2SG
f 1/1/1 2/2/2 3/3/3
s 1
f 3/3/4 2/2/5 6/6/6
f 6/6/6 2/2/5 5/5/7
f 2/2/5 4/4/8 5/5/7
f 6/7/6 5/8/7 8/10/9
f 8/10/9 5/8/7 7/9/10
