# This file uses centimeters as units for non-parametric coordinates.

mtllib Plane.mtl
g default
v -11.608468 -0.000000 11.608468
v 11.608468 -0.000000 11.608468
v -11.608468 0.000000 -11.608468
v 11.608468 0.000000 -11.608468
vt 0.000000 0.000000
vt 1.000000 0.000000
vt 0.000000 1.000000
vt 1.000000 1.000000
vn 0.000000 1.000000 0.000000
vn 0.000000 1.000000 0.000000
vn 0.000000 1.000000 0.000000
vn 0.000000 1.000000 0.000000
s 1
g pPlane1
usemtl initialShadingGroup
f 3/3/1 1/1/2 4/4/3
f 4/4/3 1/1/2 2/2/4
