# Blender v2.77 (sub 0) OBJ File: 'Medium Demo.blend'
# www.blender.org
mtllib LVL3-Wall1.mtl
o Plane.004
v -0.875000 2.743973 -15.466715
v -0.875000 2.743973 -15.166716
v 10.450000 -0.256027 -15.174999
v -10.550000 -0.256027 5.825000
v 10.450000 -0.256027 -15.474998
v 10.450000 -0.256027 5.825000
v -10.550000 -0.256027 -15.474998
v -10.849999 -0.256027 -15.474998
v 10.749999 -0.256027 5.825000
v 10.749999 -0.256027 -15.475000
v -3.275000 -0.256027 -15.466715
v 10.450000 -0.256027 6.125000
v -10.550000 -0.256027 6.125000
v -10.849999 -0.256027 6.125000
v -0.875000 -0.256027 -15.466715
v 10.749999 -0.256027 6.125000
v -1.250000 -0.256027 5.825000
v -1.250000 -0.256027 6.125000
v 1.150000 -0.256027 6.125000
v 1.150000 -0.256027 5.825000
v 1.450000 -0.256027 5.825000
v 1.450000 -0.256027 6.125000
v -1.550000 -0.256027 5.825000
v -1.550000 -0.256027 6.125000
v -1.250000 -0.256027 8.225000
v 1.150000 -0.256027 8.225000
v 1.450000 -0.256027 8.225000
v -1.550000 -0.256027 8.225000
v -1.250000 -0.256027 8.525000
v 1.150000 -0.256027 8.525000
v 1.450000 -0.256027 8.525000
v -1.550000 -0.256027 8.525000
v -0.575000 -0.256027 -15.466715
v -3.575000 -0.256027 -15.466715
v -3.575000 -0.256027 -15.166716
v -0.575000 -0.256027 -15.166716
v 10.450000 2.743973 5.825000
v 10.450000 2.743973 -15.174999
v -0.875000 -0.256027 -15.166716
v -10.849999 2.743973 5.825000
v -10.550000 2.743973 5.825000
v 10.749999 -0.256027 -15.174999
v 1.450000 2.743973 5.825000
v -10.849999 -0.256027 -15.174999
v 10.749999 2.743973 5.825000
v -10.849999 2.743973 6.125000
v -10.550000 2.743973 6.125000
v -10.550000 -0.256027 -15.174999
v 1.450000 2.743973 6.125000
v 10.450000 2.743973 6.125000
v 10.749999 2.743973 6.125000
v -1.550000 2.743973 5.825000
v -1.250000 2.743973 5.825000
v -1.550000 2.743973 6.125000
v -1.250000 2.743973 6.125000
v -3.275000 -0.256027 -15.166716
v 1.150000 2.743973 5.825000
v 1.150000 2.743973 6.125000
v -1.550000 2.743973 8.225000
v -1.250000 2.743973 8.225000
v 1.150000 2.743973 8.225000
v 1.450000 2.743973 8.225000
v -1.550000 2.743973 8.525000
v -1.250000 2.743973 8.525000
v 1.150000 2.743973 8.525000
v 1.450000 2.743973 8.525000
v -3.575000 2.743973 -15.166716
v -10.550000 2.743973 -15.174999
v -0.575000 2.743973 -15.466715
v -0.575000 2.743973 -15.166716
v 10.749999 2.743973 -15.475000
v -10.849999 -0.256027 5.824999
v -10.849999 2.743973 -15.474998
v -10.849999 2.743973 -15.174999
v -3.575000 2.743973 -15.466715
v -10.550000 2.743973 -15.474998
v 10.749999 2.743973 -15.174999
v -3.275000 2.743973 -15.466715
v 10.450000 2.743973 -15.474998
v -3.275000 2.743973 -15.166716
v 10.450000 -0.256027 0.575000
v 10.450000 -0.256027 -4.675000
v 10.450000 -0.256027 -9.924999
v 10.450000 2.743973 0.575000
v 10.450000 2.743973 -4.675000
v 10.450000 2.743973 -9.924999
v 10.749999 -0.256027 0.575000
v 10.749999 -0.256027 -4.675000
v 10.749999 -0.256027 -9.924999
v 10.749999 2.743973 0.575000
v 10.749999 2.743973 -4.675000
v 10.749999 2.743973 -9.924999
v -10.849999 -0.256027 0.575000
v -10.849999 -0.256027 -4.675000
v -10.849999 -0.256027 -9.924999
v -10.550000 -0.256027 0.575000
v -10.550000 -0.256027 -4.675000
v -10.550000 -0.256027 -9.924999
v -10.849999 2.743973 0.575000
v -10.849999 2.743973 -4.675000
v -10.849999 2.743973 -9.924999
v -10.550000 2.743973 0.575000
v -10.550000 2.743973 -4.675000
v -10.550000 2.743973 -9.924999
vt 0.024390 0.990909
vt 0.036585 0.869697
vt 0.036585 0.990909
vt 0.975610 0.969697
vt 0.987805 0.848485
vt 0.987805 0.969697
vt 0.597561 0.978788
vt 0.609756 0.857576
vt 0.609756 0.978788
vt 0.817073 0.848485
vt 0.829268 0.969697
vt 0.817073 0.969697
vt 0.121951 0.000000
vt 0.243902 0.445455
vt 0.121951 0.445455
vt 0.048780 0.869697
vt 0.036585 0.990909
vt 0.036585 0.869697
vt 0.341463 0.978788
vt 0.353658 0.857576
vt 0.353658 0.978788
vt 0.841463 0.848485
vt 0.829268 0.969697
vt 0.829268 0.848485
vt 0.487805 0.363636
vt 0.365854 0.000000
vt 0.487805 0.000000
vt 0.573171 0.857576
vt 0.560975 0.978788
vt 0.560975 0.857576
vt 0.609756 0.909091
vt 0.707317 0.787879
vt 0.707317 0.909091
vt 0.109756 0.869697
vt 0.097561 0.881818
vt 0.097561 0.869697
vt 0.365854 0.857576
vt 0.353658 0.978788
vt 0.353658 0.857576
vt 0.939024 0.948485
vt 0.951219 0.666681
vt 0.951219 0.948499
vt 0.182927 0.869697
vt 0.170732 0.881818
vt 0.170732 0.869697
vt 0.243902 0.978788
vt 0.329268 0.857576
vt 0.329268 0.978788
vt 0.000000 0.657576
vt 0.121951 0.869697
vt 0.000000 0.869697
vt 0.012195 0.990909
vt 0.024390 0.869697
vt 0.024390 0.990909
vt 0.817073 0.848485
vt 0.731707 0.969697
vt 0.731707 0.848485
vt 0.951219 0.424251
vt 0.963414 0.869697
vt 0.951219 0.869706
vt 0.329268 0.978788
vt 0.341463 0.857576
vt 0.341463 0.978788
vt 0.939024 0.787879
vt 0.853658 0.909091
vt 0.853658 0.787879
vt 0.853658 0.787879
vt 0.939024 0.666667
vt 0.939024 0.787879
vt 0.146341 0.869697
vt 0.134146 0.881818
vt 0.134146 0.869697
vt 0.207317 0.869697
vt 0.195122 0.881818
vt 0.195122 0.869697
vt 1.000000 0.636364
vt 0.987805 0.848485
vt 0.987805 0.636364
vt 0.707317 0.787879
vt 0.719512 0.909091
vt 0.707317 0.909091
vt 0.487805 1.000000
vt 0.475610 0.787879
vt 0.487805 0.787879
vt 0.512195 0.857576
vt 0.500000 0.978788
vt 0.500000 0.857576
vt 0.975610 0.787879
vt 0.963414 0.424242
vt 0.975610 0.424242
vt 0.121951 0.445455
vt 0.000000 0.000000
vt 0.121951 0.000000
vt 0.182927 0.881818
vt 0.195122 0.869697
vt 0.195122 0.881818
vt 0.207317 0.881818
vt 0.219512 0.869697
vt 0.219512 0.881818
vt 0.121951 0.881818
vt 0.134146 0.869697
vt 0.134146 0.881818
vt 0.987805 0.363636
vt 0.975610 0.000000
vt 0.987805 0.000000
vt 0.158537 0.881818
vt 0.170732 0.869697
vt 0.170732 0.881818
vt 0.073171 0.954546
vt 0.085366 0.869697
vt 0.085366 0.954546
vt 0.085366 0.954545
vt 0.097561 0.869697
vt 0.097561 0.954545
vt 0.109756 0.881818
vt 0.121951 0.869697
vt 0.121951 0.881818
vt 0.073171 0.966667
vt 0.060976 0.869697
vt 0.073171 0.869697
vt 0.146341 0.881818
vt 0.158537 0.869697
vt 0.158537 0.881818
vt 0.573171 0.978788
vt 0.585366 0.857576
vt 0.585366 0.978788
vt 0.548780 0.978788
vt 0.560975 0.857576
vt 0.560976 0.978788
vt 0.609756 0.363636
vt 0.487805 0.000000
vt 0.609756 0.000000
vt 0.731707 0.575758
vt 0.609756 0.363636
vt 0.731707 0.363636
vt 0.524390 0.978788
vt 0.536585 0.857576
vt 0.536585 0.978788
vt 0.243902 0.363636
vt 0.365854 0.645455
vt 0.243902 0.645455
vt 0.365854 0.363636
vt 0.243902 0.000000
vt 0.365854 0.000000
vt 0.731707 0.363636
vt 0.609756 0.000000
vt 0.731707 0.000000
vt 0.487805 0.978788
vt 0.500000 0.857576
vt 0.500000 0.978788
vt 0.853658 0.424242
vt 0.731707 0.212121
vt 0.853658 0.212121
vt 0.731707 0.787879
vt 0.609756 0.575758
vt 0.731707 0.575758
vt 0.853658 0.666667
vt 0.951219 0.545455
vt 0.951219 0.666667
vt 0.853658 0.424242
vt 0.951219 0.545454
vt 0.853658 0.545454
vt 0.536585 0.978788
vt 0.548780 0.857576
vt 0.548780 0.978788
vt 0.609756 0.645455
vt 0.487805 0.363636
vt 0.609756 0.363636
vt 0.963415 0.909091
vt 0.975610 0.787879
vt 0.975610 0.909091
vt 0.365854 0.787879
vt 0.463415 0.909091
vt 0.365854 0.909091
vt 0.585366 0.978788
vt 0.597561 0.857576
vt 0.597561 0.978788
vt 0.000000 0.990909
vt 0.012195 0.869697
vt 0.012195 0.990909
vt 0.512195 0.978788
vt 0.524390 0.857576
vt 0.524390 0.978788
vt 0.048780 0.966667
vt 0.060976 0.869697
vt 0.060976 0.966667
vt 0.365854 0.857576
vt 0.243902 0.645455
vt 0.365854 0.645455
vt 0.243902 0.657576
vt 0.121951 0.445455
vt 0.243902 0.445455
vt 0.121951 0.657576
vt 0.000000 0.445455
vt 0.121951 0.445455
vt 0.975610 0.212121
vt 0.853658 0.000000
vt 0.975610 0.000000
vt 0.487805 0.787879
vt 0.365854 0.575758
vt 0.487805 0.575758
vt 0.731707 0.000000
vt 0.853658 0.000000
vt 0.853658 0.848485
vt 0.731707 0.636364
vt 0.853658 0.636364
vt 0.853658 0.636364
vt 0.731707 0.424242
vt 0.853658 0.424242
vt 0.487805 0.575758
vt 0.365854 0.363636
vt 0.487805 0.363636
vt 0.975610 0.424242
vt 0.987805 0.636364
vt 0.975610 0.636364
vt 0.987805 0.424242
vt 1.000000 0.636363
vt 0.987805 0.636363
vt 0.987805 0.000000
vt 1.000000 0.212121
vt 0.987805 0.212121
vt 0.463415 1.000000
vt 0.475610 0.787879
vt 0.475610 1.000000
vt 1.000000 0.212121
vt 0.987805 0.424242
vt 0.987805 0.212121
vt 0.987805 0.636364
vt 0.975610 0.848485
vt 0.975610 0.636364
vt 0.975610 0.424242
vt 0.853658 0.212121
vt 0.975610 0.212121
vt 0.121951 0.657576
vt 0.243902 0.869697
vt 0.121951 0.869697
vt 0.487805 0.645455
vt 0.609756 0.857576
vt 0.487805 0.857576
vt 0.024390 0.869697
vt 0.975610 0.848485
vt 0.597561 0.857576
vt 0.829268 0.848485
vt 0.243902 0.000000
vt 0.048780 0.990909
vt 0.341463 0.857576
vt 0.841463 0.969697
vt 0.365854 0.363636
vt 0.573171 0.978788
vt 0.609756 0.787879
vt 0.109756 0.881818
vt 0.365854 0.978788
vt 0.939024 0.666667
vt 0.182927 0.881818
vt 0.243902 0.857576
vt 0.121951 0.657576
vt 0.012195 0.869697
vt 0.817073 0.969697
vt 0.963414 0.424242
vt 0.329268 0.857576
vt 0.939024 0.909091
vt 0.853658 0.666667
vt 0.146341 0.881818
vt 0.207317 0.881818
vt 1.000000 0.848485
vt 0.719512 0.787879
vt 0.475610 1.000000
vt 0.512195 0.978788
vt 0.963415 0.787879
vt 0.000000 0.445455
vt 0.182927 0.869697
vt 0.207317 0.869697
vt 0.121951 0.869697
vt 0.975610 0.363636
vt 0.158537 0.869697
vt 0.085366 0.869697
vt 0.109756 0.869697
vt 0.060976 0.966667
vt 0.146341 0.869697
vt 0.573171 0.857576
vt 0.548780 0.857576
vt 0.487805 0.363636
vt 0.609756 0.575758
vt 0.524390 0.857576
vt 0.365853 0.363636
vt 0.243902 0.363636
vt 0.609756 0.363636
vt 0.487805 0.857576
vt 0.731707 0.424242
vt 0.609756 0.787879
vt 0.853658 0.545455
vt 0.951219 0.424242
vt 0.536585 0.857576
vt 0.487805 0.645455
vt 0.963414 0.787879
vt 0.463414 0.787879
vt 0.585366 0.857576
vt 0.000000 0.869697
vt 0.512195 0.857576
vt 0.048780 0.869697
vt 0.243902 0.857576
vt 0.121951 0.657576
vt 0.000000 0.657576
vt 0.853658 0.212121
vt 0.365854 0.787879
vt 0.731707 0.848485
vt 0.731707 0.636364
vt 0.365854 0.575758
vt 0.987805 0.424242
vt 1.000000 0.424242
vt 1.000000 0.000000
vt 0.463415 0.787879
vt 1.000000 0.424242
vt 0.987805 0.848485
vt 0.853658 0.424242
vt 0.243902 0.657576
vt 0.609756 0.645455
vn -1.000000 0.000000 0.000000
vn 1.000000 0.000000 0.000000
vn -0.000000 0.000000 -1.000000
vn 0.000800 0.000000 1.000000
vn 0.000000 0.000000 1.000000
vn 0.000000 1.000000 0.000000
vn -0.000800 0.000000 -1.000000
vn -0.001200 0.000000 1.000000
vn 0.001200 0.000000 -1.000000
usemtl Walls
s off
f 32/1/1 59/2/1 28/3/1
f 5/4/2 38/5/2 3/6/2
f 5/7/3 71/8/3 10/9/3
f 46/10/1 72/11/1 14/12/1
f 3/13/4 70/14/4 36/15/4
f 27/16/2 66/17/2 31/18/2
f 16/19/5 50/20/5 12/21/5
f 31/22/5 65/23/5 30/24/5
f 12/25/5 49/26/5 22/27/5
f 20/28/3 43/29/3 21/30/3
f 30/31/5 64/32/5 29/33/5
f 77/34/6 79/35/6 38/36/6
f 29/37/5 63/38/5 32/39/5
f 68/40/6 75/41/6 76/42/6
f 68/43/6 73/44/6 74/45/6
f 28/46/1 54/47/1 24/48/1
f 72/49/1 99/50/1 93/51/1
f 13/52/5 46/53/5 14/54/5
f 18/55/2 60/56/2 25/57/2
f 38/58/6 69/59/6 70/60/6
f 19/61/1 57/62/1 20/63/1
f 22/64/2 62/65/2 27/66/2
f 26/67/1 58/68/1 19/69/1
f 70/70/6 1/71/6 2/72/6
f 80/73/6 75/74/6 67/75/6
f 104/76/6 74/77/6 101/78/6
f 71/79/2 42/80/2 10/81/2
f 37/82/6 90/83/6 84/84/6
f 56/85/5 67/86/5 35/87/5
f 41/88/6 54/89/6 52/90/6
f 33/91/7 79/92/7 5/93/7
f 37/94/6 51/95/6 45/96/6
f 40/97/6 47/98/6 41/99/6
f 57/100/6 49/101/6 43/102/6
f 43/103/6 50/104/6 37/105/6
f 52/106/6 55/107/6 53/108/6
f 58/109/6 62/110/6 49/111/6
f 54/112/6 60/113/6 55/114/6
f 61/115/6 66/116/6 62/117/6
f 60/118/6 65/119/6 61/120/6
f 59/121/6 64/122/6 60/123/6
f 8/124/3 76/125/3 7/126/3
f 9/127/2 51/128/2 16/129/2
f 21/130/3 37/131/3 6/132/3
f 48/133/2 104/134/2 98/135/2
f 23/136/3 53/137/3 17/138/3
f 35/139/8 68/140/8 48/141/8
f 4/142/3 52/143/3 23/144/3
f 24/145/5 47/146/5 13/147/5
f 17/148/2 55/149/2 18/150/2
f 6/151/1 84/152/1 81/153/1
f 42/154/2 92/155/2 89/156/2
f 25/157/3 61/158/3 26/159/3
f 15/160/3 78/161/3 1/162/3
f 34/163/3 78/164/3 11/165/3
f 7/166/9 75/167/9 34/168/9
f 36/169/5 2/170/5 39/171/5
f 2/172/5 56/173/5 39/174/5
f 48/175/1 76/176/1 7/177/1
f 44/178/1 73/179/1 8/180/1
f 15/181/3 69/182/3 33/183/3
f 1/184/6 80/185/6 2/186/6
f 87/187/2 45/188/2 9/189/2
f 88/190/2 90/191/2 87/192/2
f 89/193/2 91/194/2 88/195/2
f 83/196/1 38/197/1 3/198/1
f 82/199/1 86/200/1 83/201/1
f 81/153/1 85/202/1 82/203/1
f 96/204/2 41/205/2 4/206/2
f 97/207/2 102/208/2 96/209/2
f 98/210/2 103/211/2 97/212/2
f 86/213/6 77/214/6 38/215/6
f 85/216/6 92/217/6 86/218/6
f 84/219/6 91/220/6 85/221/6
f 41/222/6 99/223/6 40/224/6
f 102/225/6 100/226/6 99/227/6
f 103/228/6 101/229/6 100/230/6
f 95/231/1 74/232/1 44/233/1
f 94/234/1 101/235/1 95/236/1
f 93/237/1 100/238/1 94/239/1
f 32/1/1 63/240/1 59/2/1
f 5/4/2 79/241/2 38/5/2
f 5/7/3 79/242/3 71/8/3
f 46/10/1 40/243/1 72/11/1
f 3/13/4 38/244/4 70/14/4
f 27/16/2 62/245/2 66/17/2
f 16/19/5 51/246/5 50/20/5
f 31/22/5 66/247/5 65/23/5
f 12/25/5 50/248/5 49/26/5
f 20/28/3 57/249/3 43/29/3
f 30/31/5 65/250/5 64/32/5
f 77/34/6 71/251/6 79/35/6
f 29/37/5 64/252/5 63/38/5
f 68/40/6 67/253/6 75/41/6
f 68/43/6 76/254/6 73/44/6
f 28/46/1 59/255/1 54/47/1
f 72/49/1 40/256/1 99/50/1
f 13/52/5 47/257/5 46/53/5
f 18/55/2 55/258/2 60/56/2
f 38/58/6 79/259/6 69/59/6
f 19/61/1 58/260/1 57/62/1
f 22/64/2 49/261/2 62/65/2
f 26/67/1 61/262/1 58/68/1
f 70/70/6 69/263/6 1/71/6
f 80/73/6 78/264/6 75/74/6
f 104/76/6 68/265/6 74/77/6
f 71/79/2 77/266/2 42/80/2
f 37/82/6 45/267/6 90/83/6
f 56/85/5 80/268/5 67/86/5
f 41/88/6 47/269/6 54/89/6
f 33/91/7 69/270/7 79/92/7
f 37/94/6 50/271/6 51/95/6
f 40/97/6 46/272/6 47/98/6
f 57/100/6 58/273/6 49/101/6
f 43/103/6 49/274/6 50/104/6
f 52/106/6 54/275/6 55/107/6
f 58/109/6 61/120/6 62/110/6
f 54/112/6 59/276/6 60/113/6
f 61/115/6 65/277/6 66/116/6
f 60/118/6 64/278/6 65/119/6
f 59/121/6 63/279/6 64/122/6
f 8/124/3 73/280/3 76/125/3
f 9/127/2 45/281/2 51/128/2
f 21/130/3 43/282/3 37/131/3
f 48/133/2 68/283/2 104/134/2
f 23/136/3 52/284/3 53/137/3
f 35/139/8 67/285/8 68/140/8
f 4/142/3 41/286/3 52/143/3
f 24/145/5 54/287/5 47/146/5
f 17/148/2 53/288/2 55/149/2
f 6/151/1 37/289/1 84/152/1
f 42/154/2 77/290/2 92/155/2
f 25/157/3 60/291/3 61/158/3
f 15/160/3 11/292/3 78/161/3
f 34/163/3 75/293/3 78/164/3
f 7/166/9 76/294/9 75/167/9
f 36/169/5 70/295/5 2/170/5
f 2/172/5 80/296/5 56/173/5
f 48/175/1 68/297/1 76/176/1
f 44/178/1 74/298/1 73/179/1
f 15/181/3 1/299/3 69/182/3
f 1/184/6 78/300/6 80/185/6
f 87/187/2 90/301/2 45/188/2
f 88/190/2 91/302/2 90/191/2
f 89/193/2 92/303/2 91/194/2
f 83/196/1 86/304/1 38/197/1
f 82/199/1 85/305/1 86/200/1
f 81/153/1 84/152/1 85/202/1
f 96/204/2 102/306/2 41/205/2
f 97/207/2 103/307/2 102/208/2
f 98/210/2 104/308/2 103/211/2
f 86/213/6 92/309/6 77/214/6
f 85/216/6 91/310/6 92/217/6
f 84/219/6 90/311/6 91/220/6
f 41/222/6 102/312/6 99/223/6
f 102/225/6 103/313/6 100/226/6
f 103/228/6 104/314/6 101/229/6
f 95/231/1 101/315/1 74/232/1
f 94/234/1 100/316/1 101/235/1
f 93/237/1 99/317/1 100/238/1
