# This file uses centimeters as units for non-parametric coordinates.

mtllib LVL3-Walls2.mtl
g default
v -0.875000 -0.256027 -15.166716
v -3.275000 -0.256027 -15.166716
v 8.050000 -0.256027 3.425000
v 8.050000 -0.256027 -12.775000
v -3.575000 -0.256027 -12.766716
v -8.150001 -0.256027 -12.775000
v -3.275000 -0.256027 3.425000
v -8.150001 -0.256027 3.425000
v -0.575000 -0.256027 -12.766716
v -0.875000 -0.256027 -12.766716
v -3.275000 -0.256027 -12.766716
v -0.875000 -0.556027 -15.166716
v -3.275000 -0.556027 -15.166716
v -3.575000 -0.556027 -12.766716
v -8.150001 -0.556027 3.425000
v -0.575000 -0.556027 -12.766716
v -0.875000 -0.556027 -12.766716
v -3.275000 -0.556027 -12.766716
v -0.875000 -3.556027 -15.166716
v -3.275000 -3.556027 -15.166716
v 8.050000 -3.556027 3.425000
v 8.050000 -3.556027 -12.775000
v -3.575000 -3.556027 -12.766716
v -8.150001 -3.556027 -12.775000
v -0.875001 -3.556027 3.425000
v -3.275000 -3.556027 3.425000
v -8.150001 -3.556027 3.425000
v -3.575000 -3.556027 3.425000
v -0.575000 -3.556027 -12.766716
v -0.875000 -3.556027 -12.766716
v -3.275000 -3.556027 -12.766716
v -0.575001 -3.556027 3.425000
v 8.050000 -0.256027 -0.625000
v 8.050000 -0.256027 -8.725000
v -8.150001 -0.256027 -0.625000
v -8.150001 -0.256027 -4.675000
v -8.150001 -0.256027 -8.725000
v 8.050000 -0.556027 -4.675000
v 8.050000 -3.556027 -0.625000
v 8.050000 -3.556027 -4.675000
v 8.050000 -3.556027 -8.725000
v -8.150001 -3.556027 -1.450000
v -8.150001 -3.556027 -3.849999
v -8.150001 -3.556027 -8.725000
v -3.575000 -0.256027 -12.775000
v -3.575000 -0.556027 -12.775000
v -3.575000 -0.556027 3.425000
v -3.575000 -0.256027 3.425000
v -3.275000 -0.256027 -12.775000
v -3.275000 -0.556027 -12.775000
v -3.275000 -0.556027 3.425000
v -0.875001 -0.256027 -12.775000
v -0.875001 -0.556027 -12.775000
v -0.875001 -0.556027 3.425000
v -0.875001 -0.256027 3.425000
v -0.575001 -0.256027 -12.775000
v -0.575001 -0.556027 -12.775000
v -0.575001 -0.556027 3.425000
v -0.575001 -0.256027 3.425000
v 8.050000 -0.556027 -12.775000
v 8.050000 -0.556027 -8.725000
v 8.050000 -0.556027 3.425000
v 8.050000 -0.256027 -4.675000
v 8.050000 -0.556027 -0.625000
v -8.150001 -0.556027 -12.775000
v -8.150001 -0.556027 -1.450000
v -8.150001 -0.556027 -3.849999
v -8.150001 -0.556027 -8.725000
v 8.050000 -2.806027 2.159375
v 8.050000 -2.806027 0.640625
v 8.050000 -1.306027 2.159375
v 8.050000 -1.306027 0.640625
v 8.349999 -2.806027 2.159375
v 8.349999 -2.806027 0.640625
v 8.349999 -1.306027 2.159375
v 8.349999 -1.306027 0.640625
v -8.450000 -3.556027 -1.450000
v -8.450000 -3.556027 -3.849999
v -8.450000 -0.556027 -1.450000
v -8.450000 -0.556027 -3.829879
v -10.849999 -3.556027 -1.450000
v -10.849999 -3.556027 -3.849999
v -10.849999 -0.556027 -1.450000
v -10.849999 -0.556027 -3.829879
vt 0.648649 0.807175
vt 0.666667 0.950673
vt 0.648649 0.950673
vt 0.432432 0.843049
vt 0.414414 0.825112
vt 0.432432 0.825112
vt 0.630631 0.807175
vt 0.648649 0.950673
vt 0.630631 0.950673
vt 0.666667 0.807175
vt 0.684685 0.950673
vt 0.666667 0.950673
vt 0.666667 0.807175
vt 0.414414 0.843049
vt 0.648649 0.807175
vt 0.684685 0.807175
vt 0.927928 0.358744
vt 0.945946 0.874440
vt 0.927928 0.874440
vt 0.594594 0.807175
vt 0.612612 0.950673
vt 0.594594 0.950673
vt 0.909910 0.358744
vt 0.927928 0.874439
vt 0.909910 0.874439
vt 0.963964 0.358744
vt 0.981982 0.632287
vt 0.963964 0.632287
vt 0.720721 0.896861
vt 0.864865 0.717489
vt 0.864865 0.896861
vt 0.720721 0.565023
vt 0.540541 0.291480
vt 0.720721 0.291480
vt 0.360360 0.582960
vt 0.540540 0.825112
vt 0.360360 0.825112
vt 0.864865 0.179372
vt 0.720721 0.358744
vt 0.720721 0.179372
vt 0.324324 0.937220
vt 0.342342 0.757848
vt 0.342342 0.937220
vt 0.360360 0.291480
vt 0.540540 0.582960
vt 0.360360 0.582960
vt 0.576577 0.273543
vt 0.558559 0.291480
vt 0.558559 0.273543
vt 0.976914 0.273543
vt 0.994932 0.000000
vt 0.994932 0.273543
vt 0.450450 0.843049
vt 0.432432 0.825112
vt 0.450450 0.825112
vt 0.981982 0.600897
vt 1.000000 0.843049
vt 0.981982 0.843049
vt 0.180180 0.000000
vt 0.360360 0.515695
vt 0.180180 0.515695
vt 0.864865 0.000000
vt 0.720721 0.179372
vt 0.720721 0.000000
vt 0.144144 0.757848
vt 0.000000 0.937220
vt 0.000000 0.757848
vt 0.000000 0.000000
vt 0.180180 0.515695
vt 0.000000 0.515695
vt 0.720721 0.273543
vt 0.540541 0.000000
vt 0.720721 0.000000
vt 0.360360 0.757848
vt 0.342342 0.937220
vt 0.342342 0.757848
vt 0.558559 0.807175
vt 0.540541 0.986547
vt 0.540541 0.807175
vt 0.324324 0.757848
vt 0.306306 0.937220
vt 0.306306 0.757848
vt 0.234234 0.757848
vt 0.252252 1.000000
vt 0.234234 1.000000
vt 0.252252 0.757848
vt 0.270270 1.000000
vt 0.252252 1.000000
vt 0.981982 0.358744
vt 1.000000 0.600897
vt 0.981982 0.600897
vt 0.963964 0.632287
vt 0.981982 0.905830
vt 0.963964 0.905830
vt 0.000000 0.515695
vt 0.180180 0.757848
vt 0.000000 0.757848
vt 0.360360 0.000000
vt 0.540540 0.291480
vt 0.360360 0.291480
vt 0.594594 0.986547
vt 0.576577 0.807175
vt 0.594594 0.807175
vt 0.940878 0.179372
vt 0.864865 0.044843
vt 0.940878 0.000000
vt 0.540541 0.565023
vt 0.720721 0.807175
vt 0.540541 0.807175
vt 0.180180 0.515695
vt 0.360360 0.757848
vt 0.180180 0.757848
vt 0.540541 0.273543
vt 0.558559 0.291480
vt 0.540541 0.291480
vt 0.594595 0.291480
vt 0.612613 0.273543
vt 0.612613 0.291480
vt 0.684685 0.950673
vt 0.702703 0.807175
vt 0.702703 0.950673
vt 0.945946 0.874440
vt 0.963964 0.358744
vt 0.963964 0.874440
vt 0.594595 0.273543
vt 0.576577 0.291480
vt 0.576577 0.273543
vt 0.940878 0.049327
vt 0.958896 0.291480
vt 0.940878 0.291480
vt 0.976914 0.000000
vt 0.958896 0.242152
vt 0.958896 0.000000
vt 0.306306 0.757848
vt 0.288288 1.000000
vt 0.288288 0.757848
vt 0.288288 1.000000
vt 0.270270 0.807175
vt 0.288288 0.757848
vt 0.702703 0.807175
vt 0.720721 0.897982
vt 0.702703 0.897982
vt 0.909910 0.600897
vt 0.864865 0.434417
vt 0.909910 0.358744
vt 0.909910 0.843049
vt 0.864865 0.676570
vt 0.909910 0.600897
vt 0.864865 0.179372
vt 0.940878 0.313901
vt 0.864865 0.358744
vt 0.144144 0.757848
vt 0.234234 0.848655
vt 0.144144 0.848655
vt 0.396396 0.914798
vt 0.378378 0.825112
vt 0.396396 0.825112
vt 0.360360 0.825112
vt 0.378378 0.915919
vt 0.360360 0.915919
vt 0.396396 0.825112
vt 0.414414 0.914798
vt 0.396396 0.914798
vt 0.720722 0.538117
vt 0.864865 0.717489
vt 0.720721 0.717489
vt 0.558559 0.807175
vt 0.576577 0.986547
vt 0.558559 0.986547
vt 0.864865 0.538117
vt 0.720721 0.358744
vt 0.864865 0.358744
vt 0.945946 0.358744
vt 0.612612 0.807175
vt 0.927928 0.358744
vt 0.981982 0.358744
vt 0.720721 0.717489
vt 0.540541 0.565023
vt 0.540540 0.582960
vt 0.864865 0.358744
vt 0.324324 0.757848
vt 0.540540 0.291480
vt 0.576577 0.291480
vt 0.976914 0.000000
vt 0.432432 0.843049
vt 1.000000 0.600897
vt 0.360360 0.000000
vt 0.864865 0.179372
vt 0.144144 0.937220
vt 0.180180 0.000000
vt 0.540541 0.273543
vt 0.360360 0.937220
vt 0.558559 0.986547
vt 0.324324 0.937220
vt 0.252252 0.757848
vt 0.270270 0.757848
vt 1.000000 0.358744
vt 0.981982 0.632287
vt 0.180180 0.515695
vt 0.540540 0.000000
vt 0.576577 0.986547
vt 0.864865 0.134529
vt 0.720721 0.565023
vt 0.360360 0.515695
vt 0.558559 0.273543
vt 0.594595 0.273543
vt 0.684685 0.807175
vt 0.945946 0.358744
vt 0.594595 0.291480
vt 0.958896 0.000000
vt 0.976914 0.291480
vt 0.306306 1.000000
vt 0.270270 0.950673
vt 0.720721 0.807175
vt 0.864865 0.525224
vt 0.864865 0.767377
vt 0.940878 0.224215
vt 0.234234 0.757848
vt 0.378378 0.914798
vt 0.414414 0.825112
vt 0.864852 0.538119
vt 0.576557 0.807177
vt 0.720721 0.538117
vt 0.630631 0.950673
vt 0.612617 0.808379
vt 0.630630 0.807175
vt 0.612613 0.950673
vt 0.000000 0.000000
vt 1.000000 0.000000
vt 0.999994 0.999989
vt 0.000009 0.999991
vn 0.000000 0.000000 -1.000000
vn 0.000000 0.000000 -1.000000
vn 0.000000 0.000000 -1.000000
vn 0.000000 0.000000 1.000000
vn 0.000000 0.000000 1.000000
vn 0.000000 0.000000 1.000000
vn 1.000000 0.000000 0.000000
vn 1.000000 0.000000 0.000000
vn 1.000000 0.000000 0.000000
vn -1.000000 0.000000 0.000000
vn -1.000000 0.000000 0.000000
vn -1.000000 0.000000 0.000000
vn 0.000000 0.000000 -1.000000
vn 0.000000 0.000000 -1.000000
vn 0.000000 0.000000 -1.000000
vn 0.000000 0.000000 1.000000
vn 0.000000 0.000000 1.000000
vn 0.000000 0.000000 1.000000
vn 1.000000 0.000000 0.000000
vn 1.000000 0.000000 0.000000
vn 1.000000 0.000000 0.000000
vn -1.000000 0.000000 0.000000
vn -1.000000 0.000000 0.000000
vn -1.000000 0.000000 0.000000
vn 0.000000 0.000000 -1.000000
vn 0.000000 0.000000 -1.000000
vn 0.000000 0.000000 -1.000000
vn 0.000000 0.000000 1.000000
vn 0.000000 0.000000 1.000000
vn 0.000000 0.000000 1.000000
vn 0.001000 0.000000 1.000000
vn 0.001000 0.000000 1.000000
vn 0.001000 0.000000 1.000000
vn -0.001800 0.000000 0.999998
vn -0.001800 0.000000 0.999998
vn -0.001800 0.000000 0.999998
vn 1.000000 0.000000 0.000000
vn 1.000000 0.000000 0.000000
vn 1.000000 0.000000 0.000000
vn -0.001800 0.000000 0.999998
vn -0.001800 0.000000 0.999998
vn -0.001800 0.000000 0.999998
vn -1.000000 0.000000 0.000000
vn -1.000000 0.000000 0.000000
vn -1.000000 0.000000 0.000000
vn 0.000000 0.000000 1.000000
vn 0.000000 0.000000 1.000000
vn 0.000000 0.000000 1.000000
vn 0.000000 0.000000 1.000000
vn 0.000000 0.000000 1.000000
vn 0.000000 0.000000 1.000000
vn 1.000000 0.000000 0.000000
vn 1.000000 0.000000 0.000000
vn 1.000000 0.000000 0.000000
vn 0.000000 0.000000 -1.000000
vn 0.000000 0.000000 -1.000000
vn 0.000000 0.000000 -1.000000
vn 0.000000 0.000000 -1.000000
vn 0.000000 0.000000 -1.000000
vn 0.000000 0.000000 -1.000000
vn 0.000000 0.000000 1.000000
vn 0.000000 0.000000 1.000000
vn 0.000000 0.000000 1.000000
vn -1.000000 0.000000 0.000000
vn -1.000000 0.000000 0.000000
vn -1.000000 0.000000 0.000000
vn 0.001000 0.000000 1.000000
vn 0.001000 0.000000 1.000000
vn 0.001000 0.000000 1.000000
vn 0.000000 0.000000 -1.000000
vn 0.000000 0.000000 -1.000000
vn 0.000000 0.000000 -1.000000
vn -1.000000 0.000000 0.000000
vn -1.000000 0.000000 0.000000
vn -1.000000 0.000000 0.000000
vn 0.000000 0.000000 -1.000000
vn 0.000000 0.000000 -1.000000
vn 0.000000 0.000000 -1.000000
vn 0.000000 0.000000 -1.000000
vn 0.000000 0.000000 -1.000000
vn 0.000000 0.000000 -1.000000
vn 0.000000 0.000000 -1.000000
vn 0.000000 0.000000 -1.000000
vn 0.000000 0.000000 -1.000000
vn 0.000000 0.000000 1.000000
vn 0.000000 0.000000 1.000000
vn 0.000000 0.000000 1.000000
vn 0.000000 0.000000 -1.000000
vn 0.000000 0.000000 -1.000000
vn 0.000000 0.000000 -1.000000
vn -1.000000 0.000000 0.000000
vn -1.000000 0.000000 0.000000
vn -1.000000 0.000000 0.000000
vn -1.000000 0.000000 0.000000
vn -1.000000 0.000000 0.000000
vn -1.000000 0.000000 0.000000
vn -1.000000 0.000000 0.000000
vn -1.000000 0.000000 0.000000
vn -1.000000 0.000000 0.000000
vn 0.000000 0.000000 -1.000000
vn 0.000000 0.000000 -1.000000
vn 0.000000 0.000000 -1.000000
vn 1.000000 0.000000 0.000000
vn 1.000000 0.000000 0.000000
vn 1.000000 0.000000 0.000000
vn 1.000000 0.000000 0.000000
vn 1.000000 0.000000 0.000000
vn 1.000000 0.000000 0.000000
vn 0.000000 0.000000 -1.000000
vn 0.000000 0.000000 -1.000000
vn 0.000000 0.000000 -1.000000
vn -1.000000 0.000000 0.000000
vn -1.000000 0.000000 0.000000
vn -1.000000 0.000000 0.000000
vn -1.000000 0.000000 0.000000
vn -1.000000 0.000000 0.000000
vn -1.000000 0.000000 0.000000
vn -1.000000 0.000000 0.000000
vn -1.000000 0.000000 0.000000
vn -1.000000 0.000000 0.000000
vn 0.000000 0.000000 -1.000000
vn 0.000000 0.000000 -1.000000
vn 0.000000 0.000000 -1.000000
vn 0.000000 0.000000 -1.000000
vn 0.000000 0.000000 -1.000000
vn 0.000000 0.000000 -1.000000
vn 0.000000 0.000000 -1.000000
vn 0.000000 0.000000 -1.000000
vn 0.000000 0.000000 -1.000000
vn 0.000000 0.000000 -1.000000
vn 0.000000 0.000000 -1.000000
vn 0.000000 0.000000 -1.000000
vn 0.000000 0.000000 -1.000000
vn 0.000000 0.000000 -1.000000
vn 0.000000 0.000000 -1.000000
vn 1.000000 0.000000 0.000000
vn 1.000000 0.000000 0.000000
vn 1.000000 0.000000 0.000000
vn 1.000000 0.000000 0.000000
vn 1.000000 0.000000 0.000000
vn 1.000000 0.000000 0.000000
vn 1.000000 0.000000 0.000000
vn 1.000000 0.000000 0.000000
vn 1.000000 0.000000 0.000000
vn 1.000000 0.000000 0.000000
vn 1.000000 0.000000 0.000000
vn 1.000000 0.000000 0.000000
vn 0.000000 1.000000 0.000000
vn 0.000000 1.000000 0.000000
vn 0.000000 1.000000 0.000000
vn -1.000000 0.000000 0.000000
vn -1.000000 0.000000 0.000000
vn -1.000000 0.000000 0.000000
vn -1.000000 0.000000 0.000000
vn -1.000000 0.000000 0.000000
vn -1.000000 0.000000 0.000000
vn -1.000000 0.000000 0.000000
vn -1.000000 0.000000 0.000000
vn -1.000000 0.000000 0.000000
vn -1.000000 0.000000 0.000000
vn -1.000000 0.000000 0.000000
vn -1.000000 0.000000 0.000000
vn 0.000000 0.000000 1.000000
vn 0.000000 0.000000 1.000000
vn 0.000000 0.000000 1.000000
vn 0.000000 -1.000000 0.000000
vn 0.000000 -1.000000 0.000000
vn 0.000000 -1.000000 0.000000
vn 0.000000 0.000000 -1.000000
vn 0.000000 0.000000 -1.000000
vn 0.000000 0.000000 -1.000000
vn 0.000000 0.000000 1.000000
vn 0.000000 0.000000 1.000000
vn 0.000000 0.000000 1.000000
vn 0.000000 0.000000 1.000000
vn 0.000000 0.000000 1.000000
vn 0.000000 0.000000 1.000000
vn 0.000000 0.000000 -1.000000
vn 0.000000 0.000000 -1.000000
vn 0.000000 0.000000 -1.000000
vn 0.000000 0.000000 -1.000000
vn 0.000000 0.000000 -1.000000
vn 0.000000 0.000000 -1.000000
vn 0.000000 0.000000 1.000000
vn 0.000000 0.000000 1.000000
vn 0.000000 0.000000 1.000000
vn 0.001000 0.000000 1.000000
vn 0.001000 0.000000 1.000000
vn 0.001000 0.000000 1.000000
vn -0.001800 0.000000 0.999998
vn -0.001800 0.000000 0.999998
vn -0.001800 0.000000 0.999998
vn 1.000000 0.000000 0.000000
vn 1.000000 0.000000 0.000000
vn 1.000000 0.000000 0.000000
vn -0.001800 0.000000 0.999998
vn -0.001800 0.000000 0.999998
vn -0.001800 0.000000 0.999998
vn -1.000000 0.000000 0.000000
vn -1.000000 0.000000 0.000000
vn -1.000000 0.000000 0.000000
vn 0.000000 0.000000 1.000000
vn 0.000000 0.000000 1.000000
vn 0.000000 0.000000 1.000000
vn 0.000000 0.000000 1.000000
vn 0.000000 0.000000 1.000000
vn 0.000000 0.000000 1.000000
vn 1.000000 0.000000 0.000000
vn 1.000000 0.000000 0.000000
vn 1.000000 0.000000 0.000000
vn 0.000000 0.000000 -1.000000
vn 0.000000 0.000000 -1.000000
vn 0.000000 0.000000 -1.000000
vn 0.000000 0.000000 -1.000000
vn 0.000000 0.000000 -1.000000
vn 0.000000 0.000000 -1.000000
vn 0.000000 0.000000 1.000000
vn 0.000000 0.000000 1.000000
vn 0.000000 0.000000 1.000000
vn -1.000000 0.000000 0.000000
vn -1.000000 0.000000 0.000000
vn -1.000000 0.000000 0.000000
vn 0.001000 0.000000 1.000000
vn 0.001000 0.000000 1.000000
vn 0.001000 0.000000 1.000000
vn 0.000000 0.000000 -1.000000
vn 0.000000 0.000000 -1.000000
vn 0.000000 0.000000 -1.000000
vn -1.000000 0.000000 0.000000
vn -1.000000 0.000000 0.000000
vn -1.000000 0.000000 0.000000
vn 0.000000 0.000000 -1.000000
vn 0.000000 0.000000 -1.000000
vn 0.000000 0.000000 -1.000000
vn 0.000000 0.000000 -1.000000
vn 0.000000 0.000000 -1.000000
vn 0.000000 0.000000 -1.000000
vn 0.000000 0.000000 -1.000000
vn 0.000000 0.000000 -1.000000
vn 0.000000 0.000000 -1.000000
vn 0.000000 0.000000 1.000000
vn 0.000000 0.000000 1.000000
vn 0.000000 0.000000 1.000000
vn 0.000000 0.000000 -1.000000
vn 0.000000 0.000000 -1.000000
vn 0.000000 0.000000 -1.000000
vn -1.000000 0.000000 0.000000
vn -1.000000 0.000000 0.000000
vn -1.000000 0.000000 0.000000
vn -1.000000 0.000000 0.000000
vn -1.000000 0.000000 0.000000
vn -1.000000 0.000000 0.000000
vn -1.000000 0.000000 0.000000
vn -1.000000 0.000000 0.000000
vn -1.000000 0.000000 0.000000
vn 0.000000 0.000000 -1.000000
vn 0.000000 0.000000 -1.000000
vn 0.000000 0.000000 -1.000000
vn 1.000000 0.000000 0.000000
vn 1.000000 0.000000 0.000000
vn 1.000000 0.000000 0.000000
vn 1.000000 0.000000 0.000000
vn 1.000000 0.000000 0.000000
vn 1.000000 0.000000 0.000000
vn 0.000000 0.000000 -1.000000
vn 0.000000 0.000000 -1.000000
vn 0.000000 0.000000 -1.000000
vn -1.000000 0.000000 0.000000
vn -1.000000 0.000000 0.000000
vn -1.000000 0.000000 0.000000
vn -1.000000 0.000000 0.000000
vn -1.000000 0.000000 0.000000
vn -1.000000 0.000000 0.000000
vn -1.000000 0.000000 0.000000
vn -1.000000 0.000000 0.000000
vn -1.000000 0.000000 0.000000
vn 0.000000 0.000000 -1.000000
vn 0.000000 0.000000 -1.000000
vn 0.000000 0.000000 -1.000000
vn 0.000000 0.000000 -1.000000
vn 0.000000 0.000000 -1.000000
vn 0.000000 0.000000 -1.000000
vn 0.000000 0.000000 -1.000000
vn 0.000000 0.000000 -1.000000
vn 0.000000 0.000000 -1.000000
vn 0.000000 0.000000 -1.000000
vn 0.000000 0.000000 -1.000000
vn 0.000000 0.000000 -1.000000
vn 0.000000 0.000000 -1.000000
vn 0.000000 0.000000 -1.000000
vn 0.000000 0.000000 -1.000000
vn 1.000000 0.000000 0.000000
vn 1.000000 0.000000 0.000000
vn 1.000000 0.000000 0.000000
vn 1.000000 0.000000 0.000000
vn 1.000000 0.000000 0.000000
vn 1.000000 0.000000 0.000000
vn 1.000000 0.000000 0.000000
vn 1.000000 0.000000 0.000000
vn 1.000000 0.000000 0.000000
vn 1.000000 0.000000 0.000000
vn 1.000000 0.000000 0.000000
vn 1.000000 0.000000 0.000000
vn 0.000000 1.000000 0.000000
vn 0.000000 1.000000 0.000000
vn 0.000000 1.000000 0.000000
vn -1.000000 0.000000 0.000000
vn -1.000000 0.000000 0.000000
vn -1.000000 0.000000 0.000000
vn -1.000000 0.000000 0.000000
vn -1.000000 0.000000 0.000000
vn -1.000000 0.000000 0.000000
vn -1.000000 0.000000 0.000000
vn -1.000000 0.000000 0.000000
vn -1.000000 0.000000 0.000000
vn -1.000000 0.000000 0.000000
vn -1.000000 0.000000 0.000000
vn -1.000000 0.000000 0.000000
vn 0.000000 0.000000 1.000000
vn 0.000000 0.000000 1.000000
vn 0.000000 0.000000 1.000000
vn 0.000000 -1.000000 0.000000
vn 0.000000 -1.000000 0.000000
vn 0.000000 -1.000000 0.000000
vn 0.000000 0.000000 -1.000000
vn 0.000000 0.000000 -1.000000
vn 0.000000 0.000000 -1.000000
vn 0.000000 0.000000 1.000000
vn 0.000000 0.000000 1.000000
vn 0.000000 0.000000 1.000000
vn 0.000000 0.000000 1.000000
vn 0.000000 0.000000 1.000000
vn 0.000000 0.000000 1.000000
vn 0.000000 0.000000 -1.000000
vn 0.000000 0.000000 -1.000000
vn 0.000000 0.000000 -1.000000
vn 0.000000 -1.000000 0.000000
vn 0.000000 -1.000000 0.000000
vn 0.000000 -1.000000 0.000000
vn 0.000000 -1.000000 0.000000
vn 0.000000 -1.000000 0.000000
vn 0.000000 -1.000000 0.000000
vn 0.000000 -1.000000 0.000000
vn 0.000000 -1.000000 0.000000
vn 0.000000 -1.000000 0.000000
vn 0.000000 -1.000000 0.000000
s off
g initialShadingGroup Mesh
f 55/1/1 51/2/2 7/3/3
f 10/4/4 16/5/5 9/6/6
f 11/7/7 13/8/8 2/9/9
f 1/10/10 17/11/11 10/12/12
f 55/1/13 54/13/14 51/2/15
f 10/4/16 17/14/17 16/5/18
f 11/7/19 18/15/20 13/8/21
f 1/10/22 12/16/23 17/11/24
f 3/17/25 58/18/26 59/19/27
f 2/20/28 12/21/29 1/22/30
f 9/23/31 60/24/32 4/25/33
f 6/26/34 14/27/35 5/28/36
f 18/29/37 20/30/38 13/31/39
f 65/32/40 23/33/41 14/34/42
f 60/35/43 41/36/44 61/37/45
f 13/38/46 19/39/47 12/40/48
f 14/41/49 31/42/50 18/43/51
f 15/44/52 42/45/53 66/46/54
f 7/47/55 47/48/56 48/49/57
f 6/50/58 46/51/59 65/52/60
f 5/53/61 18/54/62 11/55/63
f 4/56/64 61/57/65 34/58/66
f 16/59/67 22/60/68 60/61/69
f 54/62/70 26/63/71 51/64/72
f 12/65/73 30/66/74 17/67/75
f 62/68/76 32/69/77 58/70/78
f 47/71/79 27/72/80 15/73/81
f 51/74/82 28/75/83 47/76/84
f 17/77/85 29/78/86 16/79/87
f 58/80/88 25/81/89 54/82/90
f 33/83/91 62/84/92 3/85/93
f 63/86/94 64/87/95 33/88/96
f 34/89/97 38/90/98 63/91/99
f 48/92/100 15/93/101 8/94/102
f 68/95/103 24/96/104 65/97/105
f 67/98/106 44/99/107 68/100/108
f 42/101/109 79/102/110 66/103/111
f 62/104/112 69/105/113 21/106/114
f 38/107/115 39/108/116 64/109/117
f 61/110/118 40/111/119 38/112/120
f 45/113/121 50/114/122 46/115/123
f 52/116/124 57/117/125 53/118/126
f 49/119/127 53/120/128 50/121/129
f 56/122/130 60/123/131 57/124/132
f 59/125/133 54/126/134 55/127/135
f 36/128/136 68/129/137 37/130/138
f 15/131/139 35/132/140 8/133/141
f 68/134/142 6/135/143 37/136/144
f 35/137/145 67/138/146 36/139/147
f 69/140/148 74/141/149 70/142/150
f 21/143/151 70/144/152 39/145/153
f 64/146/154 71/147/155 62/148/156
f 39/149/157 72/150/158 64/151/159
f 76/152/160 73/153/161 75/154/162
f 70/155/163 76/156/164 72/157/165
f 72/158/166 75/159/167 71/160/168
f 71/161/169 73/162/170 69/163/171
f 80/164/172 82/165/173 78/166/174
f 67/167/175 78/168/176 43/169/177
f 77/170/178 83/171/179 79/172/180
f 3/17/181 62/173/182 58/18/183
f 2/20/184 13/174/185 12/21/186
f 9/23/187 16/175/188 60/24/189
f 6/26/190 65/176/191 14/27/192
f 18/29/193 31/177/194 20/30/195
f 65/32/196 24/178/197 23/33/198
f 60/35/199 22/179/200 41/36/201
f 13/38/202 20/180/203 19/39/204
f 14/41/205 23/181/206 31/42/207
f 15/44/208 27/182/209 42/45/210
f 7/47/211 51/183/212 47/48/213
f 6/50/214 45/184/215 46/51/216
f 5/53/217 14/185/218 18/54/219
f 4/56/220 60/186/221 61/57/222
f 16/59/223 29/187/224 22/60/225
f 54/62/226 25/188/227 26/63/228
f 12/65/229 19/189/230 30/66/231
f 62/68/232 21/190/233 32/69/234
f 47/71/235 28/191/236 27/72/237
f 51/74/238 26/192/239 28/75/240
f 17/77/241 30/193/242 29/78/243
f 58/80/244 32/194/245 25/81/246
f 33/83/247 64/195/248 62/84/249
f 63/86/250 38/196/251 64/87/252
f 34/89/253 61/197/254 38/90/255
f 48/92/256 47/198/257 15/93/258
f 68/95/259 44/199/260 24/96/261
f 67/98/262 43/200/263 44/99/264
f 42/101/265 77/201/266 79/102/267
f 62/104/268 71/202/269 69/105/270
f 38/107/271 40/203/272 39/108/273
f 61/110/274 41/204/275 40/111/276
f 45/113/277 49/205/278 50/114/279
f 52/116/280 56/206/281 57/117/282
f 49/119/283 52/207/284 53/120/285
f 56/122/286 4/208/287 60/123/288
f 59/125/289 58/209/290 54/126/291
f 36/128/292 67/210/293 68/129/294
f 15/131/295 66/211/296 35/132/297
f 68/134/298 65/212/299 6/135/300
f 35/137/301 66/213/302 67/138/303
f 69/140/304 73/214/305 74/141/306
f 21/143/307 69/215/308 70/144/309
f 64/146/310 72/216/311 71/147/312
f 39/149/313 70/217/314 72/150/315
f 76/152/316 74/218/317 73/153/318
f 70/155/319 74/219/320 76/156/321
f 72/158/322 76/156/323 75/159/324
f 71/161/325 75/220/326 73/162/327
f 80/164/328 84/221/329 82/165/330
f 67/167/331 80/222/332 78/168/333
f 77/170/334 81/223/335 83/171/336
f 66/224/337 80/225/338 67/226/339
f 66/224/340 79/227/341 80/225/342
s 1
f 79/228/343 83/229/344 80/231/345
f 80/231/345 83/229/344 84/230/346
