# This file uses centimeters as units for non-parametric coordinates.

mtllib LVL3-Ceiling.mtl
g default
v 10.792108 2.689656 8.408269
v -10.792108 2.689656 8.408269
v 10.792108 2.689656 -15.440926
v -10.792108 2.689656 -15.440926
vt 0.000000 0.000000
vt 1.000000 0.000000
vt 1.000000 1.000000
vt 0.000000 1.000000
vn 0.000000 -1.000000 0.000000
vn 0.000000 -1.000000 0.000000
vn 0.000000 -1.000000 0.000000
vn 0.000000 -1.000000 0.000000
s 1
g initialShadingGroup LVL3_Ceiling:pPlane3
f 1/1/1 2/2/2 3/4/3
f 3/4/3 2/2/2 4/3/4
g default
v 10.792108 2.689656 8.408269
v -10.792108 2.689656 8.408269
v 10.792108 2.689656 -15.440926
v -10.792108 2.689656 -15.440926
vt 0.000000 0.000000
vt 1.000000 0.000000
vt 1.000000 1.000000
vt 0.000000 1.000000
vn 0.000000 -1.000000 0.000000
vn 0.000000 -1.000000 0.000000
vn 0.000000 -1.000000 0.000000
vn 0.000000 -1.000000 0.000000
s 1
g LVL3_Ceiling:pPlane3
f 5/5/5 6/6/6 7/8/7
f 7/8/7 6/6/6 8/7/8
