# Blender v2.76 (sub 0) OBJ File: ''
# www.blender.org
mtllib mmDoor.mtl
o Cube.022
v 0.600000 -0.000000 0.200000
v 0.500000 1.800000 0.200000
v -0.500000 1.800000 0.200000
v -0.600000 1.900000 -0.200000
v -0.500000 1.900000 -0.200000
v -0.600000 1.900000 0.200000
v -0.600000 -0.000000 0.200000
v -0.500000 1.800000 -0.200000
v -0.500000 0.000000 -0.200000
v -0.600000 1.800000 0.200000
v -0.500000 -0.000000 0.200000
v -0.600000 1.800000 -0.200000
v -0.600000 0.000000 -0.200000
v 0.600000 0.000000 -0.200000
v 0.500000 1.900000 0.200000
v 0.600000 1.800000 -0.200000
v -0.500000 1.900000 0.200000
v 0.500000 1.800000 -0.200000
v 0.500000 1.900000 -0.200000
v 0.600000 1.800000 0.200000
v 0.600000 1.900000 -0.200000
v 0.600000 1.900000 0.200000
v 0.500000 0.000000 -0.200000
v 0.500000 -0.000000 0.200000
vt 0.686902 0.031429
vt 0.686902 0.000239
vt 0.811663 0.000239
vt 0.561663 0.875000
vt 0.000239 0.875000
vt 0.000239 0.999761
vt 0.561663 0.000239
vt 0.000239 0.000239
vt 0.000239 0.031429
vt 0.811663 0.031429
vt 0.811663 0.592853
vt 0.686902 0.592853
vt 0.561663 0.406190
vt 0.000239 0.406190
vt 0.000239 0.375000
vt 0.593331 0.749283
vt 0.593331 0.718092
vt 0.718092 0.718092
vt 0.686424 0.031429
vt 0.686424 0.343331
vt 0.561663 0.343331
vt 0.967614 0.749761
vt 0.936424 0.749761
vt 0.936424 0.874522
vt 0.561663 0.375000
vt 0.592853 0.375000
vt 0.592853 0.406190
vt 0.561663 0.031429
vt 0.592853 0.031429
vt 0.592853 0.000239
vt 0.561663 0.374522
vt 0.592853 0.374522
vt 0.624522 0.749761
vt 0.624522 0.874522
vt 0.592853 0.343331
vt 0.592853 0.718092
vt 0.561663 0.718092
vt 0.561663 0.874522
vt 0.592853 0.874522
vt 0.592853 0.749761
vt 0.593331 0.749761
vt 0.593331 0.874522
vt 0.592853 0.749282
vt 0.561663 0.749282
vt 0.000239 0.343331
vt 0.000239 0.374522
vt 0.593331 0.717614
vt 0.593331 0.686424
vt 0.718092 0.686424
vt 0.561663 0.749761
vt 0.000239 0.749761
vt 0.000239 0.874522
vt 0.000239 0.749282
vt 0.000239 0.718092
vt 0.936902 0.000239
vt 0.936902 0.561663
vt 0.812141 0.561663
vt 0.561663 0.999761
vt 0.718092 0.749283
vt 0.967614 0.874522
vt 0.718092 0.717614
vt 0.812141 0.000239
vn 1.000000 0.000000 0.000000
vn -1.000000 0.000000 0.000000
vn 0.000000 0.000000 -1.000000
vn 0.000000 -0.000000 1.000000
vn 0.000000 -1.000000 -0.000000
vn 0.000000 1.000000 0.000000
usemtl None
s 1
f 16/1/1 21/2/1 22/3/1
f 18/4/2 23/5/2 24/6/2
f 16/7/3 14/8/3 23/9/3
f 20/10/1 1/11/1 14/12/1
f 2/13/4 24/14/4 1/15/4
f 23/16/5 14/17/5 1/18/5
f 2/19/5 3/20/5 8/21/5
f 21/22/6 19/23/6 15/24/6
f 20/25/4 22/26/4 15/27/4
f 18/28/3 19/29/3 21/30/3
f 8/21/3 12/31/3 4/32/3
f 19/23/6 5/33/6 17/34/6
f 18/28/3 8/21/3 5/35/3
f 15/27/4 17/36/4 3/37/4
f 10/38/2 6/39/2 4/40/2
f 5/33/6 4/41/6 6/42/6
f 17/36/4 6/43/4 10/44/4
f 8/21/3 9/45/3 13/46/3
f 11/47/5 7/48/5 13/49/5
f 12/50/2 13/51/2 7/52/2
f 10/44/4 7/53/4 11/54/4
f 3/55/1 11/56/1 9/57/1
f 2/58/2 18/4/2 24/6/2
f 18/28/3 16/7/3 23/9/3
f 16/1/1 20/10/1 14/12/1
f 20/25/4 2/13/4 1/15/4
f 24/59/5 23/16/5 1/18/5
f 18/28/5 2/19/5 8/21/5
f 22/60/6 21/22/6 15/24/6
f 2/13/4 20/25/4 15/27/4
f 16/7/3 18/28/3 21/30/3
f 20/10/1 16/1/1 22/3/1
f 5/35/3 8/21/3 4/32/3
f 15/24/6 19/23/6 17/34/6
f 19/29/3 18/28/3 5/35/3
f 2/13/4 15/27/4 3/37/4
f 12/50/2 10/38/2 4/40/2
f 17/34/6 5/33/6 6/42/6
f 3/37/4 17/36/4 10/44/4
f 12/31/3 8/21/3 13/46/3
f 9/61/5 11/47/5 13/49/5
f 10/38/2 12/50/2 7/52/2
f 3/37/4 10/44/4 11/54/4
f 8/62/1 3/55/1 9/57/1
