# Blender v2.76 (sub 0) OBJ File: ''
# www.blender.org
o Cube.022
v 0.500000 1.800000 0.200000
v 0.500000 1.800000 -0.200000
v 0.500000 0.000000 -0.200000
v 0.500000 -0.000000 0.200000
v 0.600000 1.800000 -0.200000
v 0.600000 0.000000 -0.200000
v 0.600000 1.800000 0.200000
v 0.600000 -0.000000 0.200000
v -0.500000 1.800000 0.200000
v -0.500000 1.800000 -0.200000
v 0.600000 1.900000 0.200000
v 0.600000 1.900000 -0.200000
v 0.500000 1.900000 -0.200000
v 0.500000 1.900000 0.200000
v -0.500000 1.900000 -0.200000
v -0.600000 1.800000 -0.200000
v -0.600000 1.900000 -0.200000
v -0.500000 1.900000 0.200000
v -0.600000 1.800000 0.200000
v -0.600000 1.900000 0.200000
v -0.500000 0.000000 -0.200000
v -0.600000 0.000000 -0.200000
v -0.500000 -0.000000 0.200000
v -0.600000 -0.000000 0.200000
vt 0.511304 0.436984
vt 0.024515 0.545160
vt 0.000476 0.436984
vt 0.998756 0.794708
vt 0.500091 0.794708
vt 0.500091 0.767005
vt 0.499140 0.877819
vt 0.000476 0.877819
vt 0.000476 0.767005
vt 0.499909 0.907383
vt 0.002013 0.935044
vt 0.000476 0.907383
vt 0.567912 0.439418
vt 0.594789 0.446137
vt 0.567912 0.553643
vt 0.810632 0.109603
vt 0.553411 0.212491
vt 0.512256 0.109603
vt 0.623569 0.439418
vt 0.650445 0.446137
vt 0.623569 0.553643
vt 0.620220 0.554594
vt 0.620220 0.582298
vt 0.592517 0.582298
vt 0.592517 0.610953
vt 0.592517 0.583250
vt 0.620220 0.583250
vt 0.679225 0.439418
vt 0.706101 0.446137
vt 0.679225 0.553643
vt 0.552386 0.574184
vt 0.571976 0.554594
vt 0.591565 0.574184
vt 0.798468 0.655239
vt 0.541247 0.758127
vt 0.500091 0.655239
vt 0.790673 0.382245
vt 0.515013 0.409811
vt 0.512256 0.382245
vt 0.789291 0.438466
vt 0.512256 0.438466
vt 0.512256 0.410763
vt 0.791240 0.550232
vt 0.763536 0.550232
vt 0.763536 0.439418
vt 0.707053 0.439418
vt 0.733929 0.446137
vt 0.707053 0.553643
vt 0.551435 0.575136
vt 0.531845 0.594725
vt 0.512256 0.575136
vt 0.998756 0.823364
vt 0.500091 0.823364
vt 0.500091 0.795660
vt 0.819329 0.436023
vt 0.791625 0.436023
vt 0.791625 0.325209
vt 0.511304 0.546112
vt 0.024515 0.654287
vt 0.000476 0.546112
vt 0.499909 0.878771
vt 0.002013 0.906432
vt 0.000476 0.878771
vt 0.499140 0.766053
vt 0.000476 0.766053
vt 0.000476 0.655239
vt 0.487265 0.327857
vt 0.511304 0.436033
vt 0.000476 0.436033
vt 0.999524 0.878771
vt 0.999524 0.906474
vt 0.500860 0.878771
vt 0.487265 0.218730
vt 0.511304 0.326906
vt 0.000476 0.326906
vt 0.498372 0.964609
vt 0.499908 0.992270
vt 0.000476 0.992270
vt 0.540084 0.546924
vt 0.566960 0.439418
vt 0.566960 0.553643
vt 0.789291 0.213443
vt 0.789291 0.324257
vt 0.512256 0.213443
vt 0.734881 0.550232
vt 0.734881 0.439418
vt 0.762584 0.550232
vt 0.571976 0.594725
vt 0.552386 0.575136
vt 0.591565 0.575136
vt 0.552386 0.623380
vt 0.552386 0.595677
vt 0.580090 0.623380
vt 0.651397 0.546924
vt 0.678273 0.439418
vt 0.678273 0.553643
vt 0.512256 0.623380
vt 0.512256 0.595677
vt 0.539959 0.623380
vt 0.769477 0.000476
vt 0.810632 0.103364
vt 0.512256 0.103364
vt 0.787917 0.353727
vt 0.790673 0.381293
vt 0.512256 0.381293
vt 0.787917 0.325209
vt 0.790673 0.352775
vt 0.512256 0.352775
vt 0.622617 0.446137
vt 0.595740 0.553643
vt 0.595740 0.439418
vt 0.790243 0.324257
vt 0.790243 0.213443
vt 0.817947 0.324257
vt 0.531845 0.554594
vt 0.551435 0.574184
vt 0.512256 0.574184
vt 0.998755 0.824315
vt 0.998755 0.852019
vt 0.500091 0.824315
vt 0.539132 0.446137
vt 0.512256 0.553643
vt 0.512256 0.439418
vt 0.487265 0.109603
vt 0.511304 0.217778
vt 0.000476 0.217778
vt 0.498372 0.935996
vt 0.499908 0.963657
vt 0.000476 0.963657
vt 0.487265 0.000476
vt 0.511304 0.108651
vt 0.000476 0.108651
vn -1.000000 0.000000 0.000000
vn 0.000000 0.000000 -1.000000
vn 1.000000 0.000000 0.000000
vn 0.000000 -0.000000 1.000000
vn 0.000000 -1.000000 -0.000000
vn 0.000000 1.000000 0.000000
s 1
f 2/1/1 3/2/1 4/3/1
f 5/4/2 6/5/2 3/6/2
f 7/7/3 8/8/3 6/9/3
f 1/10/4 4/11/4 8/12/4
f 3/13/5 6/14/5 8/15/5
f 1/16/5 9/17/5 10/18/5
f 12/19/6 13/20/6 14/21/6
f 7/22/4 11/23/4 14/24/4
f 2/25/2 13/26/2 12/27/2
f 5/28/3 12/29/3 11/30/3
f 10/31/2 16/32/2 17/33/2
f 13/34/6 15/35/6 18/36/6
f 2/37/2 10/38/2 15/39/2
f 14/40/4 18/41/4 9/42/4
f 19/43/1 20/44/1 17/45/1
f 15/46/6 17/47/6 20/48/6
f 18/49/4 20/50/4 19/51/4
f 10/52/2 21/53/2 22/54/2
f 23/55/5 24/56/5 22/57/5
f 16/58/1 22/59/1 24/60/1
f 19/61/4 24/62/4 23/63/4
f 9/64/3 23/65/3 21/66/3
f 1/67/1 2/68/1 4/69/1
f 2/70/2 5/71/2 3/72/2
f 5/73/3 7/74/3 6/75/3
f 7/76/4 1/77/4 8/78/4
f 4/79/5 3/80/5 8/81/5
f 2/82/5 1/83/5 10/84/5
f 11/85/6 12/86/6 14/87/6
f 1/88/4 7/89/4 14/90/4
f 5/91/2 2/92/2 12/93/2
f 7/94/3 5/95/3 11/96/3
f 15/97/2 10/98/2 17/99/2
f 14/100/6 13/101/6 18/102/6
f 13/103/2 2/104/2 15/105/2
f 1/106/4 14/107/4 9/108/4
f 16/109/1 19/110/1 17/111/1
f 18/112/6 15/113/6 20/114/6
f 9/115/4 18/116/4 19/117/4
f 16/118/2 10/119/2 22/120/2
f 21/121/5 23/122/5 22/123/5
f 19/124/1 16/125/1 24/126/1
f 9/127/4 19/128/4 23/129/4
f 10/130/3 9/131/3 21/132/3
