# This file uses centimeters as units for non-parametric coordinates.

mtllib mmRoomWalls.mtl
g default
v 5.000000 5.900001 5.000000
v -5.000000 5.900002 -5.000000
v 5.000000 5.900002 -5.000000
v -5.000000 5.900001 5.000000
v -5.000000 0.100000 -5.000000
v 5.000000 0.100000 -5.000000
v 5.000000 0.100000 5.000000
v -5.000000 0.100000 5.000000
v 5.100000 0.100001 -5.100000
v -5.100000 0.100001 -5.100000
v -5.100000 0.099999 5.100000
v 5.100000 6.000000 5.100001
v 5.100000 6.000000 -5.099999
v -5.100000 6.000000 -5.099999
v -5.100000 6.000000 5.100001
v 5.100000 0.099999 5.100000
vt 1.000000 0.210000
vt 1.000000 0.790000
vt -0.000000 0.790000
vt -0.000000 0.210000
vt -0.000000 0.790000
vt 1.000000 0.790000
vt -0.000000 0.210000
vt -0.000000 0.790000
vt 1.000000 0.790000
vt 1.000000 0.210000
vt 1.000000 0.790000
vt -0.000000 0.790000
vt -0.000000 0.210000
vt 1.000000 0.210000
vt 1.000000 0.210000
vt -0.000000 0.210000
vt 1.000000 0.210785
vt 0.000000 0.210785
vt 1.000000 0.210785
vt 0.000000 0.789216
vt 1.000000 0.789216
vt -0.000000 0.789216
vt 0.000000 0.210784
vt 1.000000 0.789216
vt 1.000000 0.210784
vt 1.000000 0.789216
vt 1.000000 0.210785
vt 0.000000 0.210784
vt -0.000000 0.789216
vt 1.000000 0.789216
vt 0.000000 0.789216
vt 0.000000 0.210784
vn 0.000000 0.000000 1.000000
vn 0.000000 0.000000 1.000000
vn 0.000000 0.000000 1.000000
vn -1.000000 0.000000 0.000000
vn -1.000000 0.000000 0.000000
vn -1.000000 0.000000 0.000000
vn 0.000000 0.000000 -1.000000
vn 0.000000 0.000000 -1.000000
vn 0.000000 0.000000 -1.000000
vn 1.000000 0.000000 0.000000
vn 1.000000 0.000000 0.000000
vn 1.000000 0.000000 0.000000
vn 0.000000 0.000000 1.000000
vn 0.000000 0.000000 1.000000
vn 0.000000 0.000000 1.000000
vn -1.000000 0.000000 0.000000
vn -1.000000 0.000000 0.000000
vn -1.000000 0.000000 0.000000
vn 0.000000 0.000000 -1.000000
vn 0.000000 0.000000 -1.000000
vn 0.000000 0.000000 -1.000000
vn 1.000000 0.000000 0.000000
vn 1.000000 0.000000 0.000000
vn 1.000000 0.000000 0.000000
vn 0.000000 0.000000 -1.000000
vn 0.000000 0.000000 -1.000000
vn 0.000000 0.000000 -1.000000
vn 0.000000 0.000000 -1.000000
vn 1.000000 0.000000 0.000000
vn 1.000000 0.000000 0.000000
vn 1.000000 0.000000 0.000000
vn 1.000000 0.000000 0.000000
vn -1.000000 -0.000000 0.000000
vn -1.000000 -0.000000 0.000000
vn -1.000000 -0.000000 0.000000
vn -1.000000 0.000000 0.000000
vn 0.000000 -0.000000 1.000000
vn 0.000000 -0.000000 1.000000
vn 0.000000 -0.000000 1.000000
vn 0.000000 -0.000000 1.000000
s off
g pasted__polySurface3 pasted__shittytop pasted__Mesh group
usemtl pasted__lambert4SG
f 6/1/1 3/2/2 2/3/3
f 7/4/4 1/5/5 3/6/6
f 8/7/7 4/8/8 1/9/9
f 5/10/10 2/11/11 4/12/12
f 5/13/13 6/1/14 2/3/15
f 6/15/16 7/4/17 3/6/18
f 7/14/19 8/7/20 1/9/21
f 8/16/22 5/10/23 4/12/24
s 1
f 9/17/25 10/18/26 13/24/27
f 13/24/27 10/18/26 14/20/28
s 2
f 9/19/29 13/21/30 16/23/31
f 16/23/31 13/21/30 12/22/32
s 3
f 10/27/33 11/28/34 14/30/35
f 14/30/35 11/28/34 15/29/36
s 4
f 16/25/37 12/26/38 11/32/39
f 11/32/39 12/26/38 15/31/40
