# This file uses centimeters as units for non-parametric coordinates.

mtllib PlaneCorrection.mtl
g default
v -0.500000 -0.000000 0.500000
v 0.500000 -0.000000 0.500000
v -0.500000 0.000000 -0.500000
v 0.500000 0.000000 -0.500000
vt -0.001209 0.000000
vt 1.001209 0.000000
vt -0.001209 1.000000
vt 1.001209 1.000000
vn 0.000000 1.000000 0.000000
vn 0.000000 1.000000 0.000000
vn 0.000000 1.000000 0.000000
vn 0.000000 1.000000 0.000000
s 1
g pPlane1
usemtl initialShadingGroup
f 1/1/1 2/2/2 3/3/3
f 3/3/3 2/2/2 4/4/4
