# This file uses centimeters as units for non-parametric coordinates.

mtllib SMButtonStand.mtl
g default
v 0.093727 0.020409 -0.093727
v 0.000000 0.020409 -0.132553
v 0.000000 0.020409 0.132553
v 0.093727 0.020409 0.093727
v 0.132553 0.020409 0.000000
v 0.125504 -0.004234 -0.125504
v 0.000000 -0.004234 -0.177490
v 0.000000 0.020409 -0.177490
v 0.125504 0.020409 -0.125504
v 0.000000 -0.004234 0.177490
v 0.000000 0.020409 0.177490
v 0.125504 -0.004234 0.125504
v 0.125504 0.020409 0.125504
v 0.177490 -0.004234 0.000000
v 0.177490 0.020409 -0.000000
v 0.062370 0.034126 -0.062370
v 0.088203 0.034126 -0.000000
v 0.062370 0.034126 0.062370
v 0.000000 0.034126 0.088203
v 0.000000 0.034126 -0.088203
v 0.093727 0.034126 -0.093727
v 0.132553 0.034126 0.000000
v 0.093727 0.034126 0.093727
v 0.000000 0.034126 0.132553
v 0.000000 0.034126 -0.132553
v 0.062370 1.282471 -0.062370
v 0.088203 1.305420 -0.000000
v 0.062370 1.328125 0.062370
v 0.000000 1.337646 0.088203
v -0.000000 1.272949 -0.088203
v 0.058121 1.283936 -0.058121
v 0.082199 1.305420 -0.000000
v -0.000000 1.275146 -0.082199
v 0.000000 1.335449 0.082199
v 0.058121 1.326660 0.058121
v 0.058121 1.306641 -0.058121
v 0.082199 1.328125 0.000000
v 0.000000 1.297852 -0.082199
v 0.000000 1.358154 0.082199
v 0.058121 1.349365 0.058121
v -0.125504 -0.004234 -0.125504
v -0.125504 0.020409 -0.125504
v -0.125504 -0.004234 0.125504
v -0.125504 0.020409 0.125504
v -0.177490 -0.004234 0.000000
v -0.177490 0.020409 0.000000
v -0.093727 0.020409 -0.093727
v -0.093727 0.020409 0.093727
v -0.132553 0.020409 0.000000
v -0.088203 0.034126 0.000000
v -0.062370 0.034126 -0.062370
v -0.062370 1.282471 -0.062370
v -0.088203 1.305420 -0.000000
v -0.062370 0.034126 0.062370
v -0.062370 1.328125 0.062370
v -0.132553 0.034126 0.000000
v -0.093727 0.034126 -0.093727
v -0.093727 0.034126 0.093727
v -0.058121 1.283936 -0.058121
v -0.082199 1.305420 -0.000000
v -0.058121 1.326660 0.058121
v -0.058121 1.306641 -0.058121
v -0.082199 1.328125 0.000000
v -0.058121 1.349365 0.058121
v 0.046047 1.311035 -0.046047
v 0.065125 1.328125 0.000000
v 0.000000 1.304199 -0.065125
v 0.046047 1.344971 0.046047
v 0.000000 1.352051 0.065125
v -0.065125 1.328125 0.000000
v -0.046047 1.311035 -0.046047
v -0.046047 1.344971 0.046047
vt 0.440278 0.810846
vt 0.440282 0.717813
vt 0.458549 0.717813
vt 0.458545 0.810846
vt 0.440289 0.345681
vt 0.440293 0.252648
vt 0.458560 0.252648
vt 0.458557 0.345681
vt 0.440281 0.159616
vt 0.458549 0.159614
vt 0.440270 0.066583
vt 0.458537 0.066581
vt 0.590527 0.043810
vt 0.523746 0.071474
vt 0.501105 0.048833
vt 0.590527 0.011792
vt 0.523746 0.205035
vt 0.590527 0.232699
vt 0.590527 0.264717
vt 0.501105 0.227676
vt 0.496082 0.138255
vt 0.464064 0.138255
vt 0.070552 0.979547
vt 0.024320 0.979241
vt 0.030435 0.053898
vt 0.076779 0.037193
vt 0.116785 0.979852
vt 0.123123 0.020668
vt 0.163017 0.980158
vt 0.169402 0.013916
vt 0.394179 0.981686
vt 0.347947 0.981380
vt 0.354015 0.063095
vt 0.400294 0.056343
vt 0.602776 0.575016
vt 0.584370 0.619455
vt 0.552771 0.619455
vt 0.580434 0.552675
vt 0.602776 0.663895
vt 0.580434 0.686236
vt 0.647215 0.682301
vt 0.647215 0.713900
vt 0.647215 0.556610
vt 0.647215 0.525011
vt 0.424319 0.066109
vt 0.424354 0.135587
vt 0.414185 0.135592
vt 0.414151 0.066114
vt 0.424389 0.205065
vt 0.414220 0.205070
vt 0.424425 0.274543
vt 0.414256 0.274548
vt 0.424356 0.552461
vt 0.424295 0.621939
vt 0.414127 0.621930
vt 0.414188 0.552452
vt 0.487779 0.473168
vt 0.506774 0.427307
vt 0.509898 0.430432
vt 0.492194 0.473168
vt 0.552635 0.408312
vt 0.552635 0.412727
vt 0.552635 0.538024
vt 0.506774 0.519029
vt 0.509898 0.515904
vt 0.552635 0.533609
vt 0.715190 0.891115
vt 0.671593 0.905579
vt 0.672161 0.888758
vt 0.715758 0.874293
vt 0.628314 0.910636
vt 0.628882 0.893815
vt 0.457581 0.860166
vt 0.414303 0.865235
vt 0.414866 0.848413
vt 0.458144 0.843344
vt 0.758780 0.876831
vt 0.759348 0.860010
vt 0.475337 0.330228
vt 0.493044 0.287486
vt 0.501923 0.296365
vt 0.487894 0.330228
vt 0.535786 0.269779
vt 0.535786 0.282335
vt 0.535786 0.390676
vt 0.493044 0.372969
vt 0.501923 0.364091
vt 0.535786 0.378120
vt 0.440286 0.624780
vt 0.458553 0.624780
vt 0.458553 0.438714
vt 0.440286 0.438714
vt 0.458553 0.531747
vt 0.440286 0.531747
vt 0.679948 0.048833
vt 0.657308 0.071474
vt 0.657308 0.205035
vt 0.679948 0.227676
vt 0.684971 0.138255
vt 0.716989 0.138255
vt 0.255482 0.980769
vt 0.261709 0.038415
vt 0.307829 0.055731
vt 0.301714 0.981074
vt 0.209249 0.980463
vt 0.215588 0.021279
vt 0.691654 0.575016
vt 0.713996 0.552675
vt 0.741660 0.619455
vt 0.710061 0.619455
vt 0.713996 0.686236
vt 0.691654 0.663895
vt 0.424417 0.482982
vt 0.414249 0.482976
vt 0.414270 0.413499
vt 0.424439 0.413503
vt 0.414292 0.344024
vt 0.424460 0.344022
vt 0.617491 0.473168
vt 0.613076 0.473168
vt 0.595371 0.430432
vt 0.598495 0.427307
vt 0.595371 0.515904
vt 0.598495 0.519029
vt 0.542951 0.885305
vt 0.543517 0.868483
vt 0.586042 0.885849
vt 0.585475 0.902670
vt 0.500986 0.851298
vt 0.500422 0.868120
vt 0.596235 0.330228
vt 0.583678 0.330228
vt 0.569649 0.296365
vt 0.578528 0.287486
vt 0.569649 0.364091
vt 0.578528 0.372969
vn 0.707107 -0.000000 -0.707107
vn 0.000000 0.000000 -1.000000
vn 0.707107 -0.000000 -0.707107
vn 0.000000 0.000000 -1.000000
vn 0.000000 0.000000 1.000000
vn 0.707107 0.000000 0.707107
vn 0.000000 0.000000 1.000000
vn 0.707107 0.000000 0.707107
vn 0.707107 0.000000 0.707107
vn 1.000000 -0.000000 0.000000
vn 0.707107 0.000000 0.707107
vn 1.000000 -0.000000 0.000000
vn 1.000000 -0.000000 0.000000
vn 0.707107 -0.000000 -0.707107
vn 1.000000 -0.000000 0.000000
vn 0.707107 -0.000000 -0.707107
vn 0.000000 1.000000 0.000000
vn 0.000000 1.000000 0.000000
vn 0.000000 1.000000 0.000000
vn 0.000000 1.000000 0.000000
vn 0.000000 1.000000 -0.000000
vn 0.000000 1.000000 -0.000000
vn 0.000000 1.000000 -0.000000
vn 0.000000 1.000000 -0.000000
vn 0.000000 1.000000 0.000000
vn 0.000000 1.000000 -0.000000
vn 0.000000 1.000000 0.000000
vn 0.000000 1.000000 -0.000000
vn 0.000000 1.000000 0.000000
vn 0.000000 1.000000 0.000000
vn 0.000000 1.000000 0.000000
vn 0.000000 1.000000 0.000000
vn 0.709004 -0.000000 -0.705205
vn 0.748742 -0.000000 -0.662862
vn 0.999993 -0.000000 0.003719
vn 0.996008 -0.000000 0.089260
vn 0.999993 -0.000000 0.003719
vn 0.996008 -0.000000 0.089260
vn 0.705276 0.000000 0.708933
vn 0.657811 0.000000 0.753183
vn 0.705276 0.000000 0.708933
vn 0.657811 0.000000 0.753183
vn 0.000000 0.000000 1.000000
vn 0.000000 0.000000 1.000000
vn 0.000000 0.000000 -1.000000
vn 0.000000 0.000000 -1.000000
vn 0.709004 -0.000000 -0.705205
vn 0.748742 -0.000000 -0.662862
vn 0.000000 1.000000 -0.000000
vn 0.000000 1.000000 -0.000000
vn 0.000000 1.000000 -0.000000
vn 0.000000 1.000000 -0.000000
vn 0.000000 1.000000 -0.000000
vn 0.000000 1.000000 0.000000
vn 0.000000 1.000000 -0.000000
vn 0.000000 1.000000 0.000000
vn 0.000000 1.000000 0.000000
vn 0.000000 1.000000 0.000000
vn 0.000000 1.000000 0.000000
vn 0.000000 1.000000 0.000000
vn 0.000000 1.000000 -0.000000
vn 0.000000 1.000000 -0.000000
vn 0.000000 1.000000 -0.000000
vn 0.000000 1.000000 -0.000000
vn 0.707107 0.000000 -0.707107
vn 1.000000 0.000000 0.000000
vn 0.707107 0.000000 -0.707107
vn 1.000000 0.000000 0.000000
vn 1.000000 0.000000 0.000000
vn 0.707107 0.000000 0.707107
vn 1.000000 0.000000 0.000000
vn 0.707107 0.000000 0.707107
vn 0.707107 0.000000 0.707107
vn 0.000000 0.000000 1.000000
vn 0.707107 0.000000 0.707107
vn 0.000000 0.000000 1.000000
vn 0.000000 0.000000 -1.000000
vn 0.707107 0.000000 -0.707107
vn 0.000000 0.000000 -1.000000
vn 0.707107 0.000000 -0.707107
vn -0.005516 0.940346 -0.340174
vn -0.005679 0.940277 -0.340364
vn -0.000675 0.939829 -0.341645
vn -0.000673 0.939829 -0.341645
vn 0.000000 0.941322 -0.337510
vn 0.000000 0.941322 -0.337510
vn -0.005516 0.940346 -0.340174
vn -0.005679 0.940277 -0.340364
vn 0.000000 0.941316 -0.337527
vn 0.004873 0.940843 -0.338808
vn 0.000000 0.941316 -0.337527
vn 0.004990 0.940809 -0.338900
vn 0.004873 0.940843 -0.338808
vn -0.000675 0.939829 -0.341645
vn 0.004990 0.940809 -0.338900
vn -0.000673 0.939829 -0.341645
vn 0.659260 0.000000 -0.751916
vn 0.746968 0.000000 -0.664860
vn 0.996302 0.000000 -0.085920
vn 0.996286 0.000000 0.086109
vn 0.000000 0.000000 -1.000000
vn 0.000000 0.000000 -1.000000
vn 0.659260 0.000000 -0.751916
vn 0.746968 0.000000 -0.664860
vn 0.746723 0.000000 0.665136
vn 0.659684 0.000000 0.751543
vn 0.000000 0.000000 1.000000
vn 0.000000 0.000000 1.000000
vn 0.996302 0.000000 -0.085920
vn 0.996286 0.000000 0.086109
vn 0.746723 0.000000 0.665136
vn 0.659684 0.000000 0.751543
vn -0.002098 0.938049 -0.346498
vn -0.002098 0.938049 -0.346498
vn -0.002098 0.938049 -0.346498
vn -0.002098 0.938049 -0.346498
vn 0.000000 0.938596 -0.345017
vn 0.000000 0.938596 -0.345017
vn 0.002150 0.938594 -0.345016
vn 0.002150 0.938594 -0.345016
vn -0.000000 0.940508 -0.339771
vn 0.002513 0.940505 -0.339770
vn -0.000000 0.940508 -0.339771
vn 0.002513 0.940505 -0.339770
vn 0.000544 0.939266 -0.343190
vn 0.000544 0.939266 -0.343190
vn 0.000544 0.939266 -0.343190
vn 0.000544 0.939266 -0.343190
vn -0.707107 0.000000 -0.707107
vn -0.707107 0.000000 -0.707107
vn 0.000000 0.000000 -1.000000
vn 0.000000 0.000000 -1.000000
vn 0.000000 0.000000 1.000000
vn 0.000000 0.000000 1.000000
vn -0.707107 0.000000 0.707107
vn -0.707107 0.000000 0.707107
vn -0.707107 0.000000 0.707107
vn -0.707107 0.000000 0.707107
vn -1.000000 0.000000 0.000000
vn -1.000000 0.000000 0.000000
vn -1.000000 0.000000 0.000000
vn -1.000000 0.000000 0.000000
vn -0.707107 0.000000 -0.707107
vn -0.707107 0.000000 -0.707107
vn 0.000000 1.000000 0.000000
vn 0.000000 1.000000 0.000000
vn 0.000000 1.000000 -0.000000
vn 0.000000 1.000000 -0.000000
vn 0.000000 1.000000 0.000000
vn 0.000000 1.000000 0.000000
vn 0.000000 1.000000 -0.000000
vn 0.000000 1.000000 -0.000000
vn 0.000000 1.000000 -0.000000
vn 0.000000 1.000000 -0.000000
vn 0.000000 1.000000 0.000000
vn 0.000000 1.000000 0.000000
vn 0.000000 1.000000 -0.000000
vn 0.000000 1.000000 -0.000000
vn 0.000000 1.000000 -0.000000
vn 0.000000 1.000000 -0.000000
vn -0.996008 0.000000 0.089260
vn -0.748742 0.000000 -0.662862
vn -0.999993 0.000000 0.003719
vn -0.709004 0.000000 -0.705205
vn -0.657811 0.000000 0.753183
vn -0.996008 0.000000 0.089260
vn -0.705276 0.000000 0.708933
vn -0.999993 0.000000 0.003719
vn 0.000000 0.000000 1.000000
vn -0.657811 0.000000 0.753183
vn 0.000000 0.000000 1.000000
vn -0.705276 0.000000 0.708933
vn -0.748742 0.000000 -0.662862
vn 0.000000 0.000000 -1.000000
vn -0.709004 0.000000 -0.705205
vn 0.000000 0.000000 -1.000000
vn 0.000000 1.000000 0.000000
vn 0.000000 1.000000 0.000000
vn 0.000000 1.000000 0.000000
vn 0.000000 1.000000 0.000000
vn 0.000000 1.000000 0.000000
vn 0.000000 1.000000 0.000000
vn 0.000000 1.000000 0.000000
vn 0.000000 1.000000 0.000000
vn 0.000000 1.000000 0.000000
vn 0.000000 1.000000 0.000000
vn 0.000000 1.000000 0.000000
vn 0.000000 1.000000 0.000000
vn 0.000000 1.000000 -0.000000
vn 0.000000 1.000000 -0.000000
vn 0.000000 1.000000 0.000000
vn 0.000000 1.000000 0.000000
vn -0.707107 0.000000 -0.707107
vn -0.707107 0.000000 -0.707107
vn -1.000000 0.000000 0.000000
vn -1.000000 0.000000 0.000000
vn -1.000000 0.000000 0.000000
vn -1.000000 0.000000 0.000000
vn -0.707107 0.000000 0.707107
vn -0.707107 0.000000 0.707107
vn -0.707107 0.000000 0.707107
vn -0.707107 0.000000 0.707107
vn 0.000000 0.000000 1.000000
vn 0.000000 0.000000 1.000000
vn 0.000000 0.000000 -1.000000
vn 0.000000 0.000000 -1.000000
vn -0.707107 0.000000 -0.707107
vn -0.707107 0.000000 -0.707107
vn 0.000673 0.939830 -0.341643
vn 0.005679 0.940278 -0.340362
vn 0.000675 0.939830 -0.341643
vn 0.005516 0.940347 -0.340172
vn 0.005679 0.940278 -0.340362
vn 0.000000 0.941322 -0.337510
vn 0.005516 0.940347 -0.340172
vn 0.000000 0.941322 -0.337510
vn 0.000000 0.941316 -0.337527
vn 0.000000 0.941316 -0.337527
vn -0.004873 0.940843 -0.338809
vn -0.004990 0.940809 -0.338900
vn -0.004873 0.940843 -0.338809
vn -0.004990 0.940809 -0.338900
vn 0.000675 0.939830 -0.341643
vn 0.000673 0.939830 -0.341643
vn -0.996286 0.000000 0.086109
vn -0.746968 0.000000 -0.664860
vn -0.996302 0.000000 -0.085920
vn -0.659260 0.000000 -0.751916
vn -0.746968 0.000000 -0.664860
vn 0.000000 0.000000 -1.000000
vn -0.659260 0.000000 -0.751916
vn 0.000000 0.000000 -1.000000
vn 0.000000 0.000000 1.000000
vn -0.659684 0.000000 0.751543
vn 0.000000 0.000000 1.000000
vn -0.746723 0.000000 0.665136
vn -0.659684 0.000000 0.751543
vn -0.996286 0.000000 0.086109
vn -0.746723 0.000000 0.665136
vn -0.996302 0.000000 -0.085920
vn 0.002098 0.938049 -0.346498
vn 0.002098 0.938049 -0.346498
vn 0.002098 0.938049 -0.346498
vn 0.002098 0.938049 -0.346498
vn -0.002150 0.938594 -0.345016
vn 0.000000 0.938596 -0.345017
vn -0.002150 0.938594 -0.345016
vn 0.000000 0.938596 -0.345017
vn -0.000000 0.940508 -0.339771
vn -0.000000 0.940508 -0.339771
vn -0.002513 0.940505 -0.339770
vn -0.002513 0.940505 -0.339770
vn -0.000544 0.939266 -0.343190
vn -0.000544 0.939266 -0.343190
vn -0.000544 0.939266 -0.343190
vn -0.000544 0.939266 -0.343190
s 1
g stand button_stand1
usemtl standSG1
f 6/1/1 7/2/2 9/4/3
f 9/4/3 7/2/2 8/3/4
s 2
f 10/5/5 12/6/6 11/8/7
f 11/8/7 12/6/6 13/7/8
s 3
f 12/6/9 14/9/10 13/7/11
f 13/7/11 14/9/10 15/10/12
s 4
f 14/9/13 6/11/14 15/10/15
f 15/10/15 6/11/14 9/12/16
s 5
f 2/13/17 1/14/18 8/16/19
f 8/16/19 1/14/18 9/15/20
s 6
f 4/17/21 3/18/22 13/20/23
f 13/20/23 3/18/22 11/19/24
s 7
f 5/21/25 4/17/26 15/22/27
f 15/22/27 4/17/26 13/20/28
s 8
f 1/14/29 5/21/30 9/15/31
f 9/15/31 5/21/30 15/22/32
s 9
f 16/24/33 26/25/34 17/23/35
f 17/23/35 26/25/34 27/26/36
s 10
f 17/23/37 27/26/38 18/27/39
f 18/27/39 27/26/38 28/28/40
s 11
f 18/27/41 28/28/42 19/29/43
f 19/29/43 28/28/42 29/30/44
s 12
f 20/32/45 30/33/46 16/31/47
f 16/31/47 30/33/46 26/34/48
s 13
f 16/35/49 17/36/50 21/38/51
f 21/38/51 17/36/50 22/37/52
s 14
f 17/36/53 18/39/54 22/37/55
f 22/37/55 18/39/54 23/40/56
s 15
f 18/39/57 19/41/58 23/40/59
f 23/40/59 19/41/58 24/42/60
s 16
f 20/43/61 16/35/62 25/44/63
f 25/44/63 16/35/62 21/38/64
s 17
f 21/45/65 22/46/66 1/48/67
f 1/48/67 22/46/66 5/47/68
s 18
f 22/46/69 23/49/70 5/47/71
f 5/47/71 23/49/70 4/50/72
s 19
f 23/49/73 24/51/74 4/50/75
f 4/50/75 24/51/74 3/52/76
s 20
f 25/53/77 21/54/78 2/56/79
f 2/56/79 21/54/78 1/55/80
s 21
f 26/58/81 31/59/82 27/57/83
f 27/57/83 31/59/82 32/60/84
s 22
f 30/61/85 33/62/86 26/58/87
f 26/58/87 33/62/86 31/59/88
s 23
f 29/63/89 28/64/90 34/66/91
f 34/66/91 28/64/90 35/65/92
s 24
f 28/64/93 27/57/94 35/65/95
f 35/65/95 27/57/94 32/60/96
s 25
f 31/68/97 36/69/98 32/67/99
f 32/67/99 36/69/98 37/70/100
s 26
f 33/71/101 38/72/102 31/68/103
f 31/68/103 38/72/102 36/69/104
s 27
f 35/74/105 40/75/106 34/73/107
f 34/73/107 40/75/106 39/76/108
s 28
f 32/67/109 37/70/110 35/77/111
f 35/77/111 37/70/110 40/78/112
s 29
f 36/80/113 65/81/114 37/79/115
f 37/79/115 65/81/114 66/82/116
s 30
f 38/83/117 67/84/118 36/80/119
f 36/80/119 67/84/118 65/81/120
s 31
f 39/85/121 40/86/122 69/88/123
f 69/88/123 40/86/122 68/87/124
s 32
f 40/86/125 37/79/126 68/87/127
f 68/87/127 37/79/126 66/82/128
s 33
f 41/89/129 42/90/130 7/2/131
f 7/2/131 42/90/130 8/3/132
s 34
f 10/5/133 11/8/134 43/92/135
f 43/92/135 11/8/134 44/91/136
s 35
f 43/92/137 44/91/138 45/94/139
f 45/94/139 44/91/138 46/93/140
s 36
f 45/94/141 46/93/142 41/89/143
f 41/89/143 46/93/142 42/90/144
s 37
f 2/13/145 8/16/146 47/96/147
f 47/96/147 8/16/146 42/95/148
s 38
f 48/97/149 44/98/150 3/18/151
f 3/18/151 44/98/150 11/19/152
s 39
f 49/99/153 46/100/154 48/97/155
f 48/97/155 46/100/154 44/98/156
s 40
f 47/96/157 42/95/158 49/99/159
f 49/99/159 42/95/158 46/100/160
s 41
f 53/102/161 52/103/162 50/101/163
f 50/101/163 52/103/162 51/104/164
s 42
f 55/106/165 53/102/166 54/105/167
f 54/105/167 53/102/166 50/101/168
s 43
f 29/30/169 55/106/170 19/29/171
f 19/29/171 55/106/170 54/105/172
s 44
f 52/103/173 30/33/174 51/104/175
f 51/104/175 30/33/174 20/32/176
s 45
f 51/107/177 57/108/178 50/110/179
f 50/110/179 57/108/178 56/109/180
s 46
f 50/110/181 56/109/182 54/112/183
f 54/112/183 56/109/182 58/111/184
s 47
f 54/112/185 58/111/186 19/41/187
f 19/41/187 58/111/186 24/42/188
s 48
f 20/43/189 25/44/190 51/107/191
f 51/107/191 25/44/190 57/108/192
s 49
f 57/113/193 47/114/194 56/116/195
f 56/116/195 47/114/194 49/115/196
s 50
f 56/116/197 49/115/198 58/118/199
f 58/118/199 49/115/198 48/117/200
s 51
f 58/118/201 48/117/202 24/51/203
f 24/51/203 48/117/202 3/52/204
s 52
f 25/53/205 2/56/206 57/113/207
f 57/113/207 2/56/206 47/114/208
s 53
f 60/120/209 59/121/210 53/119/211
f 53/119/211 59/121/210 52/122/212
s 54
f 59/121/213 33/62/214 52/122/215
f 52/122/215 33/62/214 30/61/216
s 55
f 29/63/217 34/66/218 55/124/219
f 55/124/219 34/66/218 61/123/220
s 56
f 55/124/221 61/123/222 53/119/223
f 53/119/223 61/123/222 60/120/224
s 57
f 63/126/225 62/127/226 60/125/227
f 60/125/227 62/127/226 59/128/228
s 58
f 62/127/229 38/72/230 59/128/231
f 59/128/231 38/72/230 33/71/232
s 59
f 39/76/233 64/129/234 34/73/235
f 34/73/235 64/129/234 61/130/236
s 60
f 64/129/237 63/126/238 61/130/239
f 61/130/239 63/126/238 60/125/240
s 61
f 70/132/241 71/133/242 63/131/243
f 63/131/243 71/133/242 62/134/244
s 62
f 71/133/245 67/84/246 62/134/247
f 62/134/247 67/84/246 38/83/248
s 63
f 39/85/249 69/88/250 64/136/251
f 64/136/251 69/88/250 72/135/252
s 64
f 64/136/253 72/135/254 63/131/255
f 63/131/255 72/135/254 70/132/256
