# This file uses centimeters as units for non-parametric coordinates.

mtllib SMButton.mtl
g SMButton:default1
v 0.046047 -0.029663 -0.046047
v 0.065125 -0.012573 0.000000
v 0.000000 -0.036499 -0.065125
v 0.000000 0.011353 0.065125
v 0.046047 0.004273 0.046047
v 0.000000 0.036499 0.000000
v 0.043076 0.032837 -0.043076
v 0.046047 0.023804 -0.046047
v 0.036419 0.036499 -0.036419
v 0.060921 0.032837 0.000000
v 0.065125 0.023804 0.000000
v 0.051506 0.036499 0.000000
v 0.000000 0.032837 -0.060921
v 0.000000 0.023804 -0.065125
v 0.000000 0.036499 -0.051506
v 0.000000 0.032837 0.060921
v 0.000000 0.023804 0.065125
v 0.000000 0.036499 0.051506
v 0.043076 0.032837 0.043076
v 0.046047 0.023804 0.046047
v 0.036419 0.036499 0.036419
v -0.046047 -0.029663 -0.046047
v -0.065125 -0.012573 0.000000
v -0.046047 0.004273 0.046047
v -0.046047 0.023804 -0.046047
v -0.043076 0.032837 -0.043076
v -0.060921 0.032837 0.000000
v -0.065125 0.023804 0.000000
v -0.036419 0.036499 -0.036419
v -0.051506 0.036499 0.000000
v -0.043076 0.032837 0.043076
v -0.046047 0.023804 0.046047
v -0.036419 0.036499 0.036419
vt 0.535183 0.695315
vt 0.541920 0.695258
vt 0.542206 0.729599
vt 0.535469 0.729655
vt 0.564027 0.114146
vt 0.569129 0.119277
vt 0.558375 0.145215
vt 0.551137 0.145188
vt 0.595066 0.101304
vt 0.595066 0.108520
vt 0.534898 0.660974
vt 0.541635 0.660918
vt 0.542492 0.763938
vt 0.535755 0.763995
vt 0.569116 0.171166
vt 0.563983 0.176268
vt 0.595067 0.181901
vt 0.595067 0.189164
vt 0.542787 0.798277
vt 0.536050 0.798335
vt 0.508340 0.729881
vt 0.495309 0.695646
vt 0.489926 0.661347
vt 0.526764 0.798415
vt 0.521189 0.764119
vt 0.595067 0.145217
vt 0.534613 0.626633
vt 0.534328 0.592292
vt 0.541065 0.592236
vt 0.541350 0.626577
vt 0.626106 0.114146
vt 0.638996 0.145188
vt 0.631758 0.145215
vt 0.621004 0.119277
vt 0.534042 0.557951
vt 0.540798 0.560111
vt 0.626150 0.176268
vt 0.621017 0.171166
vt 0.543063 0.830402
vt 0.536346 0.832676
vt 0.507199 0.592517
vt 0.494739 0.626964
vt 0.521780 0.832801
vt 0.519476 0.558072
vn 0.675389 0.061921 -0.734857
vn 0.528562 0.664259 -0.528566
vn 0.993519 0.081848 -0.078869
vn 0.993519 0.081848 -0.078869
vn 0.528562 0.664259 -0.528566
vn 0.747501 0.664260 -0.000002
vn 0.528562 0.664259 -0.528566
vn 0.107637 0.988346 -0.107638
vn 0.747501 0.664260 -0.000002
vn 0.747501 0.664260 -0.000002
vn 0.107637 0.988346 -0.107638
vn 0.152227 0.988346 -0.000001
vn 0.107637 0.988346 -0.107638
vn 0.528562 0.664259 -0.528566
vn 0.000000 0.988345 -0.152228
vn 0.000000 0.988345 -0.152228
vn 0.528562 0.664259 -0.528566
vn -0.000000 0.664259 -0.747503
vn 0.528562 0.664259 -0.528566
vn 0.675389 0.061921 -0.734857
vn -0.000000 0.664259 -0.747503
vn -0.000000 0.664259 -0.747503
vn 0.675389 0.061921 -0.734857
vn -0.000000 0.056267 -0.998416
vn 0.993519 0.081848 -0.078869
vn 0.747501 0.664260 -0.000002
vn 0.757619 0.121038 0.641377
vn 0.757619 0.121038 0.641377
vn 0.747501 0.664260 -0.000002
vn 0.528562 0.664260 0.528565
vn 0.747501 0.664260 -0.000002
vn 0.152227 0.988346 -0.000001
vn 0.528562 0.664260 0.528565
vn 0.528562 0.664260 0.528565
vn 0.152227 0.988346 -0.000001
vn 0.107638 0.988346 0.107637
vn 0.000000 0.988345 0.152229
vn 0.000000 0.664258 0.747503
vn 0.107638 0.988346 0.107637
vn 0.107638 0.988346 0.107637
vn 0.000000 0.664258 0.747503
vn 0.528562 0.664260 0.528565
vn 0.000000 0.664258 0.747503
vn 0.000000 0.151305 0.988487
vn 0.528562 0.664260 0.528565
vn 0.528562 0.664260 0.528565
vn 0.000000 0.151305 0.988487
vn 0.757619 0.121038 0.641377
vn 0.623905 0.000000 -0.781500
vn 0.675389 0.061921 -0.734857
vn 0.985129 0.000000 -0.171818
vn 0.985129 0.000000 -0.171818
vn 0.675389 0.061921 -0.734857
vn 0.993519 0.081848 -0.078869
vn 0.000000 0.000000 -1.000000
vn -0.000000 0.056267 -0.998416
vn 0.623905 0.000000 -0.781500
vn 0.623905 0.000000 -0.781500
vn -0.000000 0.056267 -0.998416
vn 0.675389 0.061921 -0.734857
vn 0.812557 0.000000 0.582882
vn 0.757619 0.121038 0.641377
vn 0.000000 0.000000 1.000000
vn 0.000000 0.000000 1.000000
vn 0.757619 0.121038 0.641377
vn 0.000000 0.151305 0.988487
vn 0.985129 0.000000 -0.171818
vn 0.993519 0.081848 -0.078869
vn 0.812557 0.000000 0.582882
vn 0.812557 0.000000 0.582882
vn 0.993519 0.081848 -0.078869
vn 0.757619 0.121038 0.641377
vn 0.152227 0.988346 -0.000001
vn 0.107637 0.988346 -0.107638
vn 0.000000 1.000000 0.000000
vn 0.107637 0.988346 -0.107638
vn 0.000000 0.988345 -0.152228
vn 0.000000 1.000000 0.000000
vn 0.000000 0.988345 0.152229
vn 0.107638 0.988346 0.107637
vn 0.000000 1.000000 0.000000
vn 0.107638 0.988346 0.107637
vn 0.152227 0.988346 -0.000001
vn 0.000000 1.000000 0.000000
vn -0.675390 0.061921 -0.734857
vn -0.993519 0.081848 -0.078869
vn -0.528563 0.664260 -0.528565
vn -0.528563 0.664260 -0.528565
vn -0.993519 0.081848 -0.078869
vn -0.747501 0.664260 -0.000000
vn -0.528563 0.664260 -0.528565
vn -0.747501 0.664260 -0.000000
vn -0.107637 0.988346 -0.107639
vn -0.107637 0.988346 -0.107639
vn -0.747501 0.664260 -0.000000
vn -0.152227 0.988346 -0.000001
vn -0.107637 0.988346 -0.107639
vn 0.000000 0.988345 -0.152228
vn -0.528563 0.664260 -0.528565
vn -0.528563 0.664260 -0.528565
vn 0.000000 0.988345 -0.152228
vn -0.000000 0.664259 -0.747503
vn -0.528563 0.664260 -0.528565
vn -0.000000 0.664259 -0.747503
vn -0.675390 0.061921 -0.734857
vn -0.675390 0.061921 -0.734857
vn -0.000000 0.664259 -0.747503
vn -0.000000 0.056267 -0.998416
vn -0.993519 0.081848 -0.078869
vn -0.757619 0.121038 0.641376
vn -0.747501 0.664260 -0.000000
vn -0.747501 0.664260 -0.000000
vn -0.757619 0.121038 0.641376
vn -0.528562 0.664260 0.528565
vn -0.747501 0.664260 -0.000000
vn -0.528562 0.664260 0.528565
vn -0.152227 0.988346 -0.000001
vn -0.152227 0.988346 -0.000001
vn -0.528562 0.664260 0.528565
vn -0.107637 0.988346 0.107638
vn 0.000000 0.988345 0.152229
vn -0.107637 0.988346 0.107638
vn 0.000000 0.664258 0.747503
vn 0.000000 0.664258 0.747503
vn -0.107637 0.988346 0.107638
vn -0.528562 0.664260 0.528565
vn 0.000000 0.664258 0.747503
vn -0.528562 0.664260 0.528565
vn 0.000000 0.151305 0.988487
vn 0.000000 0.151305 0.988487
vn -0.528562 0.664260 0.528565
vn -0.757619 0.121038 0.641376
vn -0.993519 0.081848 -0.078869
vn -0.675390 0.061921 -0.734857
vn -0.985129 0.000000 -0.171818
vn -0.985129 0.000000 -0.171818
vn -0.675390 0.061921 -0.734857
vn -0.623905 0.000000 -0.781500
vn -0.675390 0.061921 -0.734857
vn -0.000000 0.056267 -0.998416
vn -0.623905 0.000000 -0.781500
vn -0.623905 0.000000 -0.781500
vn -0.000000 0.056267 -0.998416
vn 0.000000 0.000000 -1.000000
vn 0.000000 0.151305 0.988487
vn -0.757619 0.121038 0.641376
vn 0.000000 0.000000 1.000000
vn 0.000000 0.000000 1.000000
vn -0.757619 0.121038 0.641376
vn -0.812557 0.000000 0.582882
vn -0.757619 0.121038 0.641376
vn -0.993519 0.081848 -0.078869
vn -0.812557 0.000000 0.582882
vn -0.812557 0.000000 0.582882
vn -0.993519 0.081848 -0.078869
vn -0.985129 0.000000 -0.171818
vn -0.152227 0.988346 -0.000001
vn 0.000000 1.000000 0.000000
vn -0.107637 0.988346 -0.107639
vn -0.107637 0.988346 -0.107639
vn 0.000000 1.000000 0.000000
vn 0.000000 0.988345 -0.152228
vn 0.000000 0.988345 0.152229
vn 0.000000 1.000000 0.000000
vn -0.107637 0.988346 0.107638
vn -0.107637 0.988346 0.107638
vn 0.000000 1.000000 0.000000
vn -0.152227 0.988346 -0.000001
s off
g SMButton:button SMButton:button_stand1 initialShadingGroup SMButton:polySurface1
f 8/1/1 7/2/2 11/4/3
f 11/4/4 7/2/5 10/3/6
f 7/5/7 9/6/8 10/8/9
f 10/8/10 9/6/11 12/7/12
f 9/6/13 7/5/14 15/10/15
f 15/10/16 7/5/17 13/9/18
f 7/2/19 8/1/20 13/12/21
f 13/12/22 8/1/23 14/11/24
f 11/4/25 10/3/26 20/14/27
f 20/14/28 10/3/29 19/13/30
f 10/8/31 12/7/32 19/16/33
f 19/16/34 12/7/35 21/15/36
f 18/17/37 16/18/38 21/15/39
f 21/15/40 16/18/41 19/16/42
f 16/19/43 17/20/44 19/13/45
f 19/13/46 17/20/47 20/14/48
f 1/22/49 8/1/50 2/21/51
f 2/21/52 8/1/53 11/4/54
f 3/23/55 14/11/56 1/22/57
f 1/22/58 14/11/59 8/1/60
f 5/25/61 20/14/62 4/24/63
f 4/24/64 20/14/65 17/20/66
f 2/21/67 11/4/68 5/25/69
f 5/25/70 11/4/71 20/14/72
f 12/7/73 9/6/74 6/26/75
f 9/6/76 15/10/77 6/26/78
f 18/17/79 21/15/80 6/26/81
f 21/15/82 12/7/83 6/26/84
f 25/27/85 28/28/86 26/30/87
f 26/30/88 28/28/89 27/29/90
f 26/31/91 27/32/92 29/34/93
f 29/34/94 27/32/95 30/33/96
f 29/34/97 15/10/98 26/31/99
f 26/31/100 15/10/101 13/9/102
f 26/30/103 13/12/104 25/27/105
f 25/27/106 13/12/107 14/11/108
f 28/28/109 32/35/110 27/29/111
f 27/29/112 32/35/113 31/36/114
f 27/32/115 31/37/116 30/33/117
f 30/33/118 31/37/119 33/38/120
f 18/17/121 33/38/122 16/18/123
f 16/18/124 33/38/125 31/37/126
f 16/19/127 31/39/128 17/20/129
f 17/20/130 31/39/131 32/40/132
f 28/28/133 25/27/134 23/41/135
f 23/41/136 25/27/137 22/42/138
f 25/27/139 14/11/140 22/42/141
f 22/42/142 14/11/143 3/23/144
f 17/20/145 32/40/146 4/24/147
f 4/24/148 32/40/149 24/43/150
f 32/35/151 28/28/152 24/44/153
f 24/44/154 28/28/155 23/41/156
f 30/33/157 6/26/158 29/34/159
f 29/34/160 6/26/161 15/10/162
f 18/17/163 6/26/164 33/38/165
f 33/38/166 6/26/167 30/33/168
