# Blender v2.77 (sub 0) OBJ File: 'nthdimensional.blend'
# www.blender.org
mtllib TimeIndicatorLine.mtl
o Circle
v 0.000000 -0.659102 -0.715658
v -0.299100 -0.605230 -0.656323
v -0.518057 -0.458046 -0.494214
v 0.518057 -0.458046 -0.494214
v 0.299101 -0.605229 -0.656322
v 0.000000 -0.699314 -0.759947
v -0.329010 -0.640054 -0.694678
v -0.569863 -0.478152 -0.516359
v 0.569863 -0.478152 -0.516358
v 0.329011 -0.640053 -0.694678
v 0.000000 -0.651699 -0.722380
v -0.299100 -0.597826 -0.663045
v -0.518057 -0.450643 -0.500936
v 0.518057 -0.450642 -0.500936
v 0.299101 -0.597826 -0.663045
v 0.000000 -0.691910 -0.766669
v -0.329010 -0.632650 -0.701400
v -0.569863 -0.470748 -0.523081
v 0.569863 -0.470748 -0.523080
v 0.329011 -0.632650 -0.701400
v 0.509397 -0.462089 -0.483790
v 0.578524 -0.488916 -0.513338
v 0.509397 -0.439878 -0.503956
v 0.578524 -0.466705 -0.533504
v 0.514397 -0.456267 -0.477378
v 0.583524 -0.483095 -0.506926
v 0.514397 -0.434056 -0.497544
v 0.583524 -0.460884 -0.527093
v -0.578523 -0.488916 -0.513338
v -0.509397 -0.462089 -0.483790
v -0.578523 -0.466705 -0.533504
v -0.509397 -0.439878 -0.503956
v -0.583523 -0.483095 -0.506927
v -0.514397 -0.456267 -0.477379
v -0.514397 -0.434056 -0.497545
v -0.583523 -0.460884 -0.527093
vt 0.734082 0.046815
vt 0.734039 0.000058
vt 0.999941 0.009446
vt 0.986263 0.054126
vt 0.234505 0.043953
vt 0.232954 0.002655
vt 0.476790 0.000102
vt 0.477773 0.043565
vt 0.010627 0.046090
vt 0.000058 0.009446
vt 0.733888 0.054749
vt 0.986057 0.061591
vt 0.997769 0.110544
vt 0.731879 0.103070
vt 0.234528 0.051231
vt 0.477708 0.051015
vt 0.476618 0.096048
vt 0.233954 0.092442
vt 0.010674 0.052715
vt 0.000226 0.089780
vt 0.089346 0.226022
vt 0.089580 0.266501
vt 0.081464 0.269856
vt 0.082683 0.222368
vt 0.233869 0.099736
vt 0.000132 0.097254
vt 0.997545 0.118349
vt 0.731674 0.110713
vt 0.476465 0.103665
vt 0.096494 0.270581
vt 0.094611 0.279958
vt 0.196873 0.198274
vt 0.212458 0.159277
vt 0.220220 0.158578
vt 0.200787 0.207399
vt 0.207277 0.153810
vt 0.161595 0.154134
vt 0.157497 0.144631
vt 0.211352 0.146206
vt 0.093768 0.287672
vt 0.074468 0.274566
vt 0.074468 0.218151
vt 0.155448 0.261847
vt 0.157680 0.269854
vt 0.099538 0.210480
vt 0.094730 0.203726
vt 0.142779 0.254807
vt 0.096575 0.223012
vt 0.174948 0.213711
vt 0.174948 0.236471
vt 0.114391 0.236471
vt 0.114391 0.213711
vt 0.153231 0.137068
vt 0.216143 0.137068
vt 0.227300 0.157861
vt 0.141539 0.164283
vt 0.134544 0.158055
vt 0.209132 0.210494
vt 0.156865 0.162648
vt 0.175165 0.197716
vt 0.114608 0.197716
vt 0.114608 0.174956
vt 0.175165 0.174956
vn 0.000000 -0.740400 0.672200
vn -0.000000 0.740400 -0.672200
vn -0.500000 -0.582100 -0.641200
vn -0.707100 -0.475300 -0.523500
vn 0.707100 -0.475300 -0.523500
vn 0.258800 0.649300 0.715100
vn 0.258800 -0.649300 -0.715100
vn 0.707100 0.475300 0.523500
vn -0.707100 0.475300 0.523500
vn -0.258800 0.649300 0.715100
vn -0.258800 -0.649300 -0.715100
vn 0.500000 -0.582100 -0.641200
vn -0.866000 0.336100 0.370200
vn 0.866000 -0.336100 -0.370200
vn 0.500000 0.582100 0.641200
vn 0.866000 0.336100 0.370200
vn -0.866000 -0.336100 -0.370200
vn -0.500000 0.582100 0.641200
usemtl None
s off
f 5/1/1 10/2/1 9/3/1 4/4/1
f 2/5/1 7/6/1 6/7/1 1/8/1
f 1/8/1 6/7/1 10/2/1 5/1/1
f 3/9/1 8/10/1 7/6/1 2/5/1
f 15/11/2 14/12/2 19/13/2 20/14/2
f 12/15/2 11/16/2 16/17/2 17/18/2
f 11/16/2 15/11/2 20/14/2 16/17/2
f 13/19/2 12/15/2 17/18/2 18/20/2
f 19/21/3 14/22/3 23/23/3 24/24/3
f 7/25/4 8/26/4 18/20/4 17/18/4
f 9/27/5 10/28/5 20/14/5 19/13/5
f 2/5/6 1/8/6 11/16/6 12/15/6
f 10/28/7 6/29/7 16/17/7 20/14/7
f 3/9/8 2/5/8 12/15/8 13/19/8
f 5/1/9 4/4/9 14/12/9 15/11/9
f 1/8/10 5/1/10 15/11/10 11/16/10
f 6/29/11 7/25/11 17/18/11 16/17/11
f 14/22/3 4/30/3 21/31/3 23/23/3
f 8/32/12 3/33/12 30/34/12 29/35/12
f 13/36/12 18/37/12 31/38/12 32/39/12
f 23/23/13 21/31/13 25/40/13 27/41/13
f 24/24/2 23/23/2 27/41/2 28/42/2
f 21/31/1 22/43/1 26/44/1 25/40/1
f 22/45/14 24/24/14 28/42/14 26/46/14
f 4/30/3 9/47/3 22/43/3 21/31/3
f 9/48/3 19/21/3 24/24/3 22/45/3
f 26/49/15 28/50/15 27/51/15 25/52/15
f 32/39/2 31/38/2 36/53/2 35/54/2
f 30/34/16 32/39/16 35/54/16 34/55/16
f 31/38/17 29/56/17 33/57/17 36/53/17
f 29/35/1 30/34/1 34/55/1 33/58/1
f 18/37/12 8/59/12 29/56/12 31/38/12
f 3/33/12 13/36/12 32/39/12 30/34/12
f 35/60/18 36/61/18 33/62/18 34/63/18
