# Blender v2.76 (sub 0) OBJ File: ''
# www.blender.org
mtllib TimeIndicator.mtl
o Circle.001
v 0.523138 -0.476149 -0.407350
v 0.494963 -0.466137 -0.217396
v 0.494958 -0.476138 -0.217396
v 0.535138 -0.476153 -0.621772
v 0.531485 -0.466151 -0.558375
v 0.531480 -0.476151 -0.558375
v 0.523143 -0.466149 -0.407350
v 0.495703 -0.486134 -0.674355
v 0.535128 -0.496153 -0.621773
v 0.495698 -0.496134 -0.674355
v 0.495707 -0.476135 -0.674355
v 0.535143 -0.466153 -0.621772
v 0.456109 -0.466117 -0.621903
v 0.459559 -0.466119 -0.558492
v 0.467405 -0.466123 -0.407442
v 0.495712 -0.466134 -0.674355
v 0.459554 -0.476118 -0.558492
v 0.535133 -0.486153 -0.621772
v 0.531471 -0.496151 -0.558375
v 0.531476 -0.486151 -0.558375
v 0.523129 -0.496149 -0.407350
v 0.459550 -0.486118 -0.558493
v 0.456105 -0.476116 -0.621903
v 0.456100 -0.486116 -0.621903
v 0.523134 -0.486149 -0.407350
v 0.456095 -0.496117 -0.621903
v 0.494954 -0.486137 -0.217396
v 0.467396 -0.486123 -0.407442
v 0.467401 -0.476123 -0.407441
v 0.459545 -0.496119 -0.558493
v 0.494949 -0.496137 -0.217396
v 0.467391 -0.496123 -0.407442
vt 0.779610 0.484521
vt 0.499990 0.499082
vt 0.499990 0.484521
vt 0.284007 0.455116
vt 0.376474 0.440555
vt 0.376474 0.455116
vt 0.999858 0.484521
vt 0.779610 0.499082
vt 0.188308 0.469677
vt 0.284007 0.484237
vt 0.188308 0.484238
vt 0.188308 0.455116
vt 0.284007 0.440555
vt 0.498831 0.115495
vt 0.585056 0.230245
vt 0.493151 0.220071
vt 0.278592 0.115335
vt 0.274190 0.196374
vt 0.000142 0.140849
vt 0.591298 0.115335
vt 0.664534 0.176938
vt 0.276798 0.323473
vt 0.496722 0.230529
vt 0.496722 0.335258
vt 0.284007 0.469677
vt 0.376474 0.484237
vt 0.999858 0.513926
vt 0.779623 0.499366
vt 0.999858 0.499366
vt 0.000142 0.469677
vt 0.092609 0.455116
vt 0.092609 0.469677
vt 0.376474 0.469677
vt 0.481487 0.455116
vt 0.376757 0.440555
vt 0.481487 0.440555
vt 0.496722 0.440271
vt 0.276798 0.347327
vt 0.496722 0.335542
vt 0.092609 0.484238
vt 0.000142 0.387906
vt 0.276798 0.428486
vt 0.188308 0.440555
vt 0.000142 0.455116
vt 0.092609 0.440555
vt 0.220374 0.484522
vt 0.000142 0.499083
vt 0.000142 0.484522
vt 0.220374 0.499082
vt 0.591298 0.000142
vt 0.493151 0.104877
vt 0.498832 0.000302
vt 0.274190 0.081181
vt 0.000142 0.025656
vt 0.278592 0.000142
vt 0.664534 0.061744
vt 0.585057 0.115052
vt 0.000142 0.484237
vt 0.500009 0.513927
vt 0.779623 0.513927
vt 0.000142 0.513927
vt 0.220385 0.499366
vt 0.220385 0.513928
vt 0.500009 0.499367
vt 0.000142 0.282894
vt 0.276798 0.242314
vt 0.999858 0.499083
vt 0.376757 0.455116
vt 0.000142 0.440555
vt 0.000142 0.499366
vn 0.989200 -0.000500 0.146700
vn 0.998300 -0.000500 0.057600
vn 0.998300 -0.000400 0.057600
vn 0.998500 -0.000500 0.055200
vn 0.800000 -0.000400 -0.599900
vn 0.000500 1.000000 0.000000
vn -0.000500 -1.000000 -0.000000
vn 0.998500 -0.000500 0.055100
vn -0.998500 0.000500 0.054300
vn -0.998500 0.000400 0.054300
vn -0.001600 -0.000000 1.000000
vn -0.798100 0.000400 -0.602600
vn -0.998700 0.000400 0.051900
vn -0.989600 0.000500 0.143500
vn -0.989600 0.000400 0.143500
vn -0.998700 0.000500 0.051900
vn -0.798100 0.000300 -0.602600
usemtl None.001
s 1
f 1/1/1 2/2/1 3/3/1
f 4/4/2 5/5/2 6/6/3
f 6/7/4 7/8/4 1/1/4
f 8/9/5 9/10/5 10/11/5
f 11/12/5 12/13/5 4/4/5
f 5/14/6 13/15/6 14/16/6
f 7/17/6 15/18/6 2/19/6
f 13/15/6 12/20/6 16/21/6
f 15/18/6 5/14/6 14/16/6
f 1/22/7 17/23/7 6/24/7
f 18/25/2 19/26/2 9/10/2
f 20/27/8 21/28/4 19/29/8
f 22/30/9 23/31/10 24/32/9
f 18/25/5 11/12/5 4/4/5
f 18/25/2 6/6/3 20/33/3
f 22/34/11 6/35/11 17/36/11
f 8/9/12 23/31/12 11/12/12
f 22/37/6 25/38/6 20/39/6
f 24/32/12 10/11/12 26/40/12
f 27/41/6 25/38/6 28/42/6
f 23/31/12 16/43/12 11/12/12
f 17/44/9 13/45/10 23/31/10
f 29/46/13 14/47/13 17/48/13
f 3/3/14 15/49/15 29/46/15
f 26/50/7 19/51/7 30/52/7
f 21/53/7 31/54/7 32/55/7
f 26/50/7 10/56/7 9/57/7
f 32/55/7 19/51/7 21/53/7
f 24/32/9 30/58/9 22/30/9
f 27/59/1 21/28/1 25/60/1
f 22/61/16 32/62/16 28/63/16
f 28/63/14 31/64/14 27/59/14
f 3/65/7 29/66/7 1/22/7
f 1/1/1 7/8/1 2/2/1
f 4/4/2 12/13/2 5/5/2
f 6/7/4 5/67/4 7/8/4
f 8/9/5 18/25/5 9/10/5
f 11/12/5 16/43/5 12/13/5
f 5/14/6 12/20/6 13/15/6
f 15/18/6 7/17/6 5/14/6
f 1/22/7 29/66/7 17/23/7
f 18/25/2 20/33/3 19/26/2
f 20/27/8 25/60/4 21/28/4
f 22/30/9 17/44/9 23/31/10
f 18/25/5 8/9/5 11/12/5
f 18/25/2 4/4/2 6/6/3
f 22/34/11 20/68/11 6/35/11
f 8/9/12 24/32/12 23/31/12
f 22/37/6 28/42/6 25/38/6
f 24/32/12 8/9/12 10/11/12
f 23/31/12 13/45/17 16/43/12
f 17/44/9 14/69/10 13/45/10
f 29/46/13 15/49/13 14/47/13
f 3/3/14 2/2/14 15/49/15
f 26/50/7 9/57/7 19/51/7
f 32/55/7 30/52/7 19/51/7
f 24/32/9 26/40/9 30/58/9
f 27/59/1 31/64/1 21/28/1
f 22/61/16 30/70/16 32/62/16
f 28/63/14 32/62/14 31/64/14
