# This file uses centimeters as units for non-parametric coordinates.

mtllib TutorialBackWall.mtl
g TutorialWalls:default1
v 4.985796 -0.000218 4.659393
v 4.985796 -0.000218 -4.655211
v 4.985796 3.000218 4.659393
v 4.985796 3.000218 -4.655211
v 4.652325 3.000218 4.659393
v 4.652325 3.000218 -4.655211
v 4.652325 -0.000218 4.659393
v 4.652325 -0.000218 -4.655211
v 4.657303 -0.000218 4.652956
v 4.657303 3.000218 4.652956
v 4.657303 3.000218 4.319486
v 4.657303 -0.000218 4.319486
v 4.657303 -0.000218 -4.313608
v 4.657303 3.000218 -4.313608
v 4.657303 3.000218 -4.647079
v 4.657303 -0.000218 -4.647079
vt 0.788614 0.000000
vt 0.903576 0.000000
vt 0.788614 1.000000
vt 0.903576 1.000000
vt 0.788614 1.000000
vt 0.788614 1.000000
vt 0.903576 1.000000
vt 0.788614 1.000000
vt 0.903576 1.000000
vt 0.788614 0.000000
vt 0.788614 0.000000
vt 0.903576 1.000000
vt 0.903576 0.000000
vt 0.788614 0.000000
vt 0.903576 0.000000
vt 0.903576 0.000000
vt 0.903576 0.000000
vt 0.903576 0.000000
vt 0.903576 1.000000
vt 0.788614 0.000000
vt 0.788614 1.000000
vt 0.788614 1.000000
vt 0.903576 0.000000
vt 0.903576 1.000000
vt 0.903576 0.000000
vt 0.903576 0.000000
vt 0.903576 1.000000
vt 0.903576 0.000000
vt 0.903576 1.000000
vt 0.903576 0.000000
vt 0.903576 0.000000
vt 0.903576 1.000000
vn 1.000000 0.000000 0.000000
vn 1.000000 0.000000 0.000000
vn 1.000000 0.000000 0.000000
vn 1.000000 0.000000 0.000000
vn 1.000000 0.000000 0.000000
vn 1.000000 0.000000 0.000000
vn 0.000000 1.000000 0.000000
vn 0.000000 1.000000 0.000000
vn 0.000000 1.000000 0.000000
vn 0.000000 1.000000 0.000000
vn 0.000000 1.000000 0.000000
vn 0.000000 1.000000 0.000000
vn -1.000000 0.000000 -0.000000
vn -1.000000 0.000000 -0.000000
vn -1.000000 0.000000 -0.000000
vn -1.000000 0.000000 -0.000000
vn -1.000000 0.000000 -0.000000
vn -1.000000 0.000000 -0.000000
vn 0.000000 -1.000000 0.000000
vn 0.000000 -1.000000 0.000000
vn 0.000000 -1.000000 0.000000
vn 0.000000 -1.000000 0.000000
vn 0.000000 -1.000000 0.000000
vn 0.000000 -1.000000 0.000000
vn 0.000000 0.000000 -1.000000
vn 0.000000 0.000000 -1.000000
vn 0.000000 0.000000 -1.000000
vn 0.000000 0.000000 -1.000000
vn 0.000000 0.000000 -1.000000
vn 0.000000 0.000000 -1.000000
vn 0.000000 0.000000 1.000000
vn 0.000000 0.000000 1.000000
vn 0.000000 0.000000 1.000000
vn 0.000000 0.000000 1.000000
vn 0.000000 0.000000 1.000000
vn 0.000000 0.000000 1.000000
vn 1.000000 0.000000 0.000000
vn 1.000000 0.000000 0.000000
vn 1.000000 0.000000 0.000000
vn 1.000000 0.000000 0.000000
vn 1.000000 0.000000 0.000000
vn 1.000000 0.000000 0.000000
vn 1.000000 0.000000 0.000000
vn 1.000000 0.000000 0.000000
vn 1.000000 0.000000 0.000000
vn 1.000000 0.000000 0.000000
vn 1.000000 0.000000 0.000000
vn 1.000000 0.000000 0.000000
s off
g TutorialWalls:Walls_Mesh TutorialWalls:initialShadingGroup TutorialWalls:polySurface5 TutorialWalls:polySurface1
usemtl initialShadingGroup
f 1/1/1 2/2/2 3/3/3
f 3/3/4 2/2/5 4/4/6
f 3/3/7 4/4/8 5/5/9
f 5/6/10 4/4/11 6/7/12
f 5/8/13 6/9/14 7/10/15
f 7/11/16 6/12/17 8/13/18
f 7/14/19 8/15/20 1/1/21
f 1/1/22 8/16/23 2/2/24
f 2/2/25 8/17/26 4/4/27
f 4/4/28 8/18/29 6/19/30
f 7/20/31 1/1/32 5/21/33
f 5/22/34 1/1/35 3/3/36
f 9/23/37 12/25/38 10/24/39
f 10/24/40 12/26/41 11/27/42
f 13/28/43 16/30/44 14/29/45
f 14/29/46 16/31/47 15/32/48
