# This file uses centimeters as units for non-parametric coordinates.

mtllib TutorialCeiling.mtl
g default
v -4.855911 0.000000 -4.538388
v 4.855911 0.000000 -4.538388
v -4.855911 0.000000 4.538388
v 4.855911 0.000000 4.538388
v -4.855911 0.000000 -4.538388
v 4.855911 0.000000 -4.538388
v -4.855911 0.000000 4.538388
v 4.855911 0.000000 4.538388
vt 0.000000 0.000000
vt 1.000000 0.000000
vt 0.000000 1.000000
vt 1.000000 1.000000
vt 0.000000 0.000000
vt 1.000000 0.000000
vt 0.000000 1.000000
vt 1.000000 1.000000
vn 0.000000 -1.000000 0.000000
vn 0.000000 -1.000000 0.000000
vn 0.000000 -1.000000 0.000000
vn 0.000000 -1.000000 0.000000
vn 0.000000 -1.000000 0.000000
vn 0.000000 -1.000000 0.000000
vn 0.000000 -1.000000 0.000000
vn 0.000000 -1.000000 0.000000
vn 0.000000 -1.000000 0.000000
vn 0.000000 -1.000000 0.000000
vn 0.000000 -1.000000 0.000000
vn 0.000000 -1.000000 0.000000
s off
g TutorialCeiling:pPlane2
usemtl initialShadingGroup
f 1/1/1 2/2/2 3/3/3
f 3/3/4 2/2/5 4/4/6
f 5/5/7 6/6/8 7/7/9
f 7/7/10 6/6/11 8/8/12
