# This file uses centimeters as units for non-parametric coordinates.

mtllib UIClone.mtl
g default1
v -0.023517 0.000000 0.023517
v 0.023517 0.000000 0.023517
v -0.023517 0.000000 -0.023517
v 0.023517 0.000000 -0.023517
vt 0.000000 0.000000
vt 1.000000 0.000000
vt 0.000000 1.000000
vt 1.000000 1.000000
vn 0.000000 1.000000 0.000000
vn 0.000000 1.000000 0.000000
vn 0.000000 1.000000 0.000000
vn 0.000000 1.000000 0.000000
s 1
g initialShadingGroup initialShadingGroup1 initialShadingGroup2 pPlane1 polySurface2 polySurface1
f 1/1/1 2/2/2 3/3/3
f 3/3/3 2/2/2 4/4/4
