# This file uses centimeters as units for non-parametric coordinates.

mtllib WallTile.mtl
g default
v -0.250000 0.750000 -0.200000
v -0.163247 0.666479 0.000000
v -0.250000 0.750000 -0.050639
v -0.250000 0.750000 -0.188978
v 0.250000 0.750000 -0.200000
v 0.250000 0.750000 -0.050639
v 0.250000 0.666479 0.000000
v 0.250000 0.750000 -0.188978
v -0.250000 -0.750000 -0.200000
v -0.163247 -0.750000 0.000000
v -0.250000 -0.750000 -0.050639
v 0.250000 -0.750000 -0.200000
v 0.250000 -0.750000 0.000000
v -0.250000 -0.750000 -0.188978
vt 0.666356 0.647512
vt 0.666356 0.333257
vt 0.941402 0.333257
vt 0.941402 0.647512
vt 0.369938 0.332942
vt 0.369938 0.000157
vt 0.830308 0.000157
vt 0.830308 0.332942
vt 0.000157 0.638664
vt 0.332942 0.638664
vt 0.332942 0.675345
vt 0.000157 0.675345
vt 0.000157 0.000157
vt 0.314413 0.000157
vt 0.332942 0.178294
vt 0.000157 0.178294
vt 0.999843 0.057897
vt 0.999843 0.332942
vt 0.666042 0.333257
vt 0.666042 0.666042
vt 0.333257 0.666042
vt 0.333257 0.333257
vt 0.333257 0.332942
vt 0.333257 0.000157
vn 0.000000 0.000000 1.000000
vn 0.000000 0.269103 0.963111
vn -0.261103 0.000000 0.965311
vn -0.199103 0.207703 0.957715
vn 0.000000 1.000000 0.000000
vn -0.707107 0.707107 0.000000
vn 0.000000 0.871322 0.490712
vn -0.627912 0.626612 0.461609
vn -1.000000 0.000000 0.000000
vn -0.707107 0.707107 0.000000
vn -0.707107 0.000000 -0.707107
vn -0.577350 0.577350 -0.577350
vn -0.261103 0.000000 0.965311
vn -0.199103 0.207703 0.957715
vn -0.867226 0.000000 0.497915
vn -0.627912 0.626612 0.461609
vn -0.627912 0.626612 0.461609
vn -0.199103 0.207703 0.957715
vn 0.000000 0.871322 0.490712
vn 0.000000 0.269103 0.963111
vn -0.707107 0.000000 -0.707107
vn -0.577350 0.577350 -0.577350
vn 0.000000 0.000000 -1.000000
vn 0.000000 0.707107 -0.707107
vn -0.867226 0.000000 0.497915
vn -0.627912 0.626612 0.461609
vn -1.000000 0.000000 0.000000
vn -0.707107 0.707107 0.000000
vn 0.000000 0.707107 -0.707107
vn -0.577350 0.577350 -0.577350
vn 0.000000 1.000000 0.000000
vn -0.707107 0.707107 0.000000
s 1
g initialShadingGroup Mesh
f 13/1/1 7/2/2 10/4/3
f 10/4/3 7/2/2 2/3/4
s 2
f 8/5/5 4/6/6 6/8/7
f 6/8/7 4/6/6 3/7/8
s 3
f 14/9/9 4/10/10 9/12/11
f 9/12/11 4/10/10 1/11/12
s 4
f 10/13/13 2/14/14 11/16/15
f 11/16/15 2/14/14 3/15/16
s 5
f 3/7/17 2/17/18 6/8/19
f 6/8/19 2/17/18 7/18/20
s 6
f 9/19/21 1/20/22 12/22/23
f 12/22/23 1/20/22 5/21/24
s 7
f 11/16/25 3/15/26 14/9/27
f 14/9/27 3/15/26 4/10/28
s 8
f 5/23/29 1/24/30 8/5/31
f 8/5/31 1/24/30 4/6/32
g default
v -0.250000 0.750000 -0.200000
v -0.163247 0.666479 0.000000
v -0.250000 0.750000 -0.050639
v -0.250000 0.750000 -0.188978
v 0.250000 0.750000 -0.200000
v 0.250000 0.750000 -0.050639
v 0.250000 0.666479 0.000000
v 0.250000 0.750000 -0.188978
v -0.250000 -0.750000 -0.200000
v -0.163247 -0.750000 0.000000
v -0.250000 -0.750000 -0.050639
v 0.250000 -0.750000 -0.200000
v 0.250000 -0.750000 0.000000
v -0.250000 -0.750000 -0.188978
vt 0.666356 0.647512
vt 0.666356 0.333257
vt 0.941402 0.333257
vt 0.941402 0.647512
vt 0.369938 0.332942
vt 0.369938 0.000157
vt 0.830308 0.000157
vt 0.830308 0.332942
vt 0.000157 0.638664
vt 0.332942 0.638664
vt 0.332942 0.675345
vt 0.000157 0.675345
vt 0.000157 0.000157
vt 0.314413 0.000157
vt 0.332942 0.178294
vt 0.000157 0.178294
vt 0.999843 0.057897
vt 0.999843 0.332942
vt 0.666042 0.333257
vt 0.666042 0.666042
vt 0.333257 0.666042
vt 0.333257 0.333257
vt 0.333257 0.332942
vt 0.333257 0.000157
vn 0.000000 0.000000 1.000000
vn 0.000000 0.269103 0.963111
vn -0.261103 0.000000 0.965311
vn -0.199103 0.207703 0.957715
vn 0.000000 1.000000 0.000000
vn -0.707107 0.707107 0.000000
vn 0.000000 0.871322 0.490712
vn -0.627912 0.626612 0.461609
vn -1.000000 0.000000 0.000000
vn -0.707107 0.707107 0.000000
vn -0.707107 0.000000 -0.707107
vn -0.577350 0.577350 -0.577350
vn -0.261103 0.000000 0.965311
vn -0.199103 0.207703 0.957715
vn -0.867226 0.000000 0.497915
vn -0.627912 0.626612 0.461609
vn -0.627912 0.626612 0.461609
vn -0.199103 0.207703 0.957715
vn 0.000000 0.871322 0.490712
vn 0.000000 0.269103 0.963111
vn -0.707107 0.000000 -0.707107
vn -0.577350 0.577350 -0.577350
vn 0.000000 0.000000 -1.000000
vn 0.000000 0.707107 -0.707107
vn -0.867226 0.000000 0.497915
vn -0.627912 0.626612 0.461609
vn -1.000000 0.000000 0.000000
vn -0.707107 0.707107 0.000000
vn 0.000000 0.707107 -0.707107
vn -0.577350 0.577350 -0.577350
vn 0.000000 1.000000 0.000000
vn -0.707107 0.707107 0.000000
s 1
g Mesh
f 27/25/33 21/26/34 24/28/35
f 24/28/35 21/26/34 16/27/36
s 2
f 22/29/37 18/30/38 20/32/39
f 20/32/39 18/30/38 17/31/40
s 3
f 28/33/41 18/34/42 23/36/43
f 23/36/43 18/34/42 15/35/44
s 4
f 24/37/45 16/38/46 25/40/47
f 25/40/47 16/38/46 17/39/48
s 5
f 17/31/49 16/41/50 20/32/51
f 20/32/51 16/41/50 21/42/52
s 6
f 23/43/53 15/44/54 26/46/55
f 26/46/55 15/44/54 19/45/56
s 7
f 25/40/57 17/39/58 28/33/59
f 28/33/59 17/39/58 18/34/60
s 8
f 19/47/61 15/48/62 22/29/63
f 22/29/63 15/48/62 18/30/64
