# Blender v2.77 (sub 0) OBJ File: 'nthdimensional.blend'
# www.blender.org
mtllib Wall.mtl
o Cube.004
v 1.000000 0.300000 -0.900000
v 1.000000 3.000000 -0.900000
v -1.000000 0.300000 -0.900000
v -1.000000 3.000000 -0.900000
v 1.000000 0.300000 -0.800001
v -1.000000 0.300000 -0.800000
v 1.000000 0.000000 -0.800001
v -1.000000 -0.000000 -0.800000
vt 0.740685 0.876382
vt 0.000119 0.987467
vt 0.000119 0.876382
vt 0.740685 0.839353
vt 0.000119 0.839355
vt 0.999881 0.000119
vt 0.000119 0.740683
vt 0.000119 0.000119
vt 0.740685 0.987467
vt 0.999881 0.740684
vn 0.000000 0.000000 1.000000
vn -0.000000 1.000000 0.000000
usemtl Material
s off
f 6/1/1 7/2/1 5/3/1
f 3/4/2 5/3/2 1/5/2
f 3/6/1 2/7/1 4/8/1
f 6/1/1 8/9/1 7/2/1
f 3/4/2 6/1/2 5/3/2
f 3/6/1 1/10/1 2/7/1
