# This file uses centimeters as units for non-parametric coordinates.

mtllib WallTileHalf.mtl
g default
v 0.406414 -0.013587 0.000000
v 0.406414 -0.013587 -0.826139
v 0.000000 -0.013587 -0.999645
v 0.305136 -0.013587 -0.999645
v 0.305136 1.272127 -0.999645
v 0.305136 0.843556 -0.999645
v 0.305136 0.414984 -0.999645
v 0.406414 1.272128 0.000000
v 0.406414 1.272128 -0.826139
v 0.406414 -0.013587 0.826139
v 0.000000 -0.013587 0.999645
v 0.305136 -0.013587 0.999645
v 0.305136 1.272127 0.999645
v 0.305136 0.843556 0.999645
v 0.305136 0.414984 0.999645
v 0.406414 1.272128 0.826139
v 0.000000 1.272127 -0.999645
v 0.000001 1.272128 0.000000
v 0.000000 1.272127 0.999645
v -0.406414 -0.013587 0.000000
v -0.406414 -0.013587 -0.826139
v -0.305136 -0.013587 -0.999645
v -0.305136 1.272127 -0.999645
v -0.305136 0.843556 -0.999645
v -0.305136 0.414984 -0.999645
v -0.406414 1.272128 -0.000000
v -0.406414 1.272128 -0.826139
v -0.406414 -0.013587 0.826139
v -0.305136 -0.013587 0.999645
v -0.305136 1.272127 0.999645
v -0.305136 0.843556 0.999645
v -0.305136 0.414984 0.999645
v -0.406414 1.272128 0.826139
v 0.000000 1.272127 -0.999645
v -0.000001 1.272128 -0.000000
v 0.000000 1.272127 0.999645
vt 0.666716 0.647506
vt 0.000157 0.178294
vt 0.000157 0.000157
vt 0.941402 0.647512
vt 0.228112 0.178294
vt 0.095238 0.178294
vt 0.047698 0.178294
vt 0.751917 0.500422
vt 0.232581 0.000157
vt 0.941402 0.500421
vt 0.000157 0.676110
vt 0.514989 0.340439
vt 0.514989 0.503966
vt 0.494941 0.538313
vt 0.228112 0.178294
vt 0.095238 0.178294
vt 0.047698 0.178294
vt 0.000157 0.178294
vt 0.941402 0.500421
vt 0.751917 0.500422
vt 0.666716 0.647506
vt 0.941402 0.647512
vt 0.232581 0.000157
vt 0.000157 0.000157
vt 0.000157 0.676110
vt 0.514989 0.340439
vt 0.514989 0.503966
vt 0.494941 0.538313
vt 0.434537 0.538313
vt 0.228111 0.676110
vt 0.434537 0.340434
vt 0.434537 0.340434
vt 0.228111 0.676110
vt 0.434537 0.538313
vt 0.941402 0.500421
vt 0.751917 0.500422
vt 0.666716 0.647506
vt 0.941402 0.647512
vt 0.228112 0.178294
vt 0.232581 0.000157
vt 0.000157 0.000157
vt 0.000157 0.178294
vt 0.047698 0.178294
vt 0.095238 0.178294
vt 0.000157 0.676110
vt 0.228111 0.676110
vt 0.000157 0.676110
vt 0.000157 0.178294
vt 0.047698 0.178294
vt 0.095238 0.178294
vt 0.228112 0.178294
vt 0.228111 0.676110
vt 0.941402 0.500421
vt 0.941402 0.647512
vt 0.666716 0.647506
vt 0.751917 0.500422
vt 0.000157 0.000157
vt 0.232581 0.000157
vt 0.514989 0.340439
vt 0.434537 0.340434
vt 0.434537 0.538313
vt 0.494941 0.538313
vt 0.514989 0.503966
vt 0.494941 0.538313
vt 0.434537 0.538313
vt 0.434537 0.340434
vt 0.514989 0.340439
vt 0.514989 0.503966
vn 1.000000 -0.000000 0.000000
vn 1.000000 -0.000000 0.000000
vn 1.000000 -0.000000 0.000000
vn 1.000000 -0.000000 0.000000
vn 0.863636 -0.000001 -0.504117
vn 0.863635 -0.000000 -0.504117
vn 0.863635 -0.000000 -0.504117
vn 0.863635 -0.000000 -0.504118
vn 0.863635 -0.000000 -0.504117
vn 0.863635 -0.000000 -0.504118
vn 0.000000 0.000000 -1.000000
vn -0.000000 0.000000 -1.000000
vn -0.000000 -0.000000 -1.000000
vn -0.000000 -0.000000 -1.000000
vn -0.000000 -0.000000 -1.000000
vn -0.000000 0.000000 -1.000000
vn 0.000000 0.000000 1.000000
vn -0.000000 0.000000 1.000000
vn -0.000000 -0.000000 1.000000
vn -0.000002 -0.000000 1.000000
vn -0.000001 -0.000000 1.000000
vn -0.000000 0.000000 1.000000
vn 1.000000 -0.000000 0.000000
vn 1.000000 -0.000000 -0.000000
vn 0.863636 -0.000001 0.504117
vn 0.863635 -0.000000 0.504117
vn 0.863635 -0.000000 0.504117
vn 0.863635 -0.000000 0.504118
vn 0.863635 -0.000000 0.504117
vn 0.863635 -0.000000 0.504118
vn 0.000000 1.000000 0.000000
vn -0.000001 1.000000 -0.000000
vn -0.000002 1.000000 0.000001
vn -0.000002 1.000000 0.000002
vn -0.000003 1.000000 0.000002
vn -0.000002 1.000000 -0.000002
vn -0.000003 1.000000 -0.000002
vn -0.000002 1.000000 -0.000001
vn -1.000000 -0.000000 0.000000
vn -1.000000 -0.000000 0.000000
vn -1.000000 -0.000000 0.000000
vn -1.000000 -0.000000 0.000000
vn -0.863636 -0.000001 -0.504117
vn -0.863635 -0.000000 -0.504117
vn -0.863635 -0.000000 -0.504117
vn -0.863635 -0.000000 -0.504118
vn -0.863635 -0.000000 -0.504117
vn -0.863635 -0.000000 -0.504118
vn 0.000000 0.000000 -1.000000
vn 0.000001 -0.000000 -1.000000
vn 0.000000 0.000000 -1.000000
vn 0.000001 -0.000000 -1.000000
vn 0.000001 -0.000000 -1.000000
vn 0.000000 0.000000 -1.000000
vn 0.000000 0.000000 1.000000
vn 0.000000 -0.000000 1.000000
vn 0.000000 0.000000 1.000000
vn 0.000001 -0.000000 1.000000
vn 0.000000 -0.000000 1.000000
vn 0.000000 0.000000 1.000000
vn -1.000000 -0.000000 0.000000
vn -1.000000 -0.000000 -0.000000
vn -0.863636 -0.000001 0.504117
vn -0.863635 -0.000000 0.504117
vn -0.863635 -0.000000 0.504117
vn -0.863635 -0.000000 0.504118
vn -0.863635 -0.000000 0.504117
vn -0.863635 -0.000000 0.504118
vn 0.000000 1.000000 0.000000
vn 0.000002 1.000000 0.000001
vn 0.000001 1.000000 0.000000
vn 0.000002 1.000000 0.000002
vn 0.000003 1.000000 0.000002
vn 0.000002 1.000000 -0.000001
vn 0.000002 1.000000 -0.000002
vn 0.000003 1.000000 -0.000002
s 1
g WallCombined:Mesh1
usemtl lambert3SG
f 9/10/1 8/8/2 2/4/3
f 2/4/3 8/8/2 1/1/4
s 2
f 5/5/5 9/9/6 6/6/7
f 9/9/6 2/3/8 6/6/7
f 6/6/7 2/3/8 7/7/9
f 2/3/8 4/2/10 7/7/9
s 3
f 4/2/11 3/11/12 7/7/13
f 3/11/12 17/30/14 7/7/13
f 7/7/13 17/30/14 6/6/15
f 17/30/14 5/5/16 6/6/15
s 4
f 11/25/17 12/18/18 19/33/19
f 12/18/18 15/17/20 19/33/19
f 15/17/20 14/16/21 19/33/19
f 14/16/21 13/15/22 19/33/19
s 1
f 16/19/23 10/22/24 8/20/2
f 8/20/2 10/22/24 1/21/4
s 5
f 13/15/25 14/16/26 16/23/27
f 16/23/27 14/16/26 10/24/28
f 14/16/26 15/17/29 10/24/28
f 15/17/29 12/18/30 10/24/28
s 6
f 8/26/31 18/32/32 16/27/33
f 19/34/34 13/28/35 18/32/32
f 18/32/32 13/28/35 16/27/33
f 17/29/36 18/31/32 5/14/37
f 5/14/37 18/31/32 9/13/38
f 18/31/32 8/12/31 9/13/38
s 8
f 27/35/39 21/38/40 26/36/41
f 26/36/41 21/38/40 20/37/42
s 9
f 23/39/43 24/44/44 27/40/45
f 27/40/45 24/44/44 21/41/46
f 24/44/44 25/43/47 21/41/46
f 25/43/47 22/42/48 21/41/46
s 10
f 22/42/49 25/43/50 3/45/51
f 3/45/51 25/43/50 34/46/52
f 25/43/50 24/44/53 34/46/52
f 24/44/53 23/39/54 34/46/52
s 11
f 11/47/55 36/52/56 29/48/57
f 29/48/57 36/52/56 32/49/58
f 32/49/58 36/52/56 31/50/59
f 36/52/56 30/51/60 31/50/59
s 8
f 33/53/61 26/56/41 28/54/62
f 28/54/62 26/56/41 20/55/42
s 12
f 30/51/63 33/58/64 31/50/65
f 33/58/64 28/57/66 31/50/65
f 31/50/65 28/57/66 32/49/67
f 28/57/66 29/48/68 32/49/67
s 13
f 26/59/69 33/63/70 35/60/71
f 36/61/72 35/60/71 30/62/73
f 33/63/70 30/62/73 35/60/71
f 26/67/69 35/66/71 27/68/74
f 34/65/75 23/64/76 35/66/71
f 23/64/76 27/68/74 35/66/71
g default
v 0.406414 -0.013587 0.000000
v 0.406414 -0.013587 -0.826139
v 0.000000 -0.013587 -0.999645
v 0.305136 -0.013587 -0.999645
v 0.305136 1.272127 -0.999645
v 0.305136 0.843556 -0.999645
v 0.305136 0.414984 -0.999645
v 0.406414 1.272128 0.000000
v 0.406414 1.272128 -0.826139
v 0.406414 -0.013587 0.826139
v 0.000000 -0.013587 0.999645
v 0.305136 -0.013587 0.999645
v 0.305136 1.272127 0.999645
v 0.305136 0.843556 0.999645
v 0.305136 0.414984 0.999645
v 0.406414 1.272128 0.826139
v 0.000000 1.272127 -0.999645
v 0.000001 1.272128 0.000000
v 0.000000 1.272127 0.999645
v -0.406414 -0.013587 0.000000
v -0.406414 -0.013587 -0.826139
v -0.305136 -0.013587 -0.999645
v -0.305136 1.272127 -0.999645
v -0.305136 0.843556 -0.999645
v -0.305136 0.414984 -0.999645
v -0.406414 1.272128 -0.000000
v -0.406414 1.272128 -0.826139
v -0.406414 -0.013587 0.826139
v -0.305136 -0.013587 0.999645
v -0.305136 1.272127 0.999645
v -0.305136 0.843556 0.999645
v -0.305136 0.414984 0.999645
v -0.406414 1.272128 0.826139
v 0.000000 1.272127 -0.999645
v -0.000001 1.272128 -0.000000
v 0.000000 1.272127 0.999645
vt 0.666716 0.647506
vt 0.000157 0.178294
vt 0.000157 0.000157
vt 0.941402 0.647512
vt 0.228112 0.178294
vt 0.095238 0.178294
vt 0.047698 0.178294
vt 0.751917 0.500422
vt 0.232581 0.000157
vt 0.941402 0.500421
vt 0.000157 0.676110
vt 0.514989 0.340439
vt 0.514989 0.503966
vt 0.494941 0.538313
vt 0.228112 0.178294
vt 0.095238 0.178294
vt 0.047698 0.178294
vt 0.000157 0.178294
vt 0.941402 0.500421
vt 0.751917 0.500422
vt 0.666716 0.647506
vt 0.941402 0.647512
vt 0.232581 0.000157
vt 0.000157 0.000157
vt 0.000157 0.676110
vt 0.514989 0.340439
vt 0.514989 0.503966
vt 0.494941 0.538313
vt 0.434537 0.538313
vt 0.228111 0.676110
vt 0.434537 0.340434
vt 0.434537 0.340434
vt 0.228111 0.676110
vt 0.434537 0.538313
vt 0.941402 0.500421
vt 0.751917 0.500422
vt 0.666716 0.647506
vt 0.941402 0.647512
vt 0.228112 0.178294
vt 0.232581 0.000157
vt 0.000157 0.000157
vt 0.000157 0.178294
vt 0.047698 0.178294
vt 0.095238 0.178294
vt 0.000157 0.676110
vt 0.228111 0.676110
vt 0.000157 0.676110
vt 0.000157 0.178294
vt 0.047698 0.178294
vt 0.095238 0.178294
vt 0.228112 0.178294
vt 0.228111 0.676110
vt 0.941402 0.500421
vt 0.941402 0.647512
vt 0.666716 0.647506
vt 0.751917 0.500422
vt 0.000157 0.000157
vt 0.232581 0.000157
vt 0.514989 0.340439
vt 0.434537 0.340434
vt 0.434537 0.538313
vt 0.494941 0.538313
vt 0.514989 0.503966
vt 0.494941 0.538313
vt 0.434537 0.538313
vt 0.434537 0.340434
vt 0.514989 0.340439
vt 0.514989 0.503966
vn 1.000000 -0.000000 0.000000
vn 1.000000 -0.000000 0.000000
vn 1.000000 -0.000000 0.000000
vn 1.000000 -0.000000 0.000000
vn 0.863636 -0.000001 -0.504117
vn 0.863635 -0.000000 -0.504117
vn 0.863635 -0.000000 -0.504117
vn 0.863635 -0.000000 -0.504118
vn 0.863635 -0.000000 -0.504117
vn 0.863635 -0.000000 -0.504118
vn 0.000000 0.000000 -1.000000
vn -0.000000 0.000000 -1.000000
vn -0.000000 -0.000000 -1.000000
vn -0.000000 -0.000000 -1.000000
vn -0.000000 -0.000000 -1.000000
vn -0.000000 0.000000 -1.000000
vn 0.000000 0.000000 1.000000
vn -0.000000 0.000000 1.000000
vn -0.000000 -0.000000 1.000000
vn -0.000002 -0.000000 1.000000
vn -0.000001 -0.000000 1.000000
vn -0.000000 0.000000 1.000000
vn 1.000000 -0.000000 0.000000
vn 1.000000 -0.000000 -0.000000
vn 0.863636 -0.000001 0.504117
vn 0.863635 -0.000000 0.504117
vn 0.863635 -0.000000 0.504117
vn 0.863635 -0.000000 0.504118
vn 0.863635 -0.000000 0.504117
vn 0.863635 -0.000000 0.504118
vn 0.000000 1.000000 0.000000
vn -0.000001 1.000000 -0.000000
vn -0.000002 1.000000 0.000001
vn -0.000002 1.000000 0.000002
vn -0.000003 1.000000 0.000002
vn -0.000002 1.000000 -0.000002
vn -0.000003 1.000000 -0.000002
vn -0.000002 1.000000 -0.000001
vn -1.000000 -0.000000 0.000000
vn -1.000000 -0.000000 0.000000
vn -1.000000 -0.000000 0.000000
vn -1.000000 -0.000000 0.000000
vn -0.863636 -0.000001 -0.504117
vn -0.863635 -0.000000 -0.504117
vn -0.863635 -0.000000 -0.504117
vn -0.863635 -0.000000 -0.504118
vn -0.863635 -0.000000 -0.504117
vn -0.863635 -0.000000 -0.504118
vn 0.000000 0.000000 -1.000000
vn 0.000001 -0.000000 -1.000000
vn 0.000000 0.000000 -1.000000
vn 0.000001 -0.000000 -1.000000
vn 0.000001 -0.000000 -1.000000
vn 0.000000 0.000000 -1.000000
vn 0.000000 0.000000 1.000000
vn 0.000000 -0.000000 1.000000
vn 0.000000 0.000000 1.000000
vn 0.000001 -0.000000 1.000000
vn 0.000000 -0.000000 1.000000
vn 0.000000 0.000000 1.000000
vn -1.000000 -0.000000 0.000000
vn -1.000000 -0.000000 -0.000000
vn -0.863636 -0.000001 0.504117
vn -0.863635 -0.000000 0.504117
vn -0.863635 -0.000000 0.504117
vn -0.863635 -0.000000 0.504118
vn -0.863635 -0.000000 0.504117
vn -0.863635 -0.000000 0.504118
vn 0.000000 1.000000 0.000000
vn 0.000002 1.000000 0.000001
vn 0.000001 1.000000 0.000000
vn 0.000002 1.000000 0.000002
vn 0.000003 1.000000 0.000002
vn 0.000002 1.000000 -0.000001
vn 0.000002 1.000000 -0.000002
vn 0.000003 1.000000 -0.000002
s 1
g WallCombined:Mesh1
f 45/78/77 44/76/78 38/72/79
f 38/72/79 44/76/78 37/69/80
s 2
f 41/73/81 45/77/82 42/74/83
f 45/77/82 38/71/84 42/74/83
f 42/74/83 38/71/84 43/75/85
f 38/71/84 40/70/86 43/75/85
s 3
f 40/70/87 39/79/88 43/75/89
f 39/79/88 53/98/90 43/75/89
f 43/75/89 53/98/90 42/74/91
f 53/98/90 41/73/92 42/74/91
s 4
f 47/93/93 48/86/94 55/101/95
f 48/86/94 51/85/96 55/101/95
f 51/85/96 50/84/97 55/101/95
f 50/84/97 49/83/98 55/101/95
s 1
f 52/87/99 46/90/100 44/88/78
f 44/88/78 46/90/100 37/89/80
s 5
f 49/83/101 50/84/102 52/91/103
f 52/91/103 50/84/102 46/92/104
f 50/84/102 51/85/105 46/92/104
f 51/85/105 48/86/106 46/92/104
s 6
f 44/94/107 54/100/108 52/95/109
f 55/102/110 49/96/111 54/100/108
f 54/100/108 49/96/111 52/95/109
f 53/97/112 54/99/108 41/82/113
f 41/82/113 54/99/108 45/81/114
f 54/99/108 44/80/107 45/81/114
s 8
f 63/103/115 57/106/116 62/104/117
f 62/104/117 57/106/116 56/105/118
s 9
f 59/107/119 60/112/120 63/108/121
f 63/108/121 60/112/120 57/109/122
f 60/112/120 61/111/123 57/109/122
f 61/111/123 58/110/124 57/109/122
s 10
f 58/110/125 61/111/126 39/113/127
f 39/113/127 61/111/126 70/114/128
f 61/111/126 60/112/129 70/114/128
f 60/112/129 59/107/130 70/114/128
s 11
f 47/115/131 72/120/132 65/116/133
f 65/116/133 72/120/132 68/117/134
f 68/117/134 72/120/132 67/118/135
f 72/120/132 66/119/136 67/118/135
s 8
f 69/121/137 62/124/117 64/122/138
f 64/122/138 62/124/117 56/123/118
s 12
f 66/119/139 69/126/140 67/118/141
f 69/126/140 64/125/142 67/118/141
f 67/118/141 64/125/142 68/117/143
f 64/125/142 65/116/144 68/117/143
s 13
f 62/127/145 69/131/146 71/128/147
f 72/129/148 71/128/147 66/130/149
f 69/131/146 66/130/149 71/128/147
f 62/135/145 71/134/147 63/136/150
f 70/133/151 59/132/152 71/134/147
f 59/132/152 63/136/150 71/134/147
