# Blender v2.77 (sub 0) OBJ File: ''
# www.blender.org
mtllib WallCombined.mtl
o WallTile:Mesh1
v 0.000355 -0.013585 0.101277
v -0.000425 2.819373 0.101278
v -0.826139 2.819373 0.101278
v -0.826139 -0.013585 0.101277
v 0.000355 2.986415 -0.276678
v -0.999645 2.986415 -0.276678
v -0.999645 2.986415 -0.000000
v -0.000425 2.986415 -0.000000
v -0.999645 -0.013585 -0.276679
v -0.999645 2.986415 -0.298722
v -0.999645 -0.013585 -0.298723
v -0.999645 -0.013585 -0.000001
v 0.000355 2.986415 -0.298722
v 0.000355 -0.013585 -0.298723
v 0.826069 -0.013585 0.101277
v 0.826069 2.819373 0.101278
v 0.999575 2.986415 -0.000000
v 0.999575 2.986415 -0.276678
v 0.999575 -0.013585 -0.276679
v 0.999575 -0.013585 -0.298723
v 0.999575 2.986415 -0.298722
v 0.999575 -0.013585 -0.000001
vt 0.666696 0.333265
vt 0.941402 0.647512
vt 0.666457 0.647506
vt 0.369938 0.000157
vt 0.829629 0.332639
vt 0.370190 0.332903
vt 0.332942 0.638664
vt 0.000157 0.675345
vt 0.000157 0.638664
vt 0.314413 0.000157
vt 0.000157 0.178294
vt 0.000157 0.000157
vt 0.999843 0.057897
vt 0.999039 0.332617
vt 0.666042 0.666042
vt 0.333340 0.333263
vt 0.666042 0.333257
vt 0.332942 0.178294
vt 0.333257 0.000157
vt 0.341629 0.332861
vt 0.666716 0.647506
vt 0.941402 0.333257
vt 0.666436 0.333265
vt 0.370190 0.332643
vt 0.830308 0.000157
vt 0.369938 0.000157
vt 0.000157 0.675345
vt 0.332942 0.638664
vt 0.000157 0.638664
vt 0.000157 0.178294
vt 0.314413 0.000157
vt 0.000157 0.000157
vt 0.829628 0.332898
vt 0.999843 0.057897
vt 0.333599 0.333263
vt 0.666042 0.666042
vt 0.666042 0.333257
vt 0.332942 0.178294
vt 0.333257 0.000157
vt 0.341626 0.332602
vt 0.941402 0.333257
vt 0.830308 0.000157
vt 0.332942 0.675345
vt 0.333324 0.666035
vt 0.941402 0.647512
vt 0.332942 0.675345
vt 0.999039 0.332877
vt 0.333583 0.666035
vn 0.000000 0.269200 0.963100
vn -0.261100 -0.000000 0.965300
vn 0.000000 -0.000000 1.000000
vn -0.707100 0.707100 -0.000000
vn 0.000000 0.871300 0.490700
vn 0.000000 1.000000 -0.000000
vn -0.707100 0.000000 -0.707100
vn -1.000000 -0.000000 0.000000
vn -0.199100 0.207700 0.957700
vn -0.867200 -0.000000 0.497900
vn -0.577400 0.577400 -0.577400
vn 0.000000 0.000000 -1.000000
vn -0.627900 0.626600 0.461600
vn 0.000000 0.707100 -0.707100
vn 0.199100 0.207700 0.957700
vn 0.627900 0.626600 0.461600
vn 0.707100 0.707100 0.000000
vn 0.707100 0.000000 -0.707100
vn 1.000000 0.000000 0.000000
vn 0.867200 -0.000000 0.497900
vn 0.261100 -0.000000 0.965300
vn 0.577400 0.577400 -0.577400
usemtl lambert6SG
s 1
f 2/1/1 4/2/2 1/3/3
f 6/4/4 8/5/5 5/6/6
f 6/7/4 11/8/7 9/9/8
f 3/10/9 12/11/10 4/12/2
f 8/5/5 3/13/9 2/14/1
f 10/15/11 14/16/12 11/17/7
f 7/18/13 9/9/8 12/11/10
f 10/19/11 5/6/6 13/20/14
f 1/21/3 16/22/15 2/23/1
f 5/24/6 17/25/16 18/26/17
f 20/27/18 18/28/17 19/29/19
f 22/30/20 16/31/15 15/32/21
f 8/33/5 16/34/15 17/25/16
f 14/35/12 21/36/22 20/37/18
f 19/29/19 17/38/16 22/30/20
f 5/24/6 21/39/22 13/40/14
f 2/1/1 3/41/9 4/2/2
f 6/4/4 7/42/13 8/5/5
f 6/7/4 10/43/11 11/8/7
f 3/10/9 7/18/13 12/11/10
f 8/5/5 7/42/13 3/13/9
f 10/15/11 13/44/14 14/16/12
f 7/18/13 6/7/4 9/9/8
f 10/19/11 6/4/4 5/6/6
f 1/21/3 15/45/21 16/22/15
f 5/24/6 8/33/5 17/25/16
f 20/27/18 21/46/22 18/28/17
f 22/30/20 17/38/16 16/31/15
f 8/33/5 2/47/1 16/34/15
f 14/35/12 13/48/14 21/36/22
f 19/29/19 18/28/17 17/38/16
f 5/24/6 18/26/17 21/39/22
